<svg width="494" height="494" viewBox="0 0 494 494" fill="none" xmlns="http://www.w3.org/2000/svg">
<path opacity="0.3" d="M384.967 67.6312C384.967 82.3335 373.088 94.3307 358.268 94.3307C343.566 94.3307 331.568 82.4512 331.568 67.6312C331.568 52.9288 343.566 40.9316 358.268 40.9316C373.088 41.0493 384.967 52.9288 384.967 67.6312Z" fill="white"/>
<path d="M426.371 462.36C426.371 466.83 344.979 470.476 244.532 470.476C144.086 470.476 62.6934 466.83 62.6934 462.36C62.6934 457.891 144.086 454.245 244.532 454.245C344.979 454.245 426.371 457.891 426.371 462.36Z" fill="#49241D"/>
<path d="M346.388 110.091H338.743C336.508 110.091 334.744 108.327 334.744 106.092V101.505H350.505V106.092C350.387 108.327 348.623 110.091 346.388 110.091Z" fill="#AF4646"/>
<path d="M358.15 102.093H327.451C324.511 102.093 322.041 99.6235 322.041 96.683V44.6954C322.041 41.7549 324.511 39.2849 327.451 39.2849H358.15C361.091 39.2849 363.561 41.7549 363.561 44.6954V96.5654C363.561 99.6235 361.091 102.093 358.15 102.093Z" fill="#D3D1C5"/>
<path d="M322.041 69.8657V96.5652C322.041 99.5057 324.511 101.976 327.451 101.976H358.15C361.091 101.976 363.561 99.5057 363.561 96.5652V69.8657H322.041Z" fill="#CECFF8"/>
<path d="M431.426 27.2876H325.922V31.4043H431.426V27.2876Z" fill="#E6317D"/>
<path d="M385.67 31.5217H371.674V100.211H385.67V31.5217Z" fill="#E08080"/>
<path d="M372.5 98.9175H384.967C387.437 98.9175 389.437 100.917 389.437 103.387V109.503C389.437 111.973 387.437 113.973 384.967 113.973H372.5C370.03 113.973 368.03 111.973 368.03 109.503V103.505C367.912 101.035 370.03 98.9175 372.5 98.9175Z" fill="#E6317D"/>
<path d="M381.91 114.208H375.441V429.427H381.91V114.208Z" fill="#F4E9D3"/>
<path d="M360.034 73.512H325.336V97.9767H360.034V73.512Z" fill="#E6317D"/>
<path d="M353.798 48.1062H332.744V65.9843H353.798V48.1062Z" fill="#CECFF8"/>
<path d="M333.098 39.285V31.7573C333.098 27.8759 334.744 24.7002 336.861 24.7002H348.859C350.976 24.7002 352.622 27.8759 352.622 31.7573V39.4026" stroke="#D3D1C5" stroke-width="2.6687" stroke-miterlimit="10" stroke-linecap="round"/>
<path d="M385.67 31.5217H371.674V36.9322H385.67V31.5217Z" fill="#BA5050"/>
<path d="M381.91 114.208H375.441V117.854H381.91V114.208Z" fill="#B7A991"/>
<path d="M340.391 449.775V438.484C340.391 434.132 343.919 430.721 348.153 430.721H409.315C413.667 430.721 417.078 434.249 417.078 438.484V448.717" stroke="#F4E9D3" stroke-width="3.797" stroke-miterlimit="10"/>
<path d="M417.431 463.184C422.368 463.184 426.37 459.182 426.37 454.245C426.37 449.308 422.368 445.306 417.431 445.306C412.494 445.306 408.492 449.308 408.492 454.245C408.492 459.182 412.494 463.184 417.431 463.184Z" fill="#723C2E"/>
<path d="M417.431 459.42C420.224 459.42 422.488 457.156 422.488 454.362C422.488 451.569 420.224 449.305 417.431 449.305C414.637 449.305 412.373 451.569 412.373 454.362C412.373 457.156 414.637 459.42 417.431 459.42Z" fill="#F4E9D3"/>
<path d="M349.446 454.245C349.446 459.185 345.447 463.184 340.507 463.184C335.567 463.184 331.568 459.185 331.568 454.245C331.568 449.305 335.567 445.306 340.507 445.306C345.447 445.306 349.446 449.305 349.446 454.245Z" fill="#723C2E"/>
<path d="M345.564 454.362C345.564 457.185 343.33 459.42 340.507 459.42C337.684 459.42 335.449 457.185 335.449 454.362C335.449 451.539 337.684 449.304 340.507 449.304C343.33 449.304 345.564 451.539 345.564 454.362Z" fill="#F4E9D3"/>
<path d="M348.974 27.2876H325.686V31.4043H348.974V27.2876Z" fill="#E6317D"/>
<path d="M329.049 31.5029V16.2124H324.932V31.5029H329.049Z" fill="#E6317D"/>
<path d="M431.461 31.5366V16.2461H427.344V31.5366H431.461Z" fill="#E6317D"/>
<path d="M345.328 78.5693H339.918V93.0365H345.328V78.5693Z" fill="#CECFF8"/>
<path d="M349.875 88.3704V82.96H335.408V88.3704H349.875Z" fill="#CECFF8"/>
<path d="M145.848 419.43L151.729 445.306H245.353V419.43H145.848Z" fill="#2B2665"/>
<path d="M162.902 445.306L165.49 467.183H171.724L174.076 445.306H162.902Z" fill="#2B2665"/>
<path d="M145.848 419.43H245.353V423.429H146.789L145.848 419.43Z" fill="#2B2665"/>
<path d="M162.902 445.306H174.076L173.488 450.364H163.49L162.902 445.306Z" fill="#2B2665"/>
<path d="M344.742 419.43L338.861 445.306H245.354V419.43H344.742Z" fill="#2B2665"/>
<path d="M327.687 445.306L325.1 467.183H318.866L316.514 445.306H327.687Z" fill="#2B2665"/>
<path d="M344.742 419.43H245.354V423.429H343.918L344.742 419.43Z" fill="#2B2665"/>
<path d="M327.687 445.306H316.514L317.102 450.364H327.099L327.687 445.306Z" fill="#2B2665"/>
<path d="M323.805 300.399H166.783V157.492C166.783 145.612 176.428 135.85 188.425 135.85H302.163C314.042 135.85 323.805 145.495 323.805 157.492V300.399Z" fill="#CECFF8"/>
<path d="M197.366 243.001H171.725V419.43H197.366V243.001Z" fill="#ABACDE"/>
<path d="M171.724 419.43H133.145V255.233C133.145 250.529 136.908 246.765 141.613 246.765H171.724V419.43Z" fill="#CECFF8"/>
<path d="M293.218 419.409H318.859V242.98H293.218V419.409Z" fill="#ABACDE"/>
<path d="M318.865 419.43H357.444V255.233C357.444 250.529 353.68 246.765 348.976 246.765H318.865V419.43Z" fill="#CECFF8"/>
<path d="M318.866 300.399H171.725V419.43H318.866V300.399Z" fill="#ABACDE"/>
<path d="M318.865 419.43V300.399" stroke="#D3D1C5" stroke-width="0.6" stroke-miterlimit="10"/>
<path d="M171.725 419.43V300.399" stroke="#D3D1C5" stroke-width="0.6" stroke-miterlimit="10"/>
<path d="M304.043 346.506C304.043 346.506 294.986 359.091 260.759 353.68C226.532 348.27 197.716 328.98 178.896 344.271C209.83 307.103 286.047 308.632 286.047 308.632C286.047 308.632 303.102 333.568 304.043 346.506Z" fill="#933737"/>
<path d="M253.117 466.595C253.117 466.595 253.47 471.417 256.881 474.358C260.174 477.298 269.466 480.474 273.818 477.651C278.288 474.828 288.05 454.245 292.049 442.954C296.166 431.662 294.872 424.605 288.873 420.841C282.522 420.841 253.352 459.773 253.117 466.595Z" fill="#AF4646"/>
<path d="M254.294 458.597C254.294 458.597 251.001 466.124 254.882 469.653C258.764 473.181 267.585 476.71 271.819 473.769C276.054 470.829 286.404 444.835 289.345 434.72C292.285 424.605 291.226 421.429 286.522 419.547C281.935 417.665 275.583 418.018 275.583 418.018L254.294 458.597Z" fill="#2B2665"/>
<path d="M190.307 310.514C190.307 310.514 220.064 367.56 239.001 395.67C257.938 423.664 257.938 442.13 255.703 448.599C253.468 454.95 249.822 461.89 256.644 466.595C263.583 471.3 269.229 473.534 273.346 466.595C277.58 459.655 281.226 443.424 284.402 436.367C287.578 429.192 286.872 421.076 277.227 414.96C267.112 408.02 253.115 374.617 248.999 360.62C244.764 346.623 237.237 312.631 237.237 312.631C237.237 312.631 209.479 301.458 190.307 310.514Z" fill="#FEAA9F"/>
<path d="M234.416 388.849L250.765 366.031C250.059 364.031 249.471 362.149 249 360.503C244.766 346.506 237.238 312.514 237.238 312.514C237.238 312.514 236.297 312.161 234.533 311.573L199.953 328.746C209.01 345.565 223.006 370.736 234.416 388.849Z" fill="#ED968B"/>
<path d="M264.055 470.476C264.055 470.476 260.644 465.889 264.055 461.772" stroke="#38110E" stroke-width="0.4024" stroke-miterlimit="10"/>
<path d="M258.995 468.006C258.995 468.006 256.76 464.007 259.7 459.891" stroke="#38110E" stroke-width="0.4024" stroke-miterlimit="10"/>
<path d="M282.166 442.365C281.225 445.188 280.284 448.364 279.225 451.422C273.109 443.659 262.406 444.6 256.172 446.012C256.525 444.13 256.642 441.777 256.407 438.837C265.934 434.602 276.99 439.425 282.166 442.365Z" fill="#EFEEE4"/>
<path d="M267.584 418.606C267.584 418.606 268.525 423.546 274.406 423.429" stroke="#38110E" stroke-width="0.4024" stroke-miterlimit="10"/>
<path d="M207.362 202.07C207.362 202.07 203.245 239.237 197.834 244.53C192.424 249.823 176.663 251.94 176.663 251.94C176.663 251.94 178.427 260.526 174.546 262.055C170.664 263.584 170.664 259.115 169.135 253.704C168.9 252.999 168.782 252.411 168.547 251.94C167.724 249.352 164.431 248.647 162.666 250.764C161.255 252.411 159.961 254.41 159.726 256.057C159.138 259.938 157.609 267.701 152.316 262.408C148.199 267.701 143.142 263.467 143.377 259.585C138.907 258.762 138.084 253.94 138.084 253.94C138.084 253.94 134.791 252.763 136.084 248.647C137.496 244.53 137.496 240.296 148.905 236.767C160.314 233.239 176.428 227.005 176.428 227.005L184.426 192.072L207.362 202.07Z" fill="#FEAA9F"/>
<path d="M176.783 251.822C176.783 251.822 176.195 247.823 175.842 245.824" stroke="#38110E" stroke-width="0.4256" stroke-miterlimit="10"/>
<path d="M182.428 202.187C187.368 203.952 200.071 209.48 205.011 219.595C206.54 210.303 207.481 202.07 207.481 202.07L184.78 192.072L182.428 202.187Z" fill="#ED968B"/>
<path d="M176.779 227.005C176.779 227.005 185.13 226.182 188.776 230.533" stroke="#38110E" stroke-width="0.4256" stroke-miterlimit="10"/>
<path d="M152.433 262.291C152.433 262.291 150.433 251.352 154.197 246.883" stroke="#38110E" stroke-width="0.4256" stroke-miterlimit="10"/>
<path d="M143.494 259.468C143.494 259.468 143.729 249.47 145.964 245.942" stroke="#38110E" stroke-width="0.4256" stroke-miterlimit="10"/>
<path d="M138.32 253.822C138.32 253.822 139.261 244.883 142.555 243.119" stroke="#38110E" stroke-width="0.4256" stroke-miterlimit="10"/>
<path d="M283.225 202.07C283.225 202.07 287.341 239.237 292.752 244.53C298.162 249.823 313.923 251.94 313.923 251.94C313.923 251.94 312.159 260.526 316.04 262.055C319.922 263.584 319.922 259.115 321.451 253.704C321.686 252.999 321.804 252.411 322.039 251.94C322.862 249.352 326.156 248.647 327.92 250.764C329.331 252.411 330.625 254.41 330.86 256.057C331.448 259.938 332.977 267.701 338.27 262.408C342.387 267.701 347.445 263.467 347.209 259.585C351.679 258.762 352.502 253.94 352.502 253.94C352.502 253.94 355.796 252.763 354.502 248.647C353.09 244.53 353.09 240.296 341.681 236.767C330.272 233.239 314.158 227.005 314.158 227.005L306.16 192.072L283.225 202.07Z" fill="#FEAA9F"/>
<path d="M313.807 251.822C313.807 251.822 314.395 247.823 314.748 245.824" stroke="#38110E" stroke-width="0.4256" stroke-miterlimit="10"/>
<path d="M308.16 202.187C303.22 203.952 290.517 209.48 285.577 219.595C284.048 210.303 283.107 202.07 283.107 202.07L305.808 192.072L308.16 202.187Z" fill="#6B3C39"/>
<path d="M313.808 227.005C313.808 227.005 305.457 226.182 301.811 230.533" stroke="#38110E" stroke-width="0.4256" stroke-miterlimit="10"/>
<path d="M338.155 262.291C338.155 262.291 340.154 251.352 336.391 246.883" stroke="#38110E" stroke-width="0.4256" stroke-miterlimit="10"/>
<path d="M347.093 259.468C347.093 259.468 346.858 249.47 344.623 245.942" stroke="#38110E" stroke-width="0.4256" stroke-miterlimit="10"/>
<path d="M352.269 253.822C352.269 253.822 351.328 244.883 348.035 243.119" stroke="#38110E" stroke-width="0.4256" stroke-miterlimit="10"/>
<path d="M232.884 475.063C232.884 475.063 232.414 480.121 229.003 483.179C225.474 486.237 215.829 489.531 211.125 486.708C206.42 483.767 196.187 462.008 191.953 450.246C187.718 438.366 188.895 430.956 195.246 426.957C201.95 426.84 232.767 467.889 232.884 475.063Z" fill="#AF4646"/>
<path d="M231.709 466.713C231.709 466.713 235.238 474.711 231.121 478.357C227.004 482.003 217.712 485.767 213.243 482.591C208.773 479.533 197.952 452.128 194.777 441.425C191.718 430.721 192.777 427.428 197.717 425.546C202.539 423.546 209.126 424.017 209.126 424.017L231.709 466.713Z" fill="#2B2665"/>
<path d="M277.108 191.013L281.578 208.656C281.578 208.656 299.221 199.482 313.805 197.953C306.631 170.901 294.634 144.554 281.225 139.849C267.816 135.144 245.234 149.729 245.234 149.729C245.234 149.729 222.768 135.262 209.36 139.967C195.951 144.671 183.954 171.018 176.779 198.071C191.364 199.6 209.007 208.774 209.007 208.774L213.476 191.131C213.476 191.131 211.947 207.598 218.416 214.302C215.358 247.706 205.125 265.231 205.125 265.231H245.351H285.577C285.577 265.231 275.226 247.706 272.286 214.302C278.637 207.598 277.108 191.013 277.108 191.013Z" fill="#2B2665"/>
<path d="M213.479 191.013C213.479 191.013 217.949 159.256 205.834 141.731" stroke="#38110E" stroke-width="0.4256" stroke-miterlimit="10"/>
<path d="M277.11 191.013C277.11 191.013 272.641 159.256 284.756 141.731" stroke="#38110E" stroke-width="0.4256" stroke-miterlimit="10"/>
<path d="M275.11 139.026C261.937 139.026 245.235 149.847 245.235 149.847C245.235 149.847 228.533 139.026 215.359 139.026C217.124 149.141 223.357 166.666 245.235 181.133C267.112 166.784 273.346 149.141 275.11 139.026Z" fill="#EFEEE4"/>
<path d="M270.29 139.496C258.176 141.496 245.355 149.847 245.355 149.847C245.355 149.847 232.417 141.496 220.42 139.496C221.126 146.553 225.007 162.432 245.355 175.135C265.586 162.432 269.585 146.553 270.29 139.496Z" fill="#FEAA9F"/>
<path opacity="0.57" d="M272.169 214.184C272.169 214.184 263.112 219.242 251.115 217.713C256.879 221.477 267.7 224.77 273.698 226.299C273.11 222.535 272.522 218.419 272.169 214.184Z" fill="#0B0337"/>
<path opacity="0.57" d="M248.412 238.296C236.768 234.062 218.419 214.184 218.419 214.184C218.184 217.007 217.831 219.712 217.479 222.3C230.769 238.061 259.821 242.413 248.412 238.296Z" fill="#0B0337"/>
<path opacity="0.57" d="M225.24 236.649C225.24 236.649 249.587 247.941 268.642 248.764C261.467 251.117 233.709 245.471 225.24 236.649Z" fill="#0B0337"/>
<path d="M299.106 310.75C299.106 310.75 267.82 370.853 247.824 400.375C227.829 429.898 227.829 449.305 230.181 456.009C232.534 462.713 236.415 470.006 229.123 474.946C221.83 479.886 215.95 482.238 211.48 474.946C207.128 467.653 203.247 450.599 199.836 443.071C196.425 435.543 197.248 426.957 207.363 420.488C217.949 413.196 232.769 378.028 237.121 363.208C241.473 348.388 249.589 312.749 249.589 312.749C249.589 312.749 278.993 301.222 299.106 310.75Z" fill="#FEAA9F"/>
<path d="M221.475 479.063C221.475 479.063 225.003 474.24 221.475 470.006" stroke="#38110E" stroke-width="0.4237" stroke-miterlimit="10"/>
<path d="M226.768 476.475C226.768 476.475 229.121 472.241 226.062 468.006" stroke="#38110E" stroke-width="0.4237" stroke-miterlimit="10"/>
<path d="M202.305 449.54C203.246 452.481 204.304 455.774 205.363 459.185C211.832 451.069 223.123 452.01 229.592 453.422C229.239 451.422 229.122 448.952 229.357 445.894C219.477 441.307 207.833 446.364 202.305 449.54Z" fill="#EFEEE4"/>
<path d="M217.714 424.487C217.714 424.487 216.773 429.78 210.539 429.545" stroke="#38110E" stroke-width="0.4237" stroke-miterlimit="10"/>
<path d="M249.703 312.867C249.703 312.867 247.233 323.688 244.41 335.92C250.997 335.214 269.934 334.273 280.166 346.153C290.87 326.746 299.221 310.867 299.221 310.867C278.99 301.222 249.703 312.867 249.703 312.867Z" fill="#ED968B"/>
<path d="M230.769 261.349C230.769 261.349 242.414 261.232 261.821 258.527C281.228 255.821 301.694 260.879 307.81 282.05C313.926 303.222 304.046 346.506 304.046 346.506C304.046 346.506 277.935 322.629 245.237 331.45C212.656 340.272 189.25 345.447 178.899 344.153C174.195 323.452 169.019 276.522 190.779 265.937C199.953 261.585 213.715 260.997 230.769 261.349Z" fill="#2B2665"/>
<path d="M234.296 323.688C213.359 330.863 187.719 333.45 177.133 334.273C177.721 337.92 178.427 341.331 179.015 344.153C189.365 345.447 212.654 340.272 245.352 331.451C277.932 322.629 304.161 346.506 304.161 346.506C304.161 346.506 305.69 340.037 307.102 330.862C287.577 320.865 256.408 316.043 234.296 323.688Z" fill="#EFEEE4"/>
<path d="M178.426 191.954C177.838 193.954 177.25 195.953 176.779 197.953C191.364 199.482 209.007 208.656 209.007 208.656L210.654 202.187C199.245 195.13 183.484 192.66 178.426 191.954Z" fill="#EFEEE4"/>
<path d="M312.159 191.954C312.747 193.954 313.335 195.953 313.806 197.953C299.221 199.482 281.578 208.656 281.578 208.656L279.932 202.187C291.341 195.13 307.102 192.66 312.159 191.954Z" fill="#EFEEE4"/>
<path d="M270.407 77.9814C270.407 77.9814 285.109 98.5647 284.286 117.031C283.462 135.497 256.998 131.028 250.058 128.91C243.237 126.793 248.294 73.2766 248.294 73.2766L270.407 77.9814Z" fill="#462E2D"/>
<path d="M220.182 77.9816C220.182 77.9816 205.48 98.5649 206.303 117.031C207.126 135.497 233.59 131.028 240.53 128.911C247.352 126.794 242.294 73.2769 242.294 73.2769L220.182 77.9816Z" fill="#332121"/>
<path d="M256.291 124.676L245.353 123.853L234.414 124.676C234.414 124.676 237.355 138.908 234.414 152.67C241.354 157.139 245.353 157.61 245.353 157.61C245.353 157.61 249.352 157.139 256.291 152.67C253.351 138.908 256.291 124.676 256.291 124.676Z" fill="#FEAA9F"/>
<path d="M234.297 124.676C234.297 124.676 235.238 129.381 235.473 135.85C247.941 135.732 254.998 127.734 254.998 127.734C254.998 127.264 255.468 126.911 255.939 126.558C256.174 125.264 256.292 124.559 256.292 124.559L245.353 123.735L234.297 124.676Z" fill="#462E2D"/>
<path d="M265.347 76.3348L245.352 68.4543L225.357 76.3348C225.357 76.3348 223.122 107.857 228.65 119.501C234.296 131.145 245.352 130.91 245.352 130.91C245.352 130.91 256.408 131.145 262.054 119.501C267.582 107.857 265.347 76.3348 265.347 76.3348Z" fill="#FEAA9F"/>
<path d="M248.883 100.447C248.883 100.447 254.764 93.2718 262.291 100.447C255.94 102.093 252.882 101.74 248.883 100.447Z" fill="#EFEEE4"/>
<path d="M241.707 100.447C241.707 100.447 235.826 93.2718 228.299 100.447C234.65 102.093 237.708 101.74 241.707 100.447Z" fill="#EFEEE4"/>
<path d="M262.289 100.447C262.289 100.329 262.289 100.447 262.289 100.447C259.113 97.5062 256.29 96.9181 254.056 97.3886C253.938 97.859 253.82 98.3295 253.82 98.8C253.82 99.8586 254.173 100.8 254.761 101.505C256.761 101.623 259.113 101.27 262.289 100.447Z" fill="#462E2D"/>
<path d="M241.706 100.447C241.706 100.447 238.53 96.4478 233.708 97.3887C233.59 97.8592 233.473 98.3297 233.473 98.8001C233.473 99.8587 233.826 100.8 234.414 101.505C237.119 101.623 239.236 101.27 241.706 100.447Z" fill="#462E2D"/>
<path d="M249.703 91.9781C249.703 91.9781 257.348 90.5667 262.053 93.5072C259.113 91.0372 255.584 88.5671 249.703 91.9781Z" fill="#462E2D"/>
<path d="M240.883 91.9781C240.883 91.9781 233.238 90.5667 228.533 93.5072C231.474 91.0372 235.002 88.5671 240.883 91.9781Z" fill="#462E2D"/>
<path d="M244.292 104.916C244.292 104.916 243.822 112.091 244.528 112.091C245.351 112.091 247.939 112.091 247.939 112.091C247.939 112.091 246.88 113.737 243.822 113.737C240.764 113.62 243.587 107.739 244.292 104.916Z" fill="#38110E"/>
<path d="M241.236 117.502C241.236 117.502 244.53 118.913 249.705 117.502" stroke="#38110E" stroke-width="0.4485" stroke-miterlimit="10" stroke-linecap="round"/>
<path d="M248.883 100.447C249.589 99.2705 250.529 98.3295 251.706 97.7414C252.882 97.0357 254.293 96.6829 255.587 96.6829C256.999 96.8005 258.292 97.1533 259.469 97.8591C260.057 98.2119 260.527 98.6824 261.115 99.0352C261.586 99.5057 262.056 99.9762 262.409 100.447C261.821 100.094 261.35 99.741 260.762 99.5057C260.174 99.2705 259.704 98.9176 259.116 98.6824C257.939 98.2119 256.763 97.9767 255.587 97.8591C253.117 97.7414 250.882 98.8 248.883 100.447Z" fill="#38110E"/>
<path d="M241.708 100.447C239.708 98.8 237.356 97.7414 235.004 97.8591C233.827 97.8591 232.651 98.2119 231.475 98.6824C230.887 98.9176 230.416 99.2705 229.828 99.5057C229.24 99.8586 228.77 100.211 228.182 100.447C228.534 99.9762 229.005 99.5057 229.475 99.0352C229.946 98.6824 230.534 98.2119 231.122 97.8591C232.298 97.1533 233.592 96.8005 235.004 96.6829C236.415 96.6829 237.709 97.0357 238.885 97.7414C240.061 98.3295 241.12 99.2705 241.708 100.447Z" fill="#38110E"/>
<path d="M207.361 261.938C207.361 261.938 219.241 260.762 234.178 261.938C249.116 263.114 264.995 254.41 282.52 258.998" stroke="#0B0337" stroke-miterlimit="10"/>
<path opacity="0.57" d="M261.232 268.171C261.232 268.171 240.649 310.161 217.713 317.454C194.777 324.746 254.646 281.698 261.232 268.171Z" fill="#0B0337"/>
<path d="M258.172 384.261C258.172 384.261 246.646 402.375 244.764 405.315" stroke="#38110E" stroke-width="0.4024" stroke-miterlimit="10"/>
<path opacity="0.24" d="M245.352 68.4546L242.764 69.5132L228.532 79.6284C228.532 79.6284 221.24 131.734 252.644 129.146C255.938 127.617 259.466 124.794 262.054 119.501C267.699 107.857 265.347 76.3351 265.347 76.3351L245.352 68.4546Z" fill="#EFEEE4"/>
<path d="M251.938 77.2758C251.938 77.2758 258.525 90.3315 266.758 89.2729C275.109 88.2143 274.286 66.5724 266.993 61.9853C259.701 57.3981 249.586 57.6334 245.939 63.0439C242.176 68.4543 251.938 77.2758 251.938 77.2758Z" fill="#462E2D"/>
<path d="M251.937 77.2758C251.937 77.2758 236.647 92.2134 222.415 91.5077C208.183 90.802 212.535 61.7501 230.178 55.6339C247.703 49.6353 257.701 68.2191 251.937 77.2758Z" fill="#462E2D"/>
<path d="M247.586 58.4564C243.47 54.9279 237.471 53.1636 230.179 55.6336C218.182 59.7502 212.301 74.6879 214.3 83.9798C235.824 88.0964 245.587 64.1021 247.586 58.4564Z" fill="#332121"/>
<path d="M313.336 230.181L317.923 231.474C317.923 231.474 318.864 232.768 317.688 233.474C316.864 233.944 315.806 233.474 315.806 233.474L310.983 232.18C310.983 232.18 310.866 230.181 313.336 230.181Z" fill="#2B2665"/>
<path d="M315.925 229.71C315.925 229.71 310.868 232.062 310.28 233.709C305.104 231.827 306.045 232.18 306.045 232.18C306.045 232.18 309.927 229.122 312.985 229.004C315.925 229.71 315.925 229.71 315.925 229.71Z" fill="#EFEEE4"/>
<path d="M342.623 110.092C342.623 110.092 341.918 161.844 367.088 190.425C402.256 230.416 381.908 300.164 347.093 288.402C312.278 276.64 338.507 238.414 315.924 231.827" stroke="#E6317D" stroke-miterlimit="10"/>
<path d="M157.963 323.217H33.8754C31.9935 323.217 30.582 321.688 30.582 319.924C30.582 318.042 32.1111 316.631 33.8754 316.631H157.963C159.845 316.631 161.257 318.16 161.257 319.924C161.257 321.688 159.728 323.217 157.963 323.217Z" fill="#723C2E"/>
<path d="M98.9185 323.217H90.8027V455.539H98.9185V323.217Z" fill="#723C2E"/>
<path d="M98.9185 323.217H90.8027V333.215H98.9185V323.217Z" fill="#38110E"/>
<path d="M123.266 464.36H66.2207C66.2207 459.42 70.2197 455.303 75.2774 455.303H114.327C119.267 455.421 123.266 459.42 123.266 464.36Z" fill="#38110E"/>
<path d="M99.9766 316.631H133.145C138.32 316.631 142.555 312.397 142.555 307.221C142.555 302.046 138.32 297.812 133.145 297.812H99.9766V316.631Z" fill="#AF1018"/>
<path d="M99.9766 316.631H133.145C138.32 316.631 142.555 312.397 142.555 307.221C142.555 302.046 138.32 297.812 133.145 297.812H99.9766V316.631Z" fill="#D66562"/>
<path d="M100.564 314.984H59.0449V299.928H100.564C104.446 299.928 107.739 303.104 107.739 307.103V307.927C107.739 311.808 104.563 314.984 100.564 314.984Z" fill="white"/>
<path d="M100.564 300.046C104.446 300.046 107.739 303.222 107.739 307.103C107.034 303.928 104.211 301.458 100.8 301.458H59.0449V299.928H100.564V300.046Z" fill="#D6C7B4"/>
<path opacity="0.35" d="M125.968 307.103C125.968 301.928 121.734 297.694 116.559 297.694H122.792C127.968 297.694 132.202 301.928 132.202 307.103C132.202 312.279 127.968 316.513 122.792 316.513H116.559C121.734 316.631 125.968 312.396 125.968 307.103Z" fill="#590A06"/>
<path d="M62.8086 309.22C66.2195 309.103 69.5129 308.985 72.9238 308.985L83.0391 308.867L93.1543 308.985C96.5653 308.985 99.8586 309.103 103.27 309.22C99.8586 309.338 96.5653 309.456 93.1543 309.456L83.0391 309.573L72.9238 309.456C69.5129 309.456 66.2195 309.456 62.8086 309.22Z" fill="#D3CABE"/>
<path d="M59.2793 307.574C62.6902 307.456 65.9836 307.339 69.3945 307.339L79.5098 307.221L89.625 307.339C93.036 307.339 96.3293 307.456 99.7403 307.574C96.3293 307.691 93.036 307.809 89.625 307.809L79.5098 307.927L69.3945 307.809C65.9836 307.691 62.6902 307.691 59.2793 307.574Z" fill="#D3CABE"/>
<path d="M61.043 304.163C64.4539 304.045 67.7473 303.928 71.1582 303.928L81.2734 303.81L91.3887 303.928C94.7996 303.928 98.093 304.045 101.504 304.163C98.093 304.281 94.7996 304.398 91.3887 304.398L81.2734 304.516L71.1582 304.398C67.7473 304.398 64.3363 304.281 61.043 304.163Z" fill="#D3CABE"/>
<path d="M99.2704 314.278C103.152 314.278 106.328 311.102 106.328 307.221C106.328 303.34 103.152 300.164 99.2704 300.164H57.5156V297.812H99.5056C104.681 297.812 108.915 302.046 108.915 307.221C108.915 312.396 104.681 316.631 99.5056 316.631H57.5156V314.278H99.2704Z" fill="#AF4646"/>
<path opacity="0.2" d="M114.443 297.694H133.145C138.32 297.694 142.554 301.928 142.554 307.103C142.554 312.279 138.32 316.513 133.145 316.513C133.145 298.988 114.443 297.694 114.443 297.694Z" fill="#560410"/>
<path d="M289.814 17.0547H279.934V46.9299H289.814V17.0547Z" fill="#2B2665"/>
<path d="M299.764 36.9774V27.0974L269.888 27.0974V36.9774L299.764 36.9774Z" fill="#2B2665"/>
<path d="M164.079 107.857H156.434V130.91H164.079V107.857Z" fill="#CECFF8"/>
<path d="M171.729 123.292V115.647H148.675V123.292H171.729Z" fill="#CECFF8"/>
<path d="M436.014 123.03H420.371V170.548H436.014V123.03Z" fill="#CECFF8"/>
<path d="M451.908 154.665V139.021H404.39V154.665H451.908Z" fill="#CECFF8"/>
</svg>
