<svg width="56" height="56" viewBox="0 0 56 56" fill="none" xmlns="http://www.w3.org/2000/svg">
<g clip-path="url(#clip0_2507_8084)">
<path d="M2.3125 7.6062H31.4874V33.1342L29.8666 39.2123H3.93333L2.3125 32.729V7.6062Z" fill="#E6317D"/>
<path d="M55.0083 18.3232C54.5026 17.8174 53.8093 17.5319 53.0996 17.5319H50.8891V6.7077C50.8891 4.42376 49.6737 2.31112 47.6916 1.16915C45.7094 0.02718 43.2705 0.02718 41.2965 1.16915C39.3144 2.31112 38.099 4.42376 38.099 6.7077V48.5282C38.099 49.8333 37.577 51.0813 36.6553 52.0031C35.7335 52.9248 34.4855 53.4468 33.1804 53.4468H22.8293C21.6955 53.4468 20.5943 53.0553 19.7215 52.3375C18.8406 51.6197 18.2369 50.6245 18.0085 49.5152H22.5846C23.1719 49.5152 23.7347 49.2787 24.1507 48.8627C24.5667 48.4467 24.8033 47.8838 24.8033 47.2965V45.5754H25.048C25.7658 45.5754 26.451 45.2899 26.9567 44.7842C27.4624 44.2785 27.7479 43.5851 27.7479 42.8673V41.1462H28.0579C28.5962 41.1462 29.1264 40.9831 29.5751 40.6813C29.7953 40.5263 29.9992 40.3468 30.1624 40.1348C30.3336 39.9227 30.4642 39.6943 30.5702 39.4414L32.9112 33.5847C33.0744 33.1769 33.1559 32.7446 33.1559 32.3041V8.42881C33.1559 7.711 32.8704 7.02582 32.3647 6.51193C31.859 6.0062 31.1657 5.72071 30.4478 5.72071H23.2371C22.919 3.68964 21.6547 1.94406 19.8275 1.00601C18.0004 0.0761215 15.8388 0.0761215 14.0117 1.00601C12.1845 1.9359 10.912 3.68964 10.6021 5.72071H3.3995C2.68169 5.72071 1.99651 6.0062 1.49078 6.51193C0.976898 7.02582 0.691406 7.711 0.691406 8.42881V32.3123C0.691406 32.7527 0.772975 33.1851 0.936114 33.5929L3.27715 39.4496C3.47292 39.9553 3.82366 40.3876 4.27229 40.6894C4.72092 40.9912 5.25112 41.1544 5.78948 41.1544H6.09944V42.8755C6.09944 43.5933 6.38494 44.2785 6.89066 44.7924C7.39639 45.2981 8.08157 45.5836 8.80754 45.5836H9.05225V47.3047C9.05225 47.892 9.2888 48.4548 9.7048 48.8708C10.1208 49.2868 10.6836 49.5152 11.2709 49.5234H16.0183C16.2548 51.1629 17.0787 52.6638 18.3267 53.7405C19.5747 54.8254 21.1816 55.4208 22.8293 55.4208H33.1641C34.9912 55.4208 36.7368 54.6949 38.0338 53.3979C39.3226 52.1091 40.0485 50.3554 40.0567 48.5282V6.7077C40.0567 5.12526 40.8969 3.66517 42.2672 2.87394C43.6376 2.08272 45.3261 2.08272 46.6964 2.87394C48.0668 3.66517 48.907 5.12526 48.907 6.7077V17.5319H46.6964C45.9786 17.5319 45.2934 17.8174 44.7877 18.3232C44.282 18.8289 43.9965 19.5222 43.9965 20.24V38.4463C43.9965 39.058 44.2004 39.6453 44.5838 40.1266C44.9672 40.6079 45.4892 40.9423 46.0847 41.081L47.2429 49.1808C47.3816 50.1351 48.0178 50.9427 48.9151 51.2934V54.4338C48.9151 54.9803 49.3556 55.4208 49.9021 55.4208C50.4486 55.4208 50.8891 54.9803 50.8891 54.4338V51.2934C51.7863 50.9345 52.4226 50.127 52.5613 49.1808L53.7195 41.081C54.315 40.9423 54.8452 40.6079 55.2204 40.1266C55.6038 39.6535 55.8077 39.058 55.8077 38.4463V20.24C55.7995 19.5222 55.5141 18.837 55.0083 18.3232ZM15.0068 2.71896C16.2222 2.13167 17.6333 2.13167 18.8487 2.71896C20.0641 3.30626 20.945 4.40745 21.2468 5.72071H12.6087C12.9105 4.40745 13.7914 3.30626 15.0068 2.71896ZM5.79764 39.1804C5.49583 39.1804 5.22665 39.0009 5.11246 38.7154L2.76326 32.8588C2.69801 32.6875 2.65722 32.4999 2.65722 32.3123V8.42881C2.65722 8.02096 2.9835 7.69468 3.39135 7.69468H30.4478C30.8557 7.69468 31.182 8.02912 31.1901 8.42881V32.3123C31.1901 32.4999 31.1575 32.6875 31.0841 32.8588L28.7512 38.7154C28.637 38.9928 28.3678 39.1804 28.066 39.1804H5.79764ZM8.80754 43.6096C8.39969 43.6096 8.07342 43.2752 8.07342 42.8673V41.1462H25.7902V42.8673C25.7902 43.2752 25.464 43.6096 25.0561 43.6096H8.80754ZM11.2709 47.5494C11.1323 47.5494 11.0262 47.4434 11.0262 47.3047V45.5836H22.8374V47.3047C22.8374 47.4434 22.7314 47.5494 22.5927 47.5494H11.2709ZM50.6036 48.8953C50.5547 49.246 50.2528 49.5152 49.8939 49.5152C49.535 49.5152 49.2332 49.2542 49.1843 48.8953L48.0749 41.1462H51.7129L50.6036 48.8953ZM53.8337 38.4463C53.8337 38.8541 53.5075 39.1804 53.0996 39.1804H46.6964C46.2886 39.1804 45.9623 38.846 45.9542 38.4463V20.24C45.9542 19.8322 46.2886 19.5059 46.6964 19.5059H53.0915C53.4993 19.5059 53.8256 19.8403 53.8256 20.24V38.4463H53.8337Z" fill="#2B2665"/>
<path d="M52.3584 33.2746C52.3584 33.8211 51.9179 34.2616 51.3714 34.2616H48.4186C47.8721 34.2616 47.4316 33.8211 47.4316 33.2746C47.4316 32.7281 47.8721 32.2876 48.4186 32.2876H51.3714C51.9179 32.2958 52.3584 32.7362 52.3584 33.2746Z" fill="#1FC8A5"/>
<path d="M52.3584 29.3429C52.3584 29.8895 51.9179 30.3299 51.3714 30.3299H48.4186C47.8721 30.3299 47.4316 29.8895 47.4316 29.3429C47.4316 28.7964 47.8721 28.356 48.4186 28.356H51.3714C51.9179 28.356 52.3584 28.7964 52.3584 29.3429Z" fill="#1FC8A5"/>
<path d="M50.9141 26.0719C50.7428 26.4879 50.335 26.7571 49.8945 26.7571C49.2827 26.7571 48.7852 26.2595 48.7852 25.6477C48.7852 25.1991 49.0543 24.7994 49.4703 24.6281C49.8863 24.4568 50.3594 24.5547 50.6776 24.8647C50.9957 25.1828 51.0854 25.6641 50.9141 26.0719Z" fill="#1FC8A5"/>
<path d="M50.9141 22.6298C50.7428 23.0458 50.335 23.3149 49.8945 23.3149C49.2827 23.3149 48.7852 22.8174 48.7852 22.2056C48.7852 21.757 49.0543 21.3573 49.4703 21.186C49.8863 21.0147 50.3594 21.1126 50.6776 21.4225C50.9957 21.7407 51.0854 22.2138 50.9141 22.6298Z" fill="#1FC8A5"/>
<path d="M25.6268 14.7421C23.3184 12.4337 20.1943 11.1367 16.9315 11.1367C13.6687 11.1367 10.5446 12.4337 8.23622 14.7421C5.92781 17.0505 4.63086 20.1746 4.63086 23.4374C4.63086 26.7001 5.93597 29.8242 8.23622 32.1326C10.5446 34.441 13.6687 35.738 16.9315 35.738C20.1943 35.738 23.3265 34.441 25.6268 32.1326C27.9352 29.8242 29.2321 26.7001 29.2321 23.4374C29.2321 20.1746 27.9352 17.0505 25.6268 14.7421ZM24.2319 30.746C22.2906 32.6873 19.6641 33.7722 16.9233 33.7722C14.1826 33.7722 11.5561 32.6791 9.61474 30.746C7.67339 28.8046 6.58852 26.1781 6.58852 23.4374C6.58852 20.6966 7.68155 18.0701 9.62289 16.1369C11.5561 14.1956 14.1826 13.1107 16.9233 13.1107C19.6641 13.1107 22.2906 14.1956 24.2319 16.1369C26.1733 18.0783 27.2582 20.7048 27.2582 23.4455C27.2582 26.1781 26.1733 28.8046 24.2319 30.746Z" fill="#2B2665"/>
<path d="M23.8168 20.2398H20.1298V16.5529C20.1298 16.0064 19.6894 15.5659 19.1428 15.5659H14.7136C14.1671 15.5659 13.7266 16.0064 13.7266 16.5529V20.2398H10.0397C9.49321 20.2398 9.05273 20.6803 9.05273 21.2268V25.656C9.05273 26.2025 9.49321 26.643 10.0397 26.643H13.7266V30.3299C13.7266 30.8765 14.1671 31.3169 14.7136 31.3169H19.1428C19.6894 31.3169 20.1298 30.8765 20.1298 30.3299V26.643H23.8168C24.3633 26.643 24.8037 26.2025 24.8037 25.656V21.2268C24.8037 20.6803 24.3633 20.2398 23.8168 20.2398ZM22.8298 24.669H19.1428C18.5963 24.669 18.1559 25.1095 18.1559 25.656V29.343H15.7006V25.656C15.7006 25.1095 15.2601 24.669 14.7136 24.669H11.0267V22.2056H14.7136C15.2601 22.2056 15.7006 21.7652 15.7006 21.2187V17.5317H18.164V21.2187C18.164 21.7652 18.6045 22.2056 19.151 22.2056H22.8379V24.669H22.8298Z" fill="#2B2665"/>
</g>
<defs>
<clipPath id="clip0_2507_8084">
<rect width="55.1081" height="55.1081" fill="white" transform="translate(0.691406 0.3125)"/>
</clipPath>
</defs>
</svg>
