<svg width="44" height="57" viewBox="0 0 44 57" fill="none" xmlns="http://www.w3.org/2000/svg">
<g clip-path="url(#clip0_2559_14477)">
<path d="M2.5 17.75C2.5 16.0931 3.84279 14.7557 5.49959 14.7426C10.2878 14.7047 16.478 14.4771 19.5625 13.125C21.8988 12.1009 19.2792 8.25 21.5938 8.25C23.9523 8.25 22.3098 12.074 24.8438 13.125C28.0882 14.4707 34.4843 14.7023 39.313 14.7419C40.9697 14.7555 42.3125 16.0931 42.3125 17.75V53.1875C42.3125 54.8444 40.9694 56.1875 39.3125 56.1875H5.5C3.84315 56.1875 2.5 54.8444 2.5 53.1875V17.75Z" fill="#0092FF"/>
<path d="M38.25 17.5938H6.96875L5.34375 18V41.1562L8.59375 38.3125H13.4688L16.7188 41.9688L15.0938 47.6562L9.40625 48.875L5.75 45.625V52.125L22.4062 52.5312V50.9062L21.5938 50.5L21.1875 48.4688L22.8125 46.8438L24.8438 48.4688L23.2188 50.5V52.125L38.25 52.5312V44H19.9688V25.7188H24.4375V24.5L25.6562 22.0625L28.0938 22.875V25.7188H38.25V17.5938Z" fill="#DDE9FF" stroke="black"/>
<circle cx="12.25" cy="28.5625" r="2.4375" fill="#0092FF"/>
<path d="M39.4511 13.0599V11.1331C40.466 11.1331 41.288 10.3121 41.288 9.29839V7.46371C41.288 6.45003 40.466 5.62903 39.4511 5.62903H36.6915V4.7075C36.6915 2.18587 34.6364 0.125 32.1033 0.125H25.6781C23.145 0.125 21.0899 2.18587 21.0899 4.7075V7.63126C20.0246 8.00825 19.253 9.02193 19.253 10.2115V12.0462C19.253 12.5489 18.8419 12.9594 18.3387 12.9594H11.9135V11.1247C12.9285 11.1247 13.7505 10.3037 13.7505 9.29001V7.46371C13.7505 6.45003 12.9285 5.62903 11.9135 5.62903H4.54891C3.53397 5.62903 2.71196 6.45003 2.71196 7.46371V9.29839C2.71196 10.3121 3.53397 11.1331 4.54891 11.1331V13.0599C2.45193 13.4871 0.875 15.3386 0.875 17.5502V52.4091C0.875 54.9391 2.93843 56.9916 5.4632 56.9916H38.5284C41.0616 56.9916 43.1166 54.9307 43.1166 52.4091V17.5502C43.125 15.3386 41.5397 13.4871 39.4511 13.0599ZM37.6141 12.9677H33.9402V11.1331H37.6141V12.9677ZM39.4511 9.29839H32.1033V7.46371H39.4511V9.29839ZM25.6697 1.95968H32.0949C33.6131 1.95968 34.8461 3.19117 34.8461 4.7075V5.62065H32.0949C31.0799 5.62065 30.2579 6.44165 30.2579 7.45533V9.29001C30.2579 10.3037 31.0799 11.1247 32.0949 11.1247V12.9594H25.6697C25.1664 12.9594 24.7554 12.5489 24.7554 12.0462V10.2115C24.7554 9.01355 23.9837 8.00825 22.9185 7.63126V4.7075C22.9185 3.19117 24.1515 1.95968 25.6697 1.95968ZM21.0815 12.0462V10.2115C21.0815 9.70889 21.4925 9.29839 21.9958 9.29839C22.4991 9.29839 22.9101 9.70889 22.9101 10.2115V12.0462C22.9101 13.5625 24.1431 14.794 25.6613 14.794C26.1646 14.794 26.5756 15.2045 26.5756 15.7072V16.6203H17.4076V15.7072C17.4076 15.2045 17.8186 14.794 18.3219 14.794C19.8485 14.8024 21.0815 13.5709 21.0815 12.0462ZM37.6141 43.2357H21.0815V26.7236H37.6141V43.2357ZM25.6697 23.9758C25.6697 23.4732 26.0807 23.0627 26.584 23.0627C27.0873 23.0627 27.4983 23.4732 27.4983 23.9758C27.4983 24.4785 27.0873 24.889 26.584 24.889C26.0807 24.889 25.6697 24.4785 25.6697 23.9758ZM37.6141 24.889H29.1759C29.2765 24.6041 29.3436 24.2942 29.3436 23.9758C29.3436 22.4595 28.1106 21.228 26.5924 21.228C25.0742 21.228 23.8411 22.4595 23.8411 23.9758C23.8411 24.3025 23.9083 24.6041 24.0089 24.889H19.2446V45.0704H37.6141V51.4876H6.38587V47.7177C7.55179 48.9073 9.17905 49.6529 10.9741 49.6529C14.5222 49.6529 17.3992 46.771 17.3992 43.2357C17.3992 39.692 14.5138 36.8185 10.9741 36.8185C9.17905 36.8185 7.55179 37.5641 6.38587 38.7538V18.4718H37.6141V24.889ZM6.38587 43.2357C6.38587 40.7057 8.4493 38.6532 10.9741 38.6532C13.4988 38.6532 15.5623 40.7141 15.5623 43.2357C15.5623 45.7657 13.4988 47.8182 10.9741 47.8182C8.4493 47.8182 6.38587 45.7657 6.38587 43.2357ZM4.54891 7.46371H11.8967V9.29839H4.54891V7.46371ZM10.0598 11.1331V12.9677H6.38587V11.1331H10.0598ZM41.288 52.4091C41.288 53.9254 40.055 55.1569 38.5368 55.1569H5.4632C3.94498 55.1569 2.71196 53.9254 2.71196 52.4091V17.5502C2.71196 16.0339 3.94498 14.8024 5.4632 14.8024H15.7384C15.6378 15.0873 15.5707 15.3972 15.5707 15.7156V16.6287H6.38587C5.37093 16.6287 4.54891 17.4497 4.54891 18.4634V51.4876C4.54891 52.5013 5.37093 53.3223 6.38587 53.3223H37.6141C38.6291 53.3223 39.4511 52.5013 39.4511 51.4876V18.4718C39.4511 17.4581 38.6291 16.6371 37.6141 16.6371H28.4293V15.7239C28.4293 15.3972 28.3622 15.0956 28.2616 14.8108H38.5368C40.055 14.8108 41.288 16.0423 41.288 17.5586V52.4091Z" fill="#2B2665"/>
<path d="M22.9189 34.9838C22.9189 38.5275 25.8044 41.401 29.3441 41.401C32.8838 41.401 35.7693 38.5191 35.7693 34.9838C35.7693 31.4485 32.8838 28.5667 29.3441 28.5667C25.8044 28.5667 22.9189 31.4401 22.9189 34.9838ZM29.3441 30.3929C31.8773 30.3929 33.9323 32.4538 33.9323 34.9755C33.9323 37.4971 31.8689 39.558 29.3441 39.558C26.8193 39.558 24.7559 37.4971 24.7559 34.9755C24.7559 32.4538 26.8193 30.3929 29.3441 30.3929Z" fill="#2B2665"/>
<path d="M28.4297 37.7318H30.2667V35.8971H32.1036V34.0625H30.2667V32.2278H28.4297V34.0625H26.5928V35.8971H28.4297V37.7318Z" fill="#2B2665"/>
<path d="M10.9739 45.992C12.4921 45.992 13.7251 44.7605 13.7251 43.2442C13.7251 41.7278 12.4921 40.4963 10.9739 40.4963C9.45568 40.4963 8.22266 41.7278 8.22266 43.2442C8.22266 44.7605 9.45568 45.992 10.9739 45.992ZM10.9739 42.3226C11.4772 42.3226 11.8882 42.7331 11.8882 43.2358C11.8882 43.7384 11.4772 44.1489 10.9739 44.1489C10.4706 44.1489 10.0596 43.7384 10.0596 43.2358C10.0596 42.7331 10.4706 42.3226 10.9739 42.3226Z" fill="#2B2665"/>
<path d="M11.8966 32.2276C13.9264 32.2276 15.5705 30.5856 15.5705 28.5583C15.5705 26.5309 13.9264 24.8889 11.8966 24.8889C9.86669 24.8889 8.22266 26.5309 8.22266 28.5583C8.22266 30.5856 9.86669 32.2276 11.8966 32.2276ZM11.8966 26.7236C12.9115 26.7236 13.7335 27.5446 13.7335 28.5583C13.7335 29.5719 12.9115 30.3929 11.8966 30.3929C10.8816 30.3929 10.0596 29.5719 10.0596 28.5583C10.0596 27.553 10.8816 26.7236 11.8966 26.7236Z" fill="#2B2665"/>
<path d="M25.6695 48.7398C25.6695 47.2234 24.4364 45.9919 22.9182 45.9919C21.4 45.9919 20.167 47.2234 20.167 48.7398C20.167 50.2561 21.4 51.4876 22.9182 51.4876C24.4364 51.496 25.6695 50.2561 25.6695 48.7398ZM22.9182 49.6613C22.415 49.6613 22.0039 49.2508 22.0039 48.7482C22.0039 48.2455 22.415 47.835 22.9182 47.835C23.4215 47.835 23.8325 48.2455 23.8325 48.7482C23.8325 49.2508 23.4215 49.6613 22.9182 49.6613Z" fill="#2B2665"/>
</g>
<defs>
<clipPath id="clip0_2559_14477">
<rect width="42.25" height="56.875" fill="white" transform="translate(0.875 0.125)"/>
</clipPath>
</defs>
</svg>
