<svg width="30" height="30" viewBox="0 0 30 30" fill="none" xmlns="http://www.w3.org/2000/svg">
<path d="M13.7936 0.0590086C10.0323 0.407758 6.54519 2.17789 4.04408 5.00856C1.54264 7.83923 0.214918 11.5175 0.331267 15.2932C0.447849 19.0688 1.99958 22.6577 4.67081 25.3292C7.34203 28.0004 10.9311 29.5522 14.7068 29.6687C18.4827 29.7851 22.161 28.4574 24.9914 25.9559C27.8221 23.4545 29.5923 19.9678 29.941 16.2064C30.2003 13.3052 29.6023 10.3917 28.2214 7.82724C26.8407 5.26252 24.7375 3.15941 22.1728 1.77869C19.6083 0.397707 16.6948 -0.200189 13.7937 0.0590719L13.7936 0.0590086ZM23.1325 11.5033L14.3382 20.2061C14.0742 20.4629 13.7205 20.6069 13.3523 20.6069C12.9841 20.6069 12.6304 20.463 12.3664 20.2061L7.18297 15.2561C6.8182 14.9056 6.66809 14.3872 6.78886 13.8963C6.90988 13.4051 7.28378 13.0159 7.76956 12.8752C8.25535 12.7342 8.77935 12.8633 9.1441 13.2136L13.3277 17.2275L21.1572 9.49324C21.519 9.15312 22.0329 9.02791 22.5106 9.16322C22.9885 9.29877 23.3602 9.67513 23.4896 10.1545C23.6192 10.6339 23.4876 11.1461 23.143 11.5037L23.1325 11.5033Z" fill="#2B2665"/>
</svg>
