<svg width="123" height="123" viewBox="0 0 123 123" fill="none" xmlns="http://www.w3.org/2000/svg">
<circle opacity="0.2" cx="61.5" cy="61.5" r="61.5" fill="#2B2665"/>
<path fill-rule="evenodd" clip-rule="evenodd" d="M50.956 28.105C49.165 28.4564 47.2096 29.935 46.3528 31.5859L45.886 32.4854L44.0968 32.5393C42.6074 32.5841 42.2098 32.6447 41.7234 32.9009C41.0944 33.2322 40.3204 34.0262 40.1725 34.4923C40.0831 34.773 39.9534 34.7813 34.9158 34.8225C30.1984 34.861 29.7075 34.8878 29.2514 35.1304C28.5523 35.5023 27.9934 36.0507 27.6329 36.7179L27.325 37.2881V65.5853V93.8824L27.6329 94.4526C27.9934 95.1198 28.5523 95.6682 29.2514 96.0401C29.7327 96.2962 30.5738 96.3059 52.3675 96.3059C74.1613 96.3059 75.0024 96.2962 75.4837 96.0401C75.7584 95.894 76.1591 95.6099 76.3741 95.4089L76.7651 95.0435L78.1578 95.7106C78.9238 96.0775 79.6469 96.3774 79.7648 96.3774C80.1488 96.377 90.7249 91.2892 91.4553 90.7535C92.6709 89.8621 93.9894 88.3142 94.6068 87.0542C95.6938 84.835 95.6574 85.2174 95.7118 75.4327C95.7463 69.203 95.7144 66.5658 95.6009 66.2921C95.3731 65.7427 94.9045 65.5854 93.492 65.5844C90.7898 65.5826 88.0402 64.9044 85.5729 63.6314C84.8678 63.2676 83.3942 62.3069 82.2982 61.4968C81.2023 60.6865 80.1586 59.9867 79.979 59.9417C79.6093 59.849 79.1254 60.0808 78.1949 60.7966L77.5528 61.2904L77.4814 49.2893C77.4139 37.9303 77.3958 37.2615 77.1441 36.7892C76.7718 36.0908 76.2229 35.5324 75.5551 35.1723C75.005 34.8758 74.7972 34.8631 69.8193 34.8225C64.7817 34.7813 64.6519 34.773 64.5626 34.4923C64.4146 34.0262 63.6407 33.2322 63.0117 32.9009C62.5253 32.6447 62.1277 32.5841 60.6383 32.5393L58.8491 32.4854L58.3823 31.5859C57.0286 28.9775 53.9247 27.5225 50.956 28.105ZM54.4666 30.7454C55.4928 31.2697 56.4139 32.3673 56.7251 33.4367C57.0951 34.708 57.2894 34.7934 59.8132 34.7934C61.882 34.7934 61.9506 34.8031 62.2911 35.1434C62.6364 35.4882 62.6414 35.5289 62.6414 37.9945V40.4956H52.3675H42.0937V37.9945C42.0937 35.5289 42.0987 35.4882 42.444 35.1434C42.7845 34.8031 42.8531 34.7934 44.9219 34.7934C47.4362 34.7934 47.641 34.7049 48.003 33.4607C48.3981 32.1031 49.5943 30.8811 50.9653 30.4347C51.958 30.1115 53.4922 30.2476 54.4666 30.7454ZM51.5105 31.497C49.9115 32.02 49.0238 33.1968 49.0238 34.7934C49.0238 36.7533 50.4054 38.1329 52.3675 38.1329C54.3297 38.1329 55.7113 36.7533 55.7113 34.7934C55.7113 33.4347 55.0774 32.3879 53.8832 31.7745C53.2681 31.4585 52.06 31.3172 51.5105 31.497ZM53.1588 34.0029C53.8667 34.71 53.3651 35.9339 52.3675 35.9339C52.0896 35.9339 51.7971 35.8046 51.5763 35.5839C50.8684 34.8768 51.37 33.653 52.3675 33.653C52.6455 33.653 52.938 33.7823 53.1588 34.0029ZM39.8106 38.2147V39.3552H36.3213C32.6203 39.3552 32.2556 39.4109 31.9782 40.019C31.7528 40.5134 31.7528 90.6571 31.9782 91.1515C32.0654 91.3425 32.2931 91.57 32.4843 91.6571C32.7335 91.7705 38.0922 91.8154 51.3858 91.8154H69.9397L72.1052 92.8354C73.2964 93.3963 74.3318 93.9095 74.4064 93.9758C74.4809 94.0421 64.5735 94.0963 52.3897 94.0963H30.2372L29.8871 93.7463L29.5367 93.3965V65.5853V37.7741L29.8871 37.4243L30.2372 37.0743H35.024H39.8106V38.2147ZM74.848 37.4243L75.1983 37.7741V50.395V63.0161L74.0568 63.5895L72.9153 64.1629V52.2647C72.9153 43.8484 72.8689 40.2648 72.7569 40.019C72.4795 39.4109 72.1148 39.3552 68.4137 39.3552H64.9245V38.2147V37.0743H69.7111H74.4979L74.848 37.4243ZM39.9456 42.0452C40.0389 42.2703 40.2745 42.5269 40.4691 42.6154C40.9713 42.8441 63.7638 42.8441 64.266 42.6154C64.4606 42.5269 64.6962 42.2703 64.7895 42.0452L64.9592 41.636H67.7956H70.6322V53.3036V64.9711L69.5263 65.2188C68.9182 65.355 67.6178 65.498 66.6368 65.5367C65.6558 65.5753 64.6849 65.6705 64.4793 65.7484C63.9057 65.9652 63.7829 66.4276 63.7829 68.3718V70.147H54.0799H44.3768V71.2875V72.4279H54.0799H63.7829V74.7088V76.9897H54.0799H44.3768V78.1301V79.2705H54.0799H63.7829L63.7849 81.2307C63.7859 82.3088 63.8256 83.3351 63.8728 83.5116L63.9589 83.8323H54.1679H44.3768V84.9727V86.1132H54.4262H64.4754L64.8197 86.8616C65.0091 87.2732 65.4928 88.0431 65.8946 88.5723L66.6254 89.5345H50.3641H34.1029V65.5853V41.636H36.9395H39.7759L39.9456 42.0452ZM49.5656 45.2242C49.0624 45.4675 48.9429 45.9703 48.9429 47.8439V49.6191H47.166C45.2515 49.6191 44.7842 49.737 44.5352 50.283C44.323 50.7484 44.323 55.3324 44.5352 55.7979C44.7842 56.3439 45.2515 56.4618 47.166 56.4618H48.9429V58.237C48.9429 60.1497 49.0609 60.6165 49.6074 60.8653C50.0733 61.0773 54.6618 61.0773 55.1276 60.8653C55.6742 60.6165 55.7922 60.1497 55.7922 58.237V56.4618H57.5691C59.4836 56.4618 59.9509 56.3439 60.1999 55.7979C60.2961 55.587 60.3583 54.5031 60.3583 53.0404C60.3583 51.5778 60.2961 50.4938 60.1999 50.283C59.9509 49.737 59.4836 49.6191 57.5691 49.6191H55.7922V47.8439C55.7922 45.9312 55.6742 45.4644 55.1276 45.2156C54.6826 45.013 49.9872 45.0202 49.5656 45.2242ZM53.5091 49.1135C53.5091 50.1109 53.5784 51.041 53.6675 51.2361C53.9165 51.7821 54.3838 51.9 56.2983 51.9H58.0752V53.0404V54.1809H56.2983C54.3838 54.1809 53.9165 54.2988 53.6675 54.8448C53.5784 55.0399 53.5091 55.9699 53.5091 56.9674V58.7426H52.3675H51.226V56.9674C51.226 55.9699 51.1567 55.0399 51.0676 54.8448C50.8186 54.2988 50.3513 54.1809 48.4368 54.1809H46.6598V53.0404V51.9H48.4368C50.3513 51.9 50.8186 51.7821 51.0676 51.2361C51.1567 51.041 51.226 50.1109 51.226 49.1135V47.3382H52.3675H53.5091V49.1135ZM81.308 63.5855C84.7667 66.1639 88.1951 67.4902 92.2208 67.8076L93.476 67.9064L93.4307 76.0475C93.3868 83.985 93.3779 84.2091 93.0776 85.0015C92.4362 86.6944 91.3327 88.1286 90.0008 89.0006C89.5899 89.2696 87.1182 90.504 84.5083 91.7435L79.7631 93.9973L77.5164 92.9223C76.2807 92.3311 74.146 91.316 72.7726 90.6664C71.3992 90.0168 69.9373 89.2649 69.524 88.9955C68.5337 88.3502 67.4791 87.1504 66.9396 86.0554C66.0904 84.3324 66.0704 84.0935 66.0682 75.6194L66.066 67.9054L67.3146 67.807C71.3325 67.4904 74.7803 66.1558 78.1949 63.5953C79.0189 62.9775 79.7136 62.4667 79.7384 62.4605C79.7632 62.4542 80.4695 62.9604 81.308 63.5855ZM37.5275 64.4448V65.5853H39.8106H42.0937V64.4448V63.3044H39.8106H37.5275V64.4448ZM44.3768 64.4448V65.5853H52.9383H61.4999V64.4448V63.3044H52.9383H44.3768V64.4448ZM78.0488 66.5347C75.5616 68.1306 73.045 69.1687 70.3157 69.7244C69.2533 69.9406 68.9263 70.0686 68.6635 70.3713L68.3358 70.7486L68.3781 77.2548L68.4205 83.761L68.8682 84.7052C69.3699 85.7629 70.1162 86.66 70.8957 87.1421C72.0052 87.8284 79.4008 91.2452 79.7766 91.2452C79.9949 91.2452 82.078 90.3355 84.4056 89.2237C89.2852 86.8931 89.7177 86.587 90.5712 84.8624L91.1086 83.7766L91.1509 77.2625L91.1932 70.7486L90.8633 70.3653C90.5927 70.0511 90.2835 69.9322 89.1475 69.7053C86.5286 69.1822 83.9338 68.1091 81.4777 66.5331C80.6652 66.0118 79.8944 65.5853 79.7645 65.5853C79.6347 65.5853 78.8627 66.0125 78.0488 66.5347ZM80.6842 68.7059C82.7312 69.9976 85.0799 71.0025 87.5412 71.6399L88.8255 71.9724V77.7241V83.4759L88.4325 84.1438C88.2165 84.511 87.8529 84.9444 87.6247 85.1067C87.3964 85.2691 85.5346 86.198 83.4871 87.1709L79.7645 88.94L76.0419 87.1709C73.9944 86.198 72.1326 85.2691 71.9043 85.1067C71.6761 84.9444 71.3125 84.511 71.0965 84.1438L70.7035 83.4759V77.7237V71.9715L71.9878 71.6431C74.3482 71.0397 76.983 69.9057 78.9083 68.6645C79.34 68.3862 79.7183 68.157 79.7491 68.155C79.7799 68.153 80.2006 68.4009 80.6842 68.7059ZM37.5275 71.2875V72.4279H39.8106H42.0937V71.2875V70.147H39.8106H37.5275V71.2875ZM81.5848 78.0928L77.4841 82.1896L76.1978 80.9105L74.9115 79.6315L74.0936 80.4485L73.2759 81.2656L74.978 82.9707C76.8427 84.8385 77.2518 85.1023 77.8795 84.8426C78.0986 84.7519 80.3286 82.6281 82.8352 80.123L87.3928 75.5681L86.6157 74.7821C86.1884 74.3497 85.8042 73.996 85.7622 73.996C85.7201 73.996 83.8402 75.8395 81.5848 78.0928ZM37.5275 78.1301V79.2705H39.8106H42.0937V78.1301V76.9897H39.8106H37.5275V78.1301ZM37.5275 84.9727V86.1132H39.8106H42.0937V84.9727V83.8323H39.8106H37.5275V84.9727Z" fill="#D160E8"/>
</svg>
