<svg width="123" height="123" viewBox="0 0 123 123" fill="none" xmlns="http://www.w3.org/2000/svg">
<circle opacity="0.2" cx="61.5" cy="61.5" r="61.5" fill="#2B2665"/>
<path fill-rule="evenodd" clip-rule="evenodd" d="M58.4516 26.2054C57.3243 26.5021 56.5757 26.923 55.6659 27.7712C53.1005 30.1631 53.1172 34.1224 55.7032 36.5681L56.5428 37.3624V38.7312V40.0999L56.0028 40.0008C54.6109 39.7455 52.3822 38.5071 51.2646 37.3679C50.9364 37.0333 50.2152 36.2034 49.662 35.5237C47.4105 32.7575 45.1518 31.4454 41.6339 30.8601C40.9208 30.7415 39.1382 30.5466 37.6725 30.4271C32.8781 30.0362 30.5367 29.608 27.6213 28.5894C25.8527 27.9714 25.168 27.954 24.5305 28.5107C24.0708 28.912 24.0589 28.9519 24.0106 30.2559C23.9507 31.8745 24.1372 32.8245 24.7656 34.1012C25.3417 35.2721 26.2736 36.3096 27.3364 36.9635L28.1253 37.449L28.2146 38.794C28.358 40.9507 28.8469 42.1414 30.1286 43.4549C30.5548 43.8917 31.1228 44.3644 31.3908 44.5055C31.8534 44.7491 31.8831 44.8119 31.977 45.743C32.3537 49.4798 35.0744 52.2489 39.4678 53.3674C39.9305 53.4853 40.3268 53.5991 40.3484 53.6202C40.3701 53.6413 40.2965 54.0384 40.1849 54.5023C39.9085 55.6509 39.9206 57.7127 40.2092 58.6646C40.852 60.7837 42.2984 62.4455 44.5869 63.6943C45.0226 63.932 46.6705 64.6727 48.2488 65.3399C49.8273 66.0074 51.2162 66.6068 51.3355 66.672C51.5025 66.7632 51.4057 66.8636 50.9146 67.1079C50.0178 67.5543 48.3848 68.6516 47.5759 69.3515C47.5016 69.4158 47.4332 69.4792 47.3706 69.5417C46.7554 70.1567 46.7086 70.688 47.225 71.1623C47.7525 71.6465 48.1797 71.5475 49.2788 70.6862C50.3838 69.8201 52.2043 68.702 53.3663 68.1758C54.2107 67.7933 53.9311 67.7407 56.1827 68.7059L57.3351 69.1999L56.7589 69.4347C54.692 70.2769 52.9555 71.1091 52.0867 71.6735C48.2105 74.1924 48.8563 77.4058 53.5884 79.147C54.1215 79.3431 57.7755 80.4252 61.7084 81.5518C69.8572 83.8861 70.7345 84.226 72.1783 85.6099C73.5186 86.8946 73.9006 87.7556 73.9005 89.4916C73.9005 90.5685 73.8393 90.9588 73.5866 91.4935C72.8246 93.1064 70.8972 94.3772 68.985 94.5271L68.0586 94.5998L68.2164 94.193C68.3032 93.9693 68.69 93.3048 69.0759 92.7162C70.8411 90.0244 70.7499 87.8486 68.8139 86.4641C67.83 85.7607 67.3711 85.6056 59.856 83.4372C52.3918 81.2835 51.7375 81.0745 50.3488 80.402C47.6758 79.1079 46.3164 77.4563 46.2483 75.4211C46.2458 75.3461 46.2431 75.2752 46.24 75.208C46.1968 74.2659 46.0862 74.061 45.6113 73.8686C45.1188 73.6692 44.5307 73.8608 44.291 74.2989C44.1576 74.5424 44.1207 75.0754 44.1591 75.6771C44.208 76.444 44.3795 77.3225 44.6298 77.8551C45.3765 79.4445 46.6998 80.8015 48.439 81.7619C48.7752 81.9475 49.0499 82.131 49.0496 82.1697C49.0495 82.2084 48.6496 82.4619 48.1611 82.7329C46.9726 83.3925 45.3467 84.9848 44.7691 86.055C42.4475 90.356 44.7816 95.1953 49.791 96.4666C51.0026 96.7743 52.4973 96.7011 53.0361 96.3076C54.3964 95.315 54.3327 93.9542 52.8244 91.7831C52.0959 90.7344 51.7893 90.0182 51.7893 89.3649C51.7893 88.2072 52.4644 87.8115 56.2908 86.7279C56.5269 86.661 56.5428 86.9257 56.5428 90.9091C56.5428 95.5981 56.5885 95.9228 57.3737 96.8195C58.1063 97.6562 58.8712 98 60 98C61.4686 98 62.5342 97.3144 63.1574 95.9687C63.4319 95.3758 63.451 95.0564 63.454 90.9959C63.457 86.9306 63.4731 86.661 63.7092 86.7279C67.5444 87.8141 68.2107 88.2061 68.2107 89.3755C68.2107 90.0267 68.046 90.4057 67.1776 91.7513C66.2827 93.1382 66.0182 93.7802 66.0054 94.5967C65.9865 95.8096 66.8411 96.5655 68.3234 96.6467C70.2708 96.7533 72.4687 95.89 73.9855 94.4227C76.2898 92.1936 76.7771 88.9195 75.2309 86.055C74.6526 84.9834 73.0284 83.3905 71.8439 82.7329C71.3557 82.4619 70.9556 82.2084 70.9549 82.1697C70.9543 82.131 71.3323 81.8634 71.7951 81.5751C75.0638 79.5384 76.3833 76.6136 75.4153 73.5499C74.7386 71.4083 72.6113 69.1079 69.6656 67.3328C69.0946 66.9886 68.6819 66.6739 68.7488 66.6335C68.8156 66.5933 70.0994 66.0435 71.6016 65.4122C73.1038 64.7808 74.751 64.0418 75.262 63.7701C77.6619 62.4937 79.132 60.8364 79.7908 58.6646C80.0794 57.7127 80.0915 55.6509 79.8151 54.5023C79.7035 54.0384 79.6304 53.6407 79.6529 53.6189C79.6752 53.5971 80.1529 53.4547 80.7144 53.3027C84.264 52.3411 86.8968 50.13 87.7066 47.4305C87.8278 47.0264 87.9708 46.2608 88.0244 45.729C88.1167 44.8133 88.1477 44.7485 88.6092 44.5055C88.8772 44.3644 89.4452 43.8917 89.8714 43.4549C91.1531 42.1414 91.642 40.9507 91.7854 38.794L91.8747 37.449L92.6636 36.9635C93.7264 36.3096 94.6583 35.2721 95.2344 34.1012C95.8628 32.8245 96.0493 31.8745 95.9894 30.2559C95.9411 28.9519 95.9292 28.912 95.4695 28.5107C94.8154 27.9396 94.1581 27.9716 92.1247 28.6735C90.3887 29.2726 88.8862 29.6473 87.081 29.9315C86.8739 29.9641 86.6857 30.0008 86.5178 30.0413C86.113 30.1388 85.8265 30.2579 85.6766 30.3925C85.1325 30.8812 85.3167 31.7884 86.0126 32.0469C86.4416 32.2064 88.8044 31.7979 90.9112 31.2345C91.2968 31.1314 91.6738 31.0231 92.0288 30.9122C93.0468 30.594 93.9068 30.3602 93.9399 30.3926C94.1125 30.5612 93.6684 32.4801 93.2771 33.2569C92.4879 34.8238 90.9484 35.8262 88.3358 36.474C87.2419 36.7452 84.1988 37.1116 83.0399 37.1116C82.2884 37.1116 81.8826 38.3508 82.4653 38.8662C82.6965 39.0708 82.9878 39.1119 84.0858 39.0956C85.4379 39.0754 87.8991 38.775 88.8147 38.5183C89.7034 38.2692 89.7248 38.2878 89.6241 39.2291C89.2982 42.2763 86.7147 43.8823 81.4449 44.3139C79.2486 44.4938 78.9664 44.6197 78.9664 45.4192C78.9664 46.2117 79.3264 46.405 80.8013 46.404C82.102 46.4032 84.3945 46.1228 85.343 45.8487C85.6149 45.7699 85.864 45.7315 85.8964 45.7632C86.0282 45.892 85.4444 47.5051 85.0425 48.1223C84.2227 49.3816 82.6189 50.4912 80.7415 51.0976C78.7731 51.7337 78.8539 51.7428 78.2228 50.811C76.5363 48.3208 73.9329 46.3647 71.3239 45.6276C70.352 45.353 68.6301 45.3163 67.9952 45.5568C66.3651 46.1742 65.7072 47.8071 66.0881 50.2908L66.1982 51.0088L65.1517 50.8202C64.5763 50.7166 63.9586 50.5981 63.7791 50.5568L63.4528 50.4818L63.491 46.3754L63.5292 42.2689L64.4655 42.0359C67.5148 41.2772 69.6511 39.7889 72.0655 36.7406C74.0748 34.2037 76.5785 33.0105 80.615 32.6663C82.0059 32.5478 82.4715 32.2665 82.4715 31.545C82.4715 31.2325 82.3597 30.9648 82.1474 30.7694C81.9845 30.6194 81.8696 30.5466 81.6312 30.5257C81.4417 30.5091 81.1743 30.5252 80.7429 30.5613C75.532 30.9975 72.7327 32.4004 69.9504 35.97C68.98 37.2151 68.0965 38.0428 67.019 38.7165C66.1095 39.2852 64.751 39.8625 63.9972 40.0008L63.4572 40.0999V38.7312V37.3624L64.2968 36.5681C66.8828 34.1224 66.8995 30.1631 64.3341 27.7712C62.6722 26.2218 60.5428 25.655 58.4516 26.2054ZM61.4916 28.3861C62.3759 28.7095 63.4675 29.7352 63.8501 30.6023C63.9841 30.9056 64.0868 31.5436 64.0937 32.113C64.1034 32.9236 64.0333 33.2421 63.6994 33.9067C62.2022 36.887 57.7978 36.887 56.3006 33.9067C55.9698 33.2483 55.8956 32.916 55.9002 32.113C55.9164 29.2861 58.7636 27.3884 61.4916 28.3861ZM27.3557 30.7149C29.8904 31.6095 32.3936 32.0596 37.0964 32.4663C41.0858 32.8112 42.7664 33.1169 44.1883 33.7561C45.8523 34.5042 47.0146 35.5092 48.6579 37.6213C50.3129 39.7482 52.8067 41.3485 55.5345 42.0336L56.4708 42.2689L56.509 46.3754L56.5472 50.4818L56.2209 50.5588C56.0414 50.6012 55.4187 50.7231 54.8369 50.8297L53.7791 51.0237L53.8595 50.58C54.1071 49.2127 54.113 48.6665 53.8889 47.8114C53.4434 46.1113 52.4551 45.3879 50.5782 45.3879C47.5293 45.3879 43.9617 47.5854 41.7796 50.8074C41.2449 51.5969 41.2154 51.6169 40.7115 51.5299C39.7784 51.369 37.7616 50.5631 36.9162 50.0136C35.4725 49.0751 34.409 47.6138 34.1527 46.2166C34.063 45.7273 34.0797 45.6845 34.3303 45.7622C35.3145 46.0675 36.8533 46.2853 38.5368 46.3575C40.3975 46.4374 40.4934 46.4279 40.7576 46.1394C41.1118 45.7526 41.1118 45.0562 40.7576 44.716C40.5346 44.502 40.1146 44.4226 38.5769 44.304C36.2325 44.1232 34.8871 43.8372 33.5388 43.2333C31.6045 42.3671 30.5717 41.0594 30.3759 39.2291C30.2752 38.2878 30.2966 38.2692 31.1853 38.5183C32.1009 38.775 34.5621 39.0754 35.9142 39.0956C37.0122 39.1119 37.3035 39.0708 37.5347 38.8662C38.1174 38.3508 37.7116 37.1116 36.9601 37.1116C35.8093 37.1116 32.7641 36.7465 31.696 36.4804C28.7264 35.7404 27.1892 34.6293 26.4616 32.6966C26.1157 31.778 25.9359 30.3529 26.166 30.3529C26.2562 30.3529 26.7914 30.5158 27.3557 30.7149ZM61.2964 50.2497V62.3317L60.6482 62.6121C60.001 62.8919 59.999 62.8919 59.3518 62.6121L58.7036 62.3317V50.2497V38.1677H60H61.2964V50.2497ZM51.0572 47.4798C51.7224 47.6097 51.9924 48.1967 51.8871 49.2836C51.673 51.4929 50.7351 52.759 48.7642 53.4998C46.6466 54.2956 45.7392 55.1989 45.7392 56.5108C45.7392 57.4548 46.0789 58.1185 46.9863 58.9482C48.1544 60.0162 49.3983 60.6245 57.4792 64.0786C65.9725 67.709 67.5318 68.4337 69.1937 69.5237C70.5018 70.3816 72.3309 72.1247 72.8632 73.0208C73.3893 73.906 73.7311 75.2865 73.6059 76.0194C73.2916 77.8586 71.5763 79.5933 68.9815 80.696L67.8967 81.1569L67.0094 80.9058C66.5213 80.7677 65.615 80.5092 64.9953 80.3315L63.8684 80.0083L65.5863 79.4235C67.9239 78.6278 69.2784 77.7938 69.9448 76.74C70.9253 75.1892 70.432 73.5647 68.5363 72.1016C67.3846 71.2128 66.1079 70.6289 55.6065 66.1889C50.536 64.0451 45.9504 62.0406 45.4161 61.7346C41.8288 59.6794 41.0538 56.0863 43.3662 52.2293C44.6337 50.1152 47.1241 48.2011 49.3801 47.6072C50.2632 47.3746 50.448 47.3606 51.0572 47.4798ZM70.58 47.6056C73.2243 48.279 75.8438 50.5022 77.1018 53.141C78.7553 56.6094 77.9536 59.6319 74.8619 61.5852C74.0748 62.0824 66.4279 65.4137 66.0735 65.4137C65.9872 65.4137 65.185 65.1017 64.2908 64.7204L62.6649 64.0272L63.3131 63.7505C70.9065 60.5103 71.7761 60.0798 73.0137 58.9482C73.9211 58.1185 74.2608 57.4548 74.2608 56.5108C74.2608 55.1989 73.3534 54.2956 71.2358 53.4998C69.2659 52.7594 68.3208 51.484 68.1171 49.2914C67.9552 47.5478 68.6051 47.103 70.58 47.6056ZM56.4835 61.2944C56.3618 61.4134 50.4149 58.7784 49.5206 58.2094C48.6565 57.6594 47.7559 56.8117 47.7559 56.5483C47.7559 56.3004 48.5122 55.849 49.8049 55.3254C50.7839 54.9286 51.3358 54.597 51.967 54.0256L52.8146 53.2586L54.6427 52.9636L56.4708 52.6686L56.509 56.9505C56.5299 59.3055 56.5185 61.2603 56.4835 61.2944ZM67.899 53.8953C68.7319 54.6723 69.0191 54.8459 70.4072 55.4107C71.5161 55.862 72.2441 56.3128 72.2441 56.5483C72.2441 56.7982 71.3497 57.6615 70.5593 58.1743C69.8795 58.6153 64.6839 60.9687 63.7507 61.2582C63.4596 61.3485 63.4572 61.312 63.4572 57V52.6506L65.3422 52.9595C67.2172 53.2669 67.2309 53.2718 67.899 53.8953ZM60.9026 70.7166L61.301 70.9147L61.2627 74.7314L61.2244 78.5481L60.6122 78.7249C60.1213 78.8664 59.8787 78.8664 59.3878 78.7249L58.7756 78.5481L58.7373 74.7207L58.699 70.8935L59.3135 70.6219C59.9369 70.3462 60.188 70.3612 60.9026 70.7166ZM56.5428 74.9093V77.9276L55.3219 77.5242C53.2436 76.8375 51.6438 75.8365 51.6458 75.2241C51.6469 74.8739 52.2485 74.1191 52.8735 73.6836C53.5999 73.1775 56.0816 71.9069 56.3628 71.897C56.5015 71.8922 56.5428 72.585 56.5428 74.9093ZM65.0843 72.5267C65.8135 72.8763 66.7204 73.3856 67.0997 73.6582C67.7596 74.1326 68.3531 74.8735 68.3542 75.2241C68.3562 75.8378 66.3483 77.0553 64.3575 77.648L63.4572 77.9159V74.9034C63.4572 72.9008 63.5077 71.8908 63.6078 71.8908C63.6907 71.8908 64.3551 72.1769 65.0843 72.5267ZM54.1636 83.9484C55.1552 84.2356 55.9667 84.5127 55.9667 84.5641C55.9667 84.6155 55.3347 84.8373 54.5622 85.0569C51.996 85.7866 50.7968 86.4703 50.1287 87.5847C49.3004 88.9661 49.5591 90.6348 50.9241 92.7162C51.31 93.3048 51.6968 93.9693 51.7836 94.193L51.9414 94.5998L51.015 94.5271C49.1028 94.3772 47.1754 93.1064 46.4134 91.4935C46.1607 90.9588 46.0995 90.5685 46.0995 89.4916C46.0994 88.3412 46.1521 88.0455 46.4753 87.3795C46.9572 86.387 47.8245 85.4377 48.8721 84.7562C49.7979 84.1536 51.9091 83.2654 52.1829 83.363C52.2806 83.3978 53.1718 83.6612 54.1636 83.9484ZM60.7395 85.8529L61.2964 86.0161V90.5808V95.1456L60.8754 95.5571C60.588 95.8381 60.31 95.9687 60 95.9687C59.69 95.9687 59.412 95.8381 59.1246 95.5571L58.7036 95.1456V90.5789V86.0122L59.1717 85.8654C59.8112 85.6649 60.0899 85.6627 60.7395 85.8529Z" fill="#1FC8A5"/>
<path d="M85.6766 30.3925C85.8265 30.2579 86.113 30.1388 86.5178 30.0413C84.7831 30.3634 83.4898 30.4482 81.6312 30.5257C81.8696 30.5466 81.9845 30.6194 82.1474 30.7694C82.3597 30.9648 82.4715 31.2325 82.4715 31.545C82.4715 32.2665 82.0059 32.5478 80.615 32.6663C85.8012 32.3737 88.1691 31.9933 90.9112 31.2345C88.8044 31.7979 86.4416 32.2064 86.0126 32.0469C85.3167 31.7884 85.1325 30.8812 85.6766 30.3925Z" fill="#1FC8A5"/>
<path d="M47.225 71.1623C46.7086 70.688 46.7554 70.1567 47.3706 69.5417C44.5915 72.1417 43.959 73.7805 44.1591 75.6771C44.1207 75.0754 44.1576 74.5424 44.291 74.2989C44.5307 73.8608 45.1188 73.6692 45.6113 73.8686C46.0862 74.061 46.1968 74.2659 46.24 75.208C46.1996 73.0349 47.5773 72.0196 49.2788 70.6862C48.1797 71.5475 47.7525 71.6465 47.225 71.1623Z" fill="#1FC8A5"/>
</svg>
