<svg width="57" height="81" viewBox="0 0 57 81" fill="none" xmlns="http://www.w3.org/2000/svg">
<path fill-rule="evenodd" clip-rule="evenodd" d="M24.0691 20.9017C25.5571 22.968 27.1594 23.9016 28.5 23.9016C29.8406 23.9016 31.4429 22.968 32.9309 20.9017C34.3734 18.8986 35.4442 16.1629 35.814 13.4048C36.1866 10.6262 35.8207 8.04897 34.6771 6.23574C33.6057 4.53713 31.7419 3.31967 28.5 3.31967C25.2581 3.31967 23.3943 4.53713 22.3229 6.23574C21.1793 8.04897 20.8134 10.6262 21.186 13.4048C21.5558 16.1629 22.6266 18.8986 24.0691 20.9017ZM19.2531 4.55318C21.0084 1.77024 24.0856 0 28.5 0C32.9144 0 35.9916 1.77024 37.7469 4.55318C39.4299 7.22151 39.7763 10.6197 39.3476 13.8165C38.9162 17.0338 37.6723 20.2735 35.8875 22.752C34.1482 25.1672 31.6107 27.2213 28.5 27.2213C25.3893 27.2213 22.8518 25.1672 21.1125 22.752C19.3277 20.2735 18.0838 17.0338 17.6524 13.8165C17.2237 10.6197 17.5701 7.22151 19.2531 4.55318ZM19.7121 27.3175C20.3829 27.0948 21.1315 27.2661 21.6155 27.7529C24.4303 30.5845 26.0532 32.065 28.5 33.5587C30.9468 32.065 32.5697 30.5845 35.3845 27.7529C35.8685 27.2661 36.6171 27.0948 37.2879 27.3175C46.4382 30.3552 53.1918 34.9701 54.8136 42.1498C57.5134 54.1019 57.3439 62.952 56.273 79.4404C56.2136 80.3554 55.3697 81.0523 54.3881 80.9969C53.4065 80.9415 52.659 80.1548 52.7184 79.2398C53.7862 62.7988 53.9244 54.3243 51.3289 42.8338C50.1529 37.6275 45.3265 33.7089 37.1859 30.8198C34.4249 33.5593 32.5499 35.167 29.4253 36.9386C28.8569 37.2609 28.1431 37.2609 27.5747 36.9386C24.4501 35.167 22.5751 33.5593 19.8141 30.8198C11.6735 33.7089 6.84709 37.6275 5.67108 42.8338C3.07556 54.3243 3.21376 62.7988 4.28159 79.2398C4.34102 80.1548 3.59348 80.9415 2.61191 80.9969C1.63034 81.0523 0.786437 80.3554 0.727006 79.4404C-0.343904 62.952 -0.513393 54.1019 2.1864 42.1498C3.80816 34.9701 10.5618 30.3552 19.7121 27.3175Z" fill="#1FC8A5"/>
<path fill-rule="evenodd" clip-rule="evenodd" d="M28.5 41C29.2128 41 29.7907 41.5123 29.7907 42.1443V44.433H38.3953C39.1082 44.433 39.686 44.9453 39.686 45.5773C39.686 46.2093 39.1082 46.7216 38.3953 46.7216H29.7907V50.1546H43.5581C44.271 50.1546 44.8488 50.667 44.8488 51.299C44.8488 51.931 44.271 52.4433 43.5581 52.4433H29.7907V55.8763H45.7093C46.4221 55.8763 47 56.3886 47 57.0206C47 57.6526 46.4221 58.1649 45.7093 58.1649H29.7907V61.9794H43.5581C44.271 61.9794 44.8488 62.4917 44.8488 63.1237C44.8488 63.7557 44.271 64.268 43.5581 64.268H29.7907V67.701H40.9767C41.6896 67.701 42.2674 68.2134 42.2674 68.8454V73.0412C42.2674 74.521 41.7489 75.7429 40.8496 76.6067C39.9551 77.4659 38.7484 77.9046 37.5349 77.9046C36.3213 77.9046 35.1147 77.4659 34.2202 76.6067C33.3209 75.7429 32.8023 74.521 32.8023 73.0412V69.9897H29.7907V76.8557C29.7907 77.4877 29.2128 78 28.5 78C27.7872 78 27.2093 77.4877 27.2093 76.8557V69.9897H24.1977V73.0412C24.1977 74.521 23.6791 75.7429 22.7798 76.6067C21.8853 77.4659 20.6787 77.9046 19.4651 77.9046C18.2516 77.9046 17.0449 77.4659 16.1504 76.6067C15.2511 75.7429 14.7326 74.521 14.7326 73.0412V68.8454C14.7326 68.2134 15.3104 67.701 16.0233 67.701H27.2093V64.268H13.4419C12.729 64.268 12.1512 63.7557 12.1512 63.1237C12.1512 62.4917 12.729 61.9794 13.4419 61.9794H27.2093V58.1649H11.2907C10.5779 58.1649 10 57.6526 10 57.0206C10 56.3886 10.5779 55.8763 11.2907 55.8763H27.2093V52.4433H13.4419C12.729 52.4433 12.1512 51.931 12.1512 51.299C12.1512 50.667 12.729 50.1546 13.4419 50.1546H27.2093V46.7216H18.6047C17.8918 46.7216 17.314 46.2093 17.314 45.5773C17.314 44.9453 17.8918 44.433 18.6047 44.433H27.2093V42.1443C27.2093 41.5123 27.7872 41 28.5 41ZM21.6163 69.9897H17.314V73.0412C17.314 74.0409 17.6559 74.6785 18.0472 75.0544C18.4435 75.4349 18.9577 75.616 19.4651 75.616C19.9725 75.616 20.4868 75.4349 20.883 75.0544C21.2744 74.6785 21.6163 74.0409 21.6163 73.0412V69.9897ZM35.3837 69.9897V73.0412C35.3837 74.0409 35.7256 74.6785 36.117 75.0544C36.5132 75.4349 37.0275 75.616 37.5349 75.616C38.0423 75.616 38.5565 75.4349 38.9528 75.0544C39.3441 74.6785 39.686 74.0409 39.686 73.0412V69.9897H35.3837Z" fill="#2B2665"/>
</svg>
