<svg width="70" height="81" viewBox="0 0 70 81" fill="none" xmlns="http://www.w3.org/2000/svg">
<path fill-rule="evenodd" clip-rule="evenodd" d="M38.7776 12.207C36.906 12.1937 34.9402 12.7533 32.2124 14.0889C32.082 14.1527 31.9422 14.1954 31.7983 14.2153C28.771 14.6335 27.1245 15.2128 26.1036 16.204C23.1518 19.0698 21.7485 20.6317 20.3536 23.7104L20.0695 25.6838C20.1924 26.4231 20.3448 26.9841 20.5375 27.4511C20.7607 27.0091 21.2215 26.7057 21.7537 26.7057C22.5046 26.7057 23.1133 27.3096 23.1133 28.0546V30.588C23.8801 31.4357 24.372 31.7198 24.7925 31.7957C25.2501 31.8782 25.9509 31.7722 27.2876 31.0651C28.3171 29.6469 29.2802 28.4546 30.407 27.679C31.5051 26.9231 32.6861 26.6049 34.074 26.6546C34.6964 25.929 35.3662 25.2502 36.2703 24.7374C37.3095 24.148 38.5479 23.834 40.2063 23.7055C41.4889 22.5055 42.6992 21.5493 44.0881 21.0358C45.6711 20.4505 47.3118 20.4973 49.2934 21.0177C50.0193 21.2083 50.4519 21.9467 50.2598 22.6668C50.0677 23.387 49.3235 23.8163 48.5976 23.6257C46.9485 23.1926 45.9206 23.2373 45.0376 23.5638C44.0905 23.914 43.1325 24.6484 41.7324 25.9899C41.4969 26.2155 41.1873 26.3492 40.8604 26.3665C39.1505 26.457 38.2443 26.7253 37.6198 27.0795C36.9806 27.442 36.4992 27.9648 35.7228 28.9079C35.4275 29.2666 34.9674 29.4499 34.5041 29.3934C33.321 29.2493 32.6102 29.4459 31.957 29.8956C31.3419 30.319 30.7194 31.0045 29.9023 32.0895L30.2919 32.6049C31.6609 34.1824 32.6058 34.9573 33.5218 35.2757C34.3205 35.5533 35.2982 35.5478 36.8875 35.0129L37.6609 33.9898C38.1114 33.3939 38.9636 33.2731 39.5643 33.7201C40.165 34.167 40.2868 35.0126 39.8362 35.6085L39.6887 35.8037C39.9198 35.9248 40.1126 36.0007 40.2882 36.0459C40.6254 36.1325 41.0087 36.1328 41.6872 35.8905C42.1608 35.7215 42.6897 35.8258 43.0621 36.1617L48.613 41.1686L48.7743 39.9397L47.8027 39.8521C47.0549 39.7846 46.5038 39.1285 46.5718 38.3866C46.6398 37.6447 47.3011 37.0979 48.0489 37.1653L51.2935 37.458C52.3254 36.7423 53.2133 36.1161 53.9585 35.5234C54.8037 34.8513 55.3911 34.2792 55.7638 33.7492C56.1196 33.2433 56.2595 32.806 56.2567 32.3609C56.2543 31.9912 56.1527 31.5268 55.862 30.9273C53.7918 30.5178 52.1998 30.5811 50.6347 31.0065C48.8664 31.4871 47.0523 32.4484 44.5439 33.934C43.8992 34.3159 43.0645 34.1069 42.6796 33.4672C42.2947 32.8275 42.5054 31.9994 43.1501 31.6176C45.6519 30.1358 47.7514 28.9929 49.9163 28.4045C51.7995 27.8926 53.6738 27.8134 55.8596 28.1835C55.91 28.0703 55.976 27.9643 56.0559 27.8687C56.9606 26.7848 57.3064 26.1354 57.404 25.6178C57.4884 25.1698 57.4207 24.6279 56.9447 23.6748L54.9858 20.7594C53.3921 18.7953 52.1247 17.4949 50.7376 16.5178C49.3508 15.541 47.774 14.8383 45.5016 14.173C45.4317 14.1525 45.3636 14.1265 45.2979 14.0952C42.6026 12.8111 40.6558 12.2203 38.7776 12.207ZM58.2397 29.6114C58.7062 30.5303 58.9701 31.4357 58.9758 32.3439C58.9829 33.4557 58.6024 34.4277 57.9937 35.293C57.402 36.1344 56.5808 36.8956 55.6592 37.6285C54.7338 38.3645 53.6321 39.1293 52.4423 39.9524C52.1795 40.1342 51.8606 40.2181 51.5416 40.1893L51.4844 40.1842L51.0018 43.8607C51.4808 46.3189 51.6642 48.4031 51.498 50.6495C51.3291 52.9319 50.803 55.3255 49.9271 58.3847C48.6513 64.7676 49.5885 68.9913 52.1907 73.9715C52.5363 74.6329 52.276 75.447 51.6094 75.7899C50.9427 76.1328 50.1222 75.8745 49.7766 75.2131C46.9144 69.7351 45.8458 64.8807 47.2711 57.8037C47.2782 57.7684 47.2868 57.7334 47.2967 57.6987C48.1626 54.6807 48.6362 52.4774 48.7861 50.452C48.9256 48.5669 48.7882 46.7863 48.3758 44.6007L41.7981 38.6677C41.0623 38.8344 40.3487 38.8481 39.6068 38.6576C38.8758 38.4698 38.1969 38.1009 37.5166 37.6478C35.7235 38.2188 34.1475 38.3517 32.6228 37.8218C30.9709 37.2477 29.6203 35.9702 28.1999 34.329C28.1805 34.3065 28.1617 34.2834 28.1438 34.2596L27.8114 33.82C26.5963 34.3754 25.447 34.6558 24.3061 34.45C22.8581 34.1888 21.7746 33.2071 20.7743 32.0302C19.8281 31.186 19.0615 30.3908 18.4897 29.4178C17.8959 28.4073 17.565 27.2975 17.3505 25.8966C17.3305 25.7663 17.3299 25.6337 17.3487 25.5032L17.6886 23.1426C17.7062 23.0205 17.7406 22.9013 17.7908 22.7885C19.4196 19.129 21.111 17.2765 24.2018 14.2758C25.86 12.6658 28.2249 12.0009 31.2062 11.5738C34.0209 10.2146 36.3764 9.49203 38.7971 9.50921C41.2388 9.52654 43.5883 10.2961 46.3764 11.6164C48.7759 12.3264 50.6263 13.1308 52.3117 14.318C54.0104 15.5145 55.4708 17.0508 57.1432 19.1163C57.1684 19.1474 57.1922 19.1796 57.2146 19.2128L59.2539 22.2479C59.2841 22.2928 59.3115 22.3394 59.3361 22.3875C59.9705 23.6328 60.3197 24.825 60.0768 26.1137C59.8583 27.2728 59.1928 28.313 58.3136 29.3913L58.2397 29.6114Z" fill="#2B2665"/>
<path fill-rule="evenodd" clip-rule="evenodd" d="M11.7287 15.322C26.3758 -6.65409 56.0552 -3.5286 66.966 15.4155C71.3932 23.1023 70.5889 33.8159 67.0376 41.5675C67.017 41.6124 66.9944 41.6564 66.97 41.6994L62.5732 49.4183C61.4135 51.7226 60.4097 54.0623 59.8755 56.2888C59.3375 58.5309 59.3092 60.5195 59.9442 62.1969L59.9442 62.197C62.1811 68.1076 63.8558 71.2334 67.5777 76.6819C68.1042 77.4527 67.9013 78.5012 67.1243 79.0236C66.3473 79.5461 65.2906 79.3447 64.764 78.5738C60.9063 72.9265 59.102 69.5652 56.7622 63.3826C55.8022 60.8463 55.9436 58.1138 56.5689 55.5077C57.1951 52.8983 58.3403 50.2764 59.5524 47.8718C59.562 47.8527 59.572 47.8338 59.5824 47.815C59.5858 47.8088 59.5893 47.8026 59.5928 47.7965L63.9736 40.1056C67.1933 33.0262 67.7335 23.5452 64.0148 17.0886C54.3371 0.285302 27.7883 -2.65943 14.5638 17.1821C12.9615 19.5862 12.118 21.5916 11.6595 23.5958C11.1944 25.6292 11.1069 27.735 11.1069 30.4151C11.1069 30.4742 11.1069 30.5336 11.1069 30.5935C11.1081 32.2299 11.1095 34.1802 10.2476 35.8904C10.2182 35.949 10.1853 36.0057 10.1491 36.0604L3.71111 45.8098C3.3761 46.3735 3.38279 46.6954 3.41299 46.8458C3.44547 47.0075 3.56413 47.2601 3.96864 47.5717C4.8389 48.2419 6.5445 48.794 8.77274 48.9615L8.84865 48.9671C9.78486 49.0334 10.4896 49.8402 10.4227 50.7691C10.4008 51.0742 10.2983 51.3546 10.1373 51.5911L9.27824 54.5443L9.70561 54.9684L12.6517 54.7026C13.5865 54.6183 14.4131 55.3018 14.4981 56.2292C14.5831 57.1566 13.8942 57.9768 12.9595 58.0611L10.2133 58.3088L10.1859 58.3699L12.0788 60.248C12.5758 60.7411 12.7156 61.4869 12.4304 62.1243L10.6451 66.1153C10.5976 66.2668 10.5516 66.7174 11.5646 67.4631C12.5933 68.2203 14.3149 68.9044 16.4505 69.2143C18.4355 69.5024 20.1271 69.6678 21.6208 69.804C21.8119 69.8214 22.0007 69.8385 22.1874 69.8553C23.4402 69.9683 24.5932 70.0722 25.6336 70.2269C26.784 70.3979 27.8125 70.9702 28.667 71.6228C29.5339 72.2849 30.3275 73.1109 31.0167 73.9441C32.3929 75.6074 33.4864 77.4616 34.0397 78.5594C34.4595 79.3923 34.1192 80.4052 33.2797 80.8216C32.4402 81.2381 31.4193 80.9005 30.9996 80.0676C30.5332 79.142 29.5709 77.5116 28.3895 76.0837C27.8001 75.3712 27.1895 74.7501 26.5937 74.2951C25.9855 73.8305 25.4927 73.6159 25.13 73.562C24.1949 73.423 23.1524 73.3288 21.8853 73.2143C21.6984 73.1974 21.5067 73.1801 21.3097 73.1622C19.797 73.0242 18.0342 72.8523 15.9586 72.5511C13.4465 72.1866 11.1449 71.3532 9.53933 70.1713C7.98639 69.0282 6.616 67.1273 7.47914 64.8854C7.48982 64.8576 7.50124 64.8302 7.51339 64.803L8.85048 61.8142L6.9562 59.9348C6.45852 59.441 6.31911 58.6939 6.6056 58.0561L7.03881 57.0916L6.16554 56.2252C5.72796 55.7911 5.56282 55.1553 5.73442 54.5654L6.46277 52.0616C4.70725 51.7367 3.0733 51.1511 1.88447 50.2356C1.0317 49.5788 0.314808 48.6759 0.0795816 47.5049C-0.157466 46.3249 0.149087 45.1447 0.812372 44.0483C0.823868 44.0293 0.835741 44.0105 0.847983 43.992L7.24617 34.303C7.6756 33.3907 7.70789 32.2419 7.70789 30.4151C7.70789 27.6996 7.79029 25.2738 8.34486 22.8494C8.90611 20.3958 9.93205 18.0176 11.7287 15.322Z" fill="#1FC8A5"/>
</svg>
