<svg width="861" height="575" viewBox="0 0 861 575" fill="none" xmlns="http://www.w3.org/2000/svg">
<path d="M582.248 570.784C551.457 551.878 542.386 513.936 541.492 479.444C541.364 473.696 540.342 467.692 542.769 462.454C545.197 457.216 551.329 453.384 556.695 455.555C561.039 457.344 563.211 462.198 565.894 466.159C569.344 471.396 574.455 475.612 580.204 478.295C584.037 479.955 588.636 480.85 592.086 478.678C596.941 475.612 597.069 468.713 596.686 462.965C595.919 452.362 595.28 441.631 594.514 431.028C594.13 425.279 593.747 419.403 595.152 413.909C596.558 408.416 600.263 403.051 605.629 401.262C610.995 399.346 617.894 402.157 619.427 407.65C620.066 409.949 619.683 412.377 620.066 414.804C620.322 417.231 621.599 419.786 623.899 420.297C626.199 420.808 628.371 419.019 630.032 417.231C635.654 411.099 639.103 403.434 642.425 395.769C645.747 388.104 648.941 380.312 653.924 373.669C658.906 367.026 666.061 361.66 674.238 360.638C682.415 359.616 691.486 364.215 694.042 372.136C696.597 380.056 692.381 388.488 687.653 395.386C680.626 405.478 672.194 414.676 662.612 422.341C660.823 423.746 659.034 425.279 658.395 427.451C657.373 431.283 661.206 434.86 665.039 435.882C669.383 437.032 673.983 436.265 678.454 436.521C682.926 436.776 687.909 438.437 689.825 442.525C692.508 448.274 688.037 454.661 683.437 459.005C674.238 467.564 663.634 474.59 652.135 479.7C648.047 481.488 643.703 483.149 640.508 486.215C637.314 489.409 635.526 494.646 637.825 498.607C640.125 502.567 645.491 503.461 649.835 502.439C654.179 501.417 658.012 498.734 662.101 496.946C669.766 493.497 679.987 493.369 685.481 499.884C689.059 504.1 689.698 510.359 688.42 515.725C687.014 521.09 683.948 525.945 680.626 530.416C668.872 546.001 653.54 558.904 635.653 566.313C617.639 573.595 600.774 576.278 582.248 570.784Z" fill="#1FC8A5"/>
<path d="M589.914 548.684C593.874 530.927 600.007 511.892 606.906 492.219C608.695 487.365 610.356 482.383 612.145 477.656C613.933 472.929 615.594 468.202 617.511 463.604C621.344 454.533 625.815 446.102 630.287 438.182C634.759 430.261 639.231 422.98 643.447 416.209C647.791 409.438 651.879 403.179 655.84 397.558C663.761 386.444 671.299 378.268 676.538 372.775C679.221 370.092 681.393 368.048 682.798 366.643C683.565 366.004 684.076 365.493 684.459 365.11C684.842 364.726 685.098 364.599 685.098 364.599C685.098 364.599 684.97 364.854 684.587 365.237C684.203 365.621 683.692 366.132 682.926 366.898C681.52 368.303 679.476 370.347 676.793 373.158C671.555 378.651 664.145 386.955 656.351 398.069C652.39 403.69 648.302 409.949 644.086 416.72C639.869 423.491 635.398 430.9 630.926 438.693C626.454 446.613 622.11 454.917 618.277 463.987C616.361 468.458 614.7 473.185 612.911 478.039C611.25 482.766 609.462 487.62 607.673 492.602C600.646 512.276 594.641 531.31 590.553 548.939" fill="#15A385"/>
<path d="M617.767 463.604C617.639 463.604 617.512 462.709 617 461.176C616.617 459.643 616.106 457.344 615.595 454.534C614.445 448.913 613.168 440.992 611.634 432.305C610.229 423.618 608.824 415.826 607.546 410.205C606.907 407.394 606.396 405.095 606.013 403.562C605.629 402.029 605.502 401.135 605.502 401.135C605.629 401.135 605.885 401.901 606.396 403.434C606.907 404.967 607.546 407.267 608.185 410.077C609.59 415.698 611.123 423.491 612.656 432.178C614.062 440.737 615.339 448.529 616.234 454.406C616.745 457.089 617.128 459.26 617.384 461.176C617.767 462.709 617.895 463.476 617.767 463.604Z" fill="#15A385"/>
<path d="M690.592 445.336C690.592 445.463 689.57 445.591 687.653 445.847C685.737 446.102 683.054 446.485 679.732 447.124C673.088 448.274 663.889 450.19 653.796 452.617C643.703 455.172 634.759 457.855 628.243 460.027C625.049 461.049 622.366 461.943 620.577 462.582C618.789 463.22 617.767 463.476 617.767 463.476C617.767 463.348 618.661 462.965 620.45 462.198C622.238 461.432 624.794 460.41 627.988 459.26C634.376 456.961 643.447 454.15 653.413 451.595C663.506 449.04 672.705 447.252 679.476 446.358C682.798 445.847 685.609 445.591 687.526 445.463C689.442 445.336 690.592 445.336 690.592 445.336Z" fill="#15A385"/>
<path d="M590.681 547.279C590.681 547.279 590.425 547.023 590.17 546.385C589.786 545.746 589.275 544.852 588.764 543.83C587.487 541.53 585.826 538.336 583.781 534.121C579.693 525.945 574.455 514.448 568.833 501.545C563.211 488.77 558.101 477.145 554.14 468.841C552.224 464.753 550.691 461.56 549.541 459.005C549.03 457.983 548.646 457.089 548.263 456.322C548.008 455.683 547.88 455.428 547.88 455.3C547.88 455.3 548.135 455.556 548.391 456.194C548.774 456.833 549.285 457.727 549.796 458.749C551.074 461.049 552.735 464.242 554.779 468.458C558.867 476.634 564.106 488.131 569.727 501.034C575.349 513.809 580.46 525.434 584.42 533.61C586.337 537.698 587.87 540.891 589.02 543.446C589.531 544.468 589.914 545.363 590.297 546.129C590.553 546.896 590.681 547.279 590.681 547.279Z" fill="#15A385"/>
<path d="M686.631 509.848C686.631 509.848 686.376 509.976 685.737 510.359C684.97 510.615 684.076 510.998 682.926 511.509C680.371 512.531 676.921 513.936 672.705 515.597C664.017 519.046 652.135 523.773 638.975 529.138C625.816 534.504 613.806 539.23 605.118 542.424C600.774 544.085 597.197 545.362 594.769 546.129C593.619 546.512 592.725 546.768 591.958 547.023C591.319 547.279 590.936 547.279 590.936 547.279C590.936 547.279 591.192 547.151 591.831 546.768C592.597 546.512 593.491 546.129 594.641 545.618C597.197 544.596 600.646 543.191 604.862 541.53C613.55 538.081 625.432 533.354 638.592 527.989C651.752 522.623 663.761 517.897 672.449 514.703C676.793 513.042 680.371 511.765 682.798 510.998C683.948 510.615 684.843 510.359 685.609 510.104C686.248 509.848 686.503 509.848 686.631 509.848Z" fill="#15A385"/>
<path d="M646.974 228.465C641.736 241.623 633.304 262.829 629.471 272.666C628.321 275.604 629.726 278.798 632.665 279.948L668.566 294.255C671.505 295.405 674.699 294 675.849 291.062L693.353 247.244C695.908 240.857 692.841 233.575 686.326 231.02L688.881 224.633L665.372 215.307L662.945 221.439H662.817C656.429 219.139 649.53 222.205 646.974 228.465Z" fill="#F5F5F5"/>
<path d="M664.989 216.201L663.84 219.139L687.093 229.359L688.498 225.527L664.989 216.201Z" fill="#AAC7FF"/>
<path d="M688.242 227.698L663.839 217.99C662.562 217.479 661.923 216.073 662.434 214.796L664.734 208.919C665.5 207.003 667.8 205.981 669.717 206.748L691.692 215.435C693.608 216.201 694.63 218.501 693.864 220.417L691.564 226.293C691.053 227.571 689.52 228.209 688.242 227.698Z" fill="#BADAFF"/>
<path d="M665.244 218.501C665.117 218.373 666.011 215.818 667.289 212.624C668.566 209.43 669.716 206.875 669.972 206.875C670.099 207.003 669.205 209.558 667.928 212.752C666.65 216.073 665.372 218.628 665.244 218.501Z" fill="#AAC7FF"/>
<path d="M668.311 219.778C668.183 219.65 669.077 217.095 670.355 213.902C671.633 210.708 672.783 208.153 673.038 208.153C673.166 208.281 672.271 210.836 670.994 214.029C669.716 217.223 668.566 219.778 668.311 219.778Z" fill="#AAC7FF"/>
<path d="M671.505 220.928C671.377 220.8 672.271 218.245 673.549 215.051C674.827 211.858 675.977 209.303 676.232 209.303C676.36 209.43 675.466 211.985 674.188 215.179C672.783 218.501 671.633 221.056 671.505 220.928Z" fill="#AAC7FF"/>
<path d="M674.571 222.205C674.443 222.077 675.338 219.522 676.615 216.329C677.893 213.135 679.043 210.58 679.298 210.58C679.426 210.708 678.532 213.263 677.254 216.456C675.849 219.778 674.699 222.333 674.571 222.205Z" fill="#AAC7FF"/>
<path d="M677.638 223.483C677.51 223.355 678.404 220.8 679.682 217.606C680.96 214.413 682.11 211.858 682.365 211.858C682.493 211.985 681.599 214.54 680.321 217.734C679.043 220.928 677.893 223.483 677.638 223.483Z" fill="#AAC7FF"/>
<path d="M680.704 224.632C680.577 224.505 681.471 221.95 682.748 218.756C684.026 215.562 685.176 213.007 685.431 213.007C685.559 213.135 684.665 215.69 683.387 218.884C682.11 222.205 680.96 224.76 680.704 224.632Z" fill="#AAC7FF"/>
<path d="M683.898 225.91C683.77 225.782 684.664 223.227 685.942 220.034C687.219 216.84 688.369 214.285 688.625 214.285C688.88 214.285 687.858 216.968 686.581 220.161C685.175 223.483 684.025 226.038 683.898 225.91Z" fill="#AAC7FF"/>
<path d="M686.964 227.187C686.836 227.06 687.731 224.505 689.008 221.311C690.286 218.117 691.436 215.562 691.691 215.562C691.819 215.69 690.925 218.245 689.647 221.439C688.369 224.632 687.092 227.187 686.964 227.187Z" fill="#AAC7FF"/>
<path d="M674.06 272.538L643.908 260.53C642.886 260.146 642.502 258.997 642.886 258.103L650.424 239.324C650.807 238.302 651.957 237.918 652.851 238.302L683.004 250.31C684.026 250.693 684.409 251.843 684.026 252.737L676.488 271.516C676.232 272.41 675.082 272.921 674.06 272.538Z" fill="#BADAFF"/>
<path d="M674.188 270.75C674.188 270.75 674.188 270.622 674.316 270.366C674.444 270.111 674.572 269.728 674.699 269.344C675.083 268.322 675.594 267.045 676.233 265.384C677.51 261.935 679.427 257.208 681.726 251.332L681.854 251.715C673.677 248.521 663.456 244.434 652.213 239.962C652.085 239.962 652.98 239.579 652.596 239.835V239.962L652.468 240.09L652.341 240.473L652.085 241.112L651.574 242.39C651.191 243.284 650.935 244.05 650.552 244.945C649.913 246.605 649.274 248.266 648.636 249.927C647.358 253.12 646.08 256.314 644.93 259.252L644.803 258.869C653.363 262.318 660.773 265.384 666.011 267.428C668.567 268.45 670.611 269.344 672.144 269.983C672.783 270.239 673.294 270.494 673.805 270.622C674.061 270.75 674.188 270.75 674.188 270.75C674.188 270.75 674.061 270.75 673.677 270.622C673.294 270.494 672.783 270.239 672.016 269.983C670.483 269.472 668.439 268.578 665.884 267.684C660.518 265.64 653.107 262.702 644.419 259.252L644.164 259.125L644.292 258.869C645.442 255.931 646.719 252.737 647.997 249.543C648.636 247.883 649.274 246.222 649.913 244.561C650.296 243.667 650.552 242.901 650.935 242.006L651.446 240.729L651.702 240.09L651.83 239.707L651.957 239.579V239.451C651.574 239.579 652.468 239.196 652.341 239.324C663.456 243.795 673.805 247.883 681.854 251.204L682.11 251.332L681.982 251.587C679.554 257.464 677.638 262.318 676.233 265.767C675.594 267.428 675.083 268.706 674.572 269.6C674.444 269.983 674.316 270.366 674.188 270.622C674.316 270.75 674.188 270.75 674.188 270.75Z" fill="#AAC7FF"/>
<path d="M674.827 255.931C674.699 256.059 670.228 254.398 664.606 252.226C659.112 250.054 654.64 248.138 654.64 247.883C654.768 247.755 659.24 249.416 664.861 251.587C670.483 253.759 674.955 255.675 674.827 255.931Z" fill="#AAC7FF"/>
<path d="M673.549 259.252C673.421 259.38 668.949 257.719 663.328 255.548C657.834 253.376 653.362 251.46 653.362 251.204C653.49 251.076 657.962 252.737 663.583 254.909C669.077 257.208 673.549 259.125 673.549 259.252Z" fill="#AAC7FF"/>
<path d="M672.143 262.574C672.016 262.701 667.544 261.041 661.922 258.869C656.429 256.697 651.957 254.781 651.957 254.525C652.085 254.398 656.556 256.058 662.178 258.23C667.799 260.53 672.271 262.446 672.143 262.574Z" fill="#AAC7FF"/>
<path d="M685.048 230.381C684.921 230.509 680.066 228.72 673.933 226.293C667.928 223.866 663.073 221.822 663.073 221.566C663.201 221.439 668.056 223.227 674.188 225.654C680.193 228.209 685.048 230.253 685.048 230.381Z" fill="#AAC7FF"/>
<path d="M632.409 271.005C632.409 271.005 632.665 270.239 633.176 268.833C633.687 267.428 634.453 265.512 635.348 263.212C637.264 258.486 639.819 251.843 642.758 244.561C644.163 240.984 645.569 237.535 646.846 234.341C648.124 231.148 649.529 228.337 651.573 226.549C653.49 224.76 655.534 223.994 656.94 223.738C657.706 223.61 658.217 223.738 658.601 223.738C658.984 223.866 659.112 223.866 659.112 223.866C659.112 223.994 658.345 223.738 656.94 223.994C655.534 224.249 653.618 225.016 651.829 226.804C650.04 228.593 648.635 231.275 647.357 234.469C646.08 237.663 644.674 241.112 643.269 244.689C640.33 251.971 637.647 258.486 635.731 263.212C634.709 265.512 633.942 267.428 633.303 268.833C632.792 270.239 632.409 271.005 632.409 271.005Z" fill="white"/>
<path d="M672.782 294.127C672.782 294.127 672.271 293.744 671.377 292.978C670.993 292.595 670.355 292.084 669.716 291.573C669.077 291.062 668.31 290.423 667.544 289.784C665.883 288.507 663.839 287.101 661.411 285.696C658.984 284.291 656.301 283.013 653.362 281.736C650.424 280.586 647.485 279.692 644.802 279.053C642.119 278.414 639.691 278.031 637.647 277.776C636.625 277.648 635.731 277.648 634.836 277.52C634.07 277.392 633.303 277.392 632.664 277.392C631.515 277.392 630.876 277.265 630.876 277.265C630.876 277.265 631.515 277.137 632.664 277.137C633.303 277.137 633.942 277.137 634.836 277.137C635.731 277.137 636.625 277.137 637.647 277.265C639.691 277.392 642.247 277.776 644.93 278.414C647.613 279.053 650.551 279.947 653.618 281.097C656.556 282.247 659.367 283.652 661.667 285.057C664.094 286.463 666.139 287.868 667.672 289.273C668.566 289.912 669.205 290.551 669.844 291.062C670.482 291.573 670.993 292.084 671.377 292.467C672.399 293.616 672.782 294 672.782 294.127Z" fill="white"/>
<path d="M181.808 377.884L82.9188 425.534C81.3856 426.301 79.5969 425.662 78.8303 424.129L12.3932 286.161C11.6266 284.628 12.2654 282.84 13.7986 282.073L112.688 234.423C114.221 233.656 116.01 234.295 116.776 235.828L183.213 373.796C183.98 375.329 183.341 377.118 181.808 377.884Z" fill="#BADAFF"/>
<path d="M111.08 238.876L18.2871 283.532L82.564 417.065L175.357 372.409L111.08 238.876Z" fill="#FAFAFA"/>
<path d="M84.5799 254.096C80.747 251.158 75.6365 250.647 71.4203 252.691L68.6095 247.07C66.5653 242.727 61.3269 240.938 56.983 242.982C52.639 245.026 50.8503 250.264 52.8945 254.607L55.7053 260.484L53.7889 261.506C49.5727 263.677 46.8896 267.893 46.8896 272.62V275.558L87.263 256.14L84.5799 254.096ZM62.9879 255.118C60.6881 256.268 57.8773 255.246 56.7275 252.946C55.5776 250.647 56.5997 247.836 58.8994 246.687C61.1992 245.537 64.01 246.559 65.1599 248.858C66.3097 251.158 65.2876 253.968 62.9879 255.118Z" fill="#BADAFF"/>
<path d="M61.8377 285.905C61.9655 286.033 56.3439 288.971 49.4446 292.293C42.5454 295.614 36.796 298.169 36.6683 298.042C36.5405 297.914 42.1621 294.976 49.0614 291.654C56.0884 288.333 61.71 285.778 61.8377 285.905Z" fill="#BADAFF"/>
<path d="M50.8501 296.381C50.9778 296.509 48.2948 298.042 44.9729 299.574C41.6511 301.235 38.8403 302.385 38.7125 302.257C38.5847 302.129 41.2678 300.596 44.5896 299.063C48.0393 297.403 50.7223 296.253 50.8501 296.381Z" fill="#BADAFF"/>
<path d="M115.627 279.774C115.754 279.901 100.039 287.566 80.7471 296.892C61.4548 306.218 45.6121 313.627 45.6121 313.499C45.4843 313.371 61.1993 305.707 80.4916 296.381C99.7839 287.055 115.627 279.646 115.627 279.774Z" fill="#BADAFF"/>
<path d="M118.82 286.416C118.948 286.544 103.233 294.209 83.9405 303.535C64.6482 312.86 48.8055 320.27 48.8055 320.142C48.6777 320.014 64.3926 312.349 83.685 303.024C103.105 293.698 118.82 286.289 118.82 286.416Z" fill="#BADAFF"/>
<path d="M122.142 293.187C122.27 293.315 106.555 300.98 87.2628 310.305C67.9704 319.631 52.1277 327.04 52.1277 326.913C52 326.785 67.7149 319.12 87.0072 309.794C106.3 300.341 122.015 292.932 122.142 293.187Z" fill="#BADAFF"/>
<path d="M125.337 299.83C125.464 299.958 109.749 307.623 90.4571 316.948C71.1648 326.274 55.3221 333.683 55.3221 333.556C55.1943 333.428 70.9092 325.763 90.2016 316.437C109.494 307.112 125.209 299.702 125.337 299.83Z" fill="#BADAFF"/>
<path d="M128.53 306.473C128.658 306.601 112.943 314.266 93.6505 323.591C74.3581 332.917 58.5154 340.326 58.5154 340.199C58.3877 340.071 74.1026 332.406 93.3949 323.08C112.687 313.755 128.402 306.345 128.53 306.473Z" fill="#BADAFF"/>
<path d="M131.725 313.244C131.852 313.371 116.137 321.036 96.845 330.362C77.5527 339.688 61.71 347.097 61.71 346.969C61.5822 346.842 77.2972 339.177 96.5895 329.851C115.882 320.398 131.597 312.988 131.725 313.244Z" fill="#BADAFF"/>
<path d="M99.6558 336.111C99.6558 336.111 99.1448 336.366 98.3782 336.877C97.3561 337.388 96.0784 338.027 94.673 338.793C91.4789 340.326 87.135 342.498 82.28 344.798C77.4249 347.097 73.081 349.141 69.8869 350.674C68.3537 351.313 67.0761 351.951 66.054 352.335C65.1596 352.718 64.6486 352.973 64.6486 352.846C64.6486 352.846 65.1596 352.59 65.9262 352.079C66.9483 351.568 68.2259 350.929 69.6313 350.163C72.8254 348.63 77.1694 346.458 82.0244 344.159C86.8795 341.859 91.2234 339.815 94.4175 338.282C95.9507 337.644 97.2283 337.005 98.2504 336.622C99.017 336.238 99.5281 335.983 99.6558 336.111Z" fill="#BADAFF"/>
<path d="M110.644 261.633C110.771 261.761 108.216 263.166 105.15 264.572C102.083 266.105 99.5281 267.126 99.4003 266.999C99.2726 266.871 101.828 265.466 104.894 264.061C107.961 262.528 110.516 261.506 110.644 261.633Z" fill="#BADAFF"/>
<path d="M90.7128 358.339C90.8405 358.467 86.7521 360.638 81.7693 363.066C76.7865 365.493 72.5703 367.281 72.5703 367.153C72.4425 367.026 76.531 364.854 81.5138 362.427C86.4965 360 90.585 358.083 90.7128 358.339Z" fill="#BADAFF"/>
<path d="M94.1624 364.087C94.2902 364.215 90.2018 366.387 85.0912 368.814C79.9807 371.241 75.7645 373.157 75.6367 372.902C75.5089 372.774 79.5974 370.603 84.7079 368.175C89.9462 365.748 94.1624 363.832 94.1624 364.087Z" fill="#BADAFF"/>
<path d="M142.968 332.023C143.096 332.15 141.18 333.3 138.752 334.45C136.325 335.6 134.28 336.494 134.153 336.238C134.025 336.111 135.941 334.961 138.369 333.811C140.924 332.661 142.968 331.767 142.968 332.023Z" fill="#BADAFF"/>
<path d="M145.907 337.26C146.034 337.388 144.118 338.538 141.69 339.687C139.263 340.837 137.219 341.731 137.091 341.476C136.963 341.348 138.88 340.198 141.307 339.049C143.862 337.899 145.907 337.132 145.907 337.26Z" fill="#BADAFF"/>
<path d="M88.7959 374.563C88.9236 374.691 87.0072 375.84 84.7074 376.862C82.4077 378.012 80.3635 378.779 80.3635 378.651C80.2357 378.523 82.1522 377.373 84.4519 376.351C86.7516 375.074 88.6681 374.307 88.7959 374.563Z" fill="#BADAFF"/>
<path d="M149.356 343.52C149.484 343.648 148.079 344.542 146.29 345.308C144.501 346.203 143.096 346.714 142.968 346.586C142.84 346.458 144.246 345.564 146.034 344.797C147.695 343.903 149.228 343.392 149.356 343.52Z" fill="#BADAFF"/>
<path d="M86.6241 393.214C86.6241 393.214 86.7519 393.086 87.0074 392.958C87.263 392.831 87.6463 392.575 88.0295 392.192C89.0517 391.553 90.4571 390.659 92.118 389.509C95.6954 387.21 100.806 384.016 106.939 380.184L107.194 380.056L107.322 380.439C107.961 382.1 108.088 384.144 107.45 386.06C106.811 387.976 105.405 389.765 103.361 390.531C101.317 391.298 98.8895 391.17 97.1008 389.765C95.1843 388.36 94.4177 385.805 94.9288 383.505C95.1843 382.611 95.5676 381.844 96.2064 381.206C96.3342 381.078 96.4619 380.95 96.7175 380.695C96.8452 380.567 97.1008 380.439 97.3563 380.311C97.6118 380.184 97.9951 380.184 98.2506 380.311C98.5062 380.439 98.6339 380.695 98.7617 380.95C99.5283 382.483 100.039 384.016 100.039 385.677C100.167 387.338 99.9116 388.871 99.2727 390.404C98.7617 391.809 97.8674 393.214 96.462 393.98C95.1843 394.875 93.3956 394.619 92.118 393.853C90.8403 393.086 89.946 391.937 89.5627 390.659C88.6684 388.104 89.3072 385.549 89.5627 383.505L89.6905 382.994L90.0738 383.377C91.6069 385.038 92.2457 387.082 92.5013 388.871C92.7568 390.659 92.5013 392.192 92.118 393.342C91.7347 394.491 91.2236 395.386 90.8403 395.897C90.5848 396.152 90.4571 396.408 90.3293 396.535C90.2015 396.663 90.2015 396.663 90.2015 396.663C90.0738 396.663 91.2236 395.641 91.8625 393.214C92.2457 392.064 92.3735 390.531 92.118 388.871C91.8625 387.21 91.2236 385.294 89.6905 383.633L90.0738 383.505C89.6905 385.677 89.3072 388.104 90.0738 390.404C90.4571 391.553 91.3514 392.575 92.3735 393.342C93.5234 393.98 94.9288 394.108 96.0787 393.469C97.2285 392.703 97.9951 391.553 98.5062 390.148C99.0172 388.743 99.2728 387.21 99.145 385.677C99.0172 384.144 98.6339 382.611 97.8674 381.206C97.7396 381.078 97.7396 380.95 97.6118 380.822C97.4841 380.822 97.4841 380.822 97.3563 380.822C97.1008 380.95 96.7175 381.206 96.462 381.461C95.9509 381.972 95.5676 382.739 95.4398 383.505C94.9288 385.549 95.6954 387.849 97.3563 388.998C99.0172 390.148 101.317 390.276 103.106 389.637C104.894 388.998 106.3 387.338 106.811 385.677C107.45 383.888 107.322 381.972 106.683 380.439L107.322 380.822C101.189 384.527 96.0787 387.721 92.3735 389.893C90.5848 390.915 89.1794 391.809 88.1573 392.448C87.6463 392.703 87.3907 392.959 87.0074 393.086C86.7519 393.214 86.6241 393.214 86.6241 393.214Z" fill="#BADAFF"/>
<path d="M153.061 361.021C153.061 361.021 153.061 361.405 152.806 362.171C152.678 362.554 152.55 363.065 152.167 363.576C151.911 364.087 151.273 364.598 150.506 364.854C150.123 364.982 149.739 364.982 149.228 364.854C148.845 364.726 148.462 364.343 148.206 364.087C147.695 363.321 147.312 362.554 146.801 361.66C145.779 359.872 144.757 357.955 143.607 355.912L144.246 355.784C144.118 358.722 143.99 361.916 143.862 365.237C143.862 366.004 143.862 366.77 143.735 367.537V368.814L143.096 367.664C141.307 364.087 139.774 360.766 138.241 357.828H138.752C137.73 361.405 137.602 364.598 137.474 366.77C137.474 368.942 137.602 370.219 137.602 370.219C137.602 370.219 137.474 369.964 137.474 369.325C137.346 368.686 137.346 367.92 137.219 366.77C137.091 364.598 137.219 361.405 138.241 357.7L138.368 356.934L138.752 357.572C140.157 360.51 141.818 363.832 143.607 367.409L142.968 367.537C142.968 366.77 142.968 366.004 143.096 365.237C143.224 361.916 143.351 358.722 143.479 355.784V354.634L143.99 355.656C145.14 357.828 146.162 359.744 147.056 361.532C147.567 362.427 147.951 363.321 148.334 363.96C148.845 364.598 149.484 364.982 150.123 364.726C151.528 364.343 151.911 363.193 152.167 362.427C152.806 361.405 152.934 361.021 153.061 361.021Z" fill="#BADAFF"/>
<path d="M152.805 356.295C152.933 356.423 147.695 360.255 141.051 364.726C134.407 369.197 129.041 372.774 128.913 372.647C128.786 372.519 134.024 368.686 140.668 364.215C147.311 359.616 152.805 356.039 152.805 356.295Z" fill="#BADAFF"/>
<path d="M159.322 357.317C159.45 357.445 155.617 361.021 150.634 365.237C145.779 369.453 141.69 372.774 141.563 372.647C141.435 372.519 145.268 368.942 150.251 364.726C155.106 360.51 159.194 357.189 159.322 357.317Z" fill="#BADAFF"/>
<path d="M206.083 82.147H200.717L188.962 65.7952V55.0644C188.962 55.0644 180.658 54.5534 181.68 68.6057C182.702 82.658 181.552 79.081 181.552 79.081C181.552 79.081 163.921 79.2088 162.387 80.7418C161.365 81.8915 160.854 99.393 160.599 108.846C160.471 113.573 163.41 118.044 167.881 119.194C168.52 119.322 169.159 119.45 169.798 119.45C174.142 119.45 196.628 115.873 196.628 115.873H205.955V82.147H206.083Z" fill="#BADAFF"/>
<path d="M221.415 79.2087L218.22 116H209.021V79.9752L221.415 79.2087Z" fill="#BADAFF"/>
<g clip-path="url(#clip0_2409_6591)">
<path d="M541.169 141.438C541.962 141.896 542.783 141.688 543.229 140.917C543.674 140.145 543.444 139.33 542.65 138.872L532.135 132.801C531.341 132.343 530.52 132.55 530.075 133.322C529.629 134.094 529.86 134.908 530.653 135.366L541.169 141.438Z" fill="#1FC8A5"/>
<path d="M521.602 137.985C521.157 138.756 521.388 139.571 522.181 140.029L541.516 151.192C542.309 151.65 543.13 151.443 543.576 150.671C544.021 149.9 543.79 149.085 542.997 148.627L523.662 137.464C522.869 137.006 522.048 137.213 521.602 137.985Z" fill="#1FC8A5"/>
<path d="M538.58 108.579C538.134 109.35 538.365 110.165 539.159 110.623L558.493 121.786C559.287 122.244 560.108 122.037 560.553 121.265C560.999 120.494 560.768 119.679 559.974 119.221L540.63 108.052C539.846 107.6 538.953 107.933 538.58 108.579Z" fill="#1FC8A5"/>
<path d="M558.074 112.157C558.868 112.615 559.689 112.407 560.134 111.636C560.58 110.864 560.349 110.05 559.555 109.591L549.04 103.52C548.246 103.062 547.425 103.27 546.98 104.041C546.534 104.813 546.765 105.628 547.559 106.086L558.074 112.157Z" fill="#1FC8A5"/>
<path d="M539.363 120.283L549.888 126.359C550.682 126.818 551.503 126.61 551.948 125.838C552.393 125.067 552.163 124.252 551.369 123.794L540.844 117.717C540.05 117.259 539.229 117.466 538.784 118.238C538.338 119.01 538.708 119.904 539.363 120.283Z" fill="#1FC8A5"/>
<path d="M516.077 134.795C515.631 135.566 515.862 136.381 516.656 136.839C517.449 137.297 518.27 137.09 518.715 136.318C521.522 131.457 528.138 128.796 537.451 129.068C538.669 129.089 539.409 127.807 538.704 126.898C533.946 119.033 532.809 111.908 535.615 107.047C538.422 102.186 545.037 99.5249 554.351 99.7969C555.568 99.8184 556.309 98.5357 555.604 97.6269C550.873 89.4175 549.86 82.3516 552.661 77.5004C553.106 76.7289 552.876 75.9142 552.082 75.456C551.288 74.9978 550.477 75.2111 550.032 75.9827C546.93 81.3546 547.458 88.642 551.854 96.8125C542.715 97.1554 536.083 100.142 532.982 105.514C529.88 110.886 530.61 118.123 534.877 126.219C525.81 126.436 519.178 129.423 516.077 134.795Z" fill="#2B2665"/>
<path d="M582.835 95.0889C583.281 94.3173 583.05 93.5026 582.257 93.0444C581.463 92.5862 580.642 92.7938 580.197 93.5654C577.39 98.4262 570.774 101.088 561.461 100.816C560.243 100.794 559.503 102.077 560.208 102.986C564.966 110.851 566.103 117.976 563.297 122.836C560.491 127.697 553.875 130.359 544.561 130.087C543.344 130.065 542.603 131.348 543.308 132.257C548.066 140.122 549.204 147.247 546.397 152.107C545.952 152.879 546.183 153.694 546.976 154.152C547.77 154.61 548.591 154.402 549.036 153.631C552.138 148.259 551.408 141.023 547.141 132.926C556.281 132.584 562.918 129.587 566.019 124.215C569.121 118.843 568.392 111.607 564.124 103.511C573.102 103.448 579.806 100.336 582.835 95.0889Z" fill="#2B2665"/>
<path d="M576.741 89.8599L557.535 78.7715C556.741 78.3133 555.921 78.5209 555.475 79.2925C555.03 80.064 555.27 80.8845 556.054 81.3369L575.388 92.4997C576.182 92.9579 577.003 92.7503 577.448 91.9788C577.894 91.2072 577.524 90.3123 576.741 89.8599Z" fill="#1FC8A5"/>
<path d="M568.916 96.4266C569.361 95.6551 569.13 94.8404 568.337 94.3822L557.821 88.3111C557.028 87.8529 556.207 88.0605 555.761 88.832C555.316 89.6036 555.547 90.4183 556.34 90.8765L566.866 96.9533C567.52 97.3313 568.47 97.1982 568.916 96.4266Z" fill="#1FC8A5"/>
</g>
<path d="M343.428 155.219H334.996V193.032H343.428V155.219Z" fill="#E6317D"/>
<path d="M320.27 169.935V178.367H358.088V169.935H320.27Z" fill="#E6317D"/>
<path d="M370.642 174.254C370.642 174.254 370.642 174.126 370.642 173.743C370.642 173.359 370.642 172.848 370.515 172.21C370.515 171.826 370.515 171.571 370.387 171.06C370.387 170.677 370.259 170.166 370.131 169.782C370.004 168.888 369.876 167.738 369.492 166.589C368.981 164.161 367.832 161.351 366.043 158.285C364.254 155.219 361.571 152.153 358.121 149.47C354.544 146.788 350.072 144.616 344.962 143.594C339.851 142.7 334.102 142.828 328.608 144.999C327.203 145.51 325.925 146.149 324.52 146.788C323.242 147.554 321.837 148.321 320.687 149.215C319.409 150.109 318.259 151.131 317.109 152.281C316.087 153.431 314.937 154.58 314.043 155.858C312.127 158.413 310.593 161.351 309.571 164.417C308.549 167.483 308.038 170.932 307.91 174.254C307.91 177.575 308.549 181.024 309.571 184.09C310.593 187.284 312.127 190.094 314.043 192.649C314.937 193.927 316.087 195.077 317.109 196.226C318.259 197.248 319.409 198.398 320.687 199.292C321.837 200.314 323.242 200.953 324.52 201.719C325.925 202.358 327.203 203.125 328.608 203.508C334.102 205.552 339.851 205.807 344.962 204.913C350.072 204.019 354.544 201.719 358.121 199.037C361.699 196.354 364.254 193.16 366.043 190.222C367.832 187.156 368.981 184.346 369.492 181.919C369.876 180.769 370.004 179.619 370.131 178.725C370.259 178.214 370.259 177.831 370.387 177.447C370.387 177.064 370.387 176.681 370.515 176.298C370.515 175.659 370.642 175.148 370.642 174.765C370.515 174.381 370.642 174.254 370.642 174.254C370.642 174.254 370.642 174.381 370.642 174.765C370.642 175.148 370.642 175.659 370.642 176.298C370.642 176.681 370.642 177.064 370.642 177.447C370.642 177.831 370.515 178.342 370.515 178.725C370.387 179.619 370.259 180.769 369.876 182.046C369.365 184.473 368.215 187.412 366.426 190.478C364.637 193.544 361.954 196.737 358.377 199.548C354.8 202.23 350.328 204.53 345.09 205.552C339.851 206.446 333.974 206.318 328.353 204.274C326.947 203.763 325.542 203.125 324.136 202.486C322.859 201.719 321.453 200.953 320.176 199.931C318.898 199.037 317.748 197.887 316.598 196.865C315.576 195.715 314.426 194.566 313.532 193.16C311.615 190.478 309.955 187.667 308.932 184.346C307.91 181.152 307.271 177.703 307.271 174.254C307.271 170.804 307.91 167.355 308.932 164.161C309.955 160.968 311.615 158.03 313.532 155.347C314.426 153.942 315.576 152.792 316.598 151.642C317.748 150.62 318.898 149.47 320.176 148.576C321.453 147.554 322.731 146.915 324.136 146.021C325.542 145.382 326.819 144.616 328.353 144.233C333.974 142.061 339.851 141.933 345.09 142.955C350.328 143.85 354.8 146.277 358.377 148.959C361.954 151.642 364.637 154.964 366.426 158.03C368.215 161.096 369.365 164.034 369.876 166.461C370.259 167.611 370.387 168.76 370.515 169.782C370.515 170.293 370.642 170.677 370.642 171.06C370.642 171.443 370.642 171.826 370.642 172.21C370.642 172.848 370.642 173.359 370.642 173.743C370.642 174.126 370.642 174.254 370.642 174.254Z" fill="#E6317D"/>
<path d="M273.159 192.649C273.287 187.028 268.176 182.813 262.938 180.769C257.7 178.725 251.95 177.958 247.351 174.892C243.263 172.082 240.452 167.866 237.002 164.289C228.57 155.73 215.282 152.153 203.528 155.347C191.901 158.541 182.191 168.377 179.253 180.002C177.209 187.923 178.614 197.248 184.874 202.614C192.157 208.746 202.889 207.34 212.216 205.424C221.543 203.508 232.019 201.592 239.813 207.085C244.54 210.406 247.223 215.772 250.034 220.626C252.845 225.608 256.422 230.591 261.916 232.507C267.282 234.423 274.692 231.102 274.82 225.481" fill="#263238"/>
<path d="M272.776 195.715C272.137 200.442 275.586 204.53 278.908 207.852C282.23 211.173 286.063 214.622 286.702 219.349C287.341 224.842 283.38 230.207 284.53 235.573C285.296 239.022 287.852 241.577 289.513 244.643C291.812 248.986 291.94 254.224 290.535 258.951C289.129 263.678 286.957 274.153 283.636 277.73C274.564 287.822 260.255 296.509 246.967 299.575C233.808 302.641 220.009 302.641 206.594 301.747C195.479 301.108 182.83 301.619 173.631 286.289C168.904 278.369 166.476 267.893 163.921 259.079C161.749 251.414 159.832 243.238 162.132 235.701C163.41 231.229 166.093 227.269 167.37 222.926C169.031 217.433 168.393 211.428 169.031 205.68C170.437 193.288 178.103 181.663 189.09 175.659C200.078 169.527 213.877 169.144 225.247 174.509" fill="#263238"/>
<path d="M174.398 214.878C175.42 199.037 186.024 179.491 201.867 181.28L251.311 193.927C256.166 194.438 259.744 198.526 259.616 203.38L254.122 322.569C254.25 322.569 254.378 322.569 254.505 322.697C254.505 322.697 243.262 356.295 210.555 346.075C204.039 344.031 201.1 337.005 199.822 329.723H199.439C199.439 328.829 199.439 328.063 199.439 327.168C198.417 318.737 199.184 310.817 199.184 310.817C199.056 301.236 199.056 297.275 199.056 297.403C199.056 297.403 178.741 293.954 174.653 267.51C172.481 254.096 173.248 232.507 174.398 214.878Z" fill="#FFBE9D"/>
<path d="M182.319 230.846C182.191 232.634 183.724 234.167 185.641 234.295C187.557 234.423 189.09 233.018 189.09 231.229C189.218 229.441 187.685 227.908 185.768 227.78C183.98 227.652 182.447 229.058 182.319 230.846Z" fill="#263238"/>
<path d="M178.997 226.119C179.38 226.503 181.936 224.714 185.641 224.714C189.346 224.714 192.029 226.503 192.412 226.119C192.668 225.864 192.157 225.097 191.007 224.331C189.857 223.437 187.94 222.67 185.641 222.67C183.341 222.67 181.424 223.564 180.402 224.331C179.253 225.097 178.869 225.864 178.997 226.119Z" fill="#263238"/>
<path d="M218.22 230.846C218.093 232.635 219.626 234.168 221.542 234.295C223.459 234.423 224.992 233.018 224.992 231.229C225.12 229.441 223.587 227.908 221.67 227.78C219.881 227.653 218.348 229.058 218.22 230.846Z" fill="#263238"/>
<path d="M214.899 226.886C215.282 227.269 217.837 225.481 221.542 225.481C225.247 225.481 227.931 227.269 228.314 226.886C228.569 226.63 228.058 225.864 226.908 225.097C225.759 224.203 223.842 223.437 221.542 223.437C219.243 223.437 217.326 224.331 216.304 225.097C215.154 225.864 214.771 226.63 214.899 226.886Z" fill="#263238"/>
<path d="M201.611 253.969C201.611 253.713 199.311 253.33 195.734 252.947C194.84 252.819 193.945 252.691 193.818 252.052C193.562 251.414 193.945 250.392 194.456 249.242C195.351 246.942 196.245 244.643 197.267 242.088C201.1 231.996 203.911 223.692 203.528 223.564C203.144 223.437 199.695 231.485 195.862 241.577C194.967 244.132 194.073 246.431 193.179 248.731C192.795 249.753 192.157 251.03 192.668 252.436C192.923 253.074 193.562 253.585 194.201 253.841C194.84 253.969 195.351 254.096 195.734 254.096C199.311 254.096 201.611 254.096 201.611 253.969Z" fill="#263238"/>
<path d="M199.056 297.147C199.056 297.147 216.815 298.297 234.574 287.822C234.574 287.822 225.63 306.09 199.183 303.535L199.056 297.147Z" fill="#EB996E"/>
<path d="M203.144 262.783C204.422 260.995 206.722 260.1 209.021 260.356C210.555 260.484 212.216 261.25 213.11 262.655C214.132 263.933 214.26 265.721 213.365 266.999C212.343 268.404 210.299 268.66 208.51 268.149C206.722 267.638 205.316 266.488 203.783 265.338C203.4 265.083 203.017 264.699 202.761 264.316C202.505 263.933 202.505 263.294 202.761 262.911" fill="#EB996E"/>
<path d="M212.343 256.523C211.704 256.523 211.704 260.484 208.383 263.294C204.933 266.105 200.717 265.594 200.717 266.232C200.717 266.488 201.611 266.999 203.4 266.999C205.189 267.127 207.744 266.488 209.788 264.827C211.832 263.166 212.727 260.867 212.854 259.206C213.11 257.418 212.599 256.523 212.343 256.523Z" fill="#263238"/>
<path d="M213.365 220.498C213.749 221.52 217.326 221.009 221.67 221.52C226.014 221.904 229.464 223.181 229.975 222.287C230.23 221.904 229.591 220.882 228.186 219.987C226.781 218.965 224.609 218.071 222.053 217.816C219.498 217.56 217.071 217.943 215.537 218.582C214.004 219.221 213.238 219.987 213.365 220.498Z" fill="#263238"/>
<path d="M180.403 215.516C181.042 216.41 183.597 215.516 186.535 215.516C189.602 215.388 192.157 216.027 192.668 215.261C192.924 214.877 192.54 213.983 191.39 213.217C190.241 212.45 188.452 211.812 186.408 211.812C184.363 211.812 182.575 212.578 181.425 213.472C180.531 214.239 180.147 215.133 180.403 215.516Z" fill="#263238"/>
<path d="M269.709 280.923C262.426 282.329 254.505 280.157 249.011 275.047C243.517 269.937 240.706 262.272 241.729 254.863C242.495 248.348 246.073 241.705 243.773 235.573C240.834 227.397 229.336 224.97 226.397 216.794C224.608 212.067 226.269 206.574 224.225 201.975C222.309 197.632 217.837 195.077 213.365 193.544C208.893 191.883 204.166 190.861 200.333 187.923C196.628 184.984 194.2 179.491 196.628 175.403C216.431 177.831 235.851 182.557 254.505 189.456C258.849 191.116 263.321 193.033 265.876 196.865C268.559 200.953 268.431 206.191 268.176 211.045C267.026 234.806 266.004 258.567 264.854 282.329" fill="#263238"/>
<path d="M268.049 289.994C268.049 289.994 268.176 289.866 268.432 289.738C268.815 289.483 269.199 289.227 269.582 288.844C270.604 288.077 272.137 286.8 273.926 285.267C275.715 283.606 278.014 281.562 280.186 278.752C282.358 275.941 284.402 272.364 285.169 267.893C285.936 263.55 285.425 258.057 281.719 253.969C279.931 251.925 277.631 250.392 275.587 248.731C273.415 247.07 271.754 244.898 270.732 242.216C268.815 236.85 269.71 230.591 268.943 224.203C268.049 217.816 265.877 211.301 261.405 205.935C259.233 203.253 256.55 201.081 253.611 199.548C250.545 198.015 247.351 197.248 244.285 196.482C241.218 195.588 238.408 194.438 236.108 192.522C233.808 190.605 231.892 188.306 230.231 186.006C226.909 181.28 224.481 176.298 221.287 172.082C219.754 170.038 217.965 168.122 216.049 166.589C214.132 165.056 211.96 163.906 209.916 163.267C205.7 161.862 201.101 162.245 198.162 164.417C195.223 166.589 194.201 169.91 193.946 172.337C193.818 174.892 194.712 176.809 195.479 177.831C195.862 178.342 196.245 178.725 196.501 178.853C196.757 179.108 196.884 179.108 196.884 179.108C196.884 179.108 196.757 178.98 196.501 178.725C196.245 178.469 195.862 178.214 195.479 177.703C194.712 176.681 193.946 174.892 194.201 172.465C194.457 170.166 195.479 167.1 198.29 165.056C201.101 163.14 205.317 162.629 209.405 164.162C211.449 164.8 213.494 165.95 215.282 167.483C217.071 169.016 218.732 170.804 220.265 172.848C223.331 176.936 225.759 182.046 229.081 186.901C230.742 189.328 232.786 191.627 235.213 193.671C237.641 195.715 240.58 196.993 243.774 197.887C246.84 198.781 250.034 199.42 252.845 200.953C255.656 202.358 258.211 204.53 260.383 207.085C264.599 212.195 266.771 218.582 267.665 224.714C268.432 230.846 267.538 237.234 269.582 242.982C270.604 245.793 272.52 248.22 274.692 250.008C276.864 251.797 279.164 253.202 280.825 255.118C284.275 258.951 284.914 264.061 284.147 268.276C283.508 272.62 281.592 276.197 279.547 278.879C277.503 281.69 275.331 283.862 273.543 285.522C271.754 287.183 270.348 288.461 269.326 289.355C268.56 289.61 268.049 289.994 268.049 289.994Z" fill="#455A64"/>
<path d="M272.903 293.315C278.397 288.077 287.596 292.676 292.196 298.68C296.795 304.685 299.989 312.477 306.888 315.543C313.788 318.609 322.859 315.926 328.608 320.781C336.657 327.424 332.186 342.881 340.746 348.63C344.195 350.929 348.795 350.802 352.372 352.718C361.06 357.189 360.932 369.453 359.655 379.034C357.738 392.575 355.694 406.628 348.284 418.125C340.746 429.622 326.181 437.67 313.277 433.199C300.756 428.984 294.368 415.442 289.385 403.306C282.358 386.443 275.331 369.708 268.304 352.846C264.215 343.137 260.127 333.3 258.849 322.825C257.572 312.349 259.36 301.108 266.004 292.932" fill="#263238"/>
<path d="M276.353 281.69C280.314 281.179 283.38 286.033 282.23 289.866C281.208 293.698 277.503 296.253 273.798 297.531C271.753 298.297 269.454 298.68 267.282 298.297C265.11 297.914 263.065 296.381 262.299 294.337C261.532 292.165 262.171 290.632 264.088 289.355C266.643 287.694 268.176 286.416 270.22 285.267C273.414 283.734 273.159 283.478 276.353 281.69Z" fill="#0092FF"/>
<path d="M185.385 324.358L200.716 312.733L258.593 309.028L260.893 316.821L242.112 434.221L256.933 574.361H176.186L185.385 324.358Z" fill="#0092FF"/>
<g opacity="0.3">
<path d="M247.35 524.667C245.562 522.751 242.495 519.94 239.812 519.94C220.52 519.557 200.716 517.641 181.424 517.13L179.891 574.361C184.49 566.185 188.834 557.754 190.112 548.428C190.623 544.34 191.262 539.486 195.095 537.825C197.139 536.803 199.694 537.186 201.866 537.697C208.893 539.103 215.793 540.891 222.947 541.274C230.102 541.658 237.512 540.636 243.517 536.803C245.562 535.526 247.478 533.737 248.372 531.565C249.139 529.266 249.011 526.456 247.35 524.667Z" fill="black"/>
</g>
<path d="M197.906 326.657L196.117 309.922C195.861 306.984 198.033 304.301 200.972 304.046L254.249 299.191C255.655 299.064 256.932 300.213 256.932 301.619L257.571 321.547L242.112 347.736L226.269 352.846H206.849L195.734 340.965L197.906 326.657Z" fill="#0092FF"/>
<path d="M249.65 315.288C249.65 315.288 248.883 315.16 247.478 315.032C246.073 314.904 244.156 314.777 241.729 314.904C239.301 315.032 236.362 315.415 233.168 316.182C229.974 316.821 226.525 317.843 222.819 318.737C219.114 319.631 215.665 320.398 212.343 320.653C209.021 320.909 206.082 320.653 203.655 320.014C201.227 319.376 199.439 318.481 198.289 317.715C197.65 317.332 197.267 317.076 197.011 316.821C196.756 316.565 196.628 316.437 196.628 316.437C196.628 316.437 197.267 316.821 198.417 317.587C199.567 318.226 201.483 319.12 203.783 319.631C206.21 320.142 209.149 320.398 212.343 320.014C215.537 319.759 219.114 318.992 222.692 318.098C226.397 317.204 229.847 316.31 233.041 315.671C236.235 315.032 239.173 314.649 241.729 314.521C244.156 314.393 246.2 314.649 247.606 314.777C248.244 314.904 248.756 315.032 249.139 315.032C249.522 315.16 249.65 315.16 249.65 315.288Z" fill="#263238"/>
<g opacity="0.3">
<path d="M199.183 317.843C197.778 321.803 197.778 326.657 200.589 329.595C202.888 332.023 206.721 332.661 210.043 332.023C213.365 331.384 216.431 329.596 219.37 327.807C226.652 323.464 234.191 318.865 242.495 317.076C243.006 316.948 243.645 316.821 244.028 316.437C244.412 316.054 244.539 315.288 244.028 315.032C243.773 314.904 243.517 314.904 243.39 314.777C235.979 314.01 228.697 316.182 221.414 317.715C214.132 319.376 206.466 320.525 199.439 317.97" fill="black"/>
</g>
<path d="M209.276 303.535C209.276 303.662 208.254 303.918 207.488 305.323C206.593 306.728 206.721 309.028 206.721 311.455C206.849 316.437 207.615 320.397 207.488 320.397C207.36 320.397 207.104 319.503 206.721 317.842C206.338 316.182 206.082 314.01 205.954 311.455C205.954 310.178 205.954 309.028 206.082 307.878C206.21 306.728 206.465 305.706 206.976 305.068C207.488 304.301 207.999 303.918 208.51 303.79C209.021 303.407 209.276 303.407 209.276 303.535Z" fill="#263238"/>
<path d="M223.458 318.098C223.203 318.098 223.714 314.393 223.075 309.922C222.436 305.451 221.031 302.129 221.159 302.002C221.286 302.002 221.67 302.768 222.309 304.173C222.82 305.579 223.458 307.623 223.714 309.794C224.097 312.094 223.969 314.138 223.842 315.671C223.714 317.204 223.458 318.098 223.458 318.098Z" fill="#263238"/>
<path d="M240.579 300.597C240.706 300.597 241.09 301.235 241.601 302.513C242.112 303.79 242.495 305.707 242.24 307.878C242.112 310.05 241.473 311.839 240.834 313.116C240.195 314.393 239.684 315.032 239.557 314.904C239.301 314.777 241.345 311.966 241.601 307.878C241.856 303.79 240.323 300.724 240.579 300.597Z" fill="#263238"/>
<path d="M165.837 331.895C165.837 331.895 147.694 344.031 142.839 366.004C139.134 383.25 128.785 474.462 128.785 474.462L110.771 509.465L122.525 537.442C132.618 538.208 142.584 535.27 150.761 529.394L158.682 523.645L173.119 502.183L165.837 331.895Z" fill="#EBEBEB"/>
<path d="M196.628 315.799L165.837 331.895L158.554 355.784L152.039 425.023L164.304 506.144L142.967 574.106L179.763 574.489L180.658 534.631L184.363 405.606L187.94 323.336L196.628 315.799Z" fill="#EBEBEB"/>
<path d="M181.68 423.363C181.68 423.363 181.424 422.979 181.169 422.341C180.785 421.702 180.274 420.68 179.635 419.53C178.997 418.253 178.358 416.72 177.591 414.931C177.208 414.037 176.952 413.015 176.569 411.993C176.186 410.971 175.803 409.821 175.419 408.544C172.481 398.963 170.564 385.166 170.947 369.964C170.947 368.814 171.075 367.664 171.075 366.515V366.259L171.203 366.131C172.992 365.365 174.78 364.598 176.569 363.832L176.441 364.343C174.653 362.81 172.736 361.405 171.075 360L170.947 359.872V359.744C170.692 353.995 172.097 348.885 173.375 344.286C174.78 339.815 176.186 335.855 177.463 332.661C178.741 329.468 179.891 327.04 180.658 325.252C181.041 324.358 181.424 323.719 181.552 323.336C181.807 322.953 181.935 322.697 181.935 322.697C181.935 322.697 181.807 322.953 181.68 323.336C181.424 323.847 181.169 324.485 180.785 325.252C180.019 326.913 178.997 329.468 177.719 332.661C176.441 335.855 175.036 339.815 173.758 344.286C172.481 348.758 171.203 353.868 171.459 359.489L171.331 359.233C173.119 360.638 174.908 362.043 176.697 363.576L177.08 363.96L176.569 364.215C174.78 364.982 172.992 365.748 171.203 366.515L171.459 366.259C171.331 367.409 171.331 368.559 171.331 369.708C170.947 384.91 172.736 398.58 175.547 408.161C175.802 409.31 176.186 410.46 176.569 411.482C176.952 412.504 177.208 413.526 177.591 414.42C178.358 416.209 178.997 417.87 179.508 419.147C180.146 420.297 180.53 421.319 180.913 421.957C181.552 422.979 181.807 423.363 181.68 423.363Z" fill="#263238"/>
<path d="M157.532 471.779C157.532 471.779 157.405 471.396 157.277 470.757C157.149 469.991 156.893 469.096 156.51 467.819C156.255 466.542 155.871 465.009 155.488 463.22C155.105 461.432 154.721 459.388 154.338 457.088C153.955 454.789 153.444 452.234 153.188 449.551C152.805 446.868 152.549 443.93 152.166 440.864C151.655 434.732 151.272 427.962 151.272 420.935C151.272 413.781 151.655 407.011 152.294 401.007C152.677 397.941 152.933 395.002 153.316 392.32C153.699 389.637 154.083 387.082 154.466 384.783C154.849 382.483 155.36 380.439 155.744 378.651C156.127 376.862 156.51 375.329 156.766 374.052C157.021 372.902 157.277 371.88 157.532 371.114C157.66 370.475 157.788 370.092 157.788 370.092C157.788 370.092 157.788 370.475 157.66 371.114C157.532 371.88 157.277 372.774 157.021 374.052C156.766 375.329 156.382 376.862 156.127 378.651C155.744 380.439 155.36 382.483 154.977 384.783C154.594 387.082 154.21 389.637 153.827 392.32C153.444 395.002 153.188 397.941 152.805 401.007C152.294 407.139 151.911 413.909 151.911 420.935C151.911 427.962 152.294 434.732 152.805 440.864C153.061 443.93 153.316 446.868 153.699 449.551C154.083 452.234 154.466 454.789 154.849 457.088C155.233 459.388 155.616 461.432 155.999 463.22C156.382 465.009 156.638 466.542 156.893 467.819C157.149 469.096 157.405 469.991 157.532 470.757C157.532 471.396 157.532 471.779 157.532 471.779Z" fill="#263238"/>
<path d="M165.837 534.12C165.964 534.12 165.453 535.398 164.303 537.186C163.281 538.975 161.62 541.53 159.576 543.957C157.532 546.512 155.36 548.556 153.827 549.961C152.166 551.366 151.144 552.133 151.144 552.005C151.016 551.877 152.038 551.111 153.571 549.578C155.104 548.173 157.149 546.001 159.193 543.574C161.237 541.147 162.898 538.719 164.048 536.931C165.198 535.27 165.837 534.12 165.837 534.12Z" fill="#263238"/>
<path d="M307.399 329.979C320.559 335.089 330.269 346.331 333.463 360.127C343.556 404.584 360.804 463.604 361.06 482.638C361.443 506.91 350.839 523.518 336.913 526.583C325.925 529.011 226.652 523.518 226.652 523.518L222.053 486.471L302.544 474.59L291.556 413.015L302.416 327.807L307.399 329.979Z" fill="#EBEBEB"/>
<path d="M302.289 327.935L280.058 318.865L256.55 305.068L256.422 309.028C259.233 313.883 260.255 319.759 259.233 325.38L239.685 427.195L244.157 501.545L253.228 574.361H323.753L291.301 498.096L302.672 395.386L302.289 327.935Z" fill="#EBEBEB"/>
<path d="M322.859 527.222C322.859 527.222 322.731 527.222 322.348 527.35C321.965 527.35 321.581 527.478 320.943 527.478C319.665 527.605 317.876 527.605 315.449 527.605C310.721 527.605 303.694 527.478 295.134 527.222C277.886 526.583 253.739 525.434 226.653 523.901H226.397V523.645C225.886 519.174 225.248 514.575 224.609 509.848C223.587 501.8 222.692 494.135 221.67 486.598V486.343H221.926C246.456 482.766 267.921 479.7 283.38 477.4C291.046 476.378 297.179 475.484 301.395 474.845C303.439 474.59 305.1 474.334 306.25 474.207C306.761 474.079 307.144 474.079 307.527 474.079C307.783 474.079 307.911 474.079 307.911 474.079C307.911 474.079 307.783 474.079 307.527 474.207C307.272 474.207 306.761 474.334 306.25 474.462C305.1 474.59 303.439 474.845 301.395 475.229C297.179 475.867 291.046 476.762 283.38 478.039C268.048 480.339 246.584 483.532 222.053 487.237L222.309 486.854C223.203 494.263 224.225 502.056 225.248 510.104C225.886 514.831 226.397 519.43 227.036 523.901L226.781 523.645C253.994 525.178 278.014 526.456 295.262 527.222C303.95 527.605 310.849 527.733 315.577 527.861C318.004 527.861 319.793 527.861 321.07 527.733C321.709 527.733 322.092 527.733 322.476 527.605C322.731 527.222 322.859 527.222 322.859 527.222Z" fill="#263238"/>
<path d="M290.79 407.011C290.79 407.011 290.918 407.266 290.918 407.65C291.046 408.161 291.174 408.799 291.301 409.566C291.685 411.354 292.068 413.782 292.579 416.848C293.601 423.107 295.134 431.539 296.795 440.864C298.328 450.19 299.734 458.621 300.756 464.881C301.267 467.947 301.65 470.374 301.906 472.163C302.034 472.929 302.161 473.568 302.161 474.207C302.161 474.718 302.289 474.845 302.161 474.845C302.161 474.845 302.034 474.59 302.034 474.207C301.906 473.696 301.778 473.057 301.65 472.29C301.267 470.502 300.884 468.075 300.245 465.009C299.095 458.877 297.69 450.318 296.029 440.992C294.368 431.666 292.962 423.107 292.068 416.975C291.557 413.909 291.174 411.482 290.918 409.694C290.79 408.927 290.663 408.288 290.663 407.65C290.79 407.139 290.79 407.011 290.79 407.011Z" fill="#263238"/>
<path d="M266.898 312.35C266.898 312.35 266.898 312.477 267.026 312.605C267.026 312.861 267.154 312.988 267.282 313.372C267.41 314.01 267.793 315.032 268.048 316.31C268.559 318.865 269.326 322.569 269.709 327.296C270.22 332.023 270.348 337.644 270.093 344.031C269.837 350.419 269.198 357.445 268.304 364.854V365.11H268.048C265.749 365.493 263.321 366.004 260.766 366.515L261.021 366.004C261.405 367.154 261.916 368.303 262.171 369.581C264.599 378.268 263.449 386.955 261.405 394.236C259.233 401.646 255.911 407.65 252.844 412.632C249.778 417.614 247.095 421.319 245.179 424.002C244.284 425.279 243.518 426.301 243.007 426.94C242.751 427.195 242.623 427.451 242.368 427.706C242.24 427.834 242.112 427.962 242.112 427.962C242.112 427.962 242.112 427.834 242.24 427.706C242.368 427.451 242.496 427.195 242.751 426.94C243.262 426.173 243.901 425.151 244.795 423.874C246.584 421.191 249.267 417.359 252.206 412.504C255.144 407.522 258.466 401.518 260.51 394.236C262.554 386.955 263.577 378.395 261.277 369.964C260.894 368.687 260.51 367.537 260.127 366.515L259.999 366.132L260.383 366.004C262.938 365.493 265.365 365.11 267.665 364.726L267.41 364.982C268.432 357.573 269.07 350.546 269.326 344.159C269.582 337.772 269.454 332.151 269.07 327.552C268.687 322.825 268.048 319.12 267.537 316.565C267.282 315.288 267.026 314.266 266.898 313.627C266.898 313.372 266.771 313.116 266.771 312.861C266.898 312.35 266.898 312.35 266.898 312.35Z" fill="#263238"/>
<path d="M266.899 416.72V400.496C266.899 400.496 267.155 396.536 263.705 397.302C260.383 398.196 261.022 404.456 261.022 404.456C261.022 404.456 260.383 429.111 261.916 428.856C263.449 428.6 263.96 426.684 263.96 426.684V417.231L266.899 416.72Z" fill="#0092FF"/>
<path d="M280.952 417.742C280.952 417.87 277.119 418.125 272.264 418.125C267.409 418.125 263.576 417.997 263.576 417.742C263.576 417.614 267.409 417.359 272.264 417.359C276.992 417.359 280.952 417.486 280.952 417.742Z" fill="#263238"/>
<path d="M313.021 339.56C313.021 339.56 312.382 339.815 311.232 340.199C310.082 340.582 308.421 341.221 306.377 342.243C302.417 344.287 297.306 347.863 293.345 353.357C292.323 354.762 291.429 356.167 290.79 357.572C290.151 358.978 289.64 360.511 289.257 361.916C288.49 364.726 288.107 367.409 287.979 369.581C287.851 371.752 287.724 373.541 287.724 374.818C287.724 376.096 287.724 376.735 287.724 376.735C287.724 376.735 287.596 376.096 287.468 374.818C287.34 373.541 287.34 371.752 287.468 369.453C287.596 367.153 287.851 364.598 288.618 361.66C289.001 360.255 289.512 358.722 290.151 357.189C290.918 355.656 291.684 354.251 292.706 352.846C296.795 347.225 302.033 343.648 306.122 341.732C308.166 340.71 309.827 340.199 311.104 339.815C312.382 339.688 313.021 339.56 313.021 339.56Z" fill="#263238"/>
<path d="M26.7021 474.59L142.967 517.513L240.834 532.588L124.441 475.74L26.7021 474.59Z" fill="#263238"/>
<path d="M76.4026 520.962C75.5083 514.831 73.3363 508.826 70.27 503.333C69.6311 502.311 68.9923 501.161 68.7368 500.012C68.4813 498.862 68.609 497.457 69.3756 496.563C70.9088 494.902 73.5918 495.668 75.3805 496.946C79.2134 499.501 81.7687 503.589 83.1741 507.932C84.7073 512.276 85.2183 516.875 85.7294 521.346" fill="#FFBE9D"/>
<path d="M121.758 509.848H116.009C114.859 508.699 113.071 507.549 110.899 506.91C109.621 506.527 108.216 507.293 107.066 508.443C109.621 504.227 112.432 499.501 112.943 498.223C113.965 495.668 111.665 493.88 107.96 493.88C104.255 493.88 87.7733 517.13 87.7733 517.13C87.7733 517.13 97.9944 498.351 99.0165 495.541C101.444 488.387 93.6505 487.876 90.8397 491.325C87.2623 495.668 73.0805 517.13 73.0805 517.13C73.0805 517.13 70.3975 521.473 72.1862 525.689C74.1026 529.905 79.4687 528.244 79.4687 528.244C79.4687 528.244 79.4687 531.821 83.3016 533.993C87.5178 536.292 93.0117 533.61 93.0117 533.61L114.22 538.336C114.22 538.336 117.542 537.953 121.886 537.57C132.618 536.548 141.306 528.244 142.84 517.513L121.758 509.848Z" fill="#FFBE9D"/>
<path d="M107.449 508.188C107.704 508.315 104.894 512.787 101.188 518.152C99.3998 520.835 97.6111 523.262 96.3335 524.923C95.0558 526.583 94.2892 527.605 94.1615 527.605C94.0337 527.605 94.8003 526.456 95.9502 524.667C97.1 522.879 98.761 520.452 100.55 517.769C102.338 515.086 104.127 512.659 105.277 510.998C105.788 510.232 106.299 509.593 106.81 508.954C107.193 508.315 107.321 508.188 107.449 508.188Z" fill="#EB996E"/>
<path d="M106.171 531.821C106.043 531.821 106.81 530.416 108.088 528.372C109.365 526.328 111.154 523.39 113.07 520.324C114.092 518.791 114.987 517.258 115.753 515.852C116.52 514.575 116.52 513.042 116.264 511.892C115.626 509.593 114.348 508.571 114.476 508.571C114.476 508.571 114.859 508.699 115.242 509.21C115.753 509.721 116.264 510.615 116.648 511.765C117.031 512.914 117.159 514.575 116.264 516.108C115.498 517.513 114.603 519.046 113.581 520.707C111.665 523.901 109.748 526.711 108.343 528.755C107.065 530.671 106.171 531.949 106.171 531.821Z" fill="#EB996E"/>
<path d="M117.287 533.993C117.159 533.993 117.542 532.715 118.437 530.671C118.948 529.649 119.459 528.5 119.97 527.222C120.481 525.945 121.12 524.539 121.503 522.879C121.886 521.346 121.631 519.813 120.864 518.663C120.481 518.152 119.842 517.897 119.331 517.641C118.82 517.386 118.181 517.258 117.798 517.258C116.904 517.258 116.009 517.769 115.498 518.024C114.987 518.28 114.604 518.408 114.604 518.408C114.604 518.408 114.859 518.152 115.37 517.769C115.626 517.641 115.881 517.386 116.265 517.258C116.648 517.13 117.159 516.875 117.67 516.747C118.309 516.747 118.82 516.875 119.459 517.13C120.098 517.386 120.736 517.769 121.247 518.28C122.27 519.557 122.525 521.346 122.142 523.006C121.759 524.667 121.12 526.072 120.481 527.35C119.842 528.627 119.331 529.777 118.82 530.799C117.926 532.715 117.415 533.993 117.287 533.993Z" fill="#EB996E"/>
<path d="M121.247 513.809C121.247 513.809 121.63 513.809 122.141 514.064C122.652 514.32 123.547 514.703 124.313 515.342C126.102 516.619 128.146 519.046 128.913 522.368C129.679 525.689 128.785 528.755 127.763 530.671C127.252 531.693 126.741 532.332 126.358 532.843C125.974 533.354 125.719 533.482 125.719 533.482C125.591 533.354 126.613 532.46 127.508 530.544C128.402 528.627 129.168 525.689 128.402 522.495C127.635 519.302 125.847 517.002 124.186 515.597C122.397 514.447 121.119 513.936 121.247 513.809Z" fill="#EB996E"/>
<path d="M83.8134 501.673C83.9411 501.8 81.7692 505.249 78.9584 509.337C76.1475 513.425 73.72 516.747 73.5923 516.619C73.4645 516.491 75.6365 513.042 78.4473 508.954C81.2581 504.866 83.6856 501.545 83.8134 501.673Z" fill="#EB996E"/>
<path d="M221.67 488.003L208.383 484.937L195.606 472.929C194.073 471.524 192.029 470.63 189.857 470.502L166.604 469.224C164.304 469.097 162.004 469.863 160.216 471.396L143.606 485.448L216.049 520.707L226.014 521.601L221.67 488.003Z" fill="#FFBE9D"/>
<path d="M182.319 481.744C182.319 481.871 180.658 481.488 177.848 481.233C175.165 480.977 171.204 480.594 167.371 482.382C165.454 483.277 163.794 484.426 162.388 485.576C160.983 486.726 159.577 487.748 158.427 488.514C157.278 489.281 156.255 489.792 155.617 490.175C154.85 490.558 154.467 490.686 154.467 490.558C154.467 490.431 156 489.792 158.172 488.131C159.322 487.365 160.599 486.215 162.005 485.065C163.41 483.915 165.071 482.766 167.115 481.871C169.032 480.977 171.204 480.594 172.993 480.594C174.909 480.594 176.57 480.722 177.975 480.977C179.381 481.233 180.403 481.488 181.169 481.616C181.936 481.616 182.319 481.744 182.319 481.744Z" fill="#EB996E"/>
<path d="M187.046 494.646C187.046 494.774 186.152 494.391 184.491 494.135C182.958 494.008 180.786 494.135 178.486 495.03C176.186 495.796 174.398 497.074 172.992 497.84C171.587 498.734 170.82 499.117 170.692 499.117C170.692 498.99 171.331 498.351 172.737 497.457C174.014 496.562 175.931 495.285 178.23 494.391C180.53 493.497 182.958 493.369 184.491 493.752C186.28 494.008 187.046 494.646 187.046 494.646Z" fill="#EB996E"/>
<path d="M216.943 496.818C216.815 496.946 214.899 494.135 212.471 490.814C210.044 487.492 207.872 484.937 207.999 484.81C208.127 484.682 210.555 487.109 212.982 490.431C215.41 493.752 217.071 496.69 216.943 496.818Z" fill="#EB996E"/>
<path d="M180.401 470.502L209.787 443.036C211.065 441.886 210.937 439.842 209.532 438.693C208.509 437.926 206.976 437.926 205.954 438.82L171.458 469.735" fill="#0092FF"/>
<g opacity="0.3">
<path d="M180.401 470.502L209.787 443.036C211.065 441.886 210.937 439.842 209.532 438.693C208.509 437.926 206.976 437.926 205.954 438.82L171.458 469.735" fill="black"/>
</g>
<path d="M420.854 206.446C420.343 206.319 402.584 201.592 403.606 219.604C404.628 237.617 422.515 232.762 422.515 232.251C422.643 231.74 420.854 206.446 420.854 206.446Z" fill="#FFBE9D"/>
<path d="M416.638 225.736C416.51 225.736 416.383 225.992 415.872 226.247C415.36 226.503 414.466 226.758 413.572 226.375C411.655 225.736 409.867 222.926 409.611 219.604C409.483 217.944 409.739 216.411 410.25 215.005C410.761 213.6 411.528 212.706 412.422 212.45C413.316 212.195 414.083 212.706 414.338 213.217C414.594 213.728 414.466 214.111 414.594 214.111C414.594 214.111 414.977 213.728 414.722 213.089C414.594 212.706 414.338 212.323 413.955 211.939C413.444 211.556 412.805 211.428 412.166 211.556C410.761 211.684 409.611 213.089 409.1 214.494C408.461 215.9 408.206 217.688 408.333 219.604C408.717 223.181 410.761 226.503 413.316 227.141C414.594 227.397 415.616 227.014 416.127 226.503C416.638 226.247 416.766 225.736 416.638 225.736Z" fill="#AA6550"/>
<path d="M465.827 142.061C475.026 142.061 484.352 142.061 495.723 148.065C503.006 151.898 507.478 157.774 511.183 165.056C514.121 170.549 515.782 177.831 515.399 184.09C515.016 190.35 515.016 194.693 512.588 200.442" fill="#263238"/>
<path d="M462.249 143.466C489.335 141.55 512.715 162.245 514.121 189.328C515.271 211.939 516.293 236.339 516.037 248.603C515.526 275.047 489.079 278.88 489.079 278.88C489.079 278.88 489.718 286.672 490.357 296.381C491.634 315.926 476.558 332.662 457.01 333.428C437.846 334.195 421.62 319.12 420.981 299.958L417.02 193.544C415.998 167.483 436.057 145.255 462.249 143.466Z" fill="#FFBE9D"/>
<path d="M489.079 278.879C489.079 278.879 472.853 279.774 455.221 268.404C455.221 268.404 463.143 287.566 489.59 285.395L489.079 278.879Z" fill="#AA6550"/>
<path d="M504.028 204.019C504.028 206.063 502.495 207.724 500.323 207.851C498.279 207.979 496.49 206.446 496.49 204.402C496.49 202.358 498.023 200.697 500.195 200.57C502.239 200.442 503.9 201.975 504.028 204.019Z" fill="#263238"/>
<path d="M507.606 198.654C507.095 199.165 504.284 196.993 500.195 196.993C496.107 196.865 493.168 199.037 492.657 198.526C492.402 198.27 492.913 197.376 494.19 196.482C495.468 195.588 497.64 194.693 500.195 194.693C502.751 194.693 504.795 195.715 506.072 196.61C507.478 197.632 507.861 198.526 507.606 198.654Z" fill="#263238"/>
<path d="M464.294 204.019C464.294 206.063 462.761 207.724 460.589 207.851C458.544 207.979 456.756 206.446 456.756 204.402C456.756 202.358 458.289 200.697 460.461 200.57C462.505 200.442 464.166 201.975 464.294 204.019Z" fill="#263238"/>
<path d="M467.743 199.165C467.232 199.676 464.421 197.504 460.333 197.504C456.245 197.376 453.306 199.548 452.795 199.037C452.539 198.781 453.051 197.887 454.328 196.993C455.606 196.099 457.778 195.204 460.333 195.204C462.888 195.204 464.933 196.226 466.21 197.121C467.616 198.015 467.999 198.909 467.743 199.165Z" fill="#263238"/>
<path d="M482.308 229.313C482.308 229.058 484.864 228.674 488.952 228.163C489.974 228.036 490.996 227.908 491.124 227.141C491.38 226.375 490.996 225.225 490.485 224.075C489.591 221.521 488.569 218.966 487.547 216.155C483.33 204.913 480.392 195.588 480.775 195.46C481.286 195.332 484.991 204.274 489.08 215.516C490.102 218.327 490.996 220.882 491.891 223.437C492.274 224.586 492.913 225.992 492.402 227.525C492.146 228.291 491.38 228.802 490.741 229.058C490.102 229.313 489.463 229.313 488.952 229.313C484.864 229.569 482.308 229.569 482.308 229.313Z" fill="#263238"/>
<path d="M470.299 231.996C470.937 231.996 470.937 236.339 474.643 239.533C478.348 242.727 483.075 242.216 483.075 242.854C483.075 243.11 482.053 243.749 480.009 243.749C478.092 243.749 475.281 243.11 472.982 241.194C470.682 239.277 469.788 236.723 469.532 234.934C469.532 233.146 470.043 231.996 470.299 231.996Z" fill="#263238"/>
<path d="M469.021 183.196C468.637 184.346 464.549 183.707 459.822 184.218C455.094 184.601 451.262 186.006 450.623 184.984C450.367 184.473 451.006 183.451 452.539 182.429C454.072 181.407 456.5 180.385 459.438 180.13C462.249 179.874 464.932 180.258 466.593 181.024C468.254 181.791 469.148 182.685 469.021 183.196Z" fill="#263238"/>
<path d="M507.094 184.218C506.328 185.112 503.645 184.218 500.195 184.09C496.873 183.963 493.935 184.601 493.296 183.707C493.04 183.196 493.424 182.302 494.701 181.408C495.979 180.513 498.023 179.875 500.323 180.002C502.623 180.13 504.667 180.897 505.817 181.919C507.094 182.813 507.478 183.835 507.094 184.218Z" fill="#263238"/>
<path d="M417.276 201.975C417.276 201.975 418.426 208.107 418.682 210.79C418.81 211.812 418.682 222.926 421.365 223.564C423.665 224.075 428.392 221.904 430.436 217.305C432.48 212.706 436.441 201.592 436.058 196.482C435.419 189.583 435.163 182.557 436.569 175.787C437.974 169.016 441.168 162.373 446.662 158.157C452.156 153.942 459.95 152.409 466.082 155.475C469.915 157.391 472.726 160.712 476.303 163.14C479.497 165.311 483.458 166.589 487.163 165.95C490.996 165.439 494.573 162.756 495.596 159.052C496.745 154.964 494.701 150.62 491.379 147.938C488.185 145.255 483.969 144.105 479.881 143.211C468.51 140.911 456.372 141.422 445.64 145.638C434.78 149.854 425.198 157.902 420.598 168.505C415.232 181.024 415.871 188.561 417.276 201.975Z" fill="#263238"/>
<path d="M477.708 204.147C477.581 204.147 477.708 202.486 477.07 199.803C476.431 197.121 474.642 193.16 470.554 190.094C468.509 188.561 465.954 187.284 463.143 186.773C460.205 186.262 457.011 186.39 453.817 187.54C452.283 188.05 450.75 188.945 449.345 189.967C447.939 190.989 446.662 192.266 445.64 193.671C443.468 196.61 442.19 200.314 442.19 204.019C442.19 207.851 443.468 211.556 445.64 214.367C446.662 215.772 447.939 217.049 449.345 218.071C450.75 219.093 452.283 219.988 453.817 220.499C456.883 221.648 460.205 221.776 463.143 221.265C466.082 220.754 468.637 219.477 470.554 217.944C474.642 214.878 476.431 210.917 477.07 208.235C477.708 205.808 477.581 204.147 477.708 204.147C477.708 204.147 477.708 204.275 477.708 204.402C477.708 204.658 477.708 204.913 477.708 205.297C477.708 205.68 477.708 206.191 477.581 206.702C477.453 207.213 477.453 207.851 477.197 208.618C476.558 211.428 474.77 215.516 470.681 218.71C468.637 220.243 466.082 221.648 463.016 222.159C460.077 222.67 456.627 222.67 453.433 221.393C451.772 220.882 450.239 219.988 448.834 218.966C447.428 217.944 446.023 216.666 445.001 215.133C442.701 212.195 441.423 208.362 441.423 204.402C441.423 200.442 442.701 196.61 445.001 193.671C446.151 192.138 447.428 190.861 448.834 189.839C450.239 188.817 451.9 187.923 453.433 187.412C456.627 186.262 460.077 186.134 463.016 186.645C465.954 187.156 468.637 188.561 470.681 190.094C474.77 193.288 476.558 197.376 477.197 200.187C477.453 200.825 477.453 201.464 477.581 202.103C477.708 202.614 477.708 203.125 477.708 203.508C477.708 203.891 477.708 204.147 477.708 204.402C477.708 204.147 477.708 204.147 477.708 204.147Z" fill="#263238"/>
<path d="M524.086 204.147C523.959 204.147 524.086 202.486 523.448 199.803C522.809 197.121 521.02 193.16 516.932 190.094C514.887 188.561 512.46 187.284 509.521 186.773C506.583 186.262 503.389 186.39 500.194 187.54C498.661 188.05 497.128 188.945 495.723 189.967C494.317 190.989 493.04 192.266 492.018 193.671C489.846 196.61 488.568 200.314 488.568 204.019C488.568 207.851 489.846 211.556 492.018 214.367C493.04 215.772 494.317 217.049 495.723 218.071C497.128 219.093 498.661 219.988 500.194 220.499C503.261 221.648 506.583 221.776 509.521 221.265C512.46 220.754 515.015 219.477 516.932 217.944C521.02 214.878 522.809 210.917 523.448 208.235C524.086 205.808 523.959 204.147 524.086 204.147C524.086 204.147 524.086 204.275 524.086 204.402C524.086 204.658 524.086 204.913 524.086 205.297C524.086 205.68 524.086 206.191 523.959 206.702C523.831 207.213 523.831 207.851 523.575 208.618C522.936 211.428 521.148 215.516 517.059 218.71C515.015 220.243 512.46 221.648 509.393 222.159C506.455 222.67 503.005 222.67 499.811 221.393C498.15 220.882 496.617 219.988 495.212 218.966C493.806 217.944 492.401 216.666 491.379 215.133C489.079 212.195 487.801 208.362 487.801 204.402C487.801 200.442 489.079 196.61 491.379 193.671C492.529 192.138 493.806 190.861 495.212 189.839C496.617 188.817 498.278 187.923 499.811 187.412C503.005 186.262 506.455 186.134 509.393 186.645C512.332 187.156 515.015 188.561 517.059 190.094C521.148 193.288 522.936 197.376 523.575 200.187C523.831 200.825 523.831 201.464 523.959 202.103C524.086 202.614 524.086 203.125 524.086 203.508C524.086 203.891 524.086 204.147 524.086 204.402C524.086 204.147 524.086 204.147 524.086 204.147Z" fill="#263238"/>
<path d="M488.696 202.231C488.696 202.358 488.057 201.975 487.035 201.72C486.013 201.336 484.608 201.081 482.947 201.209C481.286 201.336 479.88 201.847 478.986 202.231C478.092 202.742 477.453 203.125 477.453 202.997C477.453 202.997 477.836 202.358 478.731 201.847C479.625 201.209 481.158 200.698 482.819 200.57C484.48 200.442 486.141 200.825 487.163 201.336C488.185 201.72 488.696 202.231 488.696 202.231Z" fill="#263238"/>
<path d="M495.851 157.774C496.107 156.369 495.723 155.602 496.49 155.091C497.384 154.453 499.045 156.113 499.684 156.752C499.94 157.008 500.451 156.113 500.706 155.986C500.962 155.858 501.217 154.453 501.217 154.197C501.089 153.303 499.556 153.047 498.917 152.281C498.151 151.642 497.384 151.131 496.49 150.876C495.723 150.62 494.701 150.492 494.062 151.003C493.551 151.387 493.551 152.153 493.551 152.792C493.551 153.431 493.679 154.069 493.935 154.708C494.19 155.347 494.574 155.858 495.212 156.113" fill="#263238"/>
<path d="M416.382 187.923C416.382 187.923 429.287 192.649 436.058 195.46L435.675 188.817L416.893 181.407C416.766 181.407 416.382 186.39 416.382 187.923Z" fill="#EBEBEB"/>
<path d="M417.532 177.575C417.66 177.447 421.748 178.98 426.731 181.024C431.714 183.196 435.674 184.984 435.674 185.112C435.547 185.24 431.458 183.707 426.475 181.663C421.493 179.619 417.532 177.831 417.532 177.575Z" fill="#EBEBEB"/>
<path d="M421.493 317.076L420.471 285.778C420.471 285.778 426.731 314.393 459.311 314.01C490.485 313.627 489.846 288.716 489.846 288.716L490.996 301.363V352.335L470.682 435.499L444.746 438.82L416.127 325.124L421.493 317.076Z" fill="#2B2665"/>
<path d="M486.908 306.984C486.908 306.984 486.78 307.24 486.524 307.623C486.269 308.006 485.886 308.645 485.247 309.411C484.097 310.944 482.18 312.988 479.497 315.032C476.687 317.076 472.981 318.865 468.637 320.142C464.294 321.292 459.183 321.803 454.072 321.164C448.834 320.525 444.107 318.865 440.018 316.948C435.93 315.032 432.48 312.86 429.797 310.816C427.114 308.773 424.942 306.984 423.537 305.707C422.77 305.068 422.259 304.557 422.004 304.174C421.62 303.79 421.493 303.663 421.493 303.663C421.493 303.663 421.748 303.79 422.131 304.174C422.515 304.557 423.154 305.068 423.792 305.579C425.198 306.856 427.37 308.517 430.053 310.561C432.864 312.477 436.186 314.649 440.274 316.565C444.362 318.481 449.09 320.014 454.2 320.653C459.311 321.292 464.294 320.909 468.637 319.759C472.981 318.609 476.559 316.821 479.37 314.904C482.18 312.988 484.097 310.944 485.247 309.539C486.269 307.878 486.908 306.984 486.908 306.984Z" fill="#263238"/>
<path d="M464.294 574.361L463.783 426.557L421.748 318.737L420.343 286.289L394.79 305.579C394.79 305.579 357.483 433.711 356.972 429.239C356.461 424.768 356.972 574.361 356.972 574.361H464.294Z" fill="#EBEBEB"/>
<path d="M463.272 573.978C463.144 573.978 462.888 540.636 462.888 499.629C462.888 458.494 463.016 425.279 463.272 425.279C463.4 425.279 463.655 458.622 463.655 499.629C463.655 540.636 463.527 573.978 463.272 573.978Z" fill="#263238"/>
<path d="M395.302 326.657L400.412 330.618L396.835 354.507L458.034 418.636L402.456 345.564L407.184 326.657H395.302Z" fill="#E0E0E0"/>
<path d="M466.593 498.607L372.559 471.013L369.493 399.602L395.301 305.451C395.301 305.451 333.847 336.111 329.631 355.656C325.414 375.202 315.321 422.596 314.299 456.961C313.277 487.62 313.149 508.06 320.176 517.897C340.235 545.873 472.343 550.983 525.237 517.897" fill="#EBEBEB"/>
<path d="M459.311 420.169C459.311 420.169 459.183 420.041 459.055 419.786C458.8 419.53 458.544 419.147 458.161 418.764C457.394 417.742 456.372 416.464 454.967 414.676C452.156 411.099 448.195 405.861 443.34 399.602C433.502 386.827 420.087 369.07 405.139 349.524C404.117 348.247 403.222 346.969 402.2 345.692L402.073 345.564V345.436C403.734 338.921 405.267 332.534 406.8 326.53L407.055 326.913C402.967 326.913 399.006 326.913 395.173 326.913H394.918V326.657C394.918 318.865 394.918 311.839 394.918 305.579V305.451L395.046 305.323C402.839 299.447 409.1 294.593 413.571 291.271C415.743 289.61 417.404 288.333 418.682 287.439C419.193 287.055 419.704 286.672 419.96 286.417C420.215 286.161 420.471 286.033 420.471 286.161C420.471 286.161 420.343 286.289 420.087 286.544C419.832 286.8 419.321 287.183 418.81 287.566C417.66 288.461 415.999 289.866 413.827 291.527C409.483 294.976 403.222 299.83 395.429 305.707L395.557 305.451C395.557 311.711 395.557 318.865 395.557 326.53L395.301 326.274C399.134 326.274 403.095 326.274 407.183 326.274H407.566L407.439 326.657C405.906 332.662 404.372 339.049 402.711 345.564V345.309C403.606 346.586 404.628 347.864 405.65 349.141C420.471 368.687 434.014 386.444 443.724 399.346C448.579 405.734 452.412 410.971 455.222 414.548C456.5 416.337 457.522 417.742 458.289 418.764C458.672 419.275 458.927 419.53 459.055 419.914C459.183 420.041 459.311 420.169 459.311 420.169Z" fill="#263238"/>
<path d="M501.217 299.958C493.679 286.8 489.846 288.205 489.846 288.205L490.229 292.932V302.768L486.652 344.925L463.91 436.521L464.421 574.361H550.534L561.266 405.989L560.244 333.428L501.217 299.958Z" fill="#EBEBEB"/>
<path d="M560.244 333.556C560.244 333.556 582.475 350.035 584.519 376.479C586.052 397.941 589.63 456.833 590.396 469.736C591.418 489.664 575.831 536.42 535.33 523.134C511.055 515.214 421.365 484.682 421.365 484.682L427.37 446.613L533.797 453.001L535.969 364.215L560.244 333.556Z" fill="#EBEBEB"/>
<path d="M426.092 450.956C426.092 450.956 395.939 447.763 389.04 449.424C382.397 451.084 372.814 459.26 372.814 459.26L372.942 471.141L421.364 484.682L426.092 450.956Z" fill="#FFBE9D"/>
<path d="M463.91 422.724C463.91 422.724 463.91 422.596 464.038 422.341C464.165 422.085 464.293 421.702 464.549 421.191C464.932 420.169 465.571 418.636 466.337 416.72C467.998 412.76 470.298 407.139 473.109 400.24C475.92 393.214 479.369 385.038 483.202 375.84C484.097 373.541 485.119 371.114 486.269 368.814C487.418 366.515 488.696 364.088 490.101 361.788C492.912 357.189 496.106 352.59 499.684 347.991C501.472 345.692 503.133 343.52 504.922 341.476V341.859C503.644 338.666 502.367 335.472 501.217 332.278L501.089 332.023L501.472 331.895C506.966 329.979 512.205 328.19 517.187 326.53L517.06 326.913C509.777 314.777 503.644 304.429 499.3 297.147C497.128 293.571 495.34 290.632 493.296 289.483C492.401 288.844 491.507 288.716 490.868 288.461C490.357 288.333 489.974 288.333 489.974 288.205C489.974 288.205 490.229 288.205 490.868 288.333C491.507 288.461 492.273 288.588 493.296 289.227C494.318 289.866 495.34 290.888 496.362 292.165C497.384 293.443 498.406 295.103 499.556 296.892C504.028 304.174 510.16 314.393 517.571 326.53L517.826 326.785L517.443 326.913C512.46 328.574 507.222 330.362 501.728 332.278L501.983 331.895C503.261 334.961 504.411 338.155 505.689 341.476L505.816 341.604L505.689 341.732C503.9 343.776 502.111 345.947 500.45 348.247C497.001 352.718 493.679 357.317 490.868 362.044C489.463 364.343 488.185 366.643 487.035 368.942C485.885 371.241 484.863 373.669 483.969 375.968C480.136 385.166 476.686 393.47 473.748 400.368C470.809 407.266 468.509 412.887 466.848 416.848C466.082 418.764 465.443 420.297 464.932 421.319C464.676 421.83 464.549 422.213 464.421 422.469C463.91 422.596 463.91 422.724 463.91 422.724Z" fill="#263238"/>
<path d="M572.382 515.725C572.382 515.725 572.254 515.853 571.998 516.108C571.743 516.363 571.36 516.747 570.849 517.258C569.826 518.28 568.165 519.557 565.993 520.962C563.694 522.368 560.755 523.773 557.05 524.667C553.345 525.561 549.001 525.945 544.274 525.434C541.846 525.178 539.419 524.667 536.991 523.901C534.436 523.134 532.008 522.112 529.325 521.218C524.087 519.302 518.465 517.386 512.46 515.214C500.578 510.998 487.547 506.655 473.748 502.056C446.151 492.986 420.982 485.321 402.711 479.955C393.64 477.273 386.23 475.101 381.119 473.568C378.564 472.801 376.648 472.29 375.242 471.779C374.603 471.524 374.092 471.396 373.709 471.268C373.326 471.141 373.198 471.141 373.198 471.141C373.198 471.141 373.326 471.141 373.709 471.268C374.092 471.396 374.603 471.524 375.242 471.652C376.648 472.035 378.564 472.546 381.119 473.312C386.23 474.718 393.64 476.889 402.839 479.444C421.109 484.81 446.279 492.347 473.876 501.417C487.674 505.888 500.834 510.359 512.588 514.575C518.465 516.619 524.215 518.663 529.453 520.579C532.136 521.473 534.564 522.495 537.119 523.262C539.546 524.028 541.974 524.539 544.401 524.795C549.129 525.306 553.473 525.05 557.05 524.028C560.755 523.134 563.694 521.729 565.993 520.451C568.293 519.046 569.826 517.769 570.976 516.875C571.487 516.364 571.871 516.108 572.126 515.853C572.254 515.853 572.382 515.725 572.382 515.725Z" fill="#263238"/>
<path d="M372.815 471.396C372.815 471.524 371.154 471.141 368.471 471.268C367.065 471.268 365.532 471.524 363.871 472.035C362.21 472.546 360.422 473.312 358.633 474.462C355.183 476.634 352.756 479.7 351.35 481.999C349.945 484.299 349.306 485.832 349.178 485.832C349.178 485.832 349.306 485.449 349.562 484.682C349.817 483.916 350.328 482.894 350.967 481.744C352.372 479.317 354.672 476.251 358.25 473.951C360.038 472.801 361.955 472.035 363.743 471.524C365.532 471.013 367.193 470.885 368.598 470.885C370.004 470.885 371.154 471.013 371.793 471.141C372.431 471.141 372.815 471.268 372.815 471.396Z" fill="#263238"/>
<path d="M343.173 462.071C343.173 462.071 343.173 461.943 343.301 461.687C343.429 461.432 343.557 461.176 343.94 460.793C344.579 460.155 345.729 459.388 347.262 459.133C348.795 458.749 350.712 458.877 352.756 459.133C354.8 459.388 357.1 459.899 359.272 460.665C363.743 462.326 367.449 464.881 369.621 467.053C370.77 468.203 371.537 469.097 372.048 469.863C372.559 470.63 372.815 471.013 372.687 471.013C372.559 471.141 371.537 469.48 369.237 467.308C366.938 465.264 363.36 462.837 358.888 461.176C356.716 460.41 354.544 459.899 352.5 459.516C350.456 459.26 348.667 459.133 347.134 459.388C345.601 459.644 344.451 460.155 343.94 460.793C343.429 461.56 343.301 462.071 343.173 462.071Z" fill="#263238"/>
<path d="M378.309 379.929C378.309 379.929 378.053 379.29 377.925 378.012C377.797 377.374 377.414 376.735 377.159 375.841C376.775 375.074 376.392 374.052 375.753 373.158C374.603 371.242 372.942 369.07 370.898 366.77C368.854 364.599 366.427 362.299 363.616 360.255C357.994 356.167 351.989 353.868 347.517 352.846C345.218 352.463 343.429 352.207 342.151 352.207C340.874 352.207 340.107 352.079 340.107 352.079C340.107 352.079 340.874 351.952 342.151 351.952C343.429 351.824 345.345 352.079 347.645 352.463C352.245 353.229 358.25 355.656 363.999 359.744C366.938 361.788 369.365 364.088 371.409 366.387C373.454 368.687 374.987 370.858 376.137 372.902C376.648 373.924 377.031 374.946 377.414 375.713C377.67 376.607 377.925 377.374 378.053 378.012C378.309 379.29 378.309 379.929 378.309 379.929Z" fill="#263238"/>
<path d="M556.795 489.153C556.795 489.153 556.795 489.025 556.795 488.642C556.795 488.259 556.795 487.876 556.795 487.365C556.795 486.215 556.667 484.426 556.539 482.255C556.156 477.784 555.39 471.396 552.707 463.859C552.068 461.943 551.301 460.027 550.151 458.238C549.001 456.45 547.34 454.917 545.168 454.022C540.952 452.234 535.714 452.362 530.476 452.106C519.871 451.723 508.372 451.212 496.235 450.701C467.871 449.423 442.702 448.401 426.859 447.507L427.115 447.379C426.22 453.256 425.454 457.855 424.815 461.049C424.559 462.581 424.304 463.859 424.176 464.625C424.048 465.009 424.048 465.264 424.048 465.52C424.048 465.775 423.921 465.775 423.921 465.775C423.921 465.775 423.921 465.647 423.921 465.52C423.921 465.264 424.048 465.009 424.048 464.625C424.176 463.731 424.304 462.581 424.559 461.049C425.071 457.855 425.709 453.256 426.604 447.379V447.252H426.731C442.574 447.89 467.871 448.912 496.107 450.19C508.245 450.701 519.871 451.212 530.348 451.723C533.031 451.851 535.586 451.978 538.014 452.106C540.569 452.362 542.996 452.745 545.168 453.767C547.34 454.661 549.129 456.322 550.407 458.238C551.557 460.154 552.323 462.071 552.962 463.987C555.645 471.524 556.284 478.039 556.539 482.51C556.667 484.682 556.667 486.47 556.667 487.62C556.667 488.131 556.667 488.642 556.667 488.898C556.923 489.025 556.923 489.153 556.795 489.153Z" fill="#263238"/>
<path d="M536.608 405.861C536.736 405.861 536.991 416.209 536.991 428.856C536.991 441.631 536.863 451.851 536.608 451.851C536.48 451.851 536.225 441.503 536.225 428.856C536.225 416.209 536.352 405.861 536.608 405.861Z" fill="#263238"/>
<path d="M330.269 353.357C330.269 353.357 330.142 353.612 330.014 354.251C329.886 354.762 329.503 355.656 329.247 356.806C328.608 358.978 327.842 362.299 326.947 366.643C325.159 375.202 322.987 387.849 320.559 403.562C319.282 411.482 318.004 420.169 316.726 429.495C316.088 434.222 315.704 439.076 315.321 444.058C314.938 449.168 314.682 454.278 314.554 459.644C314.171 470.374 313.916 481.744 314.299 493.497C314.427 496.435 314.554 499.373 314.682 502.439C314.81 503.972 315.065 505.377 315.193 506.91C315.449 508.443 315.832 509.849 316.343 511.382C317.237 514.32 318.643 517.003 320.559 519.43C322.476 521.857 325.031 523.901 327.842 525.051C333.719 528.117 340.235 530.288 346.751 532.332C353.395 534.249 360.166 535.909 367.065 537.314C382.525 540.508 397.984 542.297 412.805 542.935C420.215 543.191 427.498 542.935 434.652 542.424C441.807 541.913 448.706 541.147 455.35 540.253C468.765 538.336 481.286 535.271 492.657 531.566C504.028 527.861 513.994 523.262 522.809 518.663V519.046C505.306 512.787 491.252 507.805 481.542 504.355C476.687 502.567 472.981 501.289 470.426 500.395C469.149 499.884 468.254 499.629 467.488 499.373C466.849 499.118 466.466 498.99 466.466 498.99C466.466 498.99 466.849 499.118 467.488 499.245C468.126 499.501 469.149 499.756 470.426 500.267C472.981 501.162 476.687 502.439 481.542 504.1C491.252 507.549 505.433 512.404 522.937 518.535L523.448 518.663L522.937 518.919C514.249 523.645 504.156 528.244 492.785 531.949C481.414 535.781 468.893 538.72 455.478 540.636C448.706 541.658 441.807 542.424 434.652 542.935C427.498 543.446 420.215 543.702 412.805 543.574C397.856 543.063 382.525 541.147 366.938 537.953C360.038 536.548 353.139 534.887 346.495 532.971C339.852 530.927 333.463 528.755 327.459 525.689C324.392 524.412 321.837 522.368 319.92 519.941C317.876 517.513 316.471 514.575 315.577 511.637C315.065 510.104 314.81 508.699 314.427 507.166C314.299 505.633 314.043 504.1 313.916 502.567C313.66 499.501 313.532 496.563 313.532 493.625C313.277 481.744 313.532 470.374 313.916 459.644C314.171 454.278 314.427 449.04 314.682 443.93C315.065 438.821 315.449 433.966 316.088 429.239C317.365 419.914 318.771 411.227 319.92 403.307C322.476 387.593 324.648 374.946 326.564 366.387C327.459 362.044 328.353 358.722 328.992 356.551C329.247 355.401 329.631 354.634 329.758 354.123C330.269 353.74 330.269 353.357 330.269 353.357Z" fill="#263238"/>
<path d="M372.687 462.454C388.402 445.08 387.763 414.037 378.692 392.064C377.798 415.826 375.115 436.904 372.943 460.027" fill="#E0E0E0"/>
<path d="M378.691 396.664C378.691 396.664 378.691 396.919 378.691 397.43C378.691 397.941 378.564 398.708 378.564 399.602C378.436 401.518 378.18 404.328 377.925 407.522C377.414 414.293 376.647 423.618 375.753 433.838C374.986 444.058 374.22 453.384 373.709 460.154C373.453 463.476 373.198 466.159 373.07 468.075C372.942 468.969 372.942 469.736 372.942 470.247C372.942 470.758 372.814 471.013 372.814 471.013C372.814 471.013 372.814 470.758 372.814 470.247C372.814 469.736 372.814 468.969 372.814 468.075C372.814 466.159 373.07 463.476 373.198 460.027C373.581 453.256 374.22 443.93 375.114 433.711C376.008 423.491 376.775 414.165 377.414 407.394C377.797 404.073 378.053 401.39 378.308 399.474C378.436 398.58 378.564 397.941 378.564 397.302C378.691 396.919 378.691 396.664 378.691 396.664Z" fill="#263238"/>
<path d="M417.532 365.237C417.659 365.237 417.915 371.241 417.915 378.779C417.915 386.188 417.787 392.32 417.532 392.32C417.276 392.32 417.148 386.316 417.148 378.779C417.148 371.241 417.276 365.237 417.532 365.237Z" fill="#263238"/>
<path d="M407.311 410.077C407.567 412.888 408.717 415.315 410.25 417.231C411.783 419.147 414.721 421.063 417.149 420.936C417.149 420.936 423.154 421.447 426.476 416.337C429.414 411.61 430.181 401.901 427.753 396.153C426.092 392.192 422.515 388.488 418.171 388.36C412.549 388.232 408.972 392.32 407.822 396.408" fill="#E0E0E0"/>
<path d="M407.694 396.28C407.694 396.28 407.822 395.258 408.716 393.47C409.227 392.575 409.866 391.681 410.888 390.659C411.91 389.765 413.188 388.871 414.849 388.36C415.615 388.104 416.638 387.977 417.532 387.977C418.426 387.977 419.448 387.977 420.47 388.36C422.387 388.999 424.303 390.404 425.709 392.064C427.114 393.853 428.264 396.025 428.775 398.452C429.286 400.879 429.542 403.434 429.286 405.989C429.031 409.949 428.264 413.909 425.964 416.975C424.814 418.508 423.281 419.53 421.748 420.169C420.087 420.808 418.554 421.063 416.893 420.936C415.615 420.936 414.466 420.552 413.443 420.041C412.421 419.53 411.527 418.892 410.888 418.253C409.483 416.848 408.588 415.315 408.077 414.037C407.566 412.76 407.311 411.61 407.183 410.971C407.183 410.588 407.055 410.332 407.055 410.077C407.055 409.949 407.055 409.822 407.055 409.822C407.183 409.822 407.183 411.482 408.333 413.909C408.972 415.187 409.738 416.592 411.144 417.87C411.91 418.508 412.677 419.147 413.699 419.53C414.593 420.041 415.743 420.297 416.893 420.297C419.832 420.425 423.281 419.275 425.326 416.464C427.37 413.654 428.136 409.694 428.392 405.734C428.647 400.624 427.881 395.641 424.942 392.192C423.537 390.532 421.876 389.254 420.087 388.615C419.193 388.36 418.299 388.232 417.404 388.232C416.51 388.232 415.615 388.36 414.849 388.615C413.316 389.126 411.91 389.893 411.016 390.787C409.994 391.681 409.355 392.575 408.844 393.47C408.077 395.258 407.822 396.28 407.694 396.28Z" fill="#263238"/>
<path d="M404.245 410.332C404.5 413.143 405.65 415.57 407.183 417.486C408.717 419.403 411.655 421.319 414.083 421.191C414.083 421.191 420.088 421.702 423.409 416.592C426.348 411.865 427.115 402.157 424.687 396.408C423.026 392.448 419.449 388.743 415.105 388.615C409.483 388.487 405.906 392.575 404.756 396.663" fill="#E0E0E0"/>
<path d="M404.756 396.536C404.756 396.536 404.884 395.514 405.778 393.725C406.289 392.831 406.928 391.937 407.95 390.915C408.972 390.02 410.25 389.126 411.911 388.615C412.677 388.36 413.699 388.232 414.594 388.232C415.488 388.232 416.51 388.232 417.532 388.615C419.449 389.254 421.365 390.659 422.771 392.32C424.176 394.108 425.326 396.28 425.837 398.707C426.348 401.135 426.604 403.689 426.348 406.244C426.092 410.205 425.326 414.165 423.026 417.231C421.876 418.764 420.343 419.786 418.81 420.425C417.149 421.063 415.616 421.319 413.955 421.191C412.677 421.191 411.527 420.808 410.505 420.297C409.483 419.786 408.589 419.147 407.95 418.508C406.545 417.103 405.65 415.57 405.139 414.293C404.628 413.015 404.373 411.865 404.245 411.227C404.245 410.843 404.117 410.588 404.117 410.332C404.117 410.205 404.117 410.077 404.117 410.077C404.245 410.077 404.245 411.738 405.395 414.165C406.034 415.442 406.8 416.848 408.206 418.125C408.972 418.764 409.739 419.403 410.761 419.786C411.655 420.297 412.805 420.552 413.955 420.552C416.893 420.68 420.343 419.53 422.387 416.72C424.432 413.909 425.198 409.949 425.454 405.989C425.709 400.879 424.943 395.897 422.004 392.448C420.599 390.787 418.938 389.509 417.149 388.871C416.255 388.615 415.36 388.487 414.466 388.487C413.572 388.487 412.677 388.615 411.911 388.871C410.377 389.382 408.972 390.148 408.078 391.042C407.056 391.937 406.417 392.831 405.906 393.725C405.011 395.514 404.884 396.536 404.756 396.536Z" fill="#263238"/>
<path d="M409.738 395.131C406.927 394.62 404.116 396.536 402.839 399.091C401.689 401.646 401.944 404.712 402.839 407.394C403.35 408.8 403.989 410.077 405.011 411.099C406.033 412.121 407.311 412.888 408.844 413.015C411.016 413.143 412.932 411.61 414.082 409.949C416.126 407.139 416.765 403.434 415.871 400.113C415.232 397.941 413.699 395.641 411.399 395.514" fill="#E0E0E0"/>
<path d="M411.399 395.514C411.399 395.514 411.527 395.514 411.91 395.514C412.294 395.514 412.677 395.641 413.316 396.025C414.466 396.663 415.743 398.196 416.254 400.368C416.765 402.54 416.765 405.478 415.488 408.161C414.849 409.566 413.955 410.843 412.677 411.865C411.399 412.887 409.483 413.526 407.694 413.015C405.905 412.504 404.628 411.227 403.733 409.821C402.839 408.416 402.456 406.883 402.073 405.35C401.434 402.412 401.945 399.474 403.35 397.685C404.756 395.769 406.544 395.003 407.822 394.875C408.461 394.747 408.972 394.875 409.227 394.875C409.611 395.003 409.738 395.003 409.738 395.003C409.738 395.13 409.1 394.875 407.822 395.13C406.672 395.386 404.883 396.152 403.733 397.941C402.456 399.729 402.073 402.412 402.711 405.223C402.967 406.628 403.478 408.033 404.372 409.438C405.139 410.716 406.417 411.865 407.95 412.376C409.483 412.887 411.144 412.249 412.294 411.354C413.571 410.46 414.338 409.183 414.977 407.905C416.254 405.35 416.382 402.54 415.871 400.496C415.488 398.324 414.338 396.919 413.316 396.152C412.038 395.514 411.272 395.641 411.399 395.514Z" fill="#263238"/>
<path d="M416.127 416.081C415.999 416.081 415.871 415.698 415.488 415.187C415.105 414.676 414.338 414.037 413.316 413.782C412.294 413.526 411.4 413.398 410.633 413.398C409.867 413.398 409.483 413.271 409.483 413.143C409.483 413.015 409.867 412.887 410.633 412.887C411.4 412.887 412.422 412.76 413.572 413.143C414.722 413.526 415.488 414.293 415.999 414.931C416.255 415.57 416.255 416.081 416.127 416.081Z" fill="#263238"/>
<path d="M417.148 393.342C417.148 393.342 416.893 393.853 416.382 394.236C415.743 394.747 414.848 395.258 413.699 395.386C412.549 395.641 411.527 395.514 410.76 395.258C409.993 395.003 409.61 394.747 409.738 394.619C409.866 394.492 411.527 395.13 413.571 394.747C415.615 394.492 417.02 393.214 417.148 393.342Z" fill="#263238"/>
<path d="M504.922 301.874C504.922 301.874 505.05 301.874 505.305 302.002C505.561 302.13 505.944 302.258 506.455 302.641C507.477 303.152 508.755 304.046 510.288 305.323C513.354 307.878 516.804 312.477 518.465 318.354C520.254 324.102 521.148 329.596 521.659 333.556C521.914 335.472 522.042 337.133 522.042 338.283C522.17 339.432 522.17 339.943 522.042 339.943C522.042 339.943 521.915 339.305 521.787 338.283C521.659 337.005 521.403 335.472 521.148 333.684C520.637 329.723 519.615 324.486 517.826 318.609C516.165 312.861 512.843 308.389 509.905 305.707C507.094 303.024 504.794 302.002 504.922 301.874Z" fill="#263238"/>
<path d="M488.952 442.525C492.658 442.397 495.596 438.693 499.301 438.948C501.984 439.076 504.412 441.759 504.156 444.569C503.901 447.252 501.218 449.551 498.407 449.296C494.574 448.785 492.274 444.314 488.441 443.419" fill="#263238"/>
<path d="M520.382 445.591C519.232 445.591 518.082 445.463 516.932 445.336L517.188 444.058C521.787 444.825 525.62 444.058 528.559 441.886C532.392 439.076 534.819 434.094 535.841 427.068V426.812C536.224 424.002 536.863 369.325 536.863 358.978C536.863 342.754 522.682 340.582 522.043 340.454C521.404 340.327 508.5 338.155 501.728 355.912C494.446 374.435 482.947 410.205 482.18 414.421C482.053 414.932 481.925 415.57 481.797 416.337C480.647 421.702 478.092 432.816 485.502 439.331C493.807 446.485 500.323 443.675 500.578 443.547L501.089 444.697C500.834 444.825 493.551 447.891 484.608 440.226C476.559 433.327 479.242 421.702 480.392 416.081C480.519 415.315 480.647 414.804 480.775 414.293C481.542 410.077 493.04 374.18 500.323 355.656C507.605 336.877 521.915 339.432 522.043 339.432C522.17 339.432 537.885 341.86 537.885 359.233C537.885 367.792 537.374 424.257 536.863 427.195V427.451C535.841 434.86 533.158 440.098 529.07 443.036C526.898 444.697 523.831 445.591 520.382 445.591Z" fill="#263238"/>
<path d="M537.503 369.453C537.375 369.453 537.119 366.77 534.819 363.066C533.67 361.277 532.009 359.361 529.709 357.573C527.409 355.912 524.726 354.379 521.532 353.74C515.144 352.335 509.139 353.868 505.306 355.912C501.473 357.956 499.812 360.127 499.684 360C499.684 360 499.812 359.872 499.94 359.616C500.195 359.361 500.451 358.978 500.834 358.595C501.729 357.7 503.134 356.678 505.051 355.529C506.967 354.507 509.394 353.485 512.205 352.974C515.016 352.463 518.338 352.463 521.532 353.229C524.854 353.996 527.665 355.529 529.964 357.317C532.264 359.105 533.925 361.149 535.075 363.066C536.225 364.982 536.736 366.643 536.991 367.792C537.119 368.431 537.247 368.814 537.247 369.198C537.503 369.325 537.503 369.453 537.503 369.453Z" fill="#263238"/>
<path d="M570.082 471.652C569.954 471.652 569.699 469.48 568.293 466.159C566.888 462.965 564.205 458.749 559.605 455.811C557.306 454.406 554.878 453.639 552.578 453.256C550.279 452.873 548.107 452.745 546.446 452.617C544.785 452.489 543.379 452.362 542.229 452.362C541.207 452.234 540.696 452.234 540.696 452.106C540.696 452.106 541.207 452.106 542.229 452.106C543.379 452.106 544.785 452.106 546.446 452.234C548.234 452.234 550.406 452.362 552.706 452.745C555.006 453.128 557.689 453.767 559.989 455.3C564.716 458.366 567.399 462.709 568.677 466.031C569.315 467.692 569.699 469.097 569.826 470.119C570.082 471.013 570.082 471.652 570.082 471.652Z" fill="#263238"/>
<path d="M505.561 450.318C505.561 450.318 518.082 431.283 521.276 428.856C524.47 426.301 551.94 414.037 555.134 415.954C558.328 417.997 556.411 422.213 556.411 422.213C556.411 422.213 568.038 418.125 569.315 419.786C570.593 421.447 570.849 424.129 569.315 426.301C569.315 426.301 575.704 425.279 575.704 427.323C575.704 429.239 574.937 431.794 571.998 433.966C569.06 436.138 549.768 449.04 548.234 452.617L541.974 452.234L505.561 450.318Z" fill="#FFBE9D"/>
<path d="M541.718 444.825C541.718 444.825 541.846 444.314 542.229 443.675C542.613 442.908 543.379 441.886 544.274 440.737C546.19 438.309 549.384 435.499 553.345 433.072C557.306 430.644 561.266 429.111 564.077 427.962C565.482 427.451 566.632 427.067 567.527 426.684C568.293 426.429 568.804 426.301 568.804 426.301C568.804 426.301 568.421 426.557 567.654 426.94C566.76 427.323 565.61 427.834 564.333 428.345C561.522 429.495 557.689 431.155 553.728 433.583C549.767 435.882 546.573 438.693 544.657 440.992C542.74 443.292 541.846 444.952 541.718 444.825Z" fill="#AA6550"/>
<path d="M525.748 444.569C525.748 444.569 525.876 444.058 526.387 443.164C526.77 442.27 527.409 440.992 528.303 439.459C529.198 437.926 530.22 436.138 531.753 434.349C532.519 433.455 533.286 432.561 534.436 431.794C535.458 431.028 536.608 430.389 537.758 429.75C542.357 427.068 546.701 424.896 550.023 423.618C551.684 422.98 552.962 422.596 553.984 422.341C555.006 422.085 555.517 422.085 555.517 422.085C555.517 422.213 553.473 422.724 550.279 424.129C547.084 425.535 542.741 427.706 538.141 430.389C536.991 431.028 535.841 431.794 534.819 432.433C533.925 433.072 533.03 434.094 532.264 434.86C530.731 436.649 529.709 438.31 528.686 439.842C527.792 441.248 527.153 442.397 526.515 443.419C526.131 444.058 525.876 444.569 525.748 444.569Z" fill="#AA6550"/>
<path d="M704.262 574.47C704.262 574.647 546.563 575 352.183 575C157.699 575 0 574.823 0 574.47C0 574.294 157.594 573.941 352.183 573.941C546.563 573.941 704.262 574.117 704.262 574.47Z" fill="#263238"/>
<path d="M800.098 276.669C804.235 266.685 799.72 257.322 788.813 252.876C779.891 249.184 771.032 250.168 762.963 254.692C760.195 256.26 756.764 255.45 755.094 252.733L746.822 239.435C745.204 236.822 745.86 233.336 748.422 231.613C763.609 221.297 782.206 218.764 802.783 227.24C827.949 237.691 839.683 258.619 829.616 282.638C817 312.953 790.525 308.181 779.629 324.682C778.073 327.002 775.101 327.898 772.523 326.858L757.799 320.696C754.551 319.345 753.194 315.441 754.985 312.424C768.144 290.479 793.257 293.156 800.098 276.669ZM735.195 349.719C739.565 339.296 748.429 336.763 757.815 340.611C767.175 344.536 771.693 352.607 767.323 363.03C763.109 373.247 753.804 376.58 744.444 372.654C735.136 368.832 730.981 359.936 735.195 349.719Z" fill="#2B2665"/>
<path d="M366.013 28.4971C366.515 22.1314 362.162 17.7759 355.297 17.4409C349.604 17.1058 344.916 19.2836 341.232 23.304C340.06 24.6442 337.884 24.8117 336.544 23.6391L329.512 17.7759C328.172 16.6033 327.837 14.593 329.01 13.0854C335.539 4.54188 345.418 -0.316177 358.478 0.52142C374.384 1.69405 384.765 11.0751 383.761 26.3194C382.421 45.5841 366.85 47.7619 363.836 58.9857C363.334 60.4933 361.994 61.666 360.32 61.4984L350.944 60.8284C348.934 60.6609 347.427 58.8181 347.762 56.8079C350.776 42.0662 365.343 38.8833 366.013 28.4971ZM343.576 81.2657C344.079 74.7325 348.432 71.5496 354.46 72.0522C360.487 72.3872 364.338 76.0726 364.003 82.7734C363.501 89.3067 358.98 92.8246 353.12 92.4895C347.093 91.8194 343.074 87.799 343.576 81.2657Z" fill="#2B2665"/>
<path d="M66.6088 155.485C64.7671 151.129 60.5812 149.789 55.893 151.632C52.042 153.307 49.6979 156.155 48.5258 160.175C48.191 161.515 46.8515 162.353 45.512 162.018L38.982 160.51C37.6426 160.175 36.8054 159.003 37.1402 157.663C38.6472 149.789 43.5028 143.423 52.3769 139.738C63.2601 135.215 73.3063 138.063 77.4921 148.449C82.8501 161.515 73.3063 168.216 74.9806 176.592C75.148 177.765 74.6457 178.937 73.4737 179.44L67.1112 182.12C65.7717 182.623 64.0973 181.953 63.7624 180.445C61.0835 169.389 69.4552 162.521 66.6088 155.485ZM69.1204 197.7C67.2786 193.177 69.2878 189.659 73.3063 187.984C77.3247 186.308 81.1757 187.481 83.0175 192.004C84.8593 196.359 83.0175 200.212 78.999 201.888C74.8132 203.563 70.7947 202.055 69.1204 197.7Z" fill="#2B2665"/>
<defs>
<clipPath id="clip0_2409_6591">
<rect width="37.9615" height="70.8615" fill="white" transform="translate(550.772 74.7) rotate(30)"/>
</clipPath>
</defs>
</svg>
