<svg width="99" height="125" viewBox="0 0 99 125" fill="none" xmlns="http://www.w3.org/2000/svg">
<g filter="url(#filter0_d_2454_8717)">
<path d="M49.5 111C49.5 111 89 73.6856 89 45.375C89 34.9321 84.8384 24.9169 77.4307 17.5327C70.023 10.1484 59.9761 6 49.5 6C39.0239 6 28.977 10.1484 21.5693 17.5327C14.1616 24.9169 10 34.9321 10 45.375C10 73.6856 49.5 111 49.5 111ZM49.5 65.0625C44.262 65.0625 39.2385 62.9883 35.5346 59.2962C31.8308 55.604 29.75 50.5965 29.75 45.375C29.75 40.1535 31.8308 35.146 35.5346 31.4538C39.2385 27.7617 44.262 25.6875 49.5 25.6875C54.738 25.6875 59.7615 27.7617 63.4654 31.4538C67.1692 35.146 69.25 40.1535 69.25 45.375C69.25 50.5965 67.1692 55.604 63.4654 59.2962C59.7615 62.9883 54.738 65.0625 49.5 65.0625Z" fill="#E6317D"/>
</g>
<defs>
<filter id="filter0_d_2454_8717" x="0" y="0" width="99" height="125" filterUnits="userSpaceOnUse" color-interpolation-filters="sRGB">
<feFlood flood-opacity="0" result="BackgroundImageFix"/>
<feColorMatrix in="SourceAlpha" type="matrix" values="0 0 0 0 0 0 0 0 0 0 0 0 0 0 0 0 0 0 127 0" result="hardAlpha"/>
<feOffset dy="4"/>
<feGaussianBlur stdDeviation="5"/>
<feComposite in2="hardAlpha" operator="out"/>
<feColorMatrix type="matrix" values="0 0 0 0 0 0 0 0 0 0 0 0 0 0 0 0 0 0 0.25 0"/>
<feBlend mode="normal" in2="BackgroundImageFix" result="effect1_dropShadow_2454_8717"/>
<feBlend mode="normal" in="SourceGraphic" in2="effect1_dropShadow_2454_8717" result="shape"/>
</filter>
</defs>
</svg>
