<svg width="30" height="29" viewBox="0 0 30 29" fill="none" xmlns="http://www.w3.org/2000/svg">
<ellipse opacity="0.3" cx="15" cy="14.5" rx="14.5" ry="14.5" transform="rotate(-180 15 14.5)" fill="#CDDEFF"/>
<path d="M8.5 14C7.94772 14 7.5 14.4477 7.5 15C7.5 15.5523 7.94772 16 8.5 16L8.5 14ZM22.2071 15.7071C22.5976 15.3166 22.5976 14.6834 22.2071 14.2929L15.8431 7.92893C15.4526 7.53841 14.8195 7.53841 14.4289 7.92893C14.0384 8.31946 14.0384 8.95262 14.4289 9.34315L20.0858 15L14.4289 20.6569C14.0384 21.0474 14.0384 21.6805 14.4289 22.0711C14.8195 22.4616 15.4526 22.4616 15.8431 22.0711L22.2071 15.7071ZM8.5 16L21.5 16L21.5 14L8.5 14L8.5 16Z" fill="#2B2665"/>
</svg>
