<svg width="145" height="118" viewBox="0 0 145 118" fill="none" xmlns="http://www.w3.org/2000/svg">
<g clip-path="url(#clip0_2364_6404)">
<path d="M136.821 4.06897C136.821 6.31619 138.652 8.13793 140.91 8.13793C143.169 8.13793 145 6.31619 145 4.06897C145 1.82174 143.169 -8.00373e-08 140.91 -1.78768e-07C138.652 -2.77499e-07 136.821 1.82174 136.821 4.06897Z" fill="#0092FF"/>
<path d="M109.494 4.06897C109.494 6.31619 111.325 8.13793 113.583 8.13793C115.842 8.13793 117.673 6.31619 117.673 4.06897C117.673 1.82174 115.842 -8.00373e-08 113.583 -1.78768e-07C111.325 -2.77499e-07 109.494 1.82174 109.494 4.06897Z" fill="#0092FF"/>
<path d="M86.0705 8.13793C88.3013 8.13793 90.1602 6.2884 90.1602 4.06897C90.1602 1.84953 88.3013 -8.12584e-08 86.0705 -1.78768e-07C83.8397 -2.76278e-07 81.9808 1.84953 81.9808 4.06897C81.9808 6.2884 83.8397 8.13793 86.0705 8.13793Z" fill="#0092FF"/>
<path d="M58.7436 8.13793C60.9743 8.13793 62.8333 6.2884 62.8333 4.06897C62.8333 1.84953 60.9743 -8.12584e-08 58.7436 -1.78768e-07C56.5128 -2.76278e-07 54.6538 1.84953 54.6538 4.06897C54.6538 6.2884 56.5128 8.13793 58.7436 8.13793Z" fill="#0092FF"/>
<path d="M27.3269 4.06897C27.3269 6.31619 29.158 8.13793 31.4167 8.13793C33.6754 8.13793 35.5064 6.31619 35.5064 4.06897C35.5064 1.82174 33.6754 -8.00371e-08 31.4167 -1.78768e-07C29.158 -2.77499e-07 27.3269 1.82174 27.3269 4.06897Z" fill="#0092FF"/>
<path d="M1.41273e-05 4.06897C1.4029e-05 6.31619 1.83105 8.13793 4.08975 8.13793C6.34846 8.13793 8.1795 6.31619 8.1795 4.06897C8.1795 1.82174 6.34846 -8.00377e-08 4.08975 -1.78769e-07C1.83105 -2.775e-07 1.42255e-05 1.82174 1.41273e-05 4.06897Z" fill="#0092FF"/>
<path d="M136.821 26.0785C136.821 28.3257 138.652 30.1475 140.91 30.1475C143.169 30.1475 145 28.3257 145 26.0785C145 23.8313 143.169 22.0095 140.91 22.0095C138.652 22.0095 136.821 23.8313 136.821 26.0785Z" fill="#0092FF"/>
<path d="M109.494 26.0785C109.494 28.3257 111.325 30.1475 113.583 30.1475C115.842 30.1475 117.673 28.3257 117.673 26.0785C117.673 23.8313 115.842 22.0095 113.583 22.0095C111.325 22.0095 109.494 23.8313 109.494 26.0785Z" fill="#0092FF"/>
<path d="M86.0705 30.1475C88.3013 30.1475 90.1602 28.2979 90.1602 26.0785C90.1602 23.8591 88.3013 22.0095 86.0705 22.0095C83.8397 22.0095 81.9808 23.8591 81.9808 26.0785C81.9808 28.2979 83.8397 30.1475 86.0705 30.1475Z" fill="#0092FF"/>
<path d="M58.7436 30.1475C60.9743 30.1475 62.8333 28.2979 62.8333 26.0785C62.8333 23.8591 60.9743 22.0095 58.7436 22.0095C56.5128 22.0095 54.6538 23.8591 54.6538 26.0785C54.6538 28.2979 56.5128 30.1475 58.7436 30.1475Z" fill="#0092FF"/>
<path d="M27.3269 26.0785C27.3269 28.3257 29.158 30.1475 31.4167 30.1475C33.6754 30.1475 35.5064 28.3257 35.5064 26.0785C35.5064 23.8313 33.6754 22.0095 31.4167 22.0095C29.158 22.0095 27.3269 23.8313 27.3269 26.0785Z" fill="#0092FF"/>
<path d="M-1.63903e-05 26.0782C-1.64886e-05 28.3255 1.83102 30.1472 4.08972 30.1472C6.34842 30.1472 8.17947 28.3255 8.17947 26.0782C8.17947 23.831 6.34842 22.0093 4.08972 22.0093C1.83102 22.0093 -1.62921e-05 23.831 -1.63903e-05 26.0782Z" fill="#0092FF"/>
<path d="M140.91 52.1567C143.141 52.1567 145 50.3072 145 48.0878C145 45.8683 143.141 44.0188 140.91 44.0188C138.679 44.0188 136.821 45.8683 136.821 48.0878C136.821 50.3072 138.679 52.1567 140.91 52.1567Z" fill="#0092FF"/>
<path d="M113.583 52.1567C115.814 52.1567 117.673 50.3072 117.673 48.0878C117.673 45.8683 115.814 44.0188 113.583 44.0188C111.353 44.0188 109.494 45.8683 109.494 48.0878C109.494 50.3072 111.353 52.1567 113.583 52.1567Z" fill="#0092FF"/>
<path d="M86.0705 52.1567C88.3013 52.1567 90.1602 50.3072 90.1602 48.0878C90.1602 45.8683 88.3013 44.0188 86.0705 44.0188C83.8397 44.0188 81.9808 45.8683 81.9808 48.0878C81.9808 50.3072 83.8397 52.1567 86.0705 52.1567Z" fill="#0092FF"/>
<path d="M58.7436 52.1567C60.9743 52.1567 62.8333 50.3072 62.8333 48.0878C62.8333 45.8683 60.9743 44.0188 58.7436 44.0188C56.5128 44.0188 54.6538 45.8683 54.6538 48.0878C54.6538 50.3072 56.5128 52.1567 58.7436 52.1567Z" fill="#0092FF"/>
<path d="M31.4167 52.1567C33.6474 52.1567 35.5064 50.3072 35.5064 48.0878C35.5064 45.8683 33.6474 44.0188 31.4167 44.0188C29.1859 44.0188 27.3269 45.8683 27.3269 48.0878C27.3269 50.3072 29.1859 52.1567 31.4167 52.1567Z" fill="#0092FF"/>
<path d="M4.08972 52.1567C6.32049 52.1567 8.17947 50.3072 8.17947 48.0878C8.17947 45.8683 6.32049 44.0188 4.08972 44.0188C1.85895 44.0188 -1.62933e-05 45.8683 -1.63903e-05 48.0878C-1.64873e-05 50.3072 1.67305 52.1567 4.08972 52.1567Z" fill="#0092FF"/>
<path d="M136.821 69.9122C136.821 72.1595 138.652 73.9812 140.91 73.9812C143.169 73.9812 145 72.1595 145 69.9122C145 67.665 143.169 65.8433 140.91 65.8433C138.652 65.8433 136.821 67.665 136.821 69.9122Z" fill="#0092FF"/>
<path d="M109.494 69.9122C109.494 72.1595 111.325 73.9812 113.583 73.9812C115.842 73.9812 117.673 72.1595 117.673 69.9122C117.673 67.665 115.842 65.8433 113.583 65.8433C111.325 65.8433 109.494 67.665 109.494 69.9122Z" fill="#0092FF"/>
<path d="M86.0705 73.9812C88.3013 73.9812 90.1602 72.1317 90.1602 69.9122C90.1602 67.6928 88.3013 65.8433 86.0705 65.8433C83.8397 65.8433 81.9808 67.6928 81.9808 69.9122C81.9808 72.3166 83.8397 73.9812 86.0705 73.9812Z" fill="#0092FF"/>
<path d="M58.7436 73.9812C60.9743 73.9812 62.8333 72.1317 62.8333 69.9122C62.8333 67.6928 60.9743 65.8433 58.7436 65.8433C56.5128 65.8433 54.6538 67.6928 54.6538 69.9122C54.6538 72.3166 56.5128 73.9812 58.7436 73.9812Z" fill="#0092FF"/>
<path d="M27.3269 69.9122C27.3269 72.1595 29.158 73.9812 31.4167 73.9812C33.6754 73.9812 35.5064 72.1595 35.5064 69.9122C35.5064 67.665 33.6754 65.8433 31.4167 65.8433C29.158 65.8433 27.3269 67.665 27.3269 69.9122Z" fill="#0092FF"/>
<path d="M-1.63903e-05 69.9122C-1.64886e-05 72.1595 1.83102 73.9812 4.08972 73.9812C6.34842 73.9812 8.17947 72.1595 8.17947 69.9122C8.17947 67.665 6.34842 65.8433 4.08972 65.8433C1.83102 65.8433 -1.62921e-05 67.665 -1.63903e-05 69.9122Z" fill="#0092FF"/>
<path d="M136.821 91.9217C136.821 94.169 138.652 95.9907 140.91 95.9907C143.169 95.9907 145 94.169 145 91.9218C145 89.6745 143.169 87.8528 140.91 87.8528C138.652 87.8528 136.821 89.6745 136.821 91.9217Z" fill="#0092FF"/>
<path d="M109.494 91.9217C109.494 94.169 111.325 95.9907 113.583 95.9907C115.842 95.9907 117.673 94.169 117.673 91.9218C117.673 89.6745 115.842 87.8528 113.583 87.8528C111.325 87.8528 109.494 89.6745 109.494 91.9217Z" fill="#0092FF"/>
<path d="M86.0705 95.9907C88.3013 95.9907 90.1602 94.1412 90.1602 91.9218C90.1602 89.7023 88.3013 87.8528 86.0705 87.8528C83.8397 87.8528 81.9808 89.7023 81.9808 91.9217C81.9808 94.1412 83.8397 95.9907 86.0705 95.9907Z" fill="#0092FF"/>
<path d="M58.7436 95.9907C60.9743 95.9907 62.8333 94.1412 62.8333 91.9218C62.8333 89.7023 60.9743 87.8528 58.7436 87.8528C56.5128 87.8528 54.6538 89.7023 54.6538 91.9217C54.6538 94.1412 56.5128 95.9907 58.7436 95.9907Z" fill="#0092FF"/>
<path d="M27.3269 91.9217C27.3269 94.169 29.158 95.9907 31.4167 95.9907C33.6754 95.9907 35.5064 94.169 35.5064 91.9218C35.5064 89.6745 33.6754 87.8528 31.4167 87.8528C29.158 87.8528 27.3269 89.6745 27.3269 91.9217Z" fill="#0092FF"/>
<path d="M-1.63903e-05 91.9217C-1.64886e-05 94.169 1.83102 95.9907 4.08972 95.9907C6.34842 95.9907 8.17947 94.169 8.17947 91.9218C8.17947 89.6745 6.34842 87.8528 4.08972 87.8528C1.83102 87.8528 -1.62921e-05 89.6745 -1.63903e-05 91.9217Z" fill="#0092FF"/>
<path d="M140.91 118C143.141 118 145 116.15 145 113.931C145 111.712 143.141 109.862 140.91 109.862C138.679 109.862 136.821 111.712 136.821 113.931C136.821 116.15 138.679 118 140.91 118Z" fill="#0092FF"/>
<path d="M113.583 118C115.814 118 117.673 116.15 117.673 113.931C117.673 111.712 115.814 109.862 113.583 109.862C111.353 109.862 109.494 111.712 109.494 113.931C109.494 116.15 111.353 118 113.583 118Z" fill="#0092FF"/>
<path d="M86.0705 118C88.3013 118 90.1602 116.15 90.1602 113.931C90.1602 111.712 88.3013 109.862 86.0705 109.862C83.8397 109.862 81.9808 111.712 81.9808 113.931C81.9808 116.15 83.8397 118 86.0705 118Z" fill="#0092FF"/>
<path d="M58.7436 118C60.9743 118 62.8333 116.15 62.8333 113.931C62.8333 111.712 60.9743 109.862 58.7436 109.862C56.5128 109.862 54.6538 111.712 54.6538 113.931C54.6538 116.15 56.5128 118 58.7436 118Z" fill="#0092FF"/>
<path d="M31.4167 118C33.6474 118 35.5064 116.15 35.5064 113.931C35.5064 111.712 33.6474 109.862 31.4167 109.862C29.1859 109.862 27.3269 111.712 27.3269 113.931C27.3269 116.15 29.1859 118 31.4167 118Z" fill="#0092FF"/>
<path d="M4.08972 118C6.32049 118 8.17947 116.15 8.17947 113.931C8.17947 111.712 6.32049 109.862 4.08972 109.862C1.85895 109.862 -1.62933e-05 111.712 -1.63903e-05 113.931C-1.64873e-05 116.15 1.67305 118 4.08972 118Z" fill="#0092FF"/>
</g>
<defs>
<clipPath id="clip0_2364_6404">
<rect width="118" height="145" fill="white" transform="translate(145) rotate(90)"/>
</clipPath>
</defs>
</svg>
