<svg width="150" height="56" viewBox="0 0 150 56" fill="none" xmlns="http://www.w3.org/2000/svg">
<g clip-path="url(#clip0_2336_6683)">
<path d="M64.5295 37.9533H60.2217L59.0155 34.3701H51.0026L49.7964 37.9533H45.5172L52.5534 18.0466H57.4645L64.5295 37.9533ZM55.0233 22.5683L52.2664 30.7016H57.7804L55.0233 22.5683ZM78.8494 25.9525V18.0466H82.784V37.9533H78.8494V29.7062H71.3824V37.9533H67.4189V18.0466H71.3824V25.9525H78.8494ZM94.0019 38.3514C92.0298 38.3514 90.3641 37.9155 89.0048 37.0432C87.6452 36.1711 86.6786 34.9674 86.104 33.4316L89.4929 31.4694C90.2779 33.4981 91.8192 34.5123 94.1167 34.5123C95.1888 34.5123 95.993 34.3227 96.5292 33.9435C97.0653 33.5643 97.3334 33.0525 97.3334 32.4079C97.3334 31.7065 97.0175 31.166 96.3856 30.7869C95.7538 30.3886 94.6241 29.9622 92.9967 29.5072C91.2352 28.9764 89.8472 28.3602 88.8324 27.6588C87.5687 26.7298 86.9369 25.3648 86.9369 23.5635C86.9369 21.7435 87.5783 20.3121 88.8611 19.2694C90.1439 18.1888 91.7042 17.6484 93.5423 17.6484C95.1506 17.6484 96.5771 18.037 97.8215 18.8143C99.0661 19.5916 100.033 20.6913 100.722 22.1133L97.3908 24.0185C96.5866 22.3123 95.3038 21.459 93.5423 21.459C92.7383 21.459 92.0969 21.6439 91.6182 22.0136C91.1394 22.3834 90.9 22.8621 90.9 23.4498C90.9 24.0755 91.1586 24.5873 91.6755 24.9854C92.2499 25.3837 93.2647 25.8006 94.7198 26.2367L96.0983 26.6917C96.3471 26.7675 96.778 26.9286 97.3906 27.1752C97.965 27.3837 98.3863 27.5827 98.6543 27.7723C99.5924 28.3411 100.224 28.9287 100.55 29.5355C101.048 30.3318 101.296 31.2703 101.296 32.3509C101.296 34.1899 100.617 35.6497 99.2573 36.7303C97.898 37.8109 96.146 38.3513 94.0017 38.3513L94.0019 38.3514ZM114.209 38.3514C111.203 38.3514 108.705 37.356 106.713 35.3654C104.741 33.3938 103.755 30.9386 103.755 28.0001C103.755 25.0426 104.741 22.5873 106.713 20.6346C108.705 18.644 111.203 17.6486 114.209 17.6486C116.028 17.6486 117.708 18.0705 119.25 18.9141C120.791 19.7579 121.992 20.9001 122.854 22.341L119.436 24.3032C118.938 23.4122 118.23 22.7155 117.311 22.2131C116.392 21.7107 115.358 21.4592 114.209 21.4592C112.256 21.4592 110.677 22.066 109.471 23.2794C108.283 24.5116 107.69 26.0852 107.69 28.0001C107.69 29.8959 108.283 31.46 109.471 32.6924C110.677 33.9056 112.256 34.5124 114.209 34.5124C115.358 34.5124 116.397 34.2612 117.325 33.7588C118.254 33.2564 118.957 32.5691 119.436 31.6969L122.854 33.6593C121.992 35.1 120.791 36.2424 119.25 37.086C117.708 37.9296 116.028 38.3515 114.209 38.3515V38.3514ZM124.652 18.0466H139.442V21.8006H134.014V37.9533H130.051V21.8006H124.652V18.0466ZM141.269 19.8952L146.554 18.0466H150V37.9533H146.037V22.1986L142.246 23.2509L141.269 19.8952H141.269Z" fill="#FEFEFE"/>
<path fill-rule="evenodd" clip-rule="evenodd" d="M20.4335 0C28.3245 14.3562 40.8672 21.5775 40.8672 32.6848C40.8672 34.7962 40.5359 36.8313 39.9229 38.7434C40.7566 26.3666 25.9875 15.3558 20.4335 5.50429C14.9647 15.4921 -0.0611314 26.1173 0.944198 38.743C0.331252 36.8311 0 34.7962 0 32.6849C0 21.5776 12.8159 14.2697 20.4335 7.30196e-05V0Z" fill="white"/>
<path d="M30.9732 32.9621C30.9732 35.8263 29.7933 38.4199 27.886 40.2971C25.9788 42.1744 23.3437 43.3356 20.4336 43.3356C17.5234 43.3356 14.8883 42.1743 12.981 40.2971C11.0736 38.4199 9.8938 35.8263 9.8938 32.9621C9.8938 30.0978 11.0737 27.5042 12.981 25.6269C14.8884 23.7496 17.5235 22.5884 20.4336 22.5884V24.3986C18.0308 24.3986 15.8555 25.3571 14.2812 26.9066C12.7068 28.4562 11.733 30.5972 11.733 32.9621C11.733 35.3269 12.707 37.4679 14.2812 39.0174C15.8555 40.567 18.0309 41.5254 20.4336 41.5254C22.8363 41.5254 25.0116 40.5668 26.5859 39.0174C28.1601 37.468 29.134 35.3269 29.134 32.9621H30.9732Z" fill="white"/>
<path fill-rule="evenodd" clip-rule="evenodd" d="M22.3869 21.5818C22.3869 19.944 23.736 18.6162 25.4 18.6162C27.0641 18.6162 28.4131 19.944 28.4131 21.5818C28.4131 23.2197 27.0641 24.5474 25.4 24.5474C23.736 24.5474 22.3869 23.2197 22.3869 21.5818ZM23.5664 21.5818C23.5664 20.5853 24.3874 19.7771 25.4 19.7771C26.4125 19.7771 27.2335 20.5853 27.2335 21.5818C27.2335 22.5785 26.4125 23.3865 25.4 23.3865C24.3873 23.3865 23.5664 22.5785 23.5664 21.5818Z" fill="white"/>
<path d="M26.2305 21.582C26.2305 21.1306 25.8587 20.7646 25.4 20.7646C24.9414 20.7646 24.5695 21.1306 24.5695 21.582C24.5695 22.0335 24.9414 22.3994 25.4 22.3994C25.8587 22.3994 26.2305 22.0335 26.2305 21.582Z" fill="white"/>
<path fill-rule="evenodd" clip-rule="evenodd" d="M20.5119 35.655C20.5119 34.1606 21.7427 32.9492 23.2612 32.9492C24.7795 32.9492 26.0103 34.1606 26.0103 35.6552C26.0103 37.1496 24.7795 38.361 23.261 38.361C21.7427 38.361 20.5119 37.1496 20.5119 35.655ZM21.5882 35.655C21.5882 34.7457 22.3372 34.0085 23.2612 34.0085C24.1851 34.0085 24.9341 34.7457 24.9341 35.6552C24.9341 36.5645 24.1851 37.3017 23.261 37.3017C22.3372 37.3017 21.5882 36.5645 21.5882 35.655Z" fill="white"/>
<path d="M24.0189 35.6546C24.0189 35.2427 23.6797 34.9088 23.2612 34.9088C22.8427 34.9088 22.5034 35.2427 22.5034 35.6546C22.5034 36.0665 22.8427 36.4004 23.2612 36.4004C23.6797 36.4004 24.0189 36.0665 24.0189 35.6546Z" fill="white"/>
<path d="M17.7785 30.1792C17.7785 29.3197 17.0706 28.6229 16.1974 28.6229C15.3242 28.6229 14.6163 29.3197 14.6163 30.1792C14.6163 31.0386 15.3242 31.7354 16.1974 31.7354C17.0706 31.7354 17.7785 31.0386 17.7785 30.1792Z" fill="white"/>
<path d="M34.1993 29.5641C34.1993 28.5496 33.3637 27.7273 32.333 27.7273C31.3024 27.7273 30.4668 28.5496 30.4668 29.5641C30.4668 30.5785 31.3024 31.4009 32.333 31.4009C33.3637 31.4009 34.1993 30.5785 34.1993 29.5641Z" fill="white"/>
<path d="M28.4544 27.6778C28.4544 27.1226 27.9971 26.6725 27.433 26.6725C26.8689 26.6725 26.4116 27.1226 26.4116 27.6778C26.4116 28.233 26.8689 28.6831 27.433 28.6831C27.9971 28.6831 28.4544 28.233 28.4544 27.6778Z" fill="white"/>
<path d="M23.1824 27.0769C23.1824 26.7062 22.8771 26.4058 22.5005 26.4058C22.1239 26.4058 21.8186 26.7062 21.8186 27.0769C21.8186 27.4476 22.1239 27.748 22.5005 27.748C22.8771 27.748 23.1824 27.4476 23.1824 27.0769Z" fill="white"/>
<path d="M17.9468 19.8573C17.9468 18.9862 17.2293 18.28 16.3442 18.28C15.4592 18.28 14.7417 18.9862 14.7417 19.8573C14.7417 20.7284 15.4592 21.4346 16.3442 21.4346C17.2293 21.4346 17.9468 20.7284 17.9468 19.8573Z" fill="white"/>
<path fill-rule="evenodd" clip-rule="evenodd" d="M38.9323 42.4256C36.5641 50.2585 29.1933 55.971 20.4658 55.971C10.5728 55.971 2.42278 48.6313 1.32672 39.1831C3.77131 46.4773 8.53793 51.0335 15.1041 51.3336C19.7946 51.5478 22.5999 45.386 27.2881 43.6361C29.0622 42.9738 29.0196 44.4187 27.8839 45.0207C25.7575 46.1481 22.3476 49.8274 22.7542 50.9235C28.372 51.5282 35.6431 49.0885 37.7286 42.0878C38.0737 40.9291 39.1745 41.2386 38.9323 42.4256H38.9323ZM30.4368 48.411C32.032 46.5894 32.612 45.3289 33.126 44.1769C33.3459 43.6837 33.9685 44.0345 33.8232 44.3709C33.0387 46.185 32.2013 47.153 30.4367 48.411H30.4368ZM30.2067 48.9796C32.6325 47.6719 34.3994 44.7442 35.1993 42.9028C35.4171 42.4014 35.9728 42.6331 35.855 42.9827C35.1952 44.9377 32.6922 48.3085 30.2067 48.9796ZM30.431 49.325C33.3906 47.9103 35.7361 44.4933 36.6852 42.2875C36.8551 41.8923 37.486 42.0076 37.3403 42.4255C36.5257 44.7638 33.4594 48.6922 30.431 49.325Z" fill="#FEFEFE"/>
</g>
<defs>
<clipPath id="clip0_2336_6683">
<rect width="150" height="56" fill="white"/>
</clipPath>
</defs>
</svg>
