<svg width="80" height="81" viewBox="0 0 80 81" fill="none" xmlns="http://www.w3.org/2000/svg">
<path d="M58.4793 37.0657C59.6932 37.2772 62.9867 37.282 64.2198 37.0741C64.6876 36.9951 65.0938 36.9435 65.1225 36.9591C65.151 36.9748 64.8703 38.5094 64.4987 40.3693C64.127 42.2292 63.5183 45.2875 63.1461 47.1657C62.7739 49.0438 62.3953 50.7434 62.3048 50.9425C61.8694 51.9011 61.288 52.4859 60.3198 52.9392C59.8442 53.162 59.6614 53.193 58.8278 53.193C57.9195 53.193 57.8461 53.1774 57.1563 52.8369C56.0084 52.2701 55.2977 51.3 55.0739 49.9947C54.9751 49.4186 54.9945 49.2428 55.359 47.4135C55.5742 46.3338 56.1176 43.581 56.5666 41.296C57.4342 36.8804 57.4288 36.9054 57.5075 36.9054C57.5358 36.9054 57.973 36.9776 58.4793 37.0657Z" fill="#2B2665"/>
<path d="M45.1806 27.9118C45.5052 28.4872 45.9986 29.2241 46.682 30.1543C46.9109 30.4659 47.6736 31.2884 48.3769 31.9821L49.6558 33.2434L49.0933 33.7684C48.7841 34.0571 48.2527 34.5518 47.9125 34.8676C47.3445 35.3951 45.4639 37.1545 43.9524 38.5725C42.8656 39.5923 42.6828 39.7356 42.1042 40.0224C41.3304 40.4061 40.675 40.517 39.8947 40.3964C38.5964 40.1957 37.6092 39.4692 36.9997 38.2659C36.7369 37.7471 36.7171 37.6353 36.7171 36.6694C36.7171 34.9355 36.8398 34.7686 40.7788 31.1438C41.7652 30.2361 42.8923 29.1926 43.2834 28.8252C44.1487 28.012 44.84 27.3745 44.8597 27.3713C44.8678 27.3699 45.0122 27.6132 45.1806 27.9118Z" fill="#2B2665"/>
<path fill-rule="evenodd" clip-rule="evenodd" d="M64.0505 1.82955C70.3566 2.85553 75.5233 7.26442 77.5359 13.3371C78.1682 15.2449 78.3024 16.1767 78.2986 18.635C78.2956 20.6259 78.2743 20.9053 78.0419 21.9924C76.9383 27.1545 73.7169 31.3607 69.0224 33.7696C67.5308 34.5349 65.851 35.0822 63.9835 35.4114C62.9031 35.6018 59.6306 35.5712 58.5019 35.36C54.4063 34.5939 51.0806 32.6728 48.3377 29.4886C46.7219 27.6127 45.4066 24.9607 44.8048 22.3646C44.2087 19.7936 44.2631 16.8365 44.9539 14.2444C46.0253 10.2251 48.5672 6.713 52.0804 4.39799C53.0238 3.77632 54.9199 2.85251 55.9887 2.49399C56.9821 2.16069 58.7256 1.78961 59.7774 1.68764C60.8535 1.58321 62.9688 1.65346 64.0505 1.82955ZM54.8707 7.2597C55.9277 6.64256 57.4689 6.13892 59.0567 5.89182C60.219 5.71082 62.4345 5.71384 63.518 5.89777C65.7626 6.27895 67.8138 7.22693 69.6669 8.73975C71.8692 10.5376 73.4761 13.2651 74.0683 16.21C74.3016 17.3699 74.2975 19.8525 74.0606 20.9483C72.796 26.7975 68.7537 30.2674 65.0905 28.6484C64.5372 28.4038 63.2119 27.4474 62.8448 27.0276C61.9777 26.0363 61.3376 25.1013 60.4929 23.5921C59.366 21.5788 58.1301 20.3026 56.8403 19.8205C55.6222 19.3652 54.5729 19.3789 52.5959 19.8759C50.7392 20.3427 49.903 20.2704 49.2326 19.5854C48.564 18.9023 48.3153 17.469 48.6236 16.0754C48.9745 14.4897 49.9419 12.0363 50.4281 11.4987C50.5023 11.4168 50.563 11.318 50.563 11.2793C50.563 11.1104 51.6482 9.79329 52.3265 9.13896C52.9672 8.52088 54.0632 7.63493 54.1871 7.63493C54.2096 7.63493 54.5172 7.4661 54.8707 7.2597Z" fill="#2B2665"/>
<path d="M35.1577 9.31713C35.2876 9.37246 36.1808 9.63627 37.1424 9.90339C38.1041 10.1704 39.4225 10.5374 40.0723 10.719C40.722 10.9005 41.8423 11.2123 42.5617 11.412C43.2811 11.6116 43.887 11.7923 43.9083 11.8135C43.9294 11.8347 43.8425 12.1503 43.715 12.5148C43.1296 14.1888 42.8174 15.8821 42.752 17.738C42.7255 18.491 42.6878 19.1586 42.6682 19.2217C42.6431 19.3028 42.5553 19.3118 42.3684 19.2525C41.9486 19.1192 40.9207 18.825 38.9381 18.2705C38.6391 18.1869 38.353 18.1069 38.0791 18.0303L38.077 18.0297C32.7666 16.5453 32.0656 16.3493 31.5635 15.9207C31.4871 15.8555 31.4153 15.785 31.3326 15.7037L31.3325 15.7036C31.3045 15.676 31.2752 15.6472 31.2441 15.617C30.983 15.3635 30.6731 14.9205 30.497 14.5489C30.218 13.9606 30.1959 13.8411 30.1959 12.9225C30.1959 12.0879 30.2303 11.8564 30.4131 11.459C30.7464 10.735 30.9999 10.4055 31.5663 9.96033C32.35 9.34432 33.0279 9.13273 34.0708 9.17881C34.5386 9.19948 35.0277 9.26171 35.1577 9.31713Z" fill="#2B2665"/>
<path fill-rule="evenodd" clip-rule="evenodd" d="M65.51 44.1758L65.8615 42.1283L66.5058 42.7956C66.8601 43.1626 67.1815 43.478 67.22 43.4965C67.3299 43.5492 67.9941 44.5817 69.7221 47.3861C73.1644 52.9727 73.246 53.1116 73.246 53.3924C73.246 53.6141 72.6949 54.5376 69.0736 60.3835C68.4575 61.3781 67.9534 62.2395 67.9534 62.2978C67.9534 62.356 68.1178 62.6682 68.3188 62.9916C68.5197 63.3149 69.2706 64.5353 69.9874 65.7038C70.7041 66.8723 71.6723 68.4418 72.1389 69.1918C73.0913 70.7227 73.2825 71.1184 73.2087 71.4061C73.1805 71.5155 72.9282 71.9875 72.6477 72.4549C71.5416 74.2988 67.866 80.2191 67.6064 80.5751L67.331 80.9528L61.4364 80.9771C60.8085 80.9797 60.2458 80.983 59.7409 80.986C56.2451 81.0064 55.5246 81.0107 55.1783 80.6528C55.0884 80.5599 55.0237 80.4426 54.9422 80.2948C54.8969 80.2126 54.8463 80.121 54.7834 80.0189C54.5557 79.6497 53.4078 77.7923 52.2324 75.8914C51.0571 73.9904 50.0685 72.3652 50.0357 72.2798C49.9814 72.1383 49.5234 72.1244 44.8948 72.1244H39.8134L39.1978 73.1395C38.8592 73.6977 38.0843 74.9618 37.4759 75.9485C36.8674 76.9352 35.964 78.4011 35.4684 79.206C34.9727 80.0109 34.4828 80.7438 34.3796 80.8348C34.2053 80.9883 33.7788 81 28.3383 81H22.4846L22.2764 80.7718C22.1132 80.5927 20.1496 77.466 18.9494 75.4738C18.8455 75.3013 18.3498 74.4877 17.8479 73.6658L16.9355 72.1716L11.5157 72.1244C8.53481 72.0985 6.03207 72.0448 5.95391 72.0053C5.76073 71.9074 5.56367 71.6024 2.85811 67.2145C0.0169172 62.6068 0 62.5778 0 62.3152C0 62.0437 0.145357 61.7699 1.13366 60.1802C4.42973 54.8782 5.30613 53.4116 5.25623 53.2816C5.19678 53.1269 4.7332 52.3669 2.4088 48.6136C0.0985749 44.8832 0 44.7115 0 44.4175C0 44.1941 0.524913 43.2797 2.06289 40.8239C2.45313 40.2007 2.88693 39.4996 3.02681 39.2659C3.16668 39.0322 3.50503 38.4799 3.77855 38.0385C4.88565 36.2518 5.29261 35.5689 5.29261 35.4973C5.29261 35.4265 3.34228 32.2271 1.02847 28.502C0.320297 27.362 0.00189006 26.7618 0.00160652 26.5663C0.00132299 26.3715 0.294308 25.8113 0.940007 24.7723C1.45632 23.9414 2.04446 22.9854 2.24709 22.6479C3.75199 20.1399 5.54893 17.2694 5.74901 17.0534L5.98954 16.7938L11.4299 16.7918L16.8702 16.7897L19.5165 12.4839C20.972 10.1157 22.2642 8.09835 22.3882 8.00091C22.6017 7.83312 22.8591 7.82377 27.262 7.82377C30.9745 7.82377 31.8172 7.80899 32.2805 7.70148C31.325 7.98399 30.552 8.57984 29.4874 9.55809C29.4874 9.53902 28.1061 9.52335 26.418 9.52335H23.3486L23.2165 9.73579C23.1439 9.85269 22.4975 10.9043 21.7801 12.0727C21.0627 13.2412 19.9928 14.975 19.4025 15.9257L18.3293 17.6541L19.5941 19.7025C20.2897 20.8291 21.4075 22.6524 22.0779 23.7544L23.297 25.7578L28.3533 25.7598L33.4096 25.7618L34.6362 23.7564C35.3107 22.6533 35.9574 21.6552 36.0731 21.5384C36.3664 21.2424 36.8877 21.2514 37.1943 21.5578C37.632 21.9949 37.5479 22.2304 36.1468 24.4896C35.4431 25.6245 34.8881 26.6069 34.9134 26.6728C34.9601 26.7944 36.1288 28.7058 36.9669 30.0311C37.2939 30.5482 37.4263 30.8544 37.4263 31.0933C37.4263 31.6755 36.8509 32.0378 36.2928 31.807C36.0728 31.7159 35.7379 31.2434 34.7127 29.5773L33.412 27.4633L28.3544 27.4656L23.297 27.468L22.5409 28.7001C22.125 29.3777 21.3702 30.5982 20.8634 31.4123C20.3566 32.2265 19.9147 32.9495 19.8813 33.0191C19.8479 33.0885 19.4853 33.6803 19.0755 34.3339C18.6657 34.9875 18.3425 35.5467 18.3573 35.5765C18.3721 35.6064 18.5114 35.8346 18.6669 36.0837C19.3516 37.181 21.5789 40.7929 22.3991 42.1362L23.297 43.6066L28.3599 43.608L33.4228 43.6093L34.0394 42.5943C34.3785 42.036 34.9212 41.1494 35.2454 40.6239L35.835 39.6685C36.3124 40.3338 36.6176 40.6693 37.1973 41.0619C37.0979 41 37.0207 40.9648 37.009 40.9788C36.957 41.0407 35.8624 42.7936 35.3573 43.6238L34.8602 44.441L35.2361 45.0402C35.4429 45.3697 35.712 45.8119 35.834 46.0228C35.9561 46.2337 36.4913 47.1048 37.0235 47.9584C37.5557 48.8121 38.4091 50.1904 38.9199 51.0214L39.8487 52.5321H44.8911H49.9335L50.6281 51.399L50.7001 51.2816C51.9459 49.2494 52.2298 48.7863 52.5864 48.721C52.6916 48.7018 52.8032 48.7172 52.9477 48.7371L52.9761 48.741L53.3758 48.7958C53.293 49.5365 53.3422 49.9527 53.4889 50.6949C53.4785 50.6501 53.4696 50.6079 53.4613 50.5691C53.4288 50.4171 53.4072 50.3159 53.3601 50.3021C53.266 50.2746 53.0703 50.5949 52.4841 51.554C52.409 51.6769 52.3275 51.8102 52.239 51.9546C51.3996 53.3246 51.3814 53.3662 51.5226 53.607C51.6779 53.8721 51.9534 54.3198 54.6245 58.6458L56.359 61.4549H61.3056C64.0262 61.4549 66.2784 61.4654 66.3104 61.4785C66.3606 61.4989 68.1279 58.6814 70.6469 54.5651L71.3673 53.3877L71.1574 53.0071C71.0419 52.7978 70.8112 52.4141 70.6449 52.1544C70.3518 51.697 69.2827 49.9627 67.7346 47.4334C67.3214 46.7582 66.84 45.982 66.665 45.7084C66.49 45.4347 66.3464 45.1797 66.3461 45.1419C66.3457 45.1039 66.1723 44.871 65.9607 44.6243C65.749 44.3777 65.5463 44.1758 65.51 44.1758ZM32.4319 7.65975C32.7434 7.57996 33.0761 7.53173 33.4453 7.51283C33.0184 7.53105 32.6929 7.57872 32.4319 7.65975ZM17.455 19.4139C19.9997 23.5378 21.8319 26.5455 21.8316 26.598C21.8313 26.6653 21.7012 26.88 18.9057 31.429C17.9004 33.0648 17.0136 34.4779 16.935 34.5693C16.8016 34.7245 16.4656 34.7337 11.8262 34.711L6.86017 34.6865L6.16089 33.5535C5.77623 32.9303 5.13251 31.8893 4.73046 31.2402C2.81737 28.1518 1.89022 26.6253 1.89022 26.5638C1.89022 26.5268 2.35087 25.7474 2.91396 24.8318C3.47696 23.9163 4.20999 22.721 4.54295 22.1758C4.87591 21.6305 5.27645 20.9851 5.43315 20.7415C5.58976 20.498 5.96421 19.8926 6.26532 19.396L6.81263 18.4933H11.8498H16.887L17.455 19.4139ZM17.6648 37.6389C19.4071 40.4819 21.2112 43.399 21.5131 43.8613C21.6886 44.1298 21.832 44.3951 21.832 44.4509C21.832 44.5066 21.115 45.7104 20.2386 47.1258C19.3622 48.5414 18.2491 50.3474 17.7651 51.1394L16.8851 52.5793L11.8686 52.5746L6.85204 52.5699L4.60089 48.9158C3.36279 46.906 2.24029 45.0687 2.10636 44.8328L1.863 44.4039L3.02407 42.5195C3.66268 41.483 4.48757 40.1476 4.85701 39.5519C5.22655 38.9562 5.55016 38.4248 5.57615 38.3712C5.60214 38.3176 5.89332 37.8383 6.22326 37.3062L6.82312 36.3389L11.8467 36.3406L16.8702 36.3422L17.6648 37.6389ZM33.7968 45.899C33.9914 46.2236 34.2857 46.7016 34.451 46.9613C34.6162 47.2209 35.571 48.7652 36.5726 50.3929C38.1435 52.9458 38.3805 53.3805 38.2979 53.556C38.1766 53.8139 34.4683 59.8522 33.8626 60.7781L33.4096 61.4706L28.359 61.4661C24.3483 61.4624 23.2935 61.4365 23.2367 61.3401C23.0482 61.0203 19.4375 55.1887 19.0693 54.6093C19.0244 54.5387 18.982 54.4722 18.9421 54.4095C18.4719 53.6713 18.3388 53.4623 18.3808 53.2981C18.3974 53.2333 18.4414 53.1755 18.5026 53.0948C18.5158 53.0775 18.5298 53.0591 18.5445 53.0393C18.6745 52.8642 19.3884 51.7224 20.1309 50.502C20.8735 49.2816 21.8896 47.6161 22.389 46.8007L23.297 45.3184L28.3701 45.3136L33.4432 45.3089L33.7968 45.899ZM18.5485 56.9463C19.4551 58.4134 20.5714 60.2234 21.0291 60.9688L21.8614 62.3238L21.6884 62.6212C21.5932 62.7846 20.808 64.0656 19.9434 65.4678C19.0789 66.8699 18.055 68.5376 17.6682 69.1737L16.9647 70.3303L12.3337 70.3397C9.78661 70.3449 7.52156 70.3578 7.30031 70.3685C6.82596 70.3914 6.78532 70.3707 6.5791 70L6.52108 69.8954C6.39728 69.6737 6.2637 69.4574 4.38604 66.417L3.98213 65.7629C2.83155 63.9 1.89022 62.3416 1.89022 62.2998C1.89022 62.2581 2.55586 61.148 3.36941 59.833C4.18305 58.5179 5.27815 56.7319 5.80307 55.864L6.75753 54.286L11.8289 54.2825L16.9003 54.2789L18.5485 56.9463ZM51.2311 56.3325C53.0427 59.287 54.1846 61.1389 54.5803 61.7638C54.77 62.0635 54.9113 62.3412 54.8944 62.3809C54.8539 62.476 50.7099 69.2192 50.3665 69.749C50.2204 69.9745 50.0873 70.1993 50.0709 70.2487C50.0455 70.3245 44.9281 70.3689 40.687 70.33L39.7419 70.3214L39.1642 69.3581C38.8466 68.8283 37.7511 67.0422 36.7299 65.3891C35.7086 63.736 34.9011 62.3338 34.9354 62.2732C35.027 62.1111 37.4847 58.1034 37.8981 57.442C38.5311 56.4292 39.4702 54.9 39.6522 54.5857L39.8298 54.2789H44.9008H49.9718L51.2311 56.3325ZM33.7838 63.7934C33.9896 64.143 34.2937 64.6416 34.4595 64.9012C34.6253 65.1609 35.1751 66.0532 35.6812 66.8841C36.1873 67.715 36.9854 69.0109 37.4548 69.7639C37.9242 70.5169 38.3073 71.1755 38.306 71.2274C38.3037 71.3262 37.6877 72.3479 35.0163 76.6845L33.4096 79.2927L28.3533 79.2922L23.297 79.2918L21.8793 76.9718C21.0996 75.6957 20.0045 73.9124 19.4456 73.0089C18.8868 72.1053 18.4296 71.3114 18.4296 71.2446C18.4296 71.178 19.4767 69.426 20.7564 67.3514C22.0362 65.2767 23.1275 63.4837 23.1817 63.3669L23.28 63.1544L28.3449 63.156L33.4096 63.1577L33.7838 63.7934ZM66.8866 63.9334C67.3694 64.7349 69.6905 68.4987 70.7556 70.2073C71.0857 70.7368 71.3558 71.1968 71.3558 71.2296C71.3558 71.2624 70.747 72.2738 70.003 73.4772C69.2591 74.6806 68.1466 76.4831 67.5306 77.4828L66.411 79.3004H61.3852H56.3593L55.3828 77.7189C54.8457 76.849 53.7297 75.044 52.9028 73.7078L51.3993 71.2782L52.8375 68.9395C53.6284 67.6532 54.7482 65.8274 55.3257 64.8821L56.3758 63.1634L61.3966 63.1589L66.4175 63.1544L66.8866 63.9334Z" fill="#1FC8A5"/>
</svg>
