<svg width="54" height="62" viewBox="0 0 54 62" fill="none" xmlns="http://www.w3.org/2000/svg">
<g clip-path="url(#clip0_2507_8117)">
<path d="M21.3113 59.1793H5.32467C6.86914 52.6096 5.90272 48.4773 4.70146 45.9026C4.0331 44.464 3.21119 43.3553 2.62411 41.2021C1.66672 37.6928 2.16348 34.4767 2.72346 32.3235C3.72601 34.1102 6.32722 38.1693 11.4212 40.9181C15.5218 43.1354 19.3423 43.4653 21.3383 43.4928C21.3293 48.7155 21.3203 53.9474 21.3113 59.1793Z" fill="#1FC8A5"/>
<path d="M52.1562 13.8148H50.8917V7.95069C50.8917 6.93364 50.1692 6.48467 49.4466 6.48467C48.7241 6.48467 48.0015 6.9428 48.0015 7.95069V13.8148H43.6662V7.95069C43.6662 6.93364 42.9436 6.48467 42.2211 6.48467C41.4985 6.48467 40.7759 6.9428 40.7759 7.95069V13.8148H39.5115C38.7166 13.8148 38.0663 14.4745 38.0663 15.2808V20.7784C38.0663 24.2877 40.6495 27.2564 44.0726 27.6871L44.3887 27.7237V47.3502C44.3887 50.5846 41.7965 53.2143 38.6083 53.2143H22.8926V45.1511H25.0603C25.8551 45.1511 26.5054 44.4914 26.5054 43.6851V28.1177C26.5054 24.2786 23.4255 21.1541 19.6411 21.1541H6.98734C3.20295 21.1541 0.123047 24.2786 0.123047 28.1177V43.7034C0.123047 44.5097 0.773349 45.1695 1.56816 45.1695H3.73583V60.1962C3.73583 61.0025 4.38614 61.6623 5.18095 61.6623H21.4385C22.2333 61.6623 22.8836 61.0025 22.8836 60.1962V56.1646H38.5992C43.3771 56.1646 47.2699 52.2155 47.2699 47.3685V27.7329L47.586 27.6962C51.0092 27.2656 53.5923 24.2877 53.5923 20.7876V15.29C53.6104 14.4745 52.9601 13.8148 52.1562 13.8148ZM21.4475 42.2282C20.6527 42.2282 20.0024 42.8879 20.0024 43.6943V58.721H14.7639V58.3545V47.3593C14.7639 46.553 14.1136 45.8933 13.3188 45.8933C12.5239 45.8933 11.8736 46.553 11.8736 47.3593V58.721H6.62606V43.6943C6.62606 42.8879 5.97576 42.2282 5.18095 42.2282H3.01328V28.1177C3.01328 25.8912 4.79257 24.0862 6.98734 24.0862H19.6411C21.8359 24.0862 23.6152 25.8912 23.6152 28.1177V42.2374H21.4475V42.2282ZM50.7201 20.7876C50.7201 23.0141 48.9408 24.8192 46.7461 24.8192H44.9397C42.7449 24.8192 40.9656 23.0141 40.9656 20.7876V16.756H50.7201V20.7876ZM13.3097 0.0708008C8.53181 0.0708008 4.63903 4.01991 4.63903 8.86696C4.63903 13.714 8.53181 17.6631 13.3097 17.6631C18.0967 17.6631 21.9804 13.714 21.9804 8.86696C21.9804 4.01991 18.0967 0.0708008 13.3097 0.0708008ZM13.3097 14.7402C10.1214 14.7402 7.52926 12.1105 7.52926 8.87612C7.52926 5.6417 10.1214 3.01202 13.3097 3.01202C16.498 3.01202 19.0902 5.6417 19.0902 8.87612C19.0902 12.1105 16.498 14.7402 13.3097 14.7402Z" fill="#2B2665"/>
<path d="M52.1564 13.8148H50.8919V7.95065C50.8919 6.93359 50.1694 6.48462 49.4468 6.48462C48.7243 6.48462 48.0017 6.94275 48.0017 7.95065V13.8148H43.6664V7.95065C43.6664 6.93359 42.9438 6.48462 42.2212 6.48462C41.4987 6.48462 40.7761 6.94275 40.7761 7.95065V13.8148H39.5116C38.7168 13.8148 38.0665 14.4745 38.0665 15.2808V20.7784C38.0665 24.2877 40.6497 27.2564 44.0728 27.687L44.3889 27.7237V47.3501C44.3889 50.5845 41.7967 53.2142 38.6085 53.2142H22.9199V56.1463H38.6085C43.3954 56.1463 47.2791 52.1972 47.2791 47.3501V27.7328L47.5953 27.6962C51.0184 27.2655 53.6015 24.2877 53.6015 20.7875V15.2899C53.6105 14.4745 52.9602 13.8148 52.1564 13.8148ZM50.7203 20.7875C50.7203 23.0141 48.941 24.8191 46.7463 24.8191H44.9399C42.7451 24.8191 40.9658 23.0141 40.9658 20.7875V16.756H50.7203V20.7875Z" fill="#1FC8A5"/>
<path d="M22.9197 45.1604H22.8926V53.2235H22.9197V45.1604Z" fill="black"/>
</g>
<defs>
<clipPath id="clip0_2507_8117">
<rect width="53.4873" height="61.5915" fill="white" transform="translate(0.123047 0.0708008)"/>
</clipPath>
</defs>
</svg>
