<svg width="53" height="53" viewBox="0 0 53 53" fill="none" xmlns="http://www.w3.org/2000/svg">
<g clip-path="url(#clip0_2507_8128)">
<path d="M52.2246 17.2964L49.344 15.5306C49.2887 15.4914 49.2256 15.4521 49.1624 15.4207L47.8918 14.6438V1.71837C47.8918 1.0513 47.3394 0.501953 46.6686 0.501953H37.9005C37.2297 0.501953 36.6772 1.04346 36.6772 1.71837V7.76122L27.5067 2.12646C27.0963 1.87533 26.5912 1.89102 26.2045 2.14216L4.48561 15.4757L4.47772 15.4835L1.51031 17.2964C0.942082 17.6495 0.760565 18.3951 1.11571 18.9601C1.47085 19.5252 2.22059 19.7057 2.78882 19.3525L3.9016 18.6697V51.1442C3.9016 51.8112 4.44615 52.3606 5.12486 52.3606H48.6179C49.2966 52.3606 49.8412 51.8191 49.8412 51.1442V18.6776L50.9539 19.3604C51.5301 19.7135 52.2798 19.533 52.6271 18.968C52.9743 18.3951 52.8007 17.6495 52.2246 17.2964ZM39.1238 2.93479H45.4453V13.137L39.1238 9.25231V2.93479ZM47.3946 49.9435H6.34813V17.1786L26.8753 4.58284L37.1744 10.9082C37.2297 10.9475 37.2928 10.9867 37.3638 11.0181L45.9504 16.284C46.0056 16.3311 46.0688 16.3625 46.1319 16.3939L47.4025 17.1708V49.9435H47.3946Z" fill="#2B2665"/>
<path d="M34.8455 12.6874C34.1233 12.5355 33.4393 13.0294 33.3253 13.7137C33.3253 13.7516 32.5652 17.5145 31.7669 19.4529C31.1208 20.9731 30.0184 21.6953 28.3463 21.6953H24.6973C23.0249 21.6953 21.8846 20.9731 21.2767 19.4529C20.4784 17.5145 19.7183 13.7516 19.7183 13.7137C19.5663 12.9914 18.8821 12.5355 18.198 12.6874C17.4758 12.8393 17.0199 13.5236 17.1718 14.2076C17.2097 14.3595 17.9701 18.2746 18.8821 20.441C19.6422 22.2274 20.8965 23.4056 22.531 23.9378C22.759 24.0139 22.9491 24.2419 22.9491 24.5078L23.1392 34.39L21.9989 46.8948C21.9228 47.8071 22.6071 48.6433 23.5191 48.7191C24.4314 48.7952 25.2676 48.111 25.3434 47.1989L26.4838 34.9602H26.5978L27.7381 47.1989C27.8142 48.0731 28.5364 48.7191 29.4105 48.7191H29.5625C30.4747 48.6431 31.1588 47.8069 31.0827 46.8948L29.9423 34.39L30.1324 24.5078C30.1324 24.2416 30.3225 24.0136 30.5506 23.9378C32.223 23.4057 33.4773 22.1892 34.1995 20.441C35.1118 18.2365 35.872 14.3595 35.9098 14.2076C35.9859 13.4856 35.5299 12.8013 34.8456 12.6874H34.8455Z" fill="#1FC8A5"/>
<path d="M30.0945 16.7543C30.0945 18.7486 28.4781 20.365 26.4838 20.365C24.4895 20.365 22.873 18.7486 22.873 16.7543C22.873 14.76 24.4895 13.1436 26.4838 13.1436C28.4781 13.1436 30.0945 14.76 30.0945 16.7543Z" fill="#1FC8A5"/>
</g>
<defs>
<clipPath id="clip0_2507_8128">
<rect width="51.8665" height="51.8665" fill="white" transform="translate(0.933594 0.501953)"/>
</clipPath>
</defs>
</svg>
