<svg width="57" height="57" viewBox="0 0 57 57" fill="none" xmlns="http://www.w3.org/2000/svg">
<g clip-path="url(#clip0_2507_8057)">
<path d="M27.0567 29.2716C26.314 26.0325 26.7866 23.1934 27.0567 20.7622L25.4356 22.383L20.9784 26.4351L14.0898 34.134L23.4096 42.2382L29.8929 35.7549C29.2177 33.999 27.6744 31.9652 27.0567 29.2716Z" fill="#0092FF"/>
<path d="M37.824 18.7054C37.54 18.7054 37.2646 18.5935 37.0667 18.3869L32.8758 14.1954C32.4542 13.7737 32.4542 13.0937 32.8758 12.672C33.2975 12.2503 33.9773 12.2503 34.399 12.672L38.5899 16.8635C38.8997 17.1734 38.9857 17.6382 38.8222 18.0341C38.6501 18.4472 38.2629 18.7054 37.824 18.7054Z" fill="#2B2665"/>
<path d="M33.427 21.0035C33.143 21.0035 32.8676 20.8916 32.6697 20.685L29.5201 17.5435C29.1242 17.1218 29.1328 16.4591 29.5459 16.0459C29.9589 15.6328 30.6216 15.6242 31.0432 16.0201L34.1842 19.1616C34.494 19.4714 34.5801 19.9276 34.4166 20.3321C34.2531 20.7453 33.8572 21.0035 33.427 21.0035Z" fill="#2B2665"/>
<path d="M31.1287 25.41C30.8447 25.41 30.5693 25.2981 30.3714 25.0916L26.1805 20.9C25.974 20.7021 25.8535 20.4267 25.8535 20.134C25.8535 19.85 25.9654 19.566 26.1719 19.368C26.3785 19.1614 26.6538 19.0496 26.9378 19.0496C27.2218 19.0496 27.4972 19.1701 27.7037 19.3766L31.8946 23.5681C32.2044 23.878 32.2904 24.3428 32.1269 24.7387C31.9548 25.1432 31.559 25.41 31.1287 25.41Z" fill="#2B2665"/>
<path d="M26.7233 27.6996C26.4394 27.6996 26.164 27.5877 25.966 27.3811L22.825 24.2396C22.4034 23.8179 22.4034 23.1379 22.825 22.7162C23.2467 22.2945 23.9265 22.2945 24.3482 22.7162L27.4892 25.8577C27.799 26.1675 27.8851 26.6323 27.7216 27.0282C27.5581 27.4414 27.1622 27.6996 26.7233 27.6996Z" fill="#2B2665"/>
<path d="M24.4334 32.1063C24.1494 32.1063 23.874 31.9944 23.6761 31.7878L19.4852 27.5963C19.2787 27.3984 19.1582 27.1229 19.1582 26.8303C19.1582 26.5463 19.2701 26.2623 19.4766 26.0643C19.6831 25.8577 19.9585 25.7458 20.2425 25.7458C20.5265 25.7458 20.8019 25.8663 21.0084 26.0729L25.1993 30.2644C25.5091 30.5743 25.5951 31.0304 25.4316 31.435C25.2595 31.8395 24.8637 32.1063 24.4334 32.1063Z" fill="#2B2665"/>
<path d="M20.028 34.4041C19.744 34.4041 19.4687 34.2923 19.2707 34.0857L16.1297 30.9442C15.7081 30.5225 15.7081 29.8425 16.1297 29.4208C16.5514 28.9991 17.2312 28.9991 17.6529 29.4208L20.7939 32.5623C21.1037 32.8721 21.1898 33.3369 21.0263 33.7328C20.8628 34.1373 20.4669 34.4041 20.028 34.4041Z" fill="#2B2665"/>
<path d="M52.7119 14.4106C52.0406 14.4106 51.3952 14.1438 50.9219 13.6704L43.0565 5.80376C42.5832 5.33038 42.3164 4.68487 42.3164 4.01354C42.3164 3.34221 42.5832 2.69669 43.0565 2.22332L44.0289 1.24214C44.5022 0.768765 45.1476 0.501953 45.8188 0.501953C46.4901 0.501953 47.1355 0.768765 47.6088 1.24214L55.4742 9.10017C55.9475 9.57355 56.2143 10.2191 56.2143 10.8904C56.2143 11.5617 55.9475 12.2072 55.4742 12.6806L54.5018 13.6532C54.0371 14.1438 53.3917 14.4192 52.7119 14.4106ZM52.4451 12.147C52.5139 12.2158 52.6172 12.2589 52.7205 12.2589C52.8237 12.2589 52.9184 12.2158 52.9958 12.147L53.9683 11.1744C54.0371 11.1056 54.0801 11.0023 54.0801 10.899C54.0801 10.7957 54.0371 10.701 53.9683 10.6236L46.1028 2.75694C46.034 2.68809 45.9307 2.64505 45.8275 2.64505C45.7242 2.64505 45.6295 2.68809 45.5521 2.75694L44.5797 3.72951C44.5108 3.79837 44.4678 3.90165 44.4678 4.00493C44.4678 4.10821 44.5108 4.20289 44.5797 4.28035L52.4451 12.147Z" fill="#2B2665"/>
<path d="M39.941 14.8152C39.5021 14.8152 39.1149 14.557 38.9514 14.1525C38.7879 13.7479 38.8739 13.2918 39.1837 12.9819L45.4744 6.69034C45.896 6.27721 46.5673 6.28582 46.9803 6.69895C47.3934 7.11208 47.402 7.78341 46.9889 8.20514L40.6983 14.4967C40.5004 14.7033 40.225 14.8152 39.941 14.8152Z" fill="#2B2665"/>
<path d="M42.9869 17.8704C42.548 17.8704 42.1608 17.6122 41.9973 17.2077C41.8338 16.8032 41.9198 16.347 42.2296 16.0372L48.5203 9.74558C48.7182 9.53901 48.9936 9.41852 49.2861 9.40991C49.5787 9.40991 49.8541 9.5218 50.0606 9.72836C50.2672 9.93493 50.379 10.2103 50.379 10.503C50.379 10.7956 50.2586 11.071 50.0434 11.269L43.7528 17.5606C43.5463 17.7499 43.2709 17.8704 42.9869 17.8704Z" fill="#2B2665"/>
<path d="M12.6874 48.5798C11.7667 48.5798 10.8889 48.2183 10.2349 47.5642L9.16779 46.4969C8.52238 45.8428 8.15234 44.9649 8.15234 44.044C8.15234 43.123 8.51378 42.2451 9.16779 41.591L15.7338 35.024C15.9317 34.8175 16.2071 34.7056 16.4911 34.7056C16.7751 34.7056 17.0504 34.8175 17.2484 35.024L21.6974 39.4737C21.8953 39.6717 22.0158 39.9471 22.0158 40.2312C22.0158 40.5152 21.9039 40.7906 21.6974 40.9886L15.1314 47.5556C14.486 48.2183 13.6082 48.5798 12.6874 48.5798ZM16.4911 37.3134L10.691 43.1144C10.1746 43.6308 10.1746 44.4571 10.691 44.9735L11.758 46.0408C12.2744 46.5572 13.1005 46.5572 13.6168 46.0408L19.4169 40.2398L16.4911 37.3134Z" fill="#2B2665"/>
<path d="M1.38829 56.4204C0.958015 56.4204 0.562162 56.1536 0.398657 55.7577C0.235152 55.3532 0.321207 54.897 0.631006 54.5872L9.70981 45.507C10.1315 45.0852 10.8113 45.0852 11.233 45.507C11.6547 45.9287 11.6547 46.6086 11.233 47.0304L2.14557 56.102C1.94765 56.3085 1.67227 56.4204 1.38829 56.4204Z" fill="#2B2665"/>
<path d="M23.5466 43.4501C22.9529 43.4501 22.3935 43.2177 21.9718 42.7959L13.9343 34.7572C13.5212 34.344 13.2803 33.776 13.2803 33.1821C13.2803 32.5968 13.5126 32.0288 13.9343 31.6071L35.0522 10.4859C35.4653 10.0728 36.0332 9.83179 36.627 9.83179C37.2208 9.83179 37.7801 10.0642 38.2018 10.4859L46.2393 18.5247C46.6524 18.9378 46.8934 19.5059 46.8934 20.0997C46.8934 20.6936 46.661 21.253 46.2393 21.6748L25.1214 42.7959C24.6998 43.2091 24.1318 43.4501 23.5466 43.4501ZM36.627 11.9921C36.6098 11.9921 36.5926 12.0007 36.5754 12.0093L15.4575 33.1305C15.4316 33.1563 15.4316 33.1993 15.4575 33.2338L23.495 41.2725C23.5208 41.2984 23.5725 41.2984 23.5983 41.2725L44.7248 20.1428C44.7506 20.1169 44.7506 20.0653 44.7248 20.0395L36.6872 12.0007C36.67 11.9921 36.6528 11.9835 36.627 11.9921Z" fill="#2B2665"/>
</g>
<defs>
<clipPath id="clip0_2507_8057">
<rect width="55.9186" height="55.9186" fill="white" transform="translate(0.3125 0.501953)"/>
</clipPath>
</defs>
</svg>
