<svg width="64" height="64" viewBox="0 0 64 64" fill="none" xmlns="http://www.w3.org/2000/svg">
<g clip-path="url(#clip0_2507_8035)">
<path d="M49.3815 54.5093C49.3815 55.1824 48.8317 55.7228 48.1681 55.7228H34.8677C34.1947 55.7228 33.6543 55.1729 33.6543 54.5093C33.6543 53.8363 34.2041 53.2959 34.8677 53.2959H48.1681C48.8412 53.2959 49.3815 53.8457 49.3815 54.5093Z" fill="#1FC8A5"/>
<path d="M49.3813 45.0673C49.3813 45.7404 48.8315 46.2807 48.1679 46.2807H38.9439C38.2708 46.2807 37.7305 45.7309 37.7305 45.0673C37.7305 44.3942 38.2803 43.8539 38.9439 43.8539H48.1679C48.841 43.8444 49.3813 44.3942 49.3813 45.0673Z" fill="#1FC8A5"/>
<path d="M49.3809 35.5967C49.3809 36.2698 48.831 36.8102 48.1674 36.8102H38.8961C38.223 36.8102 37.6826 36.2603 37.6826 35.5967C37.6826 34.9237 38.2325 34.3833 38.8961 34.3833H48.1674C48.8405 34.3833 49.3809 34.9331 49.3809 35.5967Z" fill="#1FC8A5"/>
<path d="M49.3814 26.1547C49.3814 26.8278 48.8315 27.3681 48.1679 27.3681H29.2554C28.5823 27.3681 28.042 26.8183 28.042 26.1547C28.042 25.4816 28.5918 24.9413 29.2554 24.9413H48.1679C48.841 24.9318 49.3814 25.4816 49.3814 26.1547Z" fill="#1FC8A5"/>
<path d="M56.3679 54.5093C56.3679 55.1824 55.8181 55.7228 55.1545 55.7228H53.8462C53.1732 55.7228 52.6328 55.1729 52.6328 54.5093C52.6328 53.8363 53.1826 53.2959 53.8462 53.2959H55.1545C55.8181 53.2959 56.3679 53.8457 56.3679 54.5093Z" fill="#1FC8A5"/>
<path d="M56.3679 45.0673C56.3679 45.7404 55.8181 46.2807 55.1545 46.2807H53.8462C53.1732 46.2807 52.6328 45.7309 52.6328 45.0673C52.6328 44.3942 53.1826 43.8539 53.8462 43.8539H55.1545C55.8181 43.8444 56.3679 44.3942 56.3679 45.0673Z" fill="#1FC8A5"/>
<path d="M56.3679 35.6159C56.3679 36.289 55.8181 36.8293 55.1545 36.8293H53.8462C53.1732 36.8293 52.6328 36.2795 52.6328 35.6159C52.6328 34.9428 53.1826 34.4025 53.8462 34.4025H55.1545C55.8181 34.393 56.3679 34.9428 56.3679 35.6159Z" fill="#1FC8A5"/>
<path d="M56.3581 26.1547C56.3581 26.8278 55.8083 27.3681 55.1447 27.3681H53.8365C53.1634 27.3681 52.623 26.8183 52.623 26.1547C52.623 25.4816 53.1729 24.9413 53.8365 24.9413H55.1447C55.8178 24.9318 56.3581 25.4816 56.3581 26.1547Z" fill="#1FC8A5"/>
<path d="M62.7762 11.3661H54.377V7.84904C54.377 7.17597 53.8271 6.63561 53.1635 6.63561H48.3951L48.2814 6.21849L46.9731 1.488C46.8214 0.95712 46.3285 0.587402 45.7881 0.587402H39.7873C39.2375 0.587402 38.7635 0.95712 38.6118 1.488L37.3036 6.21849L37.1898 6.63561H32.4119C31.7389 6.63561 31.1985 7.18544 31.1985 7.84904V11.3851H22.7993C22.1262 11.3851 21.5858 11.9349 21.5858 12.5985V31.5299L21.2351 31.6816C19.8036 32.2789 18.5617 33.2269 17.6422 34.4213L17.1777 34.9996L16.7321 34.4213C15.0352 32.2315 12.4756 30.9801 9.69797 30.9801C4.77788 30.9706 0.777344 34.9806 0.777344 39.8913C0.777344 42.8016 1.56418 45.8257 3.11889 48.8783C4.37972 51.362 6.15247 53.8742 8.37078 56.339C12.1438 60.5196 16.0021 63.2309 16.4856 63.5627C16.7321 63.7144 16.9596 63.7807 17.1777 63.7807C17.4052 63.7807 17.6327 63.7049 17.8697 63.5627C18.2489 63.2972 19.2822 62.5673 20.6473 61.4487L21.5763 60.6808V62.5863C21.5763 63.2593 22.1262 63.7997 22.7898 63.7997H62.7762C63.4493 63.7997 63.9896 63.2499 63.9896 62.5863V12.5985C63.9896 11.9159 63.4398 11.3661 62.7762 11.3661ZM39.9295 5.91513L40.6026 3.44087L40.7164 3.02375H44.8591L44.9729 3.44087L45.6554 5.91513L45.8545 6.63561H39.7304L39.9295 5.91513ZM33.6348 9.06248H51.9217V16.1061H33.6348V9.06248ZM4.83476 46.8306C3.76353 44.4511 3.21369 42.119 3.21369 39.8913C3.21369 38.1659 3.88677 36.5354 5.10968 35.3124C6.33259 34.0801 7.96314 33.407 9.69797 33.407C12.7126 33.407 15.3006 35.4546 16.0021 38.3839C16.2581 39.2087 16.8364 39.3319 17.1587 39.3319C17.6611 39.3319 18.2678 39.0096 18.3816 38.4219V38.4124V38.4029C19.0736 35.4546 21.6711 33.407 24.6858 33.407C28.2597 33.407 31.1701 36.3173 31.1701 39.8913C31.1701 42.119 30.6202 44.4511 29.549 46.8306L29.3973 47.1624H25.6527C24.6573 47.1624 23.7567 46.5272 23.4344 45.5887L22.4106 42.7258C22.202 42.1285 21.6806 41.92 21.2635 41.92C20.8559 41.92 20.3534 42.1285 20.1259 42.6973L17.5189 49.4281L17.0544 50.6131L16.4761 49.4755L15.6419 47.826C15.4333 47.4183 15.0067 47.1529 14.5517 47.1529H4.98644L4.83476 46.8306ZM17.5284 60.8135L17.1871 61.0789L16.8459 60.8135C14.4948 59.0123 10.0677 55.2677 6.89191 50.4898L6.30415 49.6082H12.3429C13.2435 49.6082 14.0493 50.1106 14.4474 50.907L16.0969 54.1775C16.3055 54.5947 16.7131 54.8411 17.1777 54.8411C17.5853 54.8411 18.0972 54.6326 18.3247 54.0543L20.6378 48.063L21.1877 46.641L21.6996 48.0819L21.9555 48.7929C22.1262 49.2764 22.5907 49.6082 23.1026 49.6082H28.0512L27.4634 50.4898C24.1359 55.5237 19.4054 59.3915 17.5284 60.8135ZM61.5533 14.3807V60.7945V61.3633H24.0222V58.4151L24.1928 58.2444C28.4872 53.9785 33.6064 47.3235 33.6064 39.8913C33.6064 34.9712 29.6059 30.9706 24.6858 30.9706H24.0317V13.8119H31.208V17.3195C31.208 17.9926 31.7578 18.5329 32.4214 18.5329H53.154C53.8271 18.5329 54.3675 17.9831 54.3675 17.3195V13.8119H61.5438V14.3807H61.5533Z" fill="#2B2665"/>
</g>
<defs>
<clipPath id="clip0_2507_8035">
<rect width="63.2123" height="63.2123" fill="white" transform="translate(0.777344 0.587402)"/>
</clipPath>
</defs>
</svg>
