<svg width="53" height="64" viewBox="0 0 53 64" fill="none" xmlns="http://www.w3.org/2000/svg">
<g clip-path="url(#clip0_2507_8096)">
<path d="M21.4624 35.8883C21.4997 35.8696 21.537 35.8416 21.5744 35.8323C21.5277 35.8416 21.4904 35.8603 21.4624 35.8883ZM25.1391 45.1732C25.1671 45.2106 25.1858 45.2479 25.2231 45.2759C25.1858 45.2479 25.1578 45.2106 25.1391 45.1732ZM31.2608 31.8664C31.2515 31.8664 31.2422 31.8664 31.2329 31.8664H31.2235H31.2422C31.2515 31.8664 31.2608 31.8664 31.2702 31.8664C31.2702 31.8664 31.2702 31.8664 31.2608 31.8664ZM31.8581 32.025C31.8954 32.053 31.9327 32.081 31.9607 32.109C31.9234 32.081 31.8954 32.053 31.8581 32.025ZM34.5737 42.4764C34.6203 42.4857 34.667 42.4951 34.7136 42.4951C34.667 42.4951 34.6203 42.4857 34.5737 42.4764ZM34.5737 42.4764C34.6203 42.4857 34.667 42.4951 34.7136 42.4951C34.667 42.4951 34.6203 42.4857 34.5737 42.4764ZM31.8581 32.025C31.8954 32.053 31.9327 32.081 31.9607 32.109C31.9234 32.081 31.8954 32.053 31.8581 32.025ZM31.2608 31.8664C31.2515 31.8664 31.2422 31.8664 31.2329 31.8664H31.2235H31.2422C31.2515 31.8664 31.2608 31.8664 31.2702 31.8664C31.2702 31.8664 31.2702 31.8664 31.2608 31.8664ZM25.1391 45.1732C25.1671 45.2106 25.1858 45.2479 25.2231 45.2759C25.1858 45.2479 25.1578 45.2106 25.1391 45.1732ZM21.4624 35.8883C21.4997 35.8696 21.537 35.8416 21.5744 35.8323C21.5277 35.8416 21.4904 35.8603 21.4624 35.8883ZM16.1152 54.6448C16.1526 54.6261 16.1899 54.6168 16.2365 54.6075C16.1992 54.6168 16.1526 54.6355 16.1152 54.6448ZM21.4624 35.8883C21.4997 35.8696 21.537 35.8416 21.5744 35.8323C21.5277 35.8416 21.4904 35.8603 21.4624 35.8883ZM25.1391 45.1732C25.1671 45.2106 25.1858 45.2479 25.2231 45.2759C25.1858 45.2479 25.1578 45.2106 25.1391 45.1732ZM31.2608 31.8664C31.2515 31.8664 31.2422 31.8664 31.2329 31.8664H31.2235H31.2422C31.2515 31.8664 31.2608 31.8664 31.2702 31.8664C31.2702 31.8664 31.2702 31.8664 31.2608 31.8664ZM31.8581 32.025C31.8954 32.053 31.9327 32.081 31.9607 32.109C31.9234 32.081 31.8954 32.053 31.8581 32.025ZM34.5737 42.4764C34.6203 42.4857 34.667 42.4951 34.7136 42.4951C34.667 42.4951 34.6203 42.4857 34.5737 42.4764ZM40.2941 9.28388C40.4154 9.25589 40.5367 9.22789 40.658 9.20923C40.546 9.21856 40.4154 9.24655 40.2941 9.28388ZM21.4624 35.8883C21.4997 35.8696 21.537 35.8416 21.5744 35.8323C21.5277 35.8416 21.4904 35.8603 21.4624 35.8883ZM25.1391 45.1732C25.1671 45.2106 25.1858 45.2479 25.2231 45.2759C25.1858 45.2479 25.1578 45.2106 25.1391 45.1732ZM31.2608 31.8664C31.2515 31.8664 31.2422 31.8664 31.2329 31.8664H31.2235H31.2422C31.2515 31.8664 31.2608 31.8664 31.2702 31.8664C31.2702 31.8664 31.2702 31.8664 31.2608 31.8664ZM31.8581 32.025C31.8954 32.053 31.9327 32.081 31.9607 32.109C31.9234 32.081 31.8954 32.053 31.8581 32.025ZM34.5737 42.4764C34.6203 42.4857 34.667 42.4951 34.7136 42.4951C34.667 42.4951 34.6203 42.4857 34.5737 42.4764ZM34.5737 42.4764C34.6203 42.4857 34.667 42.4951 34.7136 42.4951C34.667 42.4951 34.6203 42.4857 34.5737 42.4764ZM31.8581 32.025C31.8954 32.053 31.9327 32.081 31.9607 32.109C31.9234 32.081 31.8954 32.053 31.8581 32.025ZM31.2608 31.8664C31.2515 31.8664 31.2422 31.8664 31.2329 31.8664H31.2235H31.2422C31.2515 31.8664 31.2608 31.8664 31.2702 31.8664C31.2702 31.8664 31.2702 31.8664 31.2608 31.8664ZM25.1391 45.1732C25.1671 45.2106 25.1858 45.2479 25.2231 45.2759C25.1858 45.2479 25.1578 45.2106 25.1391 45.1732ZM21.4624 35.8883C21.4997 35.8696 21.537 35.8416 21.5744 35.8323C21.5277 35.8416 21.4904 35.8603 21.4624 35.8883ZM21.4624 35.8883C21.4997 35.8696 21.537 35.8416 21.5744 35.8323C21.5277 35.8416 21.4904 35.8603 21.4624 35.8883ZM25.1391 45.1732C25.1671 45.2106 25.1858 45.2479 25.2231 45.2759C25.1858 45.2479 25.1578 45.2106 25.1391 45.1732ZM31.2608 31.8664C31.2515 31.8664 31.2422 31.8664 31.2329 31.8664H31.2235H31.2422C31.2515 31.8664 31.2608 31.8664 31.2702 31.8664C31.2702 31.8664 31.2702 31.8664 31.2608 31.8664ZM31.8581 32.025C31.8954 32.053 31.9327 32.081 31.9607 32.109C31.9234 32.081 31.8954 32.053 31.8581 32.025ZM34.5737 42.4764C34.6203 42.4857 34.667 42.4951 34.7136 42.4951C34.667 42.4951 34.6203 42.4857 34.5737 42.4764ZM21.4624 35.8883C21.4997 35.8696 21.537 35.8416 21.5744 35.8323C21.5277 35.8416 21.4904 35.8603 21.4624 35.8883ZM25.1391 45.1732C25.1671 45.2106 25.1858 45.2479 25.2231 45.2759C25.1858 45.2479 25.1578 45.2106 25.1391 45.1732ZM31.2608 31.8664C31.2515 31.8664 31.2422 31.8664 31.2329 31.8664H31.2235H31.2422C31.2515 31.8664 31.2608 31.8664 31.2702 31.8664C31.2702 31.8664 31.2702 31.8664 31.2608 31.8664ZM31.8581 32.025C31.8954 32.053 31.9327 32.081 31.9607 32.109C31.9234 32.081 31.8954 32.053 31.8581 32.025ZM34.5737 42.4764C34.6203 42.4857 34.667 42.4951 34.7136 42.4951C34.667 42.4951 34.6203 42.4857 34.5737 42.4764Z" fill="#2B2665"/>
<path d="M34.5737 42.4764C34.6203 42.4857 34.667 42.4951 34.7136 42.4951C34.667 42.4951 34.6203 42.4857 34.5737 42.4764ZM25.2138 45.2759C25.1858 45.2479 25.1578 45.2106 25.1298 45.1732C25.1578 45.2106 25.1858 45.2479 25.2138 45.2759ZM31.8581 32.025C31.8954 32.053 31.9327 32.081 31.9607 32.109C31.9234 32.081 31.8954 32.053 31.8581 32.025ZM31.2608 31.8664C31.2515 31.8664 31.2422 31.8664 31.2329 31.8664H31.2235C31.2329 31.8664 31.2329 31.8664 31.2422 31.8664C31.2515 31.8664 31.2608 31.8664 31.2702 31.8664C31.2702 31.8664 31.2702 31.8664 31.2608 31.8664ZM34.5737 42.4764C34.6203 42.4857 34.667 42.4951 34.7136 42.4951C34.667 42.4951 34.6203 42.4857 34.5737 42.4764ZM25.2138 45.2759C25.1858 45.2479 25.1578 45.2106 25.1298 45.1732C25.1578 45.2106 25.1858 45.2479 25.2138 45.2759ZM31.8581 32.025C31.8954 32.053 31.9327 32.081 31.9607 32.109C31.9234 32.081 31.8954 32.053 31.8581 32.025ZM31.2608 31.8664C31.2515 31.8664 31.2422 31.8664 31.2329 31.8664H31.2235C31.2329 31.8664 31.2329 31.8664 31.2422 31.8664C31.2515 31.8664 31.2608 31.8664 31.2702 31.8664C31.2702 31.8664 31.2702 31.8664 31.2608 31.8664ZM16.1152 54.6448C16.1526 54.6261 16.1899 54.6168 16.2365 54.6075C16.1992 54.6168 16.1526 54.6355 16.1152 54.6448ZM31.2608 31.8664C31.2515 31.8664 31.2422 31.8664 31.2329 31.8664H31.2235C31.2329 31.8664 31.2329 31.8664 31.2422 31.8664C31.2515 31.8664 31.2608 31.8664 31.2702 31.8664C31.2702 31.8664 31.2702 31.8664 31.2608 31.8664ZM31.8581 32.025C31.8954 32.053 31.9327 32.081 31.9607 32.109C31.9234 32.081 31.8954 32.053 31.8581 32.025ZM34.5737 42.4764C34.6203 42.4857 34.667 42.4951 34.7136 42.4951C34.667 42.4951 34.6203 42.4857 34.5737 42.4764ZM25.2138 45.2759C25.1858 45.2479 25.1578 45.2106 25.1298 45.1732C25.1578 45.2106 25.1858 45.2479 25.2138 45.2759ZM31.2608 31.8664C31.2515 31.8664 31.2422 31.8664 31.2329 31.8664H31.2235C31.2329 31.8664 31.2329 31.8664 31.2422 31.8664C31.2515 31.8664 31.2608 31.8664 31.2702 31.8664C31.2702 31.8664 31.2702 31.8664 31.2608 31.8664ZM31.8581 32.025C31.8954 32.053 31.9327 32.081 31.9607 32.109C31.9234 32.081 31.8954 32.053 31.8581 32.025ZM34.5737 42.4764C34.6203 42.4857 34.667 42.4951 34.7136 42.4951C34.667 42.4951 34.6203 42.4857 34.5737 42.4764ZM25.2138 45.2759C25.1858 45.2479 25.1578 45.2106 25.1298 45.1732C25.1578 45.2106 25.1858 45.2479 25.2138 45.2759ZM34.5737 42.4764C34.6203 42.4857 34.667 42.4951 34.7136 42.4951C34.667 42.4951 34.6203 42.4857 34.5737 42.4764ZM25.2138 45.2759C25.1858 45.2479 25.1578 45.2106 25.1298 45.1732C25.1578 45.2106 25.1858 45.2479 25.2138 45.2759ZM31.8581 32.025C31.8954 32.053 31.9327 32.081 31.9607 32.109C31.9234 32.081 31.8954 32.053 31.8581 32.025ZM31.2608 31.8664C31.2515 31.8664 31.2422 31.8664 31.2329 31.8664H31.2235C31.2329 31.8664 31.2329 31.8664 31.2422 31.8664C31.2515 31.8664 31.2608 31.8664 31.2702 31.8664C31.2702 31.8664 31.2702 31.8664 31.2608 31.8664ZM34.5737 42.4764C34.6203 42.4857 34.667 42.4951 34.7136 42.4951C34.667 42.4951 34.6203 42.4857 34.5737 42.4764ZM25.2138 45.2759C25.1858 45.2479 25.1578 45.2106 25.1298 45.1732C25.1578 45.2106 25.1858 45.2479 25.2138 45.2759ZM31.8581 32.025C31.8954 32.053 31.9327 32.081 31.9607 32.109C31.9234 32.081 31.8954 32.053 31.8581 32.025ZM31.2608 31.8664C31.2515 31.8664 31.2422 31.8664 31.2329 31.8664H31.2235C31.2329 31.8664 31.2329 31.8664 31.2422 31.8664C31.2515 31.8664 31.2608 31.8664 31.2702 31.8664C31.2702 31.8664 31.2702 31.8664 31.2608 31.8664ZM34.5737 42.4764C34.6203 42.4857 34.667 42.4951 34.7136 42.4951C34.667 42.4951 34.6203 42.4857 34.5737 42.4764ZM25.2138 45.2759C25.1858 45.2479 25.1578 45.2106 25.1298 45.1732C25.1578 45.2106 25.1858 45.2479 25.2138 45.2759ZM31.8581 32.025C31.8954 32.053 31.9327 32.081 31.9607 32.109C31.9234 32.081 31.8954 32.053 31.8581 32.025ZM31.2608 31.8664C31.2515 31.8664 31.2422 31.8664 31.2329 31.8664H31.2235C31.2329 31.8664 31.2329 31.8664 31.2422 31.8664C31.2515 31.8664 31.2608 31.8664 31.2702 31.8664C31.2702 31.8664 31.2702 31.8664 31.2608 31.8664ZM16.1152 54.6448C16.1526 54.6261 16.1899 54.6168 16.2365 54.6075C16.1992 54.6168 16.1526 54.6355 16.1152 54.6448ZM31.2608 31.8664C31.2515 31.8664 31.2422 31.8664 31.2329 31.8664H31.2235C31.2329 31.8664 31.2329 31.8664 31.2422 31.8664C31.2515 31.8664 31.2608 31.8664 31.2702 31.8664C31.2702 31.8664 31.2702 31.8664 31.2608 31.8664ZM31.8581 32.025C31.8954 32.053 31.9327 32.081 31.9607 32.109C31.9234 32.081 31.8954 32.053 31.8581 32.025ZM34.5737 42.4764C34.6203 42.4857 34.667 42.4951 34.7136 42.4951C34.667 42.4951 34.6203 42.4857 34.5737 42.4764ZM25.2138 45.2759C25.1858 45.2479 25.1578 45.2106 25.1298 45.1732C25.1578 45.2106 25.1858 45.2479 25.2138 45.2759ZM31.2608 31.8664C31.2515 31.8664 31.2422 31.8664 31.2329 31.8664H31.2235C31.2329 31.8664 31.2329 31.8664 31.2422 31.8664C31.2515 31.8664 31.2608 31.8664 31.2702 31.8664C31.2702 31.8664 31.2702 31.8664 31.2608 31.8664ZM31.8581 32.025C31.8954 32.053 31.9327 32.081 31.9607 32.109C31.9234 32.081 31.8954 32.053 31.8581 32.025ZM34.5737 42.4764C34.6203 42.4857 34.667 42.4951 34.7136 42.4951C34.667 42.4951 34.6203 42.4857 34.5737 42.4764ZM25.2138 45.2759C25.1858 45.2479 25.1578 45.2106 25.1298 45.1732C25.1578 45.2106 25.1858 45.2479 25.2138 45.2759ZM34.5737 42.4764C34.6203 42.4857 34.667 42.4951 34.7136 42.4951C34.667 42.4951 34.6203 42.4857 34.5737 42.4764ZM25.2138 45.2759C25.1858 45.2479 25.1578 45.2106 25.1298 45.1732C25.1578 45.2106 25.1858 45.2479 25.2138 45.2759ZM31.8581 32.025C31.8954 32.053 31.9327 32.081 31.9607 32.109C31.9234 32.081 31.8954 32.053 31.8581 32.025ZM31.2608 31.8664C31.2515 31.8664 31.2422 31.8664 31.2329 31.8664H31.2235C31.2329 31.8664 31.2329 31.8664 31.2422 31.8664C31.2515 31.8664 31.2608 31.8664 31.2702 31.8664C31.2702 31.8664 31.2702 31.8664 31.2608 31.8664ZM34.5737 42.4764C34.6203 42.4857 34.667 42.4951 34.7136 42.4951C34.667 42.4951 34.6203 42.4857 34.5737 42.4764ZM25.2138 45.2759C25.1858 45.2479 25.1578 45.2106 25.1298 45.1732C25.1578 45.2106 25.1858 45.2479 25.2138 45.2759ZM31.8581 32.025C31.8954 32.053 31.9327 32.081 31.9607 32.109C31.9234 32.081 31.8954 32.053 31.8581 32.025ZM31.2608 31.8664C31.2515 31.8664 31.2422 31.8664 31.2329 31.8664H31.2235C31.2329 31.8664 31.2329 31.8664 31.2422 31.8664C31.2515 31.8664 31.2608 31.8664 31.2702 31.8664C31.2702 31.8664 31.2702 31.8664 31.2608 31.8664ZM31.8581 32.025C31.8954 32.053 31.9327 32.081 31.9607 32.109C31.9234 32.081 31.8954 32.053 31.8581 32.025ZM31.2608 31.8664C31.2515 31.8664 31.2422 31.8664 31.2329 31.8664H31.2235C31.2329 31.8664 31.2329 31.8664 31.2422 31.8664C31.2515 31.8664 31.2608 31.8664 31.2702 31.8664C31.2702 31.8664 31.2702 31.8664 31.2608 31.8664ZM34.5737 42.4764C34.6203 42.4857 34.667 42.4951 34.7136 42.4951C34.667 42.4951 34.6203 42.4857 34.5737 42.4764ZM25.2138 45.2759C25.1858 45.2479 25.1578 45.2106 25.1298 45.1732C25.1578 45.2106 25.1858 45.2479 25.2138 45.2759ZM34.5737 42.4764C34.6203 42.4857 34.667 42.4951 34.7136 42.4951C34.667 42.4951 34.6203 42.4857 34.5737 42.4764ZM25.2138 45.2759C25.1858 45.2479 25.1578 45.2106 25.1298 45.1732C25.1578 45.2106 25.1858 45.2479 25.2138 45.2759ZM31.8581 32.025C31.8954 32.053 31.9327 32.081 31.9607 32.109C31.9234 32.081 31.8954 32.053 31.8581 32.025ZM31.2608 31.8664C31.2515 31.8664 31.2422 31.8664 31.2329 31.8664H31.2235C31.2329 31.8664 31.2329 31.8664 31.2422 31.8664C31.2515 31.8664 31.2608 31.8664 31.2702 31.8664C31.2702 31.8664 31.2702 31.8664 31.2608 31.8664ZM34.5737 42.4764C34.6203 42.4857 34.667 42.4951 34.7136 42.4951C34.667 42.4951 34.6203 42.4857 34.5737 42.4764ZM25.2138 45.2759C25.1858 45.2479 25.1578 45.2106 25.1298 45.1732C25.1578 45.2106 25.1858 45.2479 25.2138 45.2759ZM31.8581 32.025C31.8954 32.053 31.9327 32.081 31.9607 32.109C31.9234 32.081 31.8954 32.053 31.8581 32.025ZM31.2608 31.8664C31.2515 31.8664 31.2422 31.8664 31.2329 31.8664H31.2235C31.2329 31.8664 31.2329 31.8664 31.2422 31.8664C31.2515 31.8664 31.2608 31.8664 31.2702 31.8664C31.2702 31.8664 31.2702 31.8664 31.2608 31.8664ZM16.1152 54.6448C16.1526 54.6261 16.1899 54.6168 16.2365 54.6075C16.1992 54.6168 16.1526 54.6355 16.1152 54.6448ZM31.2608 31.8664C31.2515 31.8664 31.2422 31.8664 31.2329 31.8664H31.2235C31.2329 31.8664 31.2329 31.8664 31.2422 31.8664C31.2515 31.8664 31.2608 31.8664 31.2702 31.8664C31.2702 31.8664 31.2702 31.8664 31.2608 31.8664ZM31.8581 32.025C31.8954 32.053 31.9327 32.081 31.9607 32.109C31.9234 32.081 31.8954 32.053 31.8581 32.025ZM34.5737 42.4764C34.6203 42.4857 34.667 42.4951 34.7136 42.4951C34.667 42.4951 34.6203 42.4857 34.5737 42.4764ZM25.2138 45.2759C25.1858 45.2479 25.1578 45.2106 25.1298 45.1732C25.1578 45.2106 25.1858 45.2479 25.2138 45.2759ZM31.2608 31.8664C31.2515 31.8664 31.2422 31.8664 31.2329 31.8664H31.2235C31.2329 31.8664 31.2329 31.8664 31.2422 31.8664C31.2515 31.8664 31.2608 31.8664 31.2702 31.8664C31.2702 31.8664 31.2702 31.8664 31.2608 31.8664ZM31.8581 32.025C31.8954 32.053 31.9327 32.081 31.9607 32.109C31.9234 32.081 31.8954 32.053 31.8581 32.025ZM34.5737 42.4764C34.6203 42.4857 34.667 42.4951 34.7136 42.4951C34.667 42.4951 34.6203 42.4857 34.5737 42.4764ZM25.2138 45.2759C25.1858 45.2479 25.1578 45.2106 25.1298 45.1732C25.1578 45.2106 25.1858 45.2479 25.2138 45.2759ZM34.5737 42.4764C34.6203 42.4857 34.667 42.4951 34.7136 42.4951C34.667 42.4951 34.6203 42.4857 34.5737 42.4764ZM25.2138 45.2759C25.1858 45.2479 25.1578 45.2106 25.1298 45.1732C25.1578 45.2106 25.1858 45.2479 25.2138 45.2759ZM31.8581 32.025C31.8954 32.053 31.9327 32.081 31.9607 32.109C31.9234 32.081 31.8954 32.053 31.8581 32.025ZM31.2608 31.8664C31.2515 31.8664 31.2422 31.8664 31.2329 31.8664H31.2235C31.2329 31.8664 31.2329 31.8664 31.2422 31.8664C31.2515 31.8664 31.2608 31.8664 31.2702 31.8664C31.2702 31.8664 31.2702 31.8664 31.2608 31.8664ZM16.1152 54.6448C16.1526 54.6261 16.1899 54.6168 16.2365 54.6075C16.1992 54.6168 16.1526 54.6355 16.1152 54.6448ZM31.2608 31.8664C31.2515 31.8664 31.2422 31.8664 31.2329 31.8664H31.2235C31.2329 31.8664 31.2329 31.8664 31.2422 31.8664C31.2515 31.8664 31.2608 31.8664 31.2702 31.8664C31.2702 31.8664 31.2702 31.8664 31.2608 31.8664ZM31.8581 32.025C31.8954 32.053 31.9327 32.081 31.9607 32.109C31.9234 32.081 31.8954 32.053 31.8581 32.025ZM34.5737 42.4764C34.6203 42.4857 34.667 42.4951 34.7136 42.4951C34.667 42.4951 34.6203 42.4857 34.5737 42.4764ZM25.2138 45.2759C25.1858 45.2479 25.1578 45.2106 25.1298 45.1732C25.1578 45.2106 25.1858 45.2479 25.2138 45.2759ZM31.2608 31.8664C31.2515 31.8664 31.2422 31.8664 31.2329 31.8664H31.2235C31.2329 31.8664 31.2329 31.8664 31.2422 31.8664C31.2515 31.8664 31.2608 31.8664 31.2702 31.8664C31.2702 31.8664 31.2702 31.8664 31.2608 31.8664ZM31.8581 32.025C31.8954 32.053 31.9327 32.081 31.9607 32.109C31.9234 32.081 31.8954 32.053 31.8581 32.025ZM34.5737 42.4764C34.6203 42.4857 34.667 42.4951 34.7136 42.4951C34.667 42.4951 34.6203 42.4857 34.5737 42.4764ZM25.2138 45.2759C25.1858 45.2479 25.1578 45.2106 25.1298 45.1732C25.1578 45.2106 25.1858 45.2479 25.2138 45.2759ZM34.5737 42.4764C34.6203 42.4857 34.667 42.4951 34.7136 42.4951C34.667 42.4951 34.6203 42.4857 34.5737 42.4764ZM25.2138 45.2759C25.1858 45.2479 25.1578 45.2106 25.1298 45.1732C25.1578 45.2106 25.1858 45.2479 25.2138 45.2759ZM31.8581 32.025C31.8954 32.053 31.9327 32.081 31.9607 32.109C31.9234 32.081 31.8954 32.053 31.8581 32.025ZM31.2608 31.8664C31.2515 31.8664 31.2422 31.8664 31.2329 31.8664H31.2235C31.2329 31.8664 31.2329 31.8664 31.2422 31.8664C31.2515 31.8664 31.2608 31.8664 31.2702 31.8664C31.2702 31.8664 31.2702 31.8664 31.2608 31.8664ZM16.1152 54.6448C16.1526 54.6261 16.1899 54.6168 16.2365 54.6075C16.1992 54.6168 16.1526 54.6355 16.1152 54.6448ZM31.2608 31.8664C31.2515 31.8664 31.2422 31.8664 31.2329 31.8664H31.2235C31.2329 31.8664 31.2329 31.8664 31.2422 31.8664C31.2515 31.8664 31.2608 31.8664 31.2702 31.8664C31.2702 31.8664 31.2702 31.8664 31.2608 31.8664ZM31.8581 32.025C31.8954 32.053 31.9327 32.081 31.9607 32.109C31.9234 32.081 31.8954 32.053 31.8581 32.025ZM34.5737 42.4764C34.6203 42.4857 34.667 42.4951 34.7136 42.4951C34.667 42.4951 34.6203 42.4857 34.5737 42.4764ZM25.2138 45.2759C25.1858 45.2479 25.1578 45.2106 25.1298 45.1732C25.1578 45.2106 25.1858 45.2479 25.2138 45.2759ZM34.5737 42.4764C34.6203 42.4857 34.667 42.4951 34.7136 42.4951C34.667 42.4951 34.6203 42.4857 34.5737 42.4764ZM25.2138 45.2759C25.1858 45.2479 25.1578 45.2106 25.1298 45.1732C25.1578 45.2106 25.1858 45.2479 25.2138 45.2759ZM31.8581 32.025C31.8954 32.053 31.9327 32.081 31.9607 32.109C31.9234 32.081 31.8954 32.053 31.8581 32.025ZM31.2608 31.8664C31.2515 31.8664 31.2422 31.8664 31.2329 31.8664H31.2235C31.2329 31.8664 31.2329 31.8664 31.2422 31.8664C31.2515 31.8664 31.2608 31.8664 31.2702 31.8664C31.2702 31.8664 31.2702 31.8664 31.2608 31.8664ZM16.1152 54.6448C16.1526 54.6261 16.1899 54.6168 16.2365 54.6075C16.1992 54.6168 16.1526 54.6355 16.1152 54.6448ZM40.2941 9.28388C40.4154 9.25589 40.5367 9.22789 40.658 9.20923C40.546 9.21856 40.4154 9.24655 40.2941 9.28388ZM34.5737 42.4764C34.6203 42.4857 34.667 42.4951 34.7136 42.4951C34.667 42.4951 34.6203 42.4857 34.5737 42.4764ZM25.2138 45.2759C25.1858 45.2479 25.1578 45.2106 25.1298 45.1732C25.1578 45.2106 25.1858 45.2479 25.2138 45.2759ZM31.8581 32.025C31.8954 32.053 31.9327 32.081 31.9607 32.109C31.9234 32.081 31.8954 32.053 31.8581 32.025ZM31.2608 31.8664C31.2515 31.8664 31.2422 31.8664 31.2329 31.8664H31.2235C31.2329 31.8664 31.2329 31.8664 31.2422 31.8664C31.2515 31.8664 31.2608 31.8664 31.2702 31.8664C31.2702 31.8664 31.2702 31.8664 31.2608 31.8664ZM16.1152 54.6448C16.1526 54.6261 16.1899 54.6168 16.2365 54.6075C16.1992 54.6168 16.1526 54.6355 16.1152 54.6448ZM16.1152 54.6448C16.1526 54.6261 16.1899 54.6168 16.2365 54.6075C16.1992 54.6168 16.1526 54.6355 16.1152 54.6448ZM31.2608 31.8664C31.2515 31.8664 31.2422 31.8664 31.2329 31.8664H31.2235C31.2329 31.8664 31.2329 31.8664 31.2422 31.8664C31.2515 31.8664 31.2608 31.8664 31.2702 31.8664C31.2702 31.8664 31.2702 31.8664 31.2608 31.8664ZM31.8581 32.025C31.8954 32.053 31.9327 32.081 31.9607 32.109C31.9234 32.081 31.8954 32.053 31.8581 32.025ZM34.5737 42.4764C34.6203 42.4857 34.667 42.4951 34.7136 42.4951C34.667 42.4951 34.6203 42.4857 34.5737 42.4764ZM25.2138 45.2759C25.1858 45.2479 25.1578 45.2106 25.1298 45.1732C25.1578 45.2106 25.1858 45.2479 25.2138 45.2759ZM16.1152 54.6448C16.1526 54.6261 16.1899 54.6168 16.2365 54.6075C16.1992 54.6168 16.1526 54.6355 16.1152 54.6448ZM31.2608 31.8664C31.2515 31.8664 31.2422 31.8664 31.2329 31.8664H31.2235C31.2329 31.8664 31.2329 31.8664 31.2422 31.8664C31.2515 31.8664 31.2608 31.8664 31.2702 31.8664C31.2702 31.8664 31.2702 31.8664 31.2608 31.8664ZM31.8581 32.025C31.8954 32.053 31.9327 32.081 31.9607 32.109C31.9234 32.081 31.8954 32.053 31.8581 32.025ZM34.5737 42.4764C34.6203 42.4857 34.667 42.4951 34.7136 42.4951C34.667 42.4951 34.6203 42.4857 34.5737 42.4764ZM25.2138 45.2759C25.1858 45.2479 25.1578 45.2106 25.1298 45.1732C25.1578 45.2106 25.1858 45.2479 25.2138 45.2759ZM31.2608 31.8664C31.2515 31.8664 31.2422 31.8664 31.2329 31.8664H31.2235C31.2329 31.8664 31.2329 31.8664 31.2422 31.8664C31.2515 31.8664 31.2608 31.8664 31.2702 31.8664C31.2702 31.8664 31.2702 31.8664 31.2608 31.8664ZM31.8581 32.025C31.8954 32.053 31.9327 32.081 31.9607 32.109C31.9234 32.081 31.8954 32.053 31.8581 32.025ZM34.5737 42.4764C34.6203 42.4857 34.667 42.4951 34.7136 42.4951C34.667 42.4951 34.6203 42.4857 34.5737 42.4764ZM25.2138 45.2759C25.1858 45.2479 25.1578 45.2106 25.1298 45.1732C25.1578 45.2106 25.1858 45.2479 25.2138 45.2759ZM34.5737 42.4764C34.6203 42.4857 34.667 42.4951 34.7136 42.4951C34.667 42.4951 34.6203 42.4857 34.5737 42.4764ZM25.2138 45.2759C25.1858 45.2479 25.1578 45.2106 25.1298 45.1732C25.1578 45.2106 25.1858 45.2479 25.2138 45.2759ZM31.8581 32.025C31.8954 32.053 31.9327 32.081 31.9607 32.109C31.9234 32.081 31.8954 32.053 31.8581 32.025ZM31.2608 31.8664C31.2515 31.8664 31.2422 31.8664 31.2329 31.8664H31.2235C31.2329 31.8664 31.2329 31.8664 31.2422 31.8664C31.2515 31.8664 31.2608 31.8664 31.2702 31.8664C31.2702 31.8664 31.2702 31.8664 31.2608 31.8664ZM34.5737 42.4764C34.6203 42.4857 34.667 42.4951 34.7136 42.4951C34.667 42.4951 34.6203 42.4857 34.5737 42.4764ZM25.2138 45.2759C25.1858 45.2479 25.1578 45.2106 25.1298 45.1732C25.1578 45.2106 25.1858 45.2479 25.2138 45.2759ZM31.8581 32.025C31.8954 32.053 31.9327 32.081 31.9607 32.109C31.9234 32.081 31.8954 32.053 31.8581 32.025ZM31.2608 31.8664C31.2515 31.8664 31.2422 31.8664 31.2329 31.8664H31.2235C31.2329 31.8664 31.2329 31.8664 31.2422 31.8664C31.2515 31.8664 31.2608 31.8664 31.2702 31.8664C31.2702 31.8664 31.2702 31.8664 31.2608 31.8664ZM34.5737 42.4764C34.6203 42.4857 34.667 42.4951 34.7136 42.4951C34.667 42.4951 34.6203 42.4857 34.5737 42.4764ZM25.2138 45.2759C25.1858 45.2479 25.1578 45.2106 25.1298 45.1732C25.1578 45.2106 25.1858 45.2479 25.2138 45.2759ZM31.8581 32.025C31.8954 32.053 31.9327 32.081 31.9607 32.109C31.9234 32.081 31.8954 32.053 31.8581 32.025ZM31.2608 31.8664C31.2515 31.8664 31.2422 31.8664 31.2329 31.8664H31.2235C31.2329 31.8664 31.2329 31.8664 31.2422 31.8664C31.2515 31.8664 31.2608 31.8664 31.2702 31.8664C31.2702 31.8664 31.2702 31.8664 31.2608 31.8664Z" fill="#E6317D"/>
<path d="M49.338 24.6437L49.2073 24.7184H49.0487L49.058 24.3918C49.142 24.4011 49.226 24.4478 49.2726 24.5131C47.6396 21.7136 45.5306 19.2781 42.9923 17.2624L44.7654 14.155C45.1853 13.4365 45.3066 12.55 45.092 11.7475C44.8773 10.9356 44.3361 10.2357 43.5989 9.82515L42.619 9.26525C42.1431 8.99463 41.5925 8.84533 41.0419 8.84533C40.762 8.84533 40.4914 8.88266 40.2207 8.95731C39.3995 9.18127 38.7183 9.70384 38.2984 10.4317L36.5253 13.4738C33.8377 12.3913 31.0195 11.7848 28.1266 11.6541V9.74116H29.937C30.6369 9.73183 31.2155 9.1626 31.2248 8.46273V1.53868C31.2155 0.829482 30.6556 0.260254 29.9464 0.260254H23.778C23.0781 0.278917 22.5182 0.838813 22.5182 1.53868V8.46273C22.5182 9.17194 23.0781 9.73183 23.778 9.75049H25.5977V11.6635C22.7048 11.7941 19.8866 12.4007 17.199 13.4831L15.426 10.441C15.0154 9.71317 14.3248 9.17194 13.5129 8.96664C13.2423 8.89199 12.9624 8.85466 12.6731 8.85466C12.1225 8.85466 11.5719 9.00397 11.096 9.28391L10.1161 9.84381C9.37893 10.2637 8.85634 10.9543 8.64171 11.7661C8.42708 12.5873 8.53906 13.4365 8.95899 14.1737L10.7414 17.2718C8.24044 19.2501 6.15944 21.6483 4.53569 24.3918H4.5077L4.41438 24.5691L4.37705 24.6437C2.11874 28.5723 0.933594 33.0328 0.933594 37.5493C0.933594 42.0658 2.11874 46.5263 4.37705 50.4456L4.40505 50.4923C4.42371 50.5203 4.44237 50.5483 4.45171 50.5669L4.47037 50.5949C6.71002 54.4209 9.91084 57.631 13.7369 59.8705V60.0105L13.9515 60.0292L13.9889 60.0478C17.9083 62.2874 22.3595 63.4632 26.8668 63.4632C31.3741 63.4632 35.8254 62.2781 39.7448 60.0478L39.7635 60.0385H39.8101L39.9035 59.9359C39.9128 59.9265 39.9314 59.9172 39.9408 59.8985C43.7855 57.6496 47.0143 54.4302 49.2726 50.5856L49.282 50.5576C49.3006 50.5296 49.3286 50.5016 49.3473 50.455L49.3753 50.399V50.3896C51.6243 46.489 52.8094 42.0378 52.8094 37.5307C52.8001 33.0235 51.5963 28.563 49.338 24.6437ZM41.7698 9.27458C41.6765 9.24659 41.5925 9.22792 41.4992 9.21859C41.5832 9.23726 41.6765 9.25592 41.7698 9.27458ZM40.6687 9.20926C40.5473 9.22793 40.426 9.24659 40.3047 9.28391C40.4167 9.24659 40.5473 9.21859 40.6687 9.20926ZM40.5007 11.6915C40.5847 11.5608 40.7247 11.4582 40.874 11.4209H40.8833H40.8926C40.9486 11.4022 41.0046 11.3929 41.0606 11.3929C41.1632 11.3929 41.2659 11.4209 41.3499 11.4675L42.3391 12.0274C42.479 12.1114 42.5817 12.2514 42.619 12.41V12.4193V12.4287C42.6657 12.578 42.647 12.7366 42.563 12.8766L40.902 15.76C40.566 15.5454 40.2207 15.3308 39.8661 15.1255C39.8568 15.1255 39.8568 15.1162 39.8475 15.1162C39.8101 15.0788 39.7635 15.0508 39.6981 15.0415C39.4369 14.8922 39.1382 14.7336 38.8396 14.5749L40.5007 11.6915ZM25.0565 7.1843V2.82644H28.6679V7.1843H25.0565ZM11.096 12.4287C11.1427 12.2607 11.2453 12.1207 11.3946 12.0274L12.3745 11.4675H12.3838C12.4678 11.4115 12.5704 11.3835 12.6731 11.3742C12.7197 11.3835 12.7664 11.3929 12.8037 11.4115L12.8224 11.4209L12.841 11.4302C12.9997 11.4768 13.1303 11.5702 13.2237 11.7101L14.8661 14.5843C14.5768 14.7336 14.2968 14.8922 14.0169 15.0508C13.9329 15.0695 13.8769 15.1068 13.8302 15.1442C13.4663 15.3495 13.1117 15.5734 12.8131 15.7694L11.1613 12.8952C11.0773 12.7459 11.0493 12.578 11.096 12.4287ZM16.1165 54.6448C16.1539 54.6262 16.1912 54.6168 16.2378 54.6075C16.2005 54.6168 16.1539 54.6355 16.1165 54.6448ZM37.6078 54.6448C37.6451 54.6635 37.6825 54.6728 37.7198 54.7008C37.6825 54.6822 37.6451 54.6635 37.6078 54.6448ZM47.7049 48.0941L45.4839 46.825C45.2879 46.7036 45.064 46.6477 44.8307 46.6477C44.728 46.6477 44.616 46.657 44.5134 46.685C44.1868 46.769 43.9068 46.9836 43.7388 47.2822C43.5709 47.5715 43.5242 47.9261 43.6082 48.2434C43.6922 48.57 43.9068 48.8499 44.1961 49.0179L46.4171 50.3056C44.6534 52.9931 42.3111 55.3354 39.6235 57.1084L38.3544 54.8875C38.1211 54.4955 37.7011 54.2529 37.2532 54.2529C37.0292 54.2529 36.8053 54.3182 36.6093 54.4302C36.0027 54.7848 35.7974 55.5593 36.1427 56.1752L37.4212 58.3961C34.5376 59.8332 31.3461 60.6917 28.1266 60.8877V58.3028C28.1266 57.9669 27.996 57.6403 27.7627 57.3977C27.5294 57.155 27.1935 57.0244 26.8575 57.0244C26.5216 57.0244 26.1949 57.1644 25.9523 57.3977C25.719 57.6403 25.579 57.9669 25.5884 58.3028V60.8783C22.3782 60.6824 19.1774 59.8332 16.3032 58.3868L17.5816 56.1566C17.7496 55.8673 17.7963 55.5127 17.7123 55.1954C17.6283 54.8688 17.4137 54.5889 17.1244 54.4209C16.9284 54.3089 16.7044 54.2529 16.4805 54.2529C16.0232 54.2529 15.6126 54.4862 15.37 54.8781L14.0915 57.1177C11.4039 55.3447 9.06165 53.0118 7.28859 50.315L9.50957 49.0272C10.1068 48.6726 10.3214 47.8981 9.9855 47.2915C9.81753 46.9929 9.53757 46.7783 9.21095 46.6943C9.1083 46.6663 8.99632 46.657 8.89367 46.657C8.66971 46.657 8.44574 46.7223 8.24977 46.8343L6.02879 48.1034C4.56369 45.2386 3.70516 42.0472 3.52785 38.8371H6.09411C6.794 38.8278 7.37258 38.2585 7.37258 37.5587C7.37258 37.2134 7.24193 36.8868 6.9993 36.6442C6.76601 36.4109 6.43006 36.2709 6.09411 36.2709H3.51852C3.69582 33.0515 4.56369 29.8508 6.01946 26.986L8.24044 28.2737L8.3151 28.3204H8.32443C8.48307 28.395 8.66038 28.4324 8.83768 28.4324C8.84701 28.4324 8.85634 28.4324 8.86568 28.4324C9.44425 28.4324 9.94817 28.0404 10.0975 27.4899C10.2468 26.93 10.0042 26.3421 9.50024 26.0528L7.27926 24.793C9.04298 22.0962 11.3853 19.754 14.0822 17.9903L15.3607 20.2019L15.454 20.3699H15.4726C15.7153 20.6685 16.0792 20.8458 16.4711 20.8458H16.4805H16.4898C16.7044 20.8364 16.9284 20.7711 17.115 20.6685C17.4043 20.5005 17.619 20.2206 17.7029 19.8939C17.7869 19.5673 17.7403 19.2127 17.563 18.9235L16.2845 16.7212C19.1587 15.2561 22.3595 14.3976 25.5697 14.2297V16.7865C25.5697 17.1225 25.7004 17.4491 25.9337 17.6917C26.1669 17.9343 26.5029 18.0743 26.8388 18.0743C27.1748 18.0743 27.5014 17.9343 27.744 17.701C27.9867 17.4584 28.1173 17.1318 28.108 16.7865V14.239C31.3275 14.407 34.5283 15.2655 37.3932 16.7305L36.1147 18.9328C35.7694 19.5393 35.9841 20.3232 36.5813 20.6778C36.7679 20.7898 36.9919 20.8551 37.2159 20.8644H37.2252C37.6825 20.8644 38.1024 20.6218 38.317 20.2206L39.5955 18.0183C42.2924 19.782 44.6347 22.1149 46.3891 24.8117L44.1681 26.0715C43.5709 26.4261 43.3656 27.2006 43.7108 27.8071C43.9348 28.2084 44.3547 28.451 44.8027 28.451C44.812 28.451 44.8213 28.451 44.8307 28.451C45.0453 28.451 45.2506 28.395 45.4372 28.3017H45.4466L47.6676 27.014C49.1327 29.8881 49.9912 33.0795 50.1592 36.2989H47.5929C47.2476 36.2989 46.9303 36.4389 46.6877 36.6815C46.4544 36.9241 46.3144 37.2507 46.3238 37.5867C46.3331 38.2865 46.8837 38.8464 47.5836 38.8651H50.2058C50.0285 42.0472 49.17 45.2292 47.7049 48.0941ZM37.2812 54.5795C37.2252 54.5795 37.1692 54.5795 37.1039 54.5888C37.1506 54.5795 37.1972 54.5795 37.2439 54.5795C37.2532 54.5795 37.2625 54.5795 37.2812 54.5795ZM8.78169 28.0964C8.80969 28.0964 8.83768 28.0964 8.86568 28.0964C8.85634 28.0964 8.84701 28.0964 8.83768 28.0964C8.81902 28.0964 8.80035 28.0964 8.78169 28.0964Z" fill="#2B2665"/>
<path d="M31.2606 31.8665C31.2513 31.8665 31.242 31.8665 31.2327 31.8665H31.2234H31.2141H31.2234C31.2327 31.8665 31.2327 31.8665 31.242 31.8665C31.2513 31.8665 31.2606 31.8665 31.2699 31.8665H31.2792C31.2792 31.8665 31.2699 31.8665 31.2606 31.8665ZM31.1676 31.8758C31.149 31.8758 31.1397 31.8758 31.1211 31.8851C31.1304 31.8758 31.149 31.8758 31.1676 31.8758ZM31.1676 31.8758C31.1769 31.8758 31.1955 31.8758 31.2141 31.8758C31.1955 31.8665 31.1862 31.8665 31.1676 31.8758ZM31.2141 31.8665C31.2234 31.8665 31.2234 31.8665 31.2327 31.8665C31.2234 31.8665 31.2141 31.8665 31.2141 31.8665Z" fill="#2B2665"/>
<path d="M31.2162 31.8665C31.2255 31.8665 31.2255 31.8665 31.2349 31.8665C31.2255 31.8665 31.2162 31.8665 31.2162 31.8665ZM31.1695 31.8758C31.1882 31.8758 31.1975 31.8758 31.2162 31.8758C31.1975 31.8665 31.1882 31.8665 31.1695 31.8758ZM31.1695 31.8758C31.1509 31.8758 31.1416 31.8758 31.1229 31.8851C31.1322 31.8758 31.1509 31.8758 31.1695 31.8758ZM21.5671 35.8231C21.5297 35.8417 21.4924 35.8604 21.4551 35.879C21.4924 35.8604 21.5297 35.8417 21.5671 35.8231Z" fill="#2B2665"/>
<path d="M43.104 40.6568C42.8614 40.4142 42.5441 40.2836 42.2082 40.2836H39.8659C41.2096 38.0346 41.8909 35.8604 41.8909 33.8074C41.8909 31.4372 40.9017 29.151 39.1846 27.5179C37.5702 25.9875 35.4612 25.1477 33.2402 25.1477C33.0816 25.1477 32.9136 25.157 32.755 25.1664C30.5153 25.2877 28.397 26.2955 26.8759 27.9379C25.3548 26.2955 23.2365 25.2877 20.9968 25.1664C20.8382 25.157 20.6702 25.1477 20.5116 25.1477C18.2906 25.1477 16.1816 25.9875 14.5672 27.5179C12.8408 29.1416 11.8609 31.4372 11.8516 33.8074C11.8516 35.8697 12.5328 38.044 13.8673 40.2836H11.525C11.189 40.2836 10.8624 40.4235 10.6291 40.6568C10.3958 40.8901 10.2559 41.2167 10.2559 41.5527C10.2559 41.8886 10.3865 42.2152 10.6291 42.4485C10.8718 42.6911 11.189 42.8218 11.525 42.8218H15.6403C19.821 48.0568 25.9427 51.8268 26.1853 51.9761C26.372 52.0974 26.5959 52.1627 26.8199 52.1627C26.8386 52.1627 26.8572 52.1627 26.8666 52.1627C26.8759 52.1627 26.8946 52.1627 26.9039 52.1627C27.1279 52.1627 27.3425 52.0974 27.5291 51.9761C27.8091 51.8081 33.9308 48.0195 38.0741 42.8311H42.1895C42.5348 42.8311 42.8521 42.7005 43.0854 42.4578C43.3186 42.2245 43.4586 41.8979 43.4586 41.562C43.468 41.2261 43.3373 40.8994 43.104 40.6568ZM38.3448 27.238C38.2421 27.154 38.1301 27.0793 38.0275 27.0047C38.1395 27.0793 38.2421 27.1633 38.3448 27.238ZM18.9345 25.6329C18.7945 25.6609 18.6452 25.6889 18.5052 25.7263C18.6452 25.6889 18.7945 25.6609 18.9345 25.6329ZM31.8591 32.0251C31.8964 32.0531 31.9338 32.0811 31.9618 32.1091C31.9244 32.0811 31.8964 32.0531 31.8591 32.0251ZM19.0185 42.8218H19.2331C19.6904 42.8218 20.1103 42.5791 20.3343 42.1779L21.874 39.4251L24.7762 45.2013V45.2107C24.7762 45.22 24.7856 45.2293 24.7949 45.2386L25.3921 45.7985C25.5508 45.8732 25.7281 45.9105 25.9054 45.9105H25.9241C26.428 45.9012 26.8759 45.6119 27.0812 45.1547L31.2246 36.0377L33.6135 42.0192C33.7908 42.4765 34.2107 42.7751 34.696 42.8124C32.335 45.276 29.7035 47.4876 26.8666 49.3819C24.0297 47.4969 21.3888 45.2946 19.0185 42.8218ZM34.5747 42.4765C34.6213 42.4858 34.668 42.4952 34.7147 42.4952C34.668 42.4952 34.6213 42.4858 34.5747 42.4765ZM31.2805 31.8665C31.2712 31.8665 31.2619 31.8665 31.2525 31.8665C31.2432 31.8665 31.2432 31.8665 31.2339 31.8665H31.2246C31.2059 31.8665 31.1966 31.8665 31.1779 31.8665C31.1872 31.8665 31.2059 31.8665 31.2246 31.8665C31.2246 31.8665 31.2339 31.8665 31.2432 31.8665H31.2525C31.2619 31.8665 31.2712 31.8665 31.2805 31.8665C31.2805 31.8665 31.2712 31.8665 31.2805 31.8665ZM25.1402 45.1733C25.1682 45.2106 25.1868 45.248 25.2242 45.276C25.1868 45.248 25.1588 45.2106 25.1402 45.1733ZM19.709 42.3738C19.7464 42.3552 19.7744 42.3272 19.8117 42.3085C19.7744 42.3272 19.7464 42.3552 19.709 42.3738ZM36.833 40.2836H35.6572L32.4937 32.333C32.3164 31.8571 31.8498 31.5399 31.3459 31.5305C31.3179 31.5305 31.2992 31.5305 31.2712 31.5305C30.786 31.5305 30.3474 31.8198 30.1514 32.2584L25.8681 41.674L23.0965 36.1217C22.8725 35.7111 22.4619 35.4405 21.9953 35.4125H21.986H21.9487C21.4728 35.4125 21.0528 35.6738 20.8382 36.0937L18.4772 40.2836H16.9095C15.2297 37.9133 14.4085 35.7951 14.4085 33.8074C14.3992 31.9971 15.1924 30.2987 16.5642 29.1323C17.6654 28.1991 19.0651 27.6859 20.5022 27.6859C20.8475 27.6859 21.1928 27.7139 21.5287 27.7699C23.3111 28.0778 24.8509 29.1416 25.7654 30.7V30.7093V30.7187C26.008 31.0919 26.4186 31.3159 26.8666 31.3159C27.3145 31.3159 27.7251 31.0919 27.9677 30.7187V30.7093C29.0596 28.8617 31.0752 27.7139 33.2216 27.6859H33.2309C34.864 27.6859 36.3944 28.3204 37.5516 29.4776C38.69 30.616 39.3433 32.1931 39.3433 33.8074C39.3339 35.7951 38.5127 37.9227 36.833 40.2836Z" fill="#E6317D"/>
</g>
<defs>
<clipPath id="clip0_2507_8096">
<rect width="51.8665" height="63.2123" fill="white" transform="translate(0.933594 0.260254)"/>
</clipPath>
</defs>
</svg>
