<svg width="55" height="54" viewBox="0 0 55 54" fill="none" xmlns="http://www.w3.org/2000/svg">
<g clip-path="url(#clip0_2507_8106)">
<path d="M10.1831 18.2441H8.45358V20.8341H5.86328V22.5553H8.45358V25.1452H10.1831V22.5553H12.7734V20.8341H10.1831V18.2441Z" fill="#1FC8A5"/>
<path d="M14.4957 11.343H4.14258V16.5148H14.4957V11.343ZM12.7662 14.7936H5.86408V13.0723H12.7662V14.7936Z" fill="#1FC8A5"/>
<path d="M48.612 39.0923C46.7939 37.8858 45.0564 37.17 43.6566 36.5989C41.1789 35.5855 39.8114 35.0144 39.554 32.8508C40.5837 32.3602 41.5007 31.6926 42.281 30.8078C43.1016 29.8909 43.721 28.8292 44.1956 27.7112C45.716 27.5744 48.0569 26.5851 48.1293 23.5448L50.7679 12.1234L50.6553 11.8661C45.2977 -0.625033 31.8233 0.122986 31.7428 0.131029C26.884 0.131029 23.98 3.20353 23.98 6.17148C23.98 6.26799 24.0041 6.34038 24.0041 6.4369C19.8854 8.13402 19.3464 12.1234 19.6762 14.0779L22.2585 23.5689C22.3309 26.6012 24.6718 27.5825 26.1922 27.7192C26.6668 28.8372 27.2862 29.8989 28.0987 30.8078C28.871 31.6684 29.7639 32.328 30.7695 32.8186C30.5603 33.6953 29.9409 35.0546 28.0746 35.5211C25.6693 36.1244 23.0871 37.5722 21.6471 39.1727C21.1403 38.5776 20.2635 38.0869 18.7913 38.0869C16.0643 38.0869 15.3403 39.776 15.3403 40.6768V49.2991C15.3403 49.4037 15.3001 51.8891 11.8892 51.8891C8.58298 51.8891 8.44622 49.5565 8.43818 49.2991V40.6688H10.1597V35.497H11.0204V32.0465H14.4715C16.0804 32.0465 17.9225 30.2046 17.9225 28.5959V7.89272H0.691406V28.5959C0.691406 30.2046 2.53358 32.0465 4.14246 32.0465V35.497H5.00321V40.6688H6.72472V49.2911C6.72472 50.7791 7.80267 53.6023 11.8973 53.6023C15.9919 53.6023 17.0698 50.7791 17.0698 49.2911V40.6929C17.0779 40.5481 17.2066 39.8082 18.7994 39.8082C20.3922 39.8082 20.5128 40.5481 20.5209 40.6688V45.8406H18.7994V53.6103H54.1707V52.7497C54.1787 52.3395 54.1144 42.752 48.612 39.0923ZM16.2171 9.62201V26.8747H2.41291V9.62201H16.2171ZM2.41291 28.5959H16.2171C16.2171 29.2555 15.1553 30.3172 14.4956 30.3172H4.14246C3.48282 30.3252 2.41291 29.2555 2.41291 28.5959ZM9.31502 32.0465V33.7677H5.86397V32.0465H9.31502ZM8.45427 35.497V38.9475H6.73276V35.497H8.45427ZM44.8633 25.821C45.3138 24.2043 45.5229 22.5877 45.6034 21.1962C46.0217 21.526 46.4159 22.1775 46.4159 23.4242C46.4078 24.9202 45.5873 25.5556 44.8633 25.821ZM23.98 23.4242C23.98 22.1614 24.3742 21.5179 24.7925 21.1881C24.8729 22.5796 25.074 24.2043 25.5245 25.821C24.8005 25.5476 23.98 24.9202 23.98 23.4242ZM29.3939 29.6576C25.7256 25.5636 26.5542 17.5607 26.5703 17.3917C26.5783 17.1907 26.699 15.4292 29.3697 14.7697L28.9514 13.0967C25.1545 14.0458 24.8729 16.8609 24.8488 17.3194C24.8327 17.5044 24.7603 18.2282 24.7523 19.2739C24.2133 19.4508 23.6502 19.7967 23.1836 20.3677L21.3816 13.7482C21.3173 13.3058 20.9151 9.66223 24.527 8.07772C25.2349 9.16355 26.4818 9.61397 27.4391 9.61397V7.89272C27.1495 7.89272 25.7176 7.81229 25.7176 6.17148C25.7176 4.04807 27.9781 1.86032 31.8152 1.86032C32.322 1.82815 44.0347 1.20882 48.9659 12.2924L47.1318 20.2551C46.6894 19.7484 46.1584 19.4428 45.6597 19.2819C45.6436 18.1559 45.5712 17.3917 45.5551 17.2952L45.5068 16.877L45.1529 16.6518C44.8633 16.4748 37.9934 12.2119 33.4804 12.2119C31.7589 12.2119 31.1797 11.7776 30.9867 11.5122C30.7373 11.1744 30.8499 10.7641 30.858 10.74L30.0374 10.4826L29.2169 10.2092C29.1767 10.3379 28.8308 11.4639 29.5789 12.5095C30.2627 13.4586 31.5739 13.9332 33.4804 13.9332C36.9556 13.9332 42.4178 17.0298 43.8738 17.8904C43.9945 19.5875 44.2036 26.0865 41.01 29.6496C39.5862 31.2341 37.6394 32.0384 35.2019 32.0384C32.7645 32.0465 30.8097 31.2422 29.3939 29.6576ZM35.1939 33.7758C36.1592 33.7758 37.0522 33.6551 37.8968 33.446C38.2106 35.1994 39.1357 36.2129 40.3665 36.9609V39.8082C40.3665 39.9127 40.3343 42.3981 38.645 42.3981H36.0547V39.8082H34.3331V42.3981H31.7428C30.0535 42.3981 30.0213 39.9127 30.0213 39.8082V36.5748C31.3808 35.7705 32.0888 34.5077 32.4025 33.4138C33.2713 33.6471 34.1964 33.7758 35.1939 33.7758ZM22.2585 51.881H20.537V47.5699H22.2585V51.881ZM23.98 51.881V45.8406H22.2585V41.5294C22.2585 40.4838 25.0016 38.1432 28.2998 37.2504V39.8082C28.2998 41.2962 29.0238 44.1193 31.7509 44.1193H38.653C41.3801 44.1193 42.1041 41.2962 42.1041 39.8082V37.8134C42.4017 37.9421 42.7074 38.0628 43.0131 38.1915C44.4128 38.7625 45.9895 39.414 47.6627 40.524C51.516 43.0978 52.2722 49.5404 52.417 51.881H23.98Z" fill="#2B2665"/>
<path d="M39.1684 27.5663L38.1306 26.1829C35.2588 28.3384 32.3869 26.2713 32.2582 26.1829L31.2285 27.5663C32.033 28.1695 33.5533 28.8773 35.307 28.8773C36.5378 28.8773 37.8732 28.5315 39.1684 27.5663Z" fill="#1FC8A5"/>
<path d="M32.9896 19.2576C31.0831 20.5284 29.8844 19.4828 29.7557 19.3541L28.541 20.5847C29.0076 21.0512 29.9568 21.5981 31.1876 21.5981C32.0001 21.5981 32.9413 21.3568 33.9388 20.6893L32.9896 19.2576Z" fill="#1FC8A5"/>
<path d="M41.7183 20.6893L40.7611 19.2576C38.8545 20.5284 37.6559 19.4828 37.5272 19.3541L36.3125 20.5847C36.7791 21.0512 37.7283 21.5981 38.9591 21.5981C39.7796 21.5981 40.7128 21.3568 41.7183 20.6893Z" fill="#1FC8A5"/>
<path d="M45.7074 14.4398L47.1071 13.4344C46.9221 13.1689 42.4494 7.03198 35.1934 7.03198V8.75323C41.5565 8.76127 45.6672 14.3835 45.7074 14.4398Z" fill="#1FC8A5"/>
<path d="M25.3233 10.5789C25.2429 10.6191 23.2639 11.6325 22.3066 14.5281L23.9397 15.075C24.6637 12.8953 26.0473 12.1473 26.1036 12.1232L25.7094 11.351L25.3233 10.5789Z" fill="#1FC8A5"/>
</g>
<defs>
<clipPath id="clip0_2507_8106">
<rect width="53.4873" height="53.4873" fill="white" transform="translate(0.691406 0.122803)"/>
</clipPath>
</defs>
</svg>
