<svg width="93" height="114" viewBox="0 0 93 114" fill="none" xmlns="http://www.w3.org/2000/svg">
<g opacity="0.1" clip-path="url(#clip0_2364_6358)">
<path d="M3.2069 6.43077C4.97802 6.43077 6.41379 4.99119 6.41379 3.21538C6.41379 1.43958 4.97802 0 3.2069 0C1.43578 0 0 1.43958 0 3.21538C0 4.99119 1.43578 6.43077 3.2069 6.43077Z" fill="white"/>
<path d="M3.2069 27.9154C4.97802 27.9154 6.41379 26.4758 6.41379 24.7C6.41379 22.9242 4.97802 21.4846 3.2069 21.4846C1.43578 21.4846 0 22.9242 0 24.7C0 26.4758 1.43578 27.9154 3.2069 27.9154Z" fill="white"/>
<path d="M6.41379 46.3309C6.41379 44.577 4.95611 43.1155 3.2069 43.1155C1.45768 43.1155 0 44.577 0 46.3309C0 48.0847 1.45768 49.5462 3.2069 49.5462C4.95611 49.5462 6.41379 48.0847 6.41379 46.3309Z" fill="white"/>
<path d="M6.41379 67.8155C6.41379 66.0616 4.95611 64.6001 3.2069 64.6001C1.45768 64.6001 0 66.0616 0 67.8155C0 69.5693 1.45768 71.0309 3.2069 71.0309C4.95611 71.0309 6.41379 69.5693 6.41379 67.8155Z" fill="white"/>
<path d="M3.2069 92.5155C4.97802 92.5155 6.41379 91.0759 6.41379 89.3001C6.41379 87.5243 4.97802 86.0847 3.2069 86.0847C1.43578 86.0847 0 87.5243 0 89.3001C0 91.0759 1.43578 92.5155 3.2069 92.5155Z" fill="white"/>
<path d="M3.2069 114C4.97802 114 6.41379 112.561 6.41379 110.785C6.41379 109.009 4.97802 107.569 3.2069 107.569C1.43578 107.569 0 109.009 0 110.785C0 112.561 1.43578 114 3.2069 114Z" fill="white"/>
<path d="M20.5533 6.43077C22.3244 6.43077 23.7602 4.99119 23.7602 3.21538C23.7602 1.43958 22.3244 0 20.5533 0C18.7822 0 17.3464 1.43958 17.3464 3.21538C17.3464 4.99119 18.7822 6.43077 20.5533 6.43077Z" fill="white"/>
<path d="M20.5533 27.9154C22.3244 27.9154 23.7602 26.4758 23.7602 24.7C23.7602 22.9242 22.3244 21.4846 20.5533 21.4846C18.7822 21.4846 17.3464 22.9242 17.3464 24.7C17.3464 26.4758 18.7822 27.9154 20.5533 27.9154Z" fill="white"/>
<path d="M23.7602 46.3309C23.7602 44.577 22.3025 43.1155 20.5533 43.1155C18.8041 43.1155 17.3464 44.577 17.3464 46.3309C17.3464 48.0847 18.8041 49.5462 20.5533 49.5462C22.3025 49.5462 23.7602 48.0847 23.7602 46.3309Z" fill="white"/>
<path d="M23.7602 67.8155C23.7602 66.0616 22.3025 64.6001 20.5533 64.6001C18.8041 64.6001 17.3464 66.0616 17.3464 67.8155C17.3464 69.5693 18.8041 71.0309 20.5533 71.0309C22.3025 71.0309 23.7602 69.5693 23.7602 67.8155Z" fill="white"/>
<path d="M20.5533 92.5155C22.3244 92.5155 23.7602 91.0759 23.7602 89.3001C23.7602 87.5243 22.3244 86.0847 20.5533 86.0847C18.7822 86.0847 17.3464 87.5243 17.3464 89.3001C17.3464 91.0759 18.7822 92.5155 20.5533 92.5155Z" fill="white"/>
<path d="M20.5533 114C22.3244 114 23.7602 112.561 23.7602 110.785C23.7602 109.009 22.3244 107.569 20.5533 107.569C18.7822 107.569 17.3464 109.009 17.3464 110.785C17.3464 112.561 18.7822 114 20.5533 114Z" fill="white"/>
<path d="M41.1066 3.21538C41.1066 1.46154 39.6489 0 37.8997 0C36.1505 0 34.6928 1.46154 34.6928 3.21538C34.6928 4.96923 36.1505 6.43077 37.8997 6.43077C39.6489 6.43077 41.1066 4.96923 41.1066 3.21538Z" fill="white"/>
<path d="M41.1066 24.7C41.1066 22.9462 39.6489 21.4846 37.8997 21.4846C36.1505 21.4846 34.6928 22.9462 34.6928 24.7C34.6928 26.4539 36.1505 27.9154 37.8997 27.9154C39.6489 27.9154 41.1066 26.4539 41.1066 24.7Z" fill="white"/>
<path d="M41.1066 46.3309C41.1066 44.577 39.6489 43.1155 37.8997 43.1155C36.1505 43.1155 34.6928 44.577 34.6928 46.3309C34.6928 48.0847 36.1505 49.5462 37.8997 49.5462C39.6489 49.5462 41.1066 48.0847 41.1066 46.3309Z" fill="white"/>
<path d="M41.1066 67.8155C41.1066 66.0616 39.6489 64.6001 37.8997 64.6001C36.1505 64.6001 34.6928 66.0616 34.6928 67.8155C34.6928 69.5693 36.1505 71.0309 37.8997 71.0309C39.6489 71.0309 41.1066 69.5693 41.1066 67.8155Z" fill="white"/>
<path d="M41.1066 89.3001C41.1066 87.5463 39.6489 86.0847 37.8997 86.0847C36.1505 86.0847 34.6928 87.5463 34.6928 89.3001C34.6928 91.0539 36.1505 92.5155 37.8997 92.5155C39.6489 92.5155 41.1066 91.0539 41.1066 89.3001Z" fill="white"/>
<path d="M41.1066 110.785C41.1066 109.031 39.6489 107.569 37.8997 107.569C36.1505 107.569 34.6928 109.031 34.6928 110.785C34.6928 112.539 36.1505 114 37.8997 114C39.6489 114 41.1066 112.685 41.1066 110.785Z" fill="white"/>
<path d="M55.1003 6.43077C56.8715 6.43077 58.3072 4.99119 58.3072 3.21538C58.3072 1.43958 56.8715 0 55.1003 0C53.3292 0 51.8934 1.43958 51.8934 3.21538C51.8934 4.99119 53.3292 6.43077 55.1003 6.43077Z" fill="white"/>
<path d="M55.1003 27.9154C56.8715 27.9154 58.3072 26.4758 58.3072 24.7C58.3072 22.9242 56.8715 21.4846 55.1003 21.4846C53.3292 21.4846 51.8934 22.9242 51.8934 24.7C51.8934 26.4758 53.3292 27.9154 55.1003 27.9154Z" fill="white"/>
<path d="M58.3072 46.3309C58.3072 44.577 56.8495 43.1155 55.1003 43.1155C53.3511 43.1155 51.8934 44.577 51.8934 46.3309C51.8934 48.0847 53.3511 49.5462 55.1003 49.5462C56.9953 49.5462 58.3072 48.0847 58.3072 46.3309Z" fill="white"/>
<path d="M58.3072 67.8155C58.3072 66.0616 56.8495 64.6001 55.1003 64.6001C53.3511 64.6001 51.8934 66.0616 51.8934 67.8155C51.8934 69.5693 53.3511 71.0309 55.1003 71.0309C56.9953 71.0309 58.3072 69.5693 58.3072 67.8155Z" fill="white"/>
<path d="M55.1003 92.5155C56.8715 92.5155 58.3072 91.0759 58.3072 89.3001C58.3072 87.5243 56.8715 86.0847 55.1003 86.0847C53.3292 86.0847 51.8934 87.5243 51.8934 89.3001C51.8934 91.0759 53.3292 92.5155 55.1003 92.5155Z" fill="white"/>
<path d="M55.1003 114C56.8715 114 58.3072 112.561 58.3072 110.785C58.3072 109.009 56.8715 107.569 55.1003 107.569C53.3292 107.569 51.8934 109.009 51.8934 110.785C51.8934 112.561 53.3292 114 55.1003 114Z" fill="white"/>
<path d="M72.4468 6.43077C74.2179 6.43077 75.6537 4.99119 75.6537 3.21538C75.6537 1.43958 74.2179 0 72.4468 0C70.6756 0 69.2399 1.43958 69.2399 3.21538C69.2399 4.99119 70.6756 6.43077 72.4468 6.43077Z" fill="white"/>
<path d="M72.4468 27.9154C74.2179 27.9154 75.6537 26.4758 75.6537 24.7C75.6537 22.9242 74.2179 21.4846 72.4468 21.4846C70.6756 21.4846 69.2399 22.9242 69.2399 24.7C69.2399 26.4758 70.6756 27.9154 72.4468 27.9154Z" fill="white"/>
<path d="M75.6537 46.3309C75.6537 44.577 74.196 43.1155 72.4468 43.1155C70.6975 43.1155 69.2399 44.577 69.2399 46.3309C69.2399 48.0847 70.6975 49.5462 72.4468 49.5462C74.196 49.5462 75.6537 48.0847 75.6537 46.3309Z" fill="white"/>
<path d="M75.6537 67.8155C75.6537 66.0616 74.196 64.6001 72.4468 64.6001C70.6975 64.6001 69.2399 66.0616 69.2399 67.8155C69.2399 69.5693 70.6975 71.0309 72.4468 71.0309C74.196 71.0309 75.6537 69.5693 75.6537 67.8155Z" fill="white"/>
<path d="M72.4468 92.5155C74.2179 92.5155 75.6537 91.0759 75.6537 89.3001C75.6537 87.5243 74.2179 86.0847 72.4468 86.0847C70.6756 86.0847 69.2399 87.5243 69.2399 89.3001C69.2399 91.0759 70.6756 92.5155 72.4468 92.5155Z" fill="white"/>
<path d="M72.4468 114C74.2179 114 75.6537 112.561 75.6537 110.785C75.6537 109.009 74.2179 107.569 72.4468 107.569C70.6756 107.569 69.2399 109.009 69.2399 110.785C69.2399 112.561 70.6756 114 72.4468 114Z" fill="white"/>
<path d="M93 3.21538C93 1.46154 91.5423 0 89.7931 0C88.0439 0 86.5862 1.46154 86.5862 3.21538C86.5862 4.96923 88.0439 6.43077 89.7931 6.43077C91.5423 6.43077 93 4.96923 93 3.21538Z" fill="white"/>
<path d="M93 24.7C93 22.9462 91.5423 21.4846 89.7931 21.4846C88.0439 21.4846 86.5862 22.9462 86.5862 24.7C86.5862 26.4539 88.0439 27.9154 89.7931 27.9154C91.5423 27.9154 93 26.4539 93 24.7Z" fill="white"/>
<path d="M93 46.3309C93 44.577 91.5423 43.1155 89.7931 43.1155C88.0439 43.1155 86.5862 44.577 86.5862 46.3309C86.5862 48.0847 88.0439 49.5462 89.7931 49.5462C91.5423 49.5462 93 48.0847 93 46.3309Z" fill="white"/>
<path d="M93 67.8155C93 66.0616 91.5423 64.6001 89.7931 64.6001C88.0439 64.6001 86.5862 66.0616 86.5862 67.8155C86.5862 69.5693 88.0439 71.0309 89.7931 71.0309C91.5423 71.0309 93 69.5693 93 67.8155Z" fill="white"/>
<path d="M93 89.3001C93 87.5463 91.5423 86.0847 89.7931 86.0847C88.0439 86.0847 86.5862 87.5463 86.5862 89.3001C86.5862 91.0539 88.0439 92.5155 89.7931 92.5155C91.5423 92.5155 93 91.0539 93 89.3001Z" fill="white"/>
<path d="M93 110.785C93 109.031 91.5423 107.569 89.7931 107.569C88.0439 107.569 86.5862 109.031 86.5862 110.785C86.5862 112.539 88.0439 114 89.7931 114C91.5423 114 93 112.685 93 110.785Z" fill="white"/>
</g>
<defs>
<clipPath id="clip0_2364_6358">
<rect width="93" height="114" fill="white"/>
</clipPath>
</defs>
</svg>
