<svg width="22" height="22" viewBox="0 0 22 22" fill="none" xmlns="http://www.w3.org/2000/svg">
<path d="M14.4855 12.0422C14.3372 11.9074 14.1423 11.8356 13.942 11.8417C13.7416 11.8479 13.5515 11.9317 13.4118 12.0754L11.5647 13.9749C11.1201 13.89 10.2262 13.6114 9.30615 12.6937C8.38605 11.7729 8.1074 10.8768 8.02481 10.4353L9.92289 8.58751C10.0668 8.44791 10.1507 8.2578 10.1569 8.05742C10.1631 7.85704 10.0911 7.66211 9.95608 7.51389L7.10394 4.37792C6.96889 4.22924 6.7812 4.13904 6.58072 4.12651C6.38024 4.11397 6.18277 4.18007 6.03024 4.31077L4.35524 5.74716C4.22179 5.88108 4.14214 6.05933 4.13139 6.24808C4.11981 6.44104 3.89905 11.0118 7.44357 14.5577C10.5358 17.6489 14.4091 17.875 15.4759 17.875C15.6318 17.875 15.7275 17.8704 15.753 17.8688C15.9417 17.8583 16.1199 17.7783 16.2532 17.6442L17.6889 15.9686C17.8197 15.8162 17.8859 15.6188 17.8735 15.4183C17.8611 15.2178 17.7711 15.0301 17.6225 14.8949L14.4855 12.0422Z" fill="#1FC8A5"/>
</svg>
