<svg width="78" height="78" viewBox="0 0 78 78" fill="none" xmlns="http://www.w3.org/2000/svg">
<circle cx="39" cy="39" r="39" fill="#DDE9FF"/>
<path fill-rule="evenodd" clip-rule="evenodd" d="M18.325 36.5123H62.2805C62.2805 36.5123 62.9515 29.4988 59.9318 29.1649C56.744 28.8309 28.2232 24.322 28.2232 27.829V32.8386C28.2232 33.5065 21.177 36.8462 18.8279 32.5046C18.8279 32.5046 16.4792 34.3416 18.3244 36.5122L18.325 36.5123Z" fill="#2B2665"/>
<path fill-rule="evenodd" clip-rule="evenodd" d="M23.1436 33.0017C24.9673 33.0017 26.4591 31.5013 26.4591 29.668C26.4591 27.8342 24.9669 26.5007 23.1436 26.5007C21.3199 26.5007 19.8281 27.8342 19.8281 29.668C19.8281 31.5017 21.3203 33.0017 23.1436 33.0017Z" fill="#2B2665"/>
<path d="M45.5075 37.448C45.5075 37.448 37.7063 37.448 33.307 37.448H22.9244C21.9733 37.448 16.8273 37.448 16.8273 37.448C16.8273 37.448 16.8273 27.7553 16.8273 25.0341C16.8273 24.463 16.3643 24 15.7926 24C15.2208 24 14.7578 24.463 14.7578 25.0341V52.9645C14.7578 53.5363 15.2208 53.9996 15.7926 53.9996C16.3643 53.9996 16.8273 53.5366 16.8273 52.9645V45.2275C17.2917 45.5319 17.8727 45.7234 18.51 45.7234H59.6267C59.8512 45.7234 60.0667 45.6936 60.2751 45.6517V52.9648C60.2751 53.5366 60.7377 53.9999 61.3098 53.9999C61.8819 53.9999 62.3446 53.5369 62.3446 52.9648C62.334 48.1313 62.3446 42.9179 62.3446 37.448C56.1041 37.448 45.5075 37.448 45.5075 37.448Z" fill="#2B2665"/>
</svg>
