<svg width="78" height="78" viewBox="0 0 78 78" fill="none" xmlns="http://www.w3.org/2000/svg">
<circle cx="39" cy="39" r="39" fill="#DDE9FF"/>
<path d="M30.7359 24.0337C29.8572 24.0133 29.1032 24.5871 28.8573 25.3878L26.308 33.6413C25.5723 36.0354 29.2408 37.163 29.9764 34.7688L32.0963 27.9045L37.8946 28.0495L35.4465 42.2416L30.9948 50.2596L20.2468 50.7286C17.1196 50.8633 17.3254 55.6553 20.4531 55.5206L32.5424 54.9927C33.3467 54.9575 34.1145 54.5173 34.5346 53.7626L39.0483 45.6323L48.732 50.7792L49.3792 60.8248C49.5749 63.952 54.3676 63.6511 54.1713 60.524L53.446 49.2666C53.439 48.4124 52.9767 47.589 52.169 47.1599L43.2193 42.403L45.3023 30.3257L49.5429 34.3751C50.1657 34.9677 51.0836 35.0595 51.7974 34.6632L59.924 30.7626C62.1808 29.6832 60.5276 26.2252 58.2705 27.3045L51.2336 30.6819L45.6155 25.3535C44.6869 24.7271 41.3671 24.2993 40.0697 24.2685L30.7358 24.0343L30.7359 24.0337Z" fill="#2B2665"/>
<path fill-rule="evenodd" clip-rule="evenodd" d="M43.345 15C45.5771 15 47.3867 16.8099 47.3867 19.0417C47.3867 21.2737 45.5768 23.0834 43.345 23.0834C41.113 23.0834 39.3034 21.2734 39.3034 19.0417C39.3034 16.8097 41.1133 15 43.345 15Z" fill="#2B2665"/>
</svg>
