<svg width="78" height="78" viewBox="0 0 78 78" fill="none" xmlns="http://www.w3.org/2000/svg">
<circle cx="39" cy="39" r="39" fill="#DDE9FF"/>
<path d="M31.4992 37.6029C31.4992 40.4594 27.1562 40.4594 27.1562 37.6029V30.217C27.1562 29.3843 27.6252 28.6611 28.3132 28.2969L36.124 23.3519C36.6781 23.0031 41.3891 23.0866 41.975 24.0983L46.5907 32.052L50.048 30.6801C52.6925 29.6315 54.2869 33.6519 51.6428 34.7009L46.4499 36.7615C45.4401 37.1622 44.3088 36.7486 43.781 35.835L42.2636 33.2269V42.197L48.5185 50.4673C48.757 50.7832 48.8956 51.1431 48.9403 51.5096L50.7329 61.2854C51.2462 64.0861 46.9881 64.8663 46.4747 62.0659L44.7531 52.6771L39.0935 45.194L38.1882 52.9318C38.1529 53.2398 38.0548 53.5255 37.908 53.7771L33.3222 62.6404C32.017 65.1731 28.1657 63.1883 29.4713 60.6555L33.9253 52.0469L35.1152 41.8803V29.1147L31.4998 31.4033L31.4992 37.6029Z" fill="#2B2665"/>
<path d="M43.4476 17.4252C43.4476 19.7675 41.5486 21.6662 39.2062 21.6662C36.8638 21.6662 34.9648 19.7676 34.9648 17.4252C34.9648 15.0827 36.8638 13.1838 39.2062 13.1838C41.5486 13.1838 43.4476 15.0827 43.4476 17.4252Z" fill="#2B2665"/>
</svg>
