<svg width="78" height="78" viewBox="0 0 78 78" fill="none" xmlns="http://www.w3.org/2000/svg">
<circle cx="39" cy="39" r="39" fill="#DDE9FF"/>
<path d="M41.2992 23.4613C43.5868 23.0031 45.0739 20.7521 44.6111 18.4394C44.1462 16.1228 41.9096 14.6242 39.6211 15.0824C37.3289 15.5416 35.8475 17.7832 36.3117 20.1015C36.7742 22.4126 39.0071 23.9194 41.2993 23.4613H41.2992Z" fill="#2B2665"/>
<path d="M49.4373 36.5778H49.2191C48.6721 36.5778 48.1458 36.6532 47.6421 36.7832L40.3897 34.3111L38.0043 24.9165C37.6993 23.5204 36.2363 21.9221 34.0336 21.855C33.3136 21.8332 32.1271 22.1677 31.5316 22.8032L23.1684 31.0836C21.7938 32.3052 21.7289 34.0505 21.7188 35.2718V59.5456C21.7188 60.523 22.0583 61.3401 22.7373 62.0017C23.4167 62.6579 24.2234 62.9874 25.1586 62.9874C26.1366 62.9874 26.9638 62.6579 27.6429 62.0017C28.3223 61.3401 28.6625 60.523 28.6625 59.5456L28.6628 38.2277L34.6928 32.1511L36.7206 36.7691C36.734 36.8002 36.7555 36.8257 36.7715 36.8566C36.799 36.9119 36.8292 36.9638 36.861 37.0158C36.9153 37.1026 36.973 37.185 37.038 37.2624C37.0765 37.3077 37.1151 37.3536 37.1573 37.3962C37.2334 37.4723 37.3165 37.5393 37.403 37.604C37.4456 37.6352 37.4841 37.6697 37.529 37.6978C37.6648 37.7833 37.8079 37.8567 37.9631 37.909L43.6593 39.852C42.8515 41.1813 42.3789 42.834 42.3789 44.6714V61.8312C42.3789 62.3464 42.7962 62.765 43.3127 62.765C43.8276 62.765 44.2448 62.3464 44.2448 61.8312V50.8947H54.4125V61.8312C54.4125 62.3464 54.8298 62.765 55.3446 62.765C55.8611 62.765 56.2784 62.3464 56.2784 61.8312V44.6714C56.2777 40.0578 53.3377 36.5781 49.4375 36.5781L49.4373 36.5778ZM46.6208 40.8616C46.8457 40.938 47.073 40.9745 47.2975 40.9745C48.1693 40.9745 48.9828 40.4259 49.2807 39.5551C49.4071 39.1834 49.4161 38.803 49.3394 38.446H49.4372C52.1297 38.446 54.19 40.8596 54.3917 44.1412H44.2643C44.3535 42.711 44.7946 41.4481 45.4897 40.4758L46.6208 40.8616ZM44.2442 49.0284V46.0089H54.4119V49.0284H44.2442Z" fill="#2B2665"/>
</svg>
