<svg width="78" height="78" viewBox="0 0 78 78" fill="none" xmlns="http://www.w3.org/2000/svg">
<circle cx="39" cy="39" r="39" fill="#DDE9FF"/>
<path d="M61.2289 46.4116C60.7521 46.8037 60.094 47.0474 59.3713 47.0474H36.5378C35.0911 47.0474 33.9088 46.075 33.9088 44.8859L33.9092 41.4187H23.8651C23.7094 40.3048 23.3395 38.916 22.4786 37.706C21.1121 35.7816 18.9161 34.8739 17.9669 34.5552V29.4096C17.9669 28.8571 17.519 28.4092 16.9658 28.4092C16.4127 28.4092 15.9648 28.8571 15.9648 29.4096V56.4292C15.9648 56.9823 16.4127 57.4305 16.9658 57.4305C17.519 57.4305 17.9669 56.9826 17.9669 56.4292V48.9444C18.4161 49.2389 18.9781 49.4242 19.5947 49.4242H59.3706C59.5877 49.4242 59.7962 49.3953 59.9978 49.3548V56.4294C59.9978 56.9826 60.4453 57.4308 60.9988 57.4308C61.5522 57.4308 61.9998 56.9829 61.9998 56.4294V47.4232H61.9802C61.9848 47.3694 61.9998 47.3169 61.9998 47.2632V45.6409C61.8185 45.945 61.5545 46.208 61.2292 46.4115L61.2289 46.4116ZM17.9673 41.8984V38.1509C18.1901 38.8379 18.5098 39.5438 18.9743 40.1971C19.3047 40.6623 19.6835 41.0664 20.0816 41.4186H19.5955C18.9786 41.4186 18.4172 41.6036 17.9673 41.8984Z" fill="#2B2665"/>
<path d="M59.8363 36.9141H37.3827H32.5386C32.4277 36.9061 30.757 36.7394 30.757 34.0787V31.0503H31.758V34.0787C31.758 35.7727 32.5047 35.912 32.5362 35.9164L39.6165 35.9131C39.7078 35.7663 39.7666 35.6 39.7666 35.4124C39.7666 34.8602 39.3191 34.412 38.7656 34.412L33.9772 34.4116V30.7355C33.9772 29.5466 33.0045 28.5737 31.8154 28.5737H30.1345C28.9455 28.5737 27.9727 29.5465 27.9727 30.7355V38.2548C27.9727 38.2836 27.98 38.3095 27.9813 38.3381C27.9803 38.3647 27.9727 38.3886 27.9727 38.4158C27.9727 39.5161 28.9454 40.4169 30.1345 40.4169H35.221V43.7736C35.221 44.9625 36.1934 45.935 37.3828 45.935H59.8364C61.0249 45.935 61.9982 44.9626 61.9982 43.7736V39.0752C61.9985 37.8869 61.0254 36.9141 59.8367 36.9141L59.8363 36.9141Z" fill="#2B2665"/>
<path d="M35.0779 24.1239C35.0779 26.0871 33.4865 27.6785 31.5233 27.6785C29.5601 27.6785 27.9688 26.0871 27.9688 24.1239C27.9688 22.1607 29.5601 20.5693 31.5233 20.5693C33.4865 20.5693 35.0779 22.1607 35.0779 24.1239Z" fill="#2B2665"/>
</svg>
