<svg width="194" height="62" viewBox="0 0 194 62" fill="none" xmlns="http://www.w3.org/2000/svg">
<path d="M78.6571 43.4807H72.8437L71.2159 38.8077H60.4026L58.7748 43.4807H53L62.4954 17.5193H69.1228L78.6571 43.4807ZM65.8285 23.4163L62.108 34.0233H69.5492L65.8285 23.4163ZM97.9819 27.8298V17.5193H103.292V43.4807H97.9819V32.7253H87.9051V43.4807H82.5564V17.5193H87.9051V27.8298H97.9819ZM118.43 43.9999C115.769 43.9999 113.521 43.4314 111.687 42.2938C109.852 41.1565 108.547 39.5866 107.772 37.5837L112.345 35.0247C113.405 37.6705 115.485 38.9931 118.585 38.9931C120.032 38.9931 121.117 38.7459 121.841 38.2513C122.564 37.7568 122.926 37.0893 122.926 36.2487C122.926 35.3339 122.5 34.6291 121.647 34.1346C120.794 33.6152 119.27 33.0591 117.074 32.4657C114.697 31.7735 112.823 30.9699 111.454 30.0551C109.749 28.8435 108.896 27.0634 108.896 24.7142C108.896 22.3406 109.762 20.4738 111.493 19.114C113.224 17.7047 115.33 17 117.81 17C119.98 17 121.906 17.5068 123.585 18.5205C125.264 19.5342 126.569 20.9684 127.499 22.8229L123.004 25.3076C121.918 23.0824 120.187 21.9696 117.81 21.9696C116.725 21.9696 115.859 22.2108 115.213 22.6929C114.567 23.1751 114.244 23.7994 114.244 24.5659C114.244 25.3819 114.593 26.0494 115.291 26.5686C116.066 27.0879 117.435 27.6317 119.399 28.2005L121.259 28.7939C121.595 28.8927 122.177 29.1028 123.003 29.4244C123.778 29.6963 124.347 29.9559 124.709 30.2031C125.975 30.9449 126.827 31.7113 127.267 32.5026C127.938 33.5411 128.274 34.765 128.274 36.1744C128.274 38.5727 127.357 40.4765 125.523 41.8857C123.688 43.2951 121.324 43.9997 118.43 43.9997L118.43 43.9999ZM145.7 43.9999C141.644 43.9999 138.272 42.7018 135.585 40.1058C132.923 37.5344 131.593 34.3325 131.593 30.5002C131.593 26.6431 132.923 23.4411 135.585 20.8944C138.272 18.2983 141.644 17.0003 145.7 17.0003C148.155 17.0003 150.422 17.5504 152.502 18.6506C154.582 19.7511 156.204 21.2407 157.366 23.1198L152.754 25.6789C152.082 24.5169 151.126 23.6082 149.886 22.953C148.646 22.2978 147.25 21.9699 145.7 21.9699C143.065 21.9699 140.933 22.7612 139.305 24.3436C137.703 25.9506 136.902 28.0028 136.902 30.5002C136.902 32.9726 137.703 35.0125 139.305 36.6196C140.933 38.2019 143.065 38.9932 145.7 38.9932C147.25 38.9932 148.652 38.6656 149.905 38.0104C151.159 37.3552 152.108 36.4589 152.754 35.3214L157.366 37.8807C156.204 39.7596 154.582 41.2495 152.502 42.3496C150.422 43.4498 148.155 44 145.7 44V43.9999ZM159.793 17.5193H179.752V22.415H172.427V43.4807H167.079V22.415H159.793V17.5193V17.5193ZM182.218 19.9301L189.349 17.5193H194V43.4807H188.652V22.9341L183.536 24.3065L182.218 19.9301H182.218Z" fill="#1FC8A5"/>
<path fill-rule="evenodd" clip-rule="evenodd" d="M22.4737 0C31.1525 15.9027 44.9475 23.9019 44.9475 36.2057C44.9475 38.5446 44.5831 40.7988 43.9088 42.9169C44.8258 29.2069 28.5821 17.01 22.4737 6.09722C16.4588 17.161 -0.0672348 28.9307 1.03847 42.9165C0.364325 40.7986 0 38.5445 0 36.2058C0 23.902 14.0954 15.8069 22.4737 8.08854e-05V0Z" fill="#E52C0D"/>
<path d="M34.0656 36.5126C34.0656 39.6854 32.768 42.5584 30.6702 44.6378C28.5725 46.7174 25.6743 48.0037 22.4737 48.0037C19.273 48.0037 16.3748 46.7173 14.2771 44.6378C12.1792 42.5584 10.8816 39.6854 10.8816 36.5126C10.8816 33.3398 12.1793 30.4669 14.2771 28.3874C16.3749 26.3078 19.2731 25.0215 22.4737 25.0215V27.0267C19.831 27.0267 17.4386 28.0884 15.707 29.8049C13.9755 31.5214 12.9045 33.8931 12.9045 36.5126C12.9045 39.1323 13.9756 41.5039 15.707 43.2203C17.4386 44.9368 19.8311 45.9985 22.4737 45.9985C25.1163 45.9985 27.5088 44.9366 29.2402 43.2203C30.9716 41.504 32.0428 39.1323 32.0428 36.5126H34.0656Z" fill="#E52C0D"/>
<path fill-rule="evenodd" clip-rule="evenodd" d="M24.622 23.9071C24.622 22.0929 26.1058 20.6221 27.936 20.6221C29.7662 20.6221 31.2499 22.0929 31.2499 23.9071C31.2499 25.7214 29.7662 27.1922 27.936 27.1922C26.1058 27.1922 24.622 25.7214 24.622 23.9071ZM25.9192 23.9071C25.9192 22.8032 26.8222 21.9081 27.9359 21.9081C29.0495 21.9081 29.9525 22.8032 29.9525 23.9071C29.9525 25.0112 29.0495 25.9062 27.9359 25.9062C26.8221 25.9062 25.9192 25.0112 25.9192 23.9071Z" fill="#E52C0D"/>
<path d="M28.8494 23.9068C28.8494 23.4067 28.4405 23.0014 27.936 23.0014C27.4316 23.0014 27.0226 23.4067 27.0226 23.9068C27.0226 24.4069 27.4316 24.8123 27.936 24.8123C28.4405 24.8123 28.8494 24.4069 28.8494 23.9068Z" fill="#EE6C56"/>
<path fill-rule="evenodd" clip-rule="evenodd" d="M22.5598 39.4956C22.5598 37.8402 23.9135 36.4983 25.5836 36.4983C27.2535 36.4983 28.6072 37.8402 28.6072 39.4957C28.6072 41.1511 27.2535 42.493 25.5834 42.493C23.9135 42.493 22.5598 41.1511 22.5598 39.4956ZM23.7435 39.4956C23.7435 38.4883 24.5673 37.6717 25.5836 37.6717C26.5997 37.6717 27.4235 38.4883 27.4235 39.4957C27.4235 40.503 26.5997 41.3196 25.5834 41.3196C24.5673 41.3196 23.7435 40.503 23.7435 39.4956V39.4956Z" fill="#EE6C56"/>
<path d="M26.417 39.4956C26.417 39.0393 26.0439 38.6695 25.5836 38.6695C25.1233 38.6695 24.7502 39.0393 24.7502 39.4956C24.7502 39.9519 25.1233 40.3218 25.5836 40.3218C26.0439 40.3218 26.417 39.9519 26.417 39.4956Z" fill="#E52C0D"/>
<path d="M19.5536 33.43C19.5536 32.4779 18.775 31.7061 17.8146 31.7061C16.8542 31.7061 16.0756 32.4779 16.0756 33.43C16.0756 34.382 16.8542 35.1538 17.8146 35.1538C18.775 35.1538 19.5536 34.382 19.5536 33.43Z" fill="#E52C0D"/>
<path d="M37.6137 32.7488C37.6137 31.6251 36.6948 30.7141 35.5612 30.7141C34.4276 30.7141 33.5087 31.6251 33.5087 32.7488C33.5087 33.8725 34.4276 34.7834 35.5612 34.7834C36.6948 34.7834 37.6137 33.8725 37.6137 32.7488Z" fill="#F4AA9D"/>
<path d="M31.2953 30.6596C31.2953 30.0446 30.7924 29.546 30.1719 29.546C29.5515 29.546 29.0486 30.0446 29.0486 30.6596C29.0486 31.2746 29.5515 31.7732 30.1719 31.7732C30.7924 31.7732 31.2953 31.2746 31.2953 30.6596Z" fill="#E52C0D"/>
<path d="M25.497 29.9936C25.497 29.583 25.1612 29.2502 24.747 29.2502C24.3328 29.2502 23.997 29.583 23.997 29.9936C23.997 30.4042 24.3328 30.7371 24.747 30.7371C25.1612 30.7371 25.497 30.4042 25.497 29.9936Z" fill="#E52C0D"/>
<path d="M19.7386 21.996C19.7386 21.031 18.9494 20.2488 17.976 20.2488C17.0026 20.2488 16.2135 21.031 16.2135 21.996C16.2135 22.9609 17.0026 23.7432 17.976 23.7432C18.9494 23.7432 19.7386 22.9609 19.7386 21.996Z" fill="#E52C0D"/>
<path fill-rule="evenodd" clip-rule="evenodd" d="M42.8194 46.9956C40.2147 55.6723 32.108 62.0001 22.5091 62.0001C11.6284 62.0001 2.66472 53.8698 1.45923 43.4038C4.14789 51.4838 9.39041 56.5308 16.6122 56.8631C21.771 57.1005 24.8563 50.2749 30.0126 48.3364C31.9639 47.6028 31.917 49.2034 30.668 49.8702C28.3292 51.1191 24.5789 55.1947 25.0261 56.4089C31.2048 57.0787 39.2018 54.3762 41.4955 46.6213C41.8751 45.3379 43.0858 45.6807 42.8194 46.9956H42.8194ZM33.4757 53.6258C35.2301 51.6079 35.8681 50.2116 36.4334 48.9356C36.6752 48.3892 37.36 48.7778 37.2002 49.1504C36.3374 51.1599 35.4163 52.2322 33.4756 53.6258H33.4757ZM33.2226 54.2556C35.8907 52.8071 37.8339 49.564 38.7137 47.5242C38.9532 46.9688 39.5644 47.2255 39.4348 47.6127C38.7091 49.7783 35.9563 53.5122 33.2226 54.2556ZM33.4693 54.6382C36.7244 53.0711 39.3041 49.286 40.3479 46.8426C40.5348 46.4048 41.2287 46.5325 41.0685 46.9954C40.1725 49.5856 36.8 53.9373 33.4693 54.6382V54.6382Z" fill="#1FC8A5"/>
</svg>
