<svg width="45" height="62" viewBox="0 0 45 62" fill="none" xmlns="http://www.w3.org/2000/svg">
<path fill-rule="evenodd" clip-rule="evenodd" d="M22.4737 0C31.1525 15.9027 44.9475 23.9019 44.9475 36.2057C44.9475 38.5446 44.5831 40.7988 43.9088 42.9169C44.8258 29.2069 28.5821 17.01 22.4737 6.09722C16.4588 17.161 -0.0672348 28.9307 1.03847 42.9165C0.364325 40.7986 0 38.5445 0 36.2058C0 23.902 14.0954 15.8069 22.4737 8.08854e-05V0Z" fill="#E52C0D"/>
<path d="M34.0656 36.5126C34.0656 39.6854 32.7679 42.5584 30.6702 44.6378C28.5725 46.7174 25.6743 48.0037 22.4736 48.0037C19.273 48.0037 16.3748 46.7173 14.277 44.6378C12.1792 42.5584 10.8816 39.6854 10.8816 36.5126C10.8816 33.3398 12.1793 30.4669 14.277 28.3874C16.3749 26.3078 19.2731 25.0215 22.4736 25.0215V27.0267C19.831 27.0267 17.4385 28.0884 15.707 29.8049C13.9755 31.5214 12.9044 33.8931 12.9044 36.5126C12.9044 39.1323 13.9756 41.5039 15.707 43.2203C17.4385 44.9368 19.8311 45.9985 22.4736 45.9985C25.1163 45.9985 27.5088 44.9366 29.2402 43.2203C30.9716 41.504 32.0428 39.1323 32.0428 36.5126H34.0656Z" fill="#E52C0D"/>
<path fill-rule="evenodd" clip-rule="evenodd" d="M24.6221 23.9071C24.6221 22.0929 26.1058 20.6221 27.936 20.6221C29.7662 20.6221 31.2499 22.0929 31.2499 23.9071C31.2499 25.7214 29.7662 27.1922 27.936 27.1922C26.1058 27.1922 24.6221 25.7214 24.6221 23.9071ZM25.9193 23.9071C25.9193 22.8032 26.8222 21.9081 27.9359 21.9081C29.0495 21.9081 29.9526 22.8032 29.9526 23.9071C29.9526 25.0112 29.0495 25.9062 27.9359 25.9062C26.8221 25.9062 25.9193 25.0112 25.9193 23.9071Z" fill="#E52C0D"/>
<path d="M28.8495 23.9068C28.8495 23.4067 28.4406 23.0014 27.9361 23.0014C27.4316 23.0014 27.0227 23.4067 27.0227 23.9068C27.0227 24.4069 27.4316 24.8123 27.9361 24.8123C28.4406 24.8123 28.8495 24.4069 28.8495 23.9068Z" fill="#E52C0D"/>
<path fill-rule="evenodd" clip-rule="evenodd" d="M22.5598 39.4956C22.5598 37.8402 23.9135 36.4983 25.5836 36.4983C27.2535 36.4983 28.6072 37.8402 28.6072 39.4957C28.6072 41.1511 27.2535 42.493 25.5834 42.493C23.9135 42.493 22.5598 41.1511 22.5598 39.4956ZM23.7435 39.4956C23.7435 38.4883 24.5673 37.6717 25.5836 37.6717C26.5997 37.6717 27.4235 38.4883 27.4235 39.4957C27.4235 40.503 26.5997 41.3196 25.5834 41.3196C24.5673 41.3196 23.7435 40.503 23.7435 39.4956V39.4956Z" fill="#E52C0D"/>
<path d="M26.4171 39.4956C26.4171 39.0393 26.0439 38.6695 25.5837 38.6695C25.1234 38.6695 24.7502 39.0393 24.7502 39.4956C24.7502 39.9519 25.1234 40.3218 25.5837 40.3218C26.0439 40.3218 26.4171 39.9519 26.4171 39.4956Z" fill="#E52C0D"/>
<path d="M19.5536 33.43C19.5536 32.4779 18.7751 31.7061 17.8147 31.7061C16.8542 31.7061 16.0757 32.4779 16.0757 33.43C16.0757 34.382 16.8542 35.1538 17.8147 35.1538C18.7751 35.1538 19.5536 34.382 19.5536 33.43Z" fill="#E52C0D"/>
<path d="M37.6139 32.7488C37.6139 31.6251 36.6949 30.7141 35.5613 30.7141C34.4277 30.7141 33.5088 31.6251 33.5088 32.7488C33.5088 33.8725 34.4277 34.7834 35.5613 34.7834C36.6949 34.7834 37.6139 33.8725 37.6139 32.7488Z" fill="#E52C0D"/>
<path d="M31.2953 30.6596C31.2953 30.0446 30.7924 29.546 30.172 29.546C29.5515 29.546 29.0486 30.0446 29.0486 30.6596C29.0486 31.2746 29.5515 31.7732 30.172 31.7732C30.7924 31.7732 31.2953 31.2746 31.2953 30.6596Z" fill="#E52C0D"/>
<path d="M25.497 29.9936C25.497 29.583 25.1612 29.2502 24.747 29.2502C24.3328 29.2502 23.9971 29.583 23.9971 29.9936C23.9971 30.4042 24.3328 30.7371 24.747 30.7371C25.1612 30.7371 25.497 30.4042 25.497 29.9936Z" fill="#E52C0D"/>
<path d="M19.7385 21.996C19.7385 21.031 18.9494 20.2488 17.9759 20.2488C17.0025 20.2488 16.2134 21.031 16.2134 21.996C16.2134 22.9609 17.0025 23.7432 17.9759 23.7432C18.9494 23.7432 19.7385 22.9609 19.7385 21.996Z" fill="#E52C0D"/>
<path fill-rule="evenodd" clip-rule="evenodd" d="M42.8194 46.9956C40.2147 55.6723 32.108 62.0001 22.5091 62.0001C11.6284 62.0001 2.66472 53.8698 1.45923 43.4038C4.14789 51.4838 9.39041 56.5308 16.6122 56.8631C21.771 57.1005 24.8563 50.2749 30.0126 48.3364C31.9639 47.6028 31.917 49.2034 30.668 49.8702C28.3292 51.1191 24.5789 55.1947 25.0261 56.4089C31.2048 57.0787 39.2018 54.3762 41.4955 46.6213C41.8751 45.3379 43.0858 45.6807 42.8194 46.9956H42.8194ZM33.4757 53.6258C35.2301 51.6079 35.8681 50.2116 36.4334 48.9356C36.6752 48.3892 37.36 48.7778 37.2002 49.1504C36.3374 51.1599 35.4163 52.2322 33.4756 53.6258H33.4757ZM33.2226 54.2556C35.8907 52.8071 37.8339 49.564 38.7137 47.5242C38.9532 46.9688 39.5644 47.2255 39.4348 47.6127C38.7091 49.7783 35.9563 53.5122 33.2226 54.2556ZM33.4693 54.6382C36.7244 53.0711 39.3041 49.286 40.3479 46.8426C40.5348 46.4048 41.2287 46.5325 41.0685 46.9954C40.1725 49.5856 36.8 53.9373 33.4693 54.6382V54.6382Z" fill="#4470B7"/>
</svg>
