<svg width="26" height="26" viewBox="0 0 26 26" fill="none" xmlns="http://www.w3.org/2000/svg">
<path fill-rule="evenodd" clip-rule="evenodd" d="M13 26C20.1797 26 26 20.1797 26 13C26 5.8203 20.1797 0 13 0C5.8203 0 0 5.8203 0 13C0 20.1797 5.8203 26 13 26ZM5.06733 12.9288C5.07067 5.93827 13.554 2.34434 18.68 7.29958L18.67 7.32558C20.1733 8.82289 21 10.8155 21 12.9328C20.9973 18.9654 14.4933 22.7453 9.22333 19.8987L5 21L6.13067 16.8921C5.43333 15.6888 5.06733 14.3261 5.06733 12.9288ZM9.66 18.58C14.078 21.1773 19.664 17.9994 19.668 12.9108C19.668 11.1508 18.9787 9.49021 17.7287 8.2509C16.478 7.00092 14.8173 6.31093 13.048 6.31093C7.84 6.31093 4.68133 12.0308 7.43067 16.4074L7.59 16.6574L6.92 19.0874L9.42 18.4374L9.66 18.58ZM16.6653 14.5881L16.6713 14.5381L16.7332 14.5658C16.8984 14.6393 17.0073 14.6878 17.0513 14.7681C17.1013 14.8581 17.1013 15.2481 16.9313 15.7181C16.7653 16.1881 15.97 16.6081 15.5873 16.6687C15.244 16.7181 14.81 16.7394 14.334 16.5881C12.5713 15.9828 11.6073 15.5468 9.798 13.1788C8.87733 11.8815 8.606 10.6615 9.682 9.47887C9.92933 9.22155 10.21 9.21621 10.594 9.24955C10.6061 9.24955 10.6186 9.24907 10.6315 9.24858H10.6315H10.6315C10.7496 9.24409 10.8977 9.23845 11.042 9.58954C11.1151 9.76083 11.2326 10.0454 11.3458 10.3195L11.3458 10.3195C11.4908 10.6704 11.6286 11.004 11.6567 11.0602C11.706 11.1595 11.74 11.2695 11.6733 11.4095C11.5165 11.7063 11.3532 11.8865 11.2313 12.0209C11.0641 12.2054 10.975 12.3037 11.088 12.4988C11.2053 12.6988 11.6027 13.3488 12.1947 13.8788C12.8308 14.4479 13.3842 14.6878 13.665 14.8095L13.665 14.8095L13.6652 14.8096C13.7198 14.8333 13.7641 14.8525 13.7967 14.8688C13.9947 14.9588 14.1107 14.9488 14.2273 14.8188C14.3427 14.6868 14.7253 14.2408 14.8567 14.0441C15.0361 13.7749 15.1833 13.8484 16.4468 14.4791L16.6653 14.5881Z" fill="#EEEEEE"/>
</svg>
