<svg width="26" height="26" viewBox="0 0 26 26" fill="none" xmlns="http://www.w3.org/2000/svg">
<path fill-rule="evenodd" clip-rule="evenodd" d="M13 26C20.1797 26 26 20.1797 26 13C26 5.8203 20.1797 0 13 0C5.8203 0 0 5.8203 0 13C0 20.1797 5.8203 26 13 26ZM11.0136 19.1975L11.2783 15.5679L18.0964 9.59895C18.3931 9.34285 18.0324 9.20115 17.6358 9.45725L9.20689 14.5994L5.57813 13.4989C4.78878 13.2604 4.77411 12.7339 5.7428 12.3673L19.9365 7.06916C20.5938 6.83061 21.1685 7.21086 20.9545 8.18326L20.9538 8.18391L18.5391 19.2157C18.3571 19.9943 17.8818 20.1874 17.2071 19.8208L13.5283 17.1942L11.7529 18.8484C11.5563 19.0389 11.3923 19.1975 11.0136 19.1975Z" fill="#EEEEEE"/>
</svg>
