<svg width="24" height="24" viewBox="0 0 24 24" fill="none" xmlns="http://www.w3.org/2000/svg">
<path d="M20 10.999H22C22 5.869 18.127 2 12.99 2V4C17.052 4 20 6.943 20 10.999Z" fill="#FEFEFE"/>
<path d="M10.0003 10.8147C12.1033 10.8147 13.0003 11.7117 13.0003 13.8147H15.0003C15.0003 10.5897 13.2253 8.81469 10.0003 8.81469V10.8147ZM13.4223 16.2577C13.2301 16.083 12.9776 15.9899 12.7181 15.9979C12.4585 16.0059 12.2123 16.1145 12.0313 16.3007L9.63828 18.7617C9.06228 18.6517 7.90428 18.2907 6.71228 17.1017C5.52028 15.9087 5.15928 14.7477 5.05228 14.1757L7.51128 11.7817C7.69769 11.6008 7.80642 11.3545 7.81444 11.0949C7.82247 10.8353 7.72917 10.5827 7.55428 10.3907L3.85928 6.32769C3.68432 6.13505 3.44116 6.0182 3.18143 6.00195C2.92171 5.98571 2.66588 6.07135 2.46828 6.24069L0.298282 8.10169C0.125393 8.27521 0.0222015 8.50614 0.00828196 8.75069C-0.00671804 9.00069 -0.292718 14.9227 4.29928 19.5167C8.30528 23.5217 13.3233 23.8147 14.7053 23.8147C14.9073 23.8147 15.0313 23.8087 15.0643 23.8067C15.3088 23.793 15.5396 23.6894 15.7123 23.5157L17.5723 21.3447C17.7417 21.1472 17.8276 20.8915 17.8115 20.6317C17.7954 20.372 17.6788 20.1288 17.4863 19.9537L13.4223 16.2577Z" fill="#FEFEFE"/>
</svg>
