<svg width="78" height="78" viewBox="0 0 78 78" fill="none" xmlns="http://www.w3.org/2000/svg">
<circle cx="39" cy="39" r="39" fill="#DDE9FF"/>
<path d="M59.4753 36.0939C62.6077 35.873 62.9433 40.6355 59.8116 40.8563L51.0836 41.4996C49.7685 41.5923 48.6269 40.6017 48.5343 39.2865C48.4698 38.3745 48.609 37.0638 48.6452 36.1121L44.4568 39.9722L52.5411 48.3481C53.9655 49.829 52.9608 52.2647 50.9624 52.3812L36.792 53.7426C33.672 54.0372 33.2241 49.2936 36.3437 48.9987L45.676 48.1022L39.3885 41.5879C39.2097 41.4153 39.0588 41.2162 38.9413 40.997L21.6439 58.4055C19.4329 60.6289 16.0524 57.2671 18.2635 55.044L45.1692 27.9663L42.2977 25.0148L38.0372 28.9021C35.7187 31.0122 32.5063 27.4821 34.8249 25.372L40.7888 19.9307C41.7636 19.0438 43.2727 19.1148 44.16 20.0896L50.2215 26.3212C51.7151 27.8569 53.676 29.2214 53.5926 31.4155L53.398 36.5422L59.4753 36.0939ZM56.2754 18C53.6968 18 51.6063 20.0904 51.6063 22.6691C51.6063 25.2479 53.6967 27.3383 56.2754 27.3383C58.8542 27.3383 60.9446 25.2479 60.9446 22.6691C60.9446 20.0901 58.8542 18 56.2754 18Z" fill="#2B2665"/>
<rect x="16" y="25.0061" width="11.7562" height="3.20623" rx="1.60311" fill="#2B2665"/>
<rect x="18.4922" y="30.825" width="11.7562" height="3.20623" rx="1.60311" fill="#2B2665"/>
<rect x="16" y="36.5249" width="11.7562" height="3.20623" rx="1.60311" fill="#2B2665"/>
</svg>
