<svg width="78" height="78" viewBox="0 0 78 78" fill="none" xmlns="http://www.w3.org/2000/svg">
<circle cx="39" cy="39" r="39" fill="#DDE9FF"/>
<path d="M58.7946 37.0344C61.9167 36.8143 62.2512 41.5611 59.1298 41.7813L50.4305 42.4224C49.1196 42.5148 47.9818 41.5274 47.8895 40.2166C47.8253 39.3075 47.964 38.0012 48.0001 37.0526L43.8254 40.9001L51.8832 49.2484C53.3029 50.7244 52.3015 53.1521 50.3097 53.2682L36.1858 54.6251C33.0761 54.9188 32.6296 50.1908 35.739 49.8969L45.0406 49.0033L38.7738 42.5104C38.5956 42.3384 38.4451 42.1399 38.328 41.9215L21.0875 59.2728C18.8838 61.4889 15.5143 58.1381 17.7182 55.9223L44.5355 28.9336L41.6734 25.9918L37.4269 29.8663C35.116 31.9694 31.9142 28.451 34.2251 26.3478L40.1695 20.9244C41.141 20.0404 42.6452 20.1112 43.5296 21.0827L49.5711 27.2939C51.0599 28.8245 53.0143 30.1845 52.9312 32.3715L52.7372 37.4813L58.7946 37.0344ZM55.6052 19C53.0351 19 50.9514 21.0835 50.9514 23.6538C50.9514 26.2241 53.035 28.3076 55.6052 28.3076C58.1755 28.3076 60.259 26.2241 60.259 23.6538C60.259 21.0833 58.1755 19 55.6052 19Z" fill="#2B2665"/>
</svg>
