<svg width="78" height="78" viewBox="0 0 78 78" fill="none" xmlns="http://www.w3.org/2000/svg">
<circle cx="39" cy="39" r="39" fill="#DDE9FF"/>
<path d="M29.724 45.1029C29.7585 45.1029 29.7933 45.1018 29.8285 45.1C30.7955 45.043 31.5333 44.2131 31.4771 43.2464C31.3911 41.7879 31.3519 40.4595 31.3519 39.251C31.3447 33.9417 32.1184 30.9594 32.879 29.4024V62.2892C32.879 63.7865 34.093 64.9998 35.5896 64.9998C37.0866 64.9998 38.3006 63.7869 38.3006 62.2892V42.4983H39.317V62.2892C39.317 63.7865 40.531 64.9998 42.0276 64.9998C43.5246 64.9998 44.7386 63.7869 44.7386 62.2892L44.7379 29.4117C44.8677 29.6779 44.9987 29.9841 45.1278 30.3407C45.7459 32.0534 46.2657 34.8639 46.2638 39.2503C46.2642 40.4594 46.225 41.7872 46.1402 43.2454C46.0839 44.2124 46.8221 45.0424 47.7891 45.0986C47.824 45.1004 47.8588 45.1015 47.8932 45.1015C48.8153 45.1015 49.5879 44.3818 49.6427 43.4496C49.7308 41.9302 49.7725 40.534 49.7725 39.2503C49.7638 32.633 48.7065 28.9708 47.2654 26.7682C46.5457 25.6753 45.7027 24.9746 44.9243 24.5857C44.1807 24.211 43.5274 24.1243 43.131 24.1181C43.102 24.1167 43.0737 24.1138 43.0443 24.1138H34.5731C34.5474 24.1138 34.5223 24.1163 34.4962 24.1178C34.1009 24.1225 33.4418 24.2074 32.6916 24.5853C31.5124 25.1704 30.241 26.4494 29.3516 28.7164C28.4517 30.9918 27.847 34.2822 27.8438 39.2503C27.8441 40.534 27.8851 41.9305 27.9743 43.4506C28.0287 44.3825 28.8021 45.1018 29.7238 45.1021L29.724 45.1029Z" fill="#2B2665"/>
<path d="M43.7408 17.9331C43.7408 20.6572 41.5322 22.8658 38.8077 22.8658C36.0833 22.8658 33.875 20.6572 33.875 17.9331C33.875 15.2086 36.0833 13 38.8077 13C41.5322 13 43.7408 15.2086 43.7408 17.9331Z" fill="#2B2665"/>
</svg>
