<svg width="78" height="78" viewBox="0 0 78 78" fill="none" xmlns="http://www.w3.org/2000/svg">
<circle cx="39" cy="39" r="39" fill="#DDE9FF"/>
<path d="M47.4395 18.1602C47.4395 21.01 45.1322 23.3204 42.2859 23.3204C39.4401 23.3204 37.1328 21.0101 37.1328 18.1602C37.1328 15.3104 39.4401 13 42.2859 13C45.1322 13 47.4395 15.3104 47.4395 18.1602Z" fill="#2B2665"/>
<path d="M48.9673 61.0342V38.4294C48.967 36.9273 48.2229 35.523 46.9808 34.6789C46.475 33.9976 45.8981 33.372 45.2601 32.8128C44.8271 32.4698 44.4596 32.052 44.1747 31.5785C44.096 31.3357 43.9654 30.6938 43.8781 30.2616C43.387 27.8404 42.7755 24.82 40.0805 24.0112C37.0775 23.1105 34.1541 25.1247 33.1665 27.508L28.8793 37.8466C28.2206 39.4481 28.3352 41.2634 29.1895 42.7698L31.8865 47.488C32.1324 47.9199 32.1543 48.4437 31.9454 48.8947L27.6375 60.2459C27.3421 61.0052 27.3624 61.8513 27.6936 62.5953C28.0249 63.3397 28.6399 63.9208 29.4019 64.2093C30.1638 64.4981 31.0095 64.47 31.7508 64.1317C32.4921 63.7938 33.0674 63.1733 33.3488 62.409L37.5331 51.359L37.5335 51.3587C38.5223 49.1352 38.3941 46.5738 37.1886 44.4598L36.6391 43.4995L39.7059 35.8367C39.9102 36.0904 40.1144 36.3196 40.3151 36.5269C40.0364 37.1225 39.8918 37.7721 39.8911 38.4296V39.9115C39.8829 40.3215 40.04 40.7179 40.3272 41.011C40.6144 41.3037 41.0073 41.4689 41.4173 41.4689C41.8277 41.4689 42.2206 41.3037 42.5079 41.011C42.7951 40.7179 42.9522 40.3215 42.944 39.9115V39.4956C43.7566 40.21 44.8865 40.4411 45.9145 40.1028V61.0344C45.5221 61.437 45.305 61.978 45.3097 62.54C45.3147 63.102 45.5412 63.6395 45.9407 64.035C46.3398 64.4306 46.8788 64.6528 47.4408 64.6528C48.0032 64.6528 48.5422 64.4306 48.9413 64.035C49.3404 63.6394 49.5672 63.102 49.5723 62.54C49.5769 61.978 49.3598 61.437 48.9674 61.0344L48.9673 61.0342Z" fill="#2B2665"/>
</svg>
