<svg width="78" height="78" viewBox="0 0 78 78" fill="none" xmlns="http://www.w3.org/2000/svg">
<circle cx="39" cy="39" r="39" fill="#DDE9FF"/>
<path d="M34.5962 58.0575C28.9424 58.0575 24.3269 53.442 24.3269 47.7882C24.3269 45.3076 25.2501 42.9997 26.6924 41.2113L26.1153 35.9036C22.423 38.5576 20 42.8846 20 47.7882C20 55.865 26.5189 62.3844 34.5962 62.3844C38.6346 62.3844 42.2118 60.769 44.8655 58.1151L43.2501 53.269C41.4617 56.1536 38.2305 58.0575 34.5962 58.0575H34.5962Z" fill="#2B2665"/>
<path d="M40.1355 21.5383C40.1355 24.5971 37.6562 27.077 34.5973 27.077C31.5384 27.077 29.0586 24.5972 29.0586 21.5383C29.0586 18.4794 31.5383 16 34.5973 16C37.6561 16 40.1355 18.4793 40.1355 21.5383Z" fill="#2B2665"/>
<path d="M56.1158 55.2307H54.5005L50.9236 44.4422C50.5196 43.2885 49.4237 42.4808 48.2121 42.4808H40.3659L39.9619 39.1346H44.5194C46.1348 39.1346 47.404 37.8654 47.404 36.25C47.404 34.6346 46.1348 33.3654 44.5194 33.3654H39.3272L39.1542 31.6345C38.9812 30.1922 37.7695 29.0959 36.2696 29.0959H32.9809C32.1732 29.0959 31.3655 29.442 30.8464 30.0767C30.3272 30.7113 30.0387 31.519 30.1542 32.3267L31.5965 45.7113C31.7696 47.1536 32.9812 48.3074 34.4811 48.3074H46.135L49.7118 59.0959C50.1159 60.2496 51.2117 61.0573 52.4234 61.0573H56.1157C57.7311 61.0573 59.0003 59.7881 59.0003 58.1727C59.0003 56.5577 57.6735 55.2305 56.1157 55.2305L56.1158 55.2307Z" fill="#2B2665"/>
</svg>
