<svg width="109" height="30" viewBox="0 0 109 30" fill="none" xmlns="http://www.w3.org/2000/svg">
<path d="M19.6523 21.5769H15.1994L13.9526 17.7692H5.67005L4.42325 21.5769H0L7.27304 0.423099H12.3494L19.6523 21.5769ZM9.82609 5.22807L6.97631 13.8709H12.676L9.82609 5.22807ZM34.4542 8.82425V0.423099H38.5213V21.5769H34.4542V12.8132H26.7358V21.5769H22.6389V0.423099H26.7358V8.82425H34.4542ZM50.1168 21.9999C48.0783 21.9999 46.3566 21.5367 44.9515 20.6098C43.5462 19.6831 42.5469 18.4039 41.9531 16.7719L45.4561 14.6868C46.2675 16.8426 47.8606 17.9203 50.2355 17.9203C51.3437 17.9203 52.1749 17.7189 52.7292 17.3159C53.2833 16.913 53.5605 16.369 53.5605 15.6841C53.5605 14.9387 53.2339 14.3644 52.5808 13.9615C51.9277 13.5383 50.76 13.0852 49.0778 12.6017C47.2569 12.0376 45.8222 11.3828 44.7733 10.6375C43.4671 9.65024 42.8139 8.19981 42.8139 6.28565C42.8139 4.3516 43.4769 2.8305 44.8029 1.72255C46.1289 0.574183 47.7418 0 49.6417 0C51.3042 0 52.7787 0.41294 54.065 1.23893C55.3515 2.06492 56.3509 3.2335 57.0634 4.74455L53.6198 6.76916C52.7886 4.95605 51.4626 4.04933 49.6417 4.04933C48.8107 4.04933 48.1477 4.2458 47.6528 4.63864C47.158 5.03159 46.9105 5.54028 46.9105 6.16483C46.9105 6.82968 47.1777 7.37361 47.7121 7.7966C48.3059 8.21981 49.3548 8.6629 50.8589 9.12631L52.2837 9.60982C52.541 9.69034 52.9863 9.86152 53.6196 10.1236C54.2133 10.3451 54.6488 10.5566 54.9259 10.7581C55.8955 11.3625 56.5486 11.987 56.885 12.6317C57.3996 13.4779 57.657 14.4752 57.657 15.6236C57.657 17.5777 56.9544 19.129 55.5492 20.2772C54.1441 21.4256 52.3333 21.9999 50.1168 21.9999ZM71.0043 21.9999C67.8972 21.9999 65.3145 20.9422 63.2563 18.8269C61.2178 16.7317 60.1987 14.1228 60.1987 11.0002C60.1987 7.85733 61.2178 5.24827 63.2563 3.17319C65.3145 1.05791 67.8972 0.000216354 71.0043 0.000216354C72.8846 0.000216354 74.6211 0.448496 76.2145 1.34495C77.8076 2.24162 79.0495 3.45537 79.94 4.98652L76.4073 7.07166C75.8927 6.12484 75.1605 5.38445 74.2105 4.85057C73.2606 4.3167 72.1918 4.04955 71.0043 4.04955C68.9858 4.04955 67.353 4.6943 66.1062 5.9837C64.879 7.29309 64.2656 8.96528 64.2656 11.0002C64.2656 13.0147 64.879 14.6769 66.1062 15.9864C67.353 17.2757 68.9858 17.9204 71.0043 17.9204C72.1918 17.9204 73.2654 17.6535 74.2254 17.1196C75.1853 16.5857 75.9124 15.8554 76.4073 14.9286L79.94 17.0139C79.0495 18.5448 77.8076 19.7588 76.2145 20.6553C74.6211 21.5517 72.8847 21.9999 71.0043 21.9999ZM81.7985 0.423099H97.087V4.41223H91.4763V21.5769H87.3796V4.41223H81.7985V0.423099ZM98.9754 2.38751L104.438 0.423099H108V21.5769H103.903V4.83522L99.9848 5.95344L98.9754 2.38751Z" fill="#09193E"/>
<path d="M0.281285 28V24.7636H0.965536V26.099H2.35458V24.7636H3.03725V28H2.35458V26.6631H0.965536V28H0.281285ZM3.6014 28V24.7636H5.78216V25.3278H4.28565V26.099H5.66996V26.6631H4.28565V27.4358H5.78848V28H3.6014ZM6.32616 24.7636H7.17001L8.06128 26.9381H8.09921L8.99047 24.7636H9.83433V28H9.17062V25.8935H9.14375L8.30622 27.9842H7.85427L7.01673 25.8856H6.98987V28H6.32616V24.7636ZM10.9559 28H10.2227L11.3399 24.7636H12.2217L13.3374 28H12.6041L11.7934 25.5032H11.7682L10.9559 28ZM10.9101 26.7279H12.642V27.262H10.9101V26.7279ZM13.2082 25.3278V24.7636H15.8662V25.3278H14.8753V28H14.199V25.3278H13.2082ZM19.1302 26.3818C19.1302 26.7347 19.0633 27.035 18.9295 27.2826C18.7967 27.5301 18.6155 27.7192 18.3859 27.8499C18.1573 27.9795 17.9002 28.0442 17.6147 28.0442C17.3271 28.0442 17.069 27.9789 16.8404 27.8483C16.6118 27.7177 16.4311 27.5286 16.2984 27.281C16.1656 27.0334 16.0992 26.7337 16.0992 26.3818C16.0992 26.0289 16.1656 25.7286 16.2984 25.4811C16.4311 25.2335 16.6118 25.0449 16.8404 24.9153C17.069 24.7847 17.3271 24.7194 17.6147 24.7194C17.9002 24.7194 18.1573 24.7847 18.3859 24.9153C18.6155 25.0449 18.7967 25.2335 18.9295 25.4811C19.0633 25.7286 19.1302 26.0289 19.1302 26.3818ZM18.4364 26.3818C18.4364 26.1532 18.4022 25.9604 18.3337 25.8034C18.2663 25.6465 18.171 25.5274 18.0477 25.4463C17.9244 25.3652 17.7801 25.3246 17.6147 25.3246C17.4493 25.3246 17.305 25.3652 17.1817 25.4463C17.0585 25.5274 16.9626 25.6465 16.8941 25.8034C16.8267 25.9604 16.793 26.1532 16.793 26.3818C16.793 26.6104 16.8267 26.8032 16.8941 26.9602C16.9626 27.1172 17.0585 27.2362 17.1817 27.3173C17.305 27.3984 17.4493 27.439 17.6147 27.439C17.7801 27.439 17.9244 27.3984 18.0477 27.3173C18.171 27.2362 18.2663 27.1172 18.3337 26.9602C18.4022 26.8032 18.4364 26.6104 18.4364 26.3818ZM19.637 28V24.7636H20.9139C21.1594 24.7636 21.3685 24.8105 21.5413 24.9043C21.714 24.997 21.8457 25.126 21.9363 25.2914C22.028 25.4558 22.0738 25.6454 22.0738 25.8603C22.0738 26.0752 22.0274 26.2649 21.9347 26.4292C21.842 26.5936 21.7077 26.7216 21.5318 26.8132C21.3569 26.9049 21.1451 26.9507 20.8965 26.9507H20.0827V26.4024H20.7859C20.9176 26.4024 21.0261 26.3797 21.1114 26.3344C21.1978 26.2881 21.2621 26.2243 21.3042 26.1432C21.3474 26.061 21.369 25.9667 21.369 25.8603C21.369 25.7529 21.3474 25.6591 21.3042 25.579C21.2621 25.4979 21.1978 25.4352 21.1114 25.391C21.025 25.3457 20.9155 25.323 20.7827 25.323H20.3213V28H19.637ZM25.4923 26.3818C25.4923 26.7347 25.4254 27.035 25.2916 27.2826C25.1589 27.5301 24.9777 27.7192 24.748 27.8499C24.5194 27.9795 24.2623 28.0442 23.9768 28.0442C23.6892 28.0442 23.4311 27.9789 23.2025 27.8483C22.9739 27.7177 22.7932 27.5286 22.6605 27.281C22.5277 27.0334 22.4614 26.7337 22.4614 26.3818C22.4614 26.0289 22.5277 25.7286 22.6605 25.4811C22.7932 25.2335 22.9739 25.0449 23.2025 24.9153C23.4311 24.7847 23.6892 24.7194 23.9768 24.7194C24.2623 24.7194 24.5194 24.7847 24.748 24.9153C24.9777 25.0449 25.1589 25.2335 25.2916 25.4811C25.4254 25.7286 25.4923 26.0289 25.4923 26.3818ZM24.7986 26.3818C24.7986 26.1532 24.7643 25.9604 24.6958 25.8034C24.6284 25.6465 24.5331 25.5274 24.4098 25.4463C24.2866 25.3652 24.1422 25.3246 23.9768 25.3246C23.8114 25.3246 23.6671 25.3652 23.5438 25.4463C23.4206 25.5274 23.3247 25.6465 23.2562 25.8034C23.1888 25.9604 23.1551 26.1532 23.1551 26.3818C23.1551 26.6104 23.1888 26.8032 23.2562 26.9602C23.3247 27.1172 23.4206 27.2362 23.5438 27.3173C23.6671 27.3984 23.8114 27.439 23.9768 27.439C24.1422 27.439 24.2866 27.3984 24.4098 27.3173C24.5331 27.2362 24.6284 27.1172 24.6958 26.9602C24.7643 26.8032 24.7986 26.6104 24.7986 26.3818ZM26.6834 24.7636V28H25.9992V24.7636H26.6834ZM27.2464 28V24.7636H29.4271V25.3278H27.9306V26.099H29.3149V26.6631H27.9306V27.4358H29.4334V28H27.2464ZM29.8479 25.3278V24.7636H32.5059V25.3278H31.515V28H30.8387V25.3278H29.8479ZM33.6278 24.7636V28H32.9436V24.7636H33.6278ZM37.0463 25.8967H36.3542C36.3415 25.8071 36.3157 25.7276 36.2767 25.6581C36.2378 25.5875 36.1877 25.5274 36.1266 25.4779C36.0655 25.4284 35.9949 25.3905 35.9149 25.3641C35.8359 25.3378 35.75 25.3246 35.6573 25.3246C35.4898 25.3246 35.3439 25.3662 35.2196 25.4495C35.0952 25.5316 34.9988 25.6517 34.9304 25.8098C34.8619 25.9667 34.8276 26.1574 34.8276 26.3818C34.8276 26.6125 34.8619 26.8064 34.9304 26.9634C34.9999 27.1203 35.0968 27.2388 35.2211 27.3189C35.3454 27.399 35.4892 27.439 35.6525 27.439C35.7442 27.439 35.829 27.4269 35.907 27.4027C35.986 27.3784 36.056 27.3431 36.1171 27.2968C36.1782 27.2494 36.2288 27.192 36.2688 27.1245C36.3099 27.0571 36.3384 26.9802 36.3542 26.8938L37.0463 26.897C37.0284 27.0455 36.9836 27.1888 36.912 27.3268C36.8414 27.4638 36.7461 27.5865 36.626 27.695C36.5069 27.8025 36.3647 27.8878 36.1993 27.951C36.035 28.0132 35.849 28.0442 35.6415 28.0442C35.3528 28.0442 35.0947 27.9789 34.8672 27.8483C34.6407 27.7177 34.4616 27.5286 34.3299 27.281C34.1992 27.0334 34.1339 26.7337 34.1339 26.3818C34.1339 26.0289 34.2003 25.7286 34.333 25.4811C34.4658 25.2335 34.6459 25.0449 34.8735 24.9153C35.101 24.7847 35.357 24.7194 35.6415 24.7194C35.829 24.7194 36.0028 24.7457 36.163 24.7984C36.3241 24.8511 36.4669 24.928 36.5912 25.0291C36.7155 25.1292 36.8167 25.2519 36.8946 25.3973C36.9736 25.5427 37.0242 25.7092 37.0463 25.8967ZM40.3226 25.6944C40.31 25.5669 40.2557 25.4679 40.1598 25.3973C40.064 25.3267 39.9339 25.2914 39.7695 25.2914C39.6578 25.2914 39.5635 25.3072 39.4866 25.3388C39.4097 25.3694 39.3507 25.4121 39.3097 25.4669C39.2696 25.5216 39.2496 25.5838 39.2496 25.6533C39.2475 25.7113 39.2596 25.7618 39.2859 25.805C39.3133 25.8482 39.3507 25.8856 39.3981 25.9172C39.4456 25.9478 39.5003 25.9746 39.5625 25.9978C39.6246 26.0199 39.691 26.0389 39.7616 26.0547L40.0524 26.1242C40.1935 26.1558 40.3231 26.198 40.4411 26.2507C40.5591 26.3033 40.6613 26.3681 40.7477 26.445C40.8341 26.5219 40.901 26.6125 40.9484 26.7168C40.9968 26.8211 41.0216 26.9407 41.0226 27.0756C41.0216 27.2736 40.971 27.4453 40.8709 27.5907C40.7719 27.735 40.6286 27.8472 40.4411 27.9273C40.2546 28.0063 40.0297 28.0458 39.7663 28.0458C39.5051 28.0458 39.2775 28.0058 39.0837 27.9257C38.8909 27.8457 38.7402 27.7271 38.6317 27.5702C38.5243 27.4121 38.4679 27.2167 38.4626 26.9839H39.1248C39.1321 27.0924 39.1632 27.183 39.218 27.2557C39.2738 27.3273 39.3481 27.3816 39.4408 27.4185C39.5346 27.4543 39.6405 27.4722 39.7584 27.4722C39.8743 27.4722 39.9749 27.4553 40.0603 27.4216C40.1467 27.3879 40.2136 27.341 40.261 27.281C40.3084 27.2209 40.3321 27.1519 40.3321 27.074C40.3321 27.0013 40.3105 26.9402 40.2673 26.8907C40.2251 26.8411 40.163 26.799 40.0808 26.7642C39.9997 26.7295 39.9001 26.6979 39.7821 26.6694L39.4297 26.5809C39.1569 26.5146 38.9415 26.4108 38.7834 26.2696C38.6254 26.1285 38.5469 25.9383 38.548 25.6991C38.5469 25.5032 38.5991 25.332 38.7044 25.1856C38.8108 25.0391 38.9567 24.9248 39.1421 24.8426C39.3276 24.7605 39.5383 24.7194 39.7742 24.7194C40.0144 24.7194 40.2241 24.7605 40.4032 24.8426C40.5833 24.9248 40.7235 25.0391 40.8235 25.1856C40.9236 25.332 40.9752 25.5016 40.9784 25.6944H40.3226ZM41.3596 25.3278V24.7636H44.0176V25.3278H43.0268V28H42.3505V25.3278H41.3596ZM44.4554 28V24.7636H46.6361V25.3278H45.1396V26.099H46.5239V26.6631H45.1396V27.4358H46.6424V28H44.4554ZM47.1801 24.7636H48.024L48.9152 26.9381H48.9532L49.8444 24.7636H50.6883V28H50.0246V25.8935H49.9977L49.1602 27.9842H48.7082L47.8707 25.8856H47.8438V28H47.1801V24.7636ZM55.1375 25.8967H54.4453C54.4327 25.8071 54.4069 25.7276 54.3679 25.6581C54.3289 25.5875 54.2789 25.5274 54.2178 25.4779C54.1567 25.4284 54.0861 25.3905 54.006 25.3641C53.927 25.3378 53.8412 25.3246 53.7484 25.3246C53.5809 25.3246 53.435 25.3662 53.3107 25.4495C53.1864 25.5316 53.09 25.6517 53.0215 25.8098C52.9531 25.9667 52.9188 26.1574 52.9188 26.3818C52.9188 26.6125 52.9531 26.8064 53.0215 26.9634C53.0911 27.1203 53.188 27.2388 53.3123 27.3189C53.4366 27.399 53.5804 27.439 53.7437 27.439C53.8354 27.439 53.9202 27.4269 53.9981 27.4027C54.0771 27.3784 54.1472 27.3431 54.2083 27.2968C54.2694 27.2494 54.32 27.192 54.36 27.1245C54.4011 27.0571 54.4295 26.9802 54.4453 26.8938L55.1375 26.897C55.1196 27.0455 55.0748 27.1888 55.0032 27.3268C54.9326 27.4638 54.8372 27.5865 54.7171 27.695C54.5981 27.8025 54.4559 27.8878 54.2905 27.951C54.1261 28.0132 53.9402 28.0442 53.7326 28.0442C53.444 28.0442 53.1859 27.9789 52.9583 27.8483C52.7318 27.7177 52.5527 27.5286 52.421 27.281C52.2904 27.0334 52.2251 26.7337 52.2251 26.3818C52.2251 26.0289 52.2914 25.7286 52.4242 25.4811C52.5569 25.2335 52.7371 25.0449 52.9646 24.9153C53.1922 24.7847 53.4482 24.7194 53.7326 24.7194C53.9202 24.7194 54.094 24.7457 54.2541 24.7984C54.4153 24.8511 54.5581 24.928 54.6824 25.0291C54.8067 25.1292 54.9078 25.2519 54.9858 25.3973C55.0648 25.5427 55.1154 25.7092 55.1375 25.8967ZM55.6282 28V24.7636H57.8089V25.3278H56.3124V26.099H57.6967V26.6631H56.3124V27.4358H57.8152V28H55.6282ZM58.3529 28V24.7636H59.0372V27.4358H60.4246V28H58.3529ZM60.8778 28V24.7636H61.562V27.4358H62.9495V28H60.8778ZM64.3093 25.3278V24.7636H66.9673V25.3278H65.9765V28H65.3001V25.3278H64.3093ZM67.405 28V24.7636H68.6819C68.9263 24.7636 69.1349 24.8074 69.3076 24.8948C69.4815 24.9812 69.6137 25.1039 69.7043 25.263C69.7959 25.421 69.8418 25.607 69.8418 25.8208C69.8418 26.0357 69.7954 26.2206 69.7027 26.3755C69.61 26.5293 69.4757 26.6473 69.2997 26.7295C69.1249 26.8116 68.9131 26.8527 68.6645 26.8527H67.8096V26.3028H68.5539C68.6845 26.3028 68.793 26.2849 68.8794 26.2491C68.9658 26.2133 69.03 26.1595 69.0722 26.0879C69.1154 26.0163 69.137 25.9272 69.137 25.8208C69.137 25.7134 69.1154 25.6228 69.0722 25.549C69.03 25.4753 68.9653 25.4194 68.8778 25.3815C68.7914 25.3425 68.6824 25.323 68.5507 25.323H68.0893V28H67.405ZM69.1528 26.5272L69.9571 28H69.2018L68.4148 26.5272H69.1528ZM70.8832 28H70.1499L71.2672 24.7636H72.1489L73.2646 28H72.5314L71.7207 25.5032H71.6954L70.8832 28ZM70.8373 26.7279H72.5693V27.262H70.8373V26.7279ZM76.3611 24.7636V28H75.7701L74.3621 25.9631H74.3384V28H73.6541V24.7636H74.2546L75.6516 26.799H75.68V24.7636H76.3611ZM78.6821 25.6944C78.6695 25.5669 78.6152 25.4679 78.5193 25.3973C78.4235 25.3267 78.2934 25.2914 78.129 25.2914C78.0174 25.2914 77.9231 25.3072 77.8462 25.3388C77.7693 25.3694 77.7103 25.4121 77.6692 25.4669C77.6291 25.5216 77.6091 25.5838 77.6091 25.6533C77.607 25.7113 77.6191 25.7618 77.6455 25.805C77.6729 25.8482 77.7103 25.8856 77.7577 25.9172C77.8051 25.9478 77.8599 25.9746 77.922 25.9978C77.9842 26.0199 78.0505 26.0389 78.1211 26.0547L78.4119 26.1242C78.5531 26.1558 78.6826 26.198 78.8006 26.2507C78.9186 26.3033 79.0208 26.3681 79.1072 26.445C79.1936 26.5219 79.2605 26.6125 79.3079 26.7168C79.3564 26.8211 79.3811 26.9407 79.3822 27.0756C79.3811 27.2736 79.3305 27.4453 79.2305 27.5907C79.1314 27.735 78.9882 27.8472 78.8006 27.9273C78.6142 28.0063 78.3892 28.0458 78.1259 28.0458C77.8646 28.0458 77.637 28.0058 77.4432 27.9257C77.2504 27.8457 77.0998 27.7271 76.9912 27.5702C76.8838 27.4121 76.8274 27.2167 76.8222 26.9839H77.4843C77.4917 27.0924 77.5227 27.183 77.5775 27.2557C77.6334 27.3273 77.7076 27.3816 77.8003 27.4185C77.8941 27.4543 78 27.4722 78.118 27.4722C78.2338 27.4722 78.3345 27.4553 78.4198 27.4216C78.5062 27.3879 78.5731 27.341 78.6205 27.281C78.6679 27.2209 78.6916 27.1519 78.6916 27.074C78.6916 27.0013 78.67 26.9402 78.6268 26.8907C78.5847 26.8411 78.5225 26.799 78.4403 26.7642C78.3592 26.7295 78.2597 26.6979 78.1417 26.6694L77.7893 26.5809C77.5164 26.5146 77.301 26.4108 77.1429 26.2696C76.9849 26.1285 76.9064 25.9383 76.9075 25.6991C76.9064 25.5032 76.9586 25.332 77.0639 25.1856C77.1703 25.0391 77.3162 24.9248 77.5017 24.8426C77.6871 24.7605 77.8978 24.7194 78.1338 24.7194C78.374 24.7194 78.5836 24.7605 78.7627 24.8426C78.9429 24.9248 79.083 25.0391 79.1831 25.1856C79.2831 25.332 79.3348 25.5016 79.3379 25.6944H78.6821ZM79.8424 28V24.7636H81.1193C81.3647 24.7636 81.5738 24.8105 81.7466 24.9043C81.9194 24.997 82.0511 25.126 82.1417 25.2914C82.2333 25.4558 82.2792 25.6454 82.2792 25.8603C82.2792 26.0752 82.2328 26.2649 82.1401 26.4292C82.0474 26.5936 81.9131 26.7216 81.7371 26.8132C81.5623 26.9049 81.3505 26.9507 81.1019 26.9507H80.288V26.4024H80.9913C81.1229 26.4024 81.2315 26.3797 81.3168 26.3344C81.4032 26.2881 81.4674 26.2243 81.5096 26.1432C81.5528 26.061 81.5744 25.9667 81.5744 25.8603C81.5744 25.7529 81.5528 25.6591 81.5096 25.579C81.4674 25.4979 81.4032 25.4352 81.3168 25.391C81.2304 25.3457 81.1208 25.323 80.9881 25.323H80.5267V28H79.8424ZM82.7236 28V24.7636H83.4079V27.4358H84.7953V28H82.7236ZM85.8889 28H85.1556L86.2729 24.7636H87.1547L88.2703 28H87.5371L86.7264 25.5032H86.7011L85.8889 28ZM85.843 26.7279H87.575V27.262H85.843V26.7279ZM91.3668 24.7636V28H90.7758L89.3678 25.9631H89.3441V28H88.6598V24.7636H89.2603L90.6573 26.799H90.6857V24.7636H91.3668ZM91.8089 25.3278V24.7636H94.4669V25.3278H93.4761V28H92.7997V25.3278H91.8089ZM95.067 28H94.3338L95.451 24.7636H96.3328L97.4484 28H96.7152L95.9045 25.5032H95.8792L95.067 28ZM95.0212 26.7279H96.7531V27.262H95.0212V26.7279ZM97.3192 25.3278V24.7636H99.9772V25.3278H98.9864V28H98.3101V25.3278H97.3192ZM101.099 24.7636V28H100.415V24.7636H101.099ZM104.636 26.3818C104.636 26.7347 104.569 27.035 104.436 27.2826C104.303 27.5301 104.122 27.7192 103.892 27.8499C103.663 27.9795 103.406 28.0442 103.121 28.0442C102.833 28.0442 102.575 27.9789 102.346 27.8483C102.118 27.7177 101.937 27.5286 101.804 27.281C101.672 27.0334 101.605 26.7337 101.605 26.3818C101.605 26.0289 101.672 25.7286 101.804 25.4811C101.937 25.2335 102.118 25.0449 102.346 24.9153C102.575 24.7847 102.833 24.7194 103.121 24.7194C103.406 24.7194 103.663 24.7847 103.892 24.9153C104.122 25.0449 104.303 25.2335 104.436 25.4811C104.569 25.7286 104.636 26.0289 104.636 26.3818ZM103.942 26.3818C103.942 26.1532 103.908 25.9604 103.84 25.8034C103.772 25.6465 103.677 25.5274 103.554 25.4463C103.43 25.3652 103.286 25.3246 103.121 25.3246C102.955 25.3246 102.811 25.3652 102.688 25.4463C102.565 25.5274 102.469 25.6465 102.4 25.8034C102.333 25.9604 102.299 26.1532 102.299 26.3818C102.299 26.6104 102.333 26.8032 102.4 26.9602C102.469 27.1172 102.565 27.2362 102.688 27.3173C102.811 27.3984 102.955 27.439 103.121 27.439C103.286 27.439 103.43 27.3984 103.554 27.3173C103.677 27.2362 103.772 27.1172 103.84 26.9602C103.908 26.8032 103.942 26.6104 103.942 26.3818ZM107.85 24.7636V28H107.259L105.851 25.9631H105.827V28H105.143V24.7636H105.744L107.141 26.799H107.169V24.7636H107.85Z" fill="#09193E"/>
</svg>
