<svg width="24" height="24" viewBox="0 0 24 24" fill="none" xmlns="http://www.w3.org/2000/svg">
<rect width="24" height="24" rx="2" fill="white"/>
<mask id="mask0_3_805" style="mask-type:luminance" maskUnits="userSpaceOnUse" x="0" y="0" width="24" height="24">
<rect width="24" height="24" fill="white"/>
</mask>
<g mask="url(#mask0_3_805)">
<rect width="24" height="24" fill="#0A17A7"/>
<path fill-rule="evenodd" clip-rule="evenodd" d="M5.72025 16L-2.37744 23.6467L-1.09929 26.2997L9.14284 16.6279V25.6H14.8571V16.628L25.0992 26.2998L26.3774 23.6468L18.2796 16H24V8H18.2796L26.3774 0.353115L25.0992 -2.2998L14.8571 7.37194V-1.6H9.14284V7.37205L-1.09927 -2.29971L-2.37743 0.353213L5.72031 8H-1.40667e-05V16H5.72025Z" fill="white"/>
<path d="M16.0011 7.59849L26.8571 -2.40015" stroke="#E52C0D" stroke-width="0.666667" stroke-linecap="round"/>
<path d="M17.1538 16.437L26.8857 25.6204" stroke="#E52C0D" stroke-width="0.666667" stroke-linecap="round"/>
<path d="M6.86185 7.57261L-3.28931 -2.00513" stroke="#E52C0D" stroke-width="0.666667" stroke-linecap="round"/>
<path d="M7.96286 16.3258L-3.28931 26.7725" stroke="#E52C0D" stroke-width="0.666667" stroke-linecap="round"/>
<path fill-rule="evenodd" clip-rule="evenodd" d="M0 14.4H10.2857V24H13.7143V14.4H24V9.6H13.7143V0H10.2857V9.6H0V14.4Z" fill="#E52C0D"/>
</g>
</svg>
